<svg width="126" height="111" viewBox="0 0 126 111" fill="none" xmlns="http://www.w3.org/2000/svg">
<circle cx="27" cy="21" r="21" fill="url(#paint0_linear_11_162)"/>
<path d="M41.7857 22.1786C41.7857 31.4096 38.1596 39.8571 28.9286 39.8571C19.6975 39.8571 12.2143 29.8025 12.2143 20.5714C12.2143 11.3404 18.9643 4.17856 29.25 5.78571C39.2143 8.0357 41.7857 12.9475 41.7857 22.1786Z" fill="url(#paint1_linear_11_162)"/>
<circle cx="99" cy="21" r="21" fill="url(#paint2_linear_11_162)"/>
<path d="M114.107 23.1429C114.107 32.3739 103.731 41.1429 94.5 41.1429C85.269 41.1429 84.2143 32.3739 84.2143 23.1429C84.2143 13.9118 89.769 6.42858 99 6.42858C108.231 6.42858 114.107 13.9118 114.107 23.1429Z" fill="url(#paint3_linear_11_162)"/>
<path d="M126 69C126 99.6518 100.122 111 64.5 111C28.8776 111 0 99.6518 0 69C0 38.3482 25.5 4.50002 64.5 4.50002C102 4.50002 126 38.3482 126 69Z" fill="url(#paint4_linear_11_162)"/>
<path d="M82.9286 70.9581C82.9286 80.3642 75.3373 93.1997 63.5848 93.2143C51.0429 93.2298 43.0714 80.3642 43.0714 70.9581C43.0714 61.552 53.4613 57.8571 63 57.8571C72.5387 57.8571 82.9286 61.552 82.9286 70.9581Z" fill="url(#paint5_linear_11_162)"/>
<path d="M68.7857 65.4107C68.7857 67.4078 66.4714 72.6429 62.9751 72.6429C59.4789 72.6429 57.2143 67.4078 57.2143 65.4107C57.2143 63.4136 61.697 63 62.9751 63C64.2533 63 68.7857 63.4136 68.7857 65.4107Z" fill="url(#paint6_linear_11_162)"/>
<ellipse cx="38.8929" cy="51.4286" rx="4.17857" ry="9" fill="url(#paint7_linear_11_162)"/>
<ellipse cx="87.1071" cy="51.4286" rx="4.17857" ry="9" fill="url(#paint8_linear_11_162)"/>
<path d="M64.9287 75.0658C64.9287 78.9712 64.9287 81.1729 63.3216 81.1729C61.7144 81.1729 61.7144 78.9712 61.7144 75.0658C61.7144 71.1603 62.434 67.9943 63.3216 67.9943C64.2092 67.9943 64.9287 71.1603 64.9287 75.0658Z" fill="#3A2934"/>
<path d="M56.2188 78.7605C55.8695 77.7126 54.7369 77.1462 53.689 77.4955C52.6411 77.8448 52.0748 78.9774 52.4241 80.0253L54.3215 79.3929L56.2188 78.7605ZM54.3215 79.3929C52.4241 80.0253 52.4244 80.0262 52.4246 80.027C52.4248 80.0273 52.425 80.0282 52.4252 80.0288C52.4256 80.03 52.4261 80.0313 52.4265 80.0326C52.4274 80.0352 52.4283 80.038 52.4293 80.0409C52.4314 80.0469 52.4337 80.0536 52.4363 80.061C52.4414 80.0758 52.4478 80.0935 52.4552 80.1139C52.4702 80.1546 52.4899 80.2064 52.5146 80.2676C52.564 80.3896 52.6344 80.5511 52.7285 80.7393C52.9144 81.1111 53.2051 81.6113 53.6287 82.1197C54.4883 83.1512 55.9699 84.2857 58.1786 84.2857L58.1786 82.2857L58.1786 80.2857C57.4943 80.2857 57.0474 79.9739 56.7016 79.559C56.5226 79.3441 56.3915 79.1211 56.3062 78.9505C56.2647 78.8674 56.2371 78.803 56.2224 78.7668C56.2152 78.7489 56.2113 78.7385 56.2107 78.7369C56.2105 78.7361 56.211 78.7375 56.2123 78.7414C56.213 78.7433 56.2139 78.7459 56.215 78.749C56.2155 78.7506 56.2161 78.7524 56.2168 78.7543C56.2171 78.7552 56.2174 78.7562 56.2178 78.7572C56.2179 78.7578 56.2182 78.7586 56.2183 78.7588C56.2186 78.7596 56.2188 78.7605 54.3215 79.3929ZM58.1786 82.2857L58.1786 84.2857C60.1002 84.2857 61.8965 83.5444 63.1002 82.9155C63.7249 82.5891 64.2446 82.2639 64.6106 82.0186C64.7945 81.8953 64.9418 81.7908 65.0467 81.7143C65.0992 81.676 65.1413 81.6447 65.1721 81.6214C65.1876 81.6097 65.2002 81.6001 65.21 81.5926C65.2148 81.5888 65.219 81.5856 65.2224 81.5829C65.2242 81.5816 65.2257 81.5804 65.227 81.5794C65.2277 81.5788 65.2283 81.5783 65.2289 81.5779C65.2292 81.5777 65.2296 81.5773 65.2298 81.5772C65.2302 81.5769 65.2305 81.5766 64 80C62.7695 78.4234 62.7698 78.4231 62.7702 78.4228C62.7703 78.4227 62.7706 78.4225 62.7708 78.4223C62.7712 78.422 62.7716 78.4217 62.7719 78.4215C62.7725 78.421 62.773 78.4206 62.7733 78.4204C62.7739 78.4199 62.7738 78.42 62.7731 78.4206C62.7716 78.4217 62.7674 78.4249 62.7607 78.43C62.7472 78.4402 62.7235 78.4579 62.6903 78.4821C62.6237 78.5306 62.5197 78.6047 62.3838 78.6957C62.1103 78.879 61.717 79.1252 61.248 79.3702C60.2642 79.8842 59.1498 80.2857 58.1786 80.2857L58.1786 82.2857Z" fill="#3A2934"/>
<path d="M69.7812 78.8514C70.1304 77.8035 71.2631 77.2371 72.311 77.5864C73.3589 77.9357 73.9252 79.0684 73.5759 80.1162L71.6785 79.4838L69.7812 78.8514ZM71.6785 79.4838C73.5759 80.1162 73.5756 80.1171 73.5753 80.118C73.5752 80.1183 73.5749 80.1191 73.5747 80.1197C73.5743 80.1209 73.5739 80.1222 73.5735 80.1235C73.5726 80.1261 73.5717 80.1289 73.5706 80.1318C73.5686 80.1378 73.5663 80.1445 73.5637 80.1519C73.5585 80.1667 73.5522 80.1844 73.5448 80.2048C73.5298 80.2456 73.5101 80.2973 73.4853 80.3585C73.436 80.4805 73.3656 80.6421 73.2715 80.8302C73.0856 81.2021 72.7949 81.7022 72.3712 82.2106C71.5117 83.2421 70.03 84.3767 67.8214 84.3767L67.8214 82.3767L67.8214 80.3767C68.5057 80.3767 68.9526 80.0648 69.2983 79.6499C69.4774 79.435 69.6085 79.212 69.6938 79.0414C69.7353 78.9584 69.7629 78.8939 69.7775 78.8577C69.7848 78.8398 69.7886 78.8294 69.7892 78.8278C69.7895 78.827 69.789 78.8285 69.7876 78.8323C69.787 78.8343 69.7861 78.8368 69.785 78.84C69.7845 78.8415 69.7839 78.8433 69.7832 78.8452C69.7829 78.8461 69.7826 78.8471 69.7822 78.8482C69.7821 78.8487 69.7818 78.8495 69.7817 78.8497C69.7814 78.8505 69.7812 78.8514 71.6785 79.4838ZM67.8214 82.3767L67.8214 84.3767C65.8509 84.3767 64.2616 83.6125 63.2165 82.9158C62.6871 82.5628 62.2708 82.21 61.9819 81.9403C61.8367 81.8048 61.7213 81.6881 61.6378 81.6001C61.5959 81.556 61.5618 81.5189 61.5358 81.4899C61.5227 81.4754 61.5117 81.4629 61.5026 81.4526C61.4981 81.4474 61.4941 81.4428 61.4905 81.4388C61.4888 81.4367 61.4871 81.4348 61.4856 81.4331C61.4849 81.4322 61.4841 81.4314 61.4835 81.4306C61.4831 81.4302 61.4826 81.4296 61.4824 81.4294C61.482 81.4288 61.4815 81.4283 63 80.1267C64.5185 78.8251 64.518 78.8245 64.5176 78.824C64.5174 78.8238 64.517 78.8233 64.5167 78.823C64.5161 78.8223 64.5156 78.8217 64.515 78.8211C64.514 78.8199 64.5131 78.8188 64.5123 78.8178C64.5106 78.8159 64.5094 78.8146 64.5086 78.8137C64.507 78.8119 64.5071 78.812 64.5089 78.814C64.5125 78.818 64.5227 78.8292 64.5392 78.8466C64.5724 78.8816 64.6304 78.9407 64.7112 79.0161C64.8743 79.1684 65.1209 79.378 65.4353 79.5876C66.0777 80.0158 66.8991 80.3767 67.8214 80.3767L67.8214 82.3767Z" fill="#3A2934"/>
<ellipse cx="99.6786" cy="67.8214" rx="8.03571" ry="4.82143" fill="url(#paint9_linear_11_162)"/>
<ellipse cx="27.0357" cy="67.8214" rx="8.03571" ry="4.82143" fill="url(#paint10_linear_11_162)"/>
<defs>
<linearGradient id="paint0_linear_11_162" x1="27" y1="2.3827e-05" x2="11.2499" y2="34.3929" gradientUnits="userSpaceOnUse">
<stop stop-color="#B18073"/>
<stop offset="1" stop-color="#81524F"/>
</linearGradient>
<linearGradient id="paint1_linear_11_162" x1="28.9286" y1="6.42856" x2="16.3928" y2="33.8025" gradientUnits="userSpaceOnUse">
<stop stop-color="#F9D49A"/>
<stop offset="1" stop-color="#F3968E"/>
</linearGradient>
<linearGradient id="paint2_linear_11_162" x1="99" y1="2.28882e-05" x2="111.857" y2="33.1071" gradientUnits="userSpaceOnUse">
<stop stop-color="#B18073"/>
<stop offset="1" stop-color="#81524F"/>
</linearGradient>
<linearGradient id="paint3_linear_11_162" x1="99" y1="6.42858" x2="86.4642" y2="33.8025" gradientUnits="userSpaceOnUse">
<stop stop-color="#F9D49A"/>
<stop offset="1" stop-color="#F3968E"/>
</linearGradient>
<linearGradient id="paint4_linear_11_162" x1="70.0714" y1="4.5" x2="65.25" y2="111.214" gradientUnits="userSpaceOnUse">
<stop stop-color="#B48074"/>
<stop offset="1" stop-color="#59413D"/>
</linearGradient>
<linearGradient id="paint5_linear_11_162" x1="75.2143" y1="60.1071" x2="63" y2="104.464" gradientUnits="userSpaceOnUse">
<stop stop-color="#F9D49A"/>
<stop offset="1" stop-color="#F3968E"/>
</linearGradient>
<linearGradient id="paint6_linear_11_162" x1="63" y1="63" x2="63" y2="72.6429" gradientUnits="userSpaceOnUse">
<stop stop-color="#4F4F4F"/>
<stop offset="0.408654" stop-color="#3A2934"/>
</linearGradient>
<linearGradient id="paint7_linear_11_162" x1="38.8929" y1="42.4286" x2="38.8929" y2="60.4286" gradientUnits="userSpaceOnUse">
<stop stop-color="#494448"/>
<stop offset="0.399038" stop-color="#3A2934"/>
</linearGradient>
<linearGradient id="paint8_linear_11_162" x1="87.1071" y1="42.4286" x2="87.1071" y2="60.4286" gradientUnits="userSpaceOnUse">
<stop stop-color="#494448"/>
<stop offset="0.399038" stop-color="#3A2934"/>
</linearGradient>
<linearGradient id="paint9_linear_11_162" x1="99.6786" y1="63" x2="99.6786" y2="72.6429" gradientUnits="userSpaceOnUse">
<stop stop-color="#FFC3C3"/>
<stop offset="1" stop-color="#FF8888"/>
</linearGradient>
<linearGradient id="paint10_linear_11_162" x1="27.0357" y1="63" x2="27.0357" y2="72.6429" gradientUnits="userSpaceOnUse">
<stop stop-color="#FFC3C3"/>
<stop offset="1" stop-color="#FF8888"/>
</linearGradient>
</defs>
</svg>
