<?xml version="1.0" encoding="UTF-8"?>
<svg xmlns="http://www.w3.org/2000/svg" xmlns:xlink="http://www.w3.org/1999/xlink" width="100px" height="100px" viewBox="0 0 100 100" version="1.1">
<g id="surface1">
<path style=" stroke:none;fill-rule:nonzero;fill:rgb(0%,0%,0%);fill-opacity:1;" d="M 47.71875 8.921875 C 60.929688 8.523438 72.300781 13.144531 82.109375 22 C 89.15625 28.707031 94.492188 39.179688 95.089844 48.953125 C 95.230469 55.910156 95.351562 62.382812 93 69 C 92.8125 69.527344 92.625 70.058594 92.433594 70.601562 C 89.277344 78.746094 84.023438 85.75 77 91 C 76.671875 91 76.339844 91 76 91 C 75.75 90.46875 75.503906 89.9375 75.25 89.390625 C 71.5625 81.660156 67.285156 76.6875 59.066406 73.5 C 51.632812 71.121094 44.125 71.675781 37.15625 75.175781 C 30.816406 78.796875 26.175781 83.925781 24 91 C 21.621094 89.917969 19.910156 88.25 18 86.5 C 17.710938 86.25 17.421875 85.996094 17.121094 85.738281 C 10.214844 79.410156 5.457031 68.757812 4.914062 59.507812 C 4.316406 44.957031 7.71875 33.519531 17.414062 22.453125 C 25.160156 14.222656 36.515625 9.429688 47.71875 8.921875 Z M 36.5 37.5 C 33.800781 41.820312 32.257812 46.097656 33.230469 51.210938 C 34.609375 56.4375 37.429688 60.128906 42 63 C 46.335938 65.261719 50.863281 65.386719 55.5 64 C 60.523438 62.105469 63.671875 58.792969 66 54 C 67.710938 49.519531 67.21875 45.355469 65.5 41 C 63.53125 36.785156 60.152344 33.515625 55.84375 31.75 C 48.394531 29.421875 41.511719 31.578125 36.5 37.5 Z M 36.5 37.5 "/>
</g>
</svg>
