<svg width="13" height="13" viewBox="0 0 13 13" fill="none" xmlns="http://www.w3.org/2000/svg">
<g clip-path="url(#clip0_33_207)">
<path d="M6.10163 1.21502C6.12483 1.16815 6.16067 1.12869 6.2051 1.1011C6.24954 1.07352 6.3008 1.0589 6.3531 1.0589C6.40541 1.0589 6.45667 1.07352 6.5011 1.1011C6.54554 1.12869 6.58138 1.16815 6.60458 1.21502L7.82755 3.69219C7.90811 3.85524 8.02704 3.9963 8.17412 4.10326C8.3212 4.21023 8.49204 4.27991 8.67197 4.30632L11.407 4.70657C11.4588 4.71407 11.5075 4.73593 11.5475 4.76967C11.5876 4.80341 11.6174 4.84768 11.6336 4.89748C11.6498 4.94728 11.6517 5.00061 11.6392 5.05145C11.6266 5.10229 11.6001 5.14861 11.5626 5.18516L9.5847 7.1112C9.45426 7.23832 9.35666 7.39523 9.30031 7.56843C9.24396 7.74163 9.23055 7.92593 9.26122 8.10546L9.72817 10.8267C9.73732 10.8785 9.73173 10.9318 9.71203 10.9806C9.69232 11.0294 9.65931 11.0716 9.61675 11.1025C9.5742 11.1334 9.52381 11.1518 9.47133 11.1554C9.41886 11.1591 9.36642 11.1479 9.31999 11.1232L6.87511 9.83773C6.71402 9.75314 6.53479 9.70895 6.35284 9.70895C6.17089 9.70895 5.99166 9.75314 5.83056 9.83773L3.38622 11.1232C3.3398 11.1477 3.28743 11.1588 3.23504 11.1551C3.18266 11.1513 3.13237 11.133 3.0899 11.1021C3.04743 11.0712 3.01447 11.029 2.99479 10.9803C2.97511 10.9317 2.96949 10.8784 2.97856 10.8267L3.44498 8.10599C3.47579 7.92637 3.46245 7.74196 3.40609 7.56865C3.34974 7.39534 3.25207 7.23835 3.12151 7.1112L1.14358 5.18569C1.10578 5.14918 1.07899 5.10278 1.06627 5.05179C1.05354 5.00079 1.0554 4.94725 1.07162 4.89726C1.08785 4.84727 1.11778 4.80284 1.15802 4.76903C1.19827 4.73522 1.24719 4.71339 1.29923 4.70604L4.0337 4.30632C4.21384 4.28012 4.38492 4.21053 4.5322 4.10355C4.67948 3.99657 4.79856 3.8554 4.87919 3.69219L6.10163 1.21502Z" fill="url(#paint0_linear_33_207)" stroke="url(#paint1_linear_33_207)" stroke-width="2" stroke-linecap="round" stroke-linejoin="round"/>
</g>
<g clip-path="url(#clip1_33_207)">
<path d="M6.60455 1.21504C6.58135 1.16817 6.5455 1.12871 6.50107 1.10112C6.27238 1.00288 6.27238 1.10113 6.27238 1.10113C6.01096 1.41629 6.71399 9.75316 6.87508 9.83775L9.31996 11.1232C9.36638 11.1479 9.41883 11.1591 9.4713 11.1554C9.52377 11.1518 9.57416 11.1334 9.61672 11.1025C9.65928 11.0716 9.69229 11.0294 9.71199 10.9806C9.73169 10.9318 9.73729 10.8785 9.72814 10.8267L9.26119 8.10548C9.23051 7.92594 9.24393 7.74165 9.30028 7.56845C9.35663 7.39525 9.45423 7.23834 9.58467 7.11122L11.5626 5.18518C11.6001 5.14863 11.6266 5.10231 11.6391 5.05147C11.6517 5.00063 11.6497 4.94729 11.6335 4.8975C11.6173 4.8477 11.5875 4.80343 11.5475 4.76969C11.5075 4.73595 11.4588 4.71409 11.4069 4.70658L8.67194 4.30634C8.492 4.27993 8.32117 4.21025 8.17409 4.10328C8.02701 3.99632 7.90808 3.85526 7.82751 3.69221L6.60455 1.21504Z" fill="#929292" stroke="#929292" stroke-width="2" stroke-linecap="round" stroke-linejoin="round"/>
</g>
<defs>
<linearGradient id="paint0_linear_33_207" x1="6.35263" y1="1.0589" x2="6.35263" y2="11.1561" gradientUnits="userSpaceOnUse">
<stop stop-color="#FDC700"/>
<stop offset="1" stop-color="#FFE06D"/>
</linearGradient>
<linearGradient id="paint1_linear_33_207" x1="6.35263" y1="1.0589" x2="6.35263" y2="11.1561" gradientUnits="userSpaceOnUse">
<stop stop-color="#FDC700"/>
<stop offset="1" stop-color="#FFE06D"/>
</linearGradient>
<clipPath id="clip0_33_207">
<rect width="12.7061" height="12.7061" fill="white"/>
</clipPath>
<clipPath id="clip1_33_207">
<rect width="12.7061" height="12.7061" fill="white"/>
</clipPath>
</defs>
</svg>
