<svg width="30" height="30" viewBox="0 0 30 30" fill="none" xmlns="http://www.w3.org/2000/svg">
<path d="M3.75 12.5C3.74991 12.1363 3.82917 11.777 3.98223 11.4471C4.1353 11.1173 4.3585 10.8247 4.63625 10.59L13.3862 3.08999C13.8375 2.70862 14.4092 2.49939 15 2.49939C15.5908 2.49939 16.1625 2.70862 16.6138 3.08999L25.3638 10.59C25.6415 10.8247 25.8647 11.1173 26.0178 11.4471C26.1708 11.777 26.2501 12.1363 26.25 12.5V23.75C26.25 24.413 25.9866 25.0489 25.5178 25.5178C25.0489 25.9866 24.413 26.25 23.75 26.25H6.25C5.58696 26.25 4.95107 25.9866 4.48223 25.5178C4.01339 25.0489 3.75 24.413 3.75 23.75V12.5Z" fill="white" stroke="#295298" stroke-width="2" stroke-linecap="round" stroke-linejoin="round"/>
<path d="M19 25V16.1111C19 15.8164 18.8595 15.5338 18.6095 15.3254C18.3594 15.1171 18.0203 15 17.6667 15H12.3333C11.9797 15 11.6406 15.1171 11.3905 15.3254C11.1405 15.5338 11 15.8164 11 16.1111V25" fill="white"/>
<path d="M19 25V16.1111C19 15.8164 18.8595 15.5338 18.6095 15.3254C18.3594 15.1171 18.0203 15 17.6667 15H12.3333C11.9797 15 11.6406 15.1171 11.3905 15.3254C11.1405 15.5338 11 15.8164 11 16.1111V25" stroke="#295298" stroke-width="2" stroke-linecap="round" stroke-linejoin="round"/>
</svg>
