<svg width="30" height="30" viewBox="0 0 30 30" fill="none" xmlns="http://www.w3.org/2000/svg">
<path d="M15 27.5C21.9036 27.5 27.5 21.9036 27.5 15C27.5 8.09644 21.9036 2.5 15 2.5C8.09644 2.5 2.5 8.09644 2.5 15C2.5 21.9036 8.09644 27.5 15 27.5Z" fill="white" stroke="#295298" stroke-width="2" stroke-linecap="round" stroke-linejoin="round"/>
<path d="M15 16.25C17.0711 16.25 18.75 14.5711 18.75 12.5C18.75 10.4289 17.0711 8.75 15 8.75C12.9289 8.75 11.25 10.4289 11.25 12.5C11.25 14.5711 12.9289 16.25 15 16.25Z" fill="white" stroke="#295298" stroke-width="2" stroke-linecap="round" stroke-linejoin="round"/>
<path d="M8 24V21.7307C8 21.0065 8.295 20.3119 8.8201 19.7998C9.3452 19.2877 10.0574 19 10.8 19H19.2C19.9426 19 20.6548 19.2877 21.1799 19.7998C21.705 20.3119 22 21.0065 22 21.7307V24" fill="white"/>
<path d="M8 24V21.7307C8 21.0065 8.295 20.3119 8.8201 19.7998C9.3452 19.2877 10.0574 19 10.8 19H19.2C19.9426 19 20.6548 19.2877 21.1799 19.7998C21.705 20.3119 22 21.0065 22 21.7307V24" stroke="#295298" stroke-width="2" stroke-linecap="round" stroke-linejoin="round"/>
</svg>
