<svg width="24" height="24" viewBox="0 0 24 24" fill="none" xmlns="http://www.w3.org/2000/svg">
<path d="M11.525 2.29499C11.5689 2.20645 11.6365 2.13192 11.7205 2.07981C11.8044 2.0277 11.9012 2.00009 12 2.00009C12.0988 2.00009 12.1956 2.0277 12.2796 2.07981C12.3635 2.13192 12.4312 2.20645 12.475 2.29499L14.785 6.97399C14.9372 7.28195 15.1618 7.54839 15.4397 7.75044C15.7175 7.95248 16.0402 8.0841 16.38 8.13399L21.546 8.88999C21.6439 8.90417 21.7359 8.94546 21.8115 9.00918C21.8872 9.07291 21.9435 9.15653 21.974 9.25059C22.0046 9.34465 22.0083 9.44539 21.9846 9.54142C21.9609 9.63745 21.9108 9.72494 21.84 9.79398L18.104 13.432C17.8576 13.6721 17.6733 13.9685 17.5669 14.2956C17.4604 14.6228 17.4351 14.9709 17.493 15.31L18.375 20.45C18.3923 20.5478 18.3817 20.6485 18.3445 20.7407C18.3073 20.8328 18.245 20.9126 18.1646 20.971C18.0842 21.0294 17.989 21.064 17.8899 21.0709C17.7908 21.0778 17.6917 21.0567 17.604 21.01L12.986 18.582C12.6817 18.4222 12.3432 18.3387 11.9995 18.3387C11.6559 18.3387 11.3173 18.4222 11.013 18.582L6.39603 21.01C6.30836 21.0564 6.20943 21.0773 6.11048 21.0702C6.01153 21.0632 5.91655 21.0285 5.83632 20.9702C5.7561 20.9119 5.69386 20.8322 5.65669 20.7402C5.61951 20.6482 5.60889 20.5477 5.62603 20.45L6.50703 15.311C6.56523 14.9717 6.54001 14.6234 6.43357 14.296C6.32712 13.9687 6.14264 13.6721 5.89603 13.432L2.16003 9.79499C2.08862 9.72602 2.03802 9.63838 2.01399 9.54206C1.98996 9.44574 1.99347 9.3446 2.02411 9.25018C2.05475 9.15575 2.1113 9.07183 2.18731 9.00797C2.26332 8.94411 2.35573 8.90288 2.45403 8.88899L7.61903 8.13399C7.95929 8.08448 8.28242 7.95304 8.56061 7.75097C8.83881 7.5489 9.06373 7.28226 9.21603 6.97399L11.525 2.29499Z" fill="url(#paint0_linear_71_157)" stroke="url(#paint1_linear_71_157)" stroke-width="2" stroke-linecap="round" stroke-linejoin="round"/>
<defs>
<linearGradient id="paint0_linear_71_157" x1="11.9991" y1="2.00009" x2="11.9991" y2="21.0722" gradientUnits="userSpaceOnUse">
<stop stop-color="#FDC700"/>
<stop offset="1" stop-color="#FFDF68"/>
</linearGradient>
<linearGradient id="paint1_linear_71_157" x1="11.9991" y1="2.00009" x2="11.9991" y2="21.0722" gradientUnits="userSpaceOnUse">
<stop stop-color="#FDC700"/>
<stop offset="1" stop-color="#FFDF68"/>
</linearGradient>
</defs>
</svg>
