<?xml version="1.0" encoding="UTF-8"?>
<svg xmlns="http://www.w3.org/2000/svg" xmlns:xlink="http://www.w3.org/1999/xlink" width="50px" height="px" viewBox="0 0 50 77" version="1.1">
<g id="surface1">
<path style=" stroke:none;fill-rule:nonzero;fill:rgb(40.000001%,56.470591%,70.19608%);fill-opacity:1;" d="M 25.953125 0.128906 C 27.046875 0.632812 28.199219 1.351562 29.027344 2.234375 C 29.605469 2.527344 30.152344 2.285156 30.761719 2.132812 C 34 1.417969 34 1.417969 35.148438 1.980469 C 35.503906 2.292969 35.730469 2.609375 35.992188 3.007812 C 36.0625 3.113281 36.132812 3.21875 36.203125 3.324219 C 37.652344 5.550781 37.652344 5.550781 37.652344 6.015625 C 37.90625 6.007812 37.90625 6.007812 38.167969 6 C 38.875 6 39.523438 6.121094 40.210938 6.277344 C 40.324219 6.300781 40.4375 6.324219 40.554688 6.351562 C 41.539062 6.570312 42.472656 6.847656 43.121094 7.652344 C 43.808594 9.074219 43.902344 10.777344 43.976562 12.332031 C 44.105469 12.371094 44.238281 12.410156 44.375 12.449219 C 45.722656 12.9375 47.324219 14.039062 48.191406 15.1875 C 48.398438 16.082031 48.316406 16.835938 48.144531 17.726562 C 48.117188 17.90625 48.117188 17.90625 48.085938 18.085938 C 47.972656 18.71875 47.828125 19.3125 47.636719 19.925781 C 47.542969 20.390625 47.554688 20.542969 47.796875 20.953125 C 48.003906 21.203125 48.21875 21.449219 48.4375 21.691406 C 49.175781 22.546875 50.03125 23.742188 50.152344 24.890625 C 50.03125 26.019531 49.179688 27.25 48.425781 28.074219 C 47.785156 28.757812 47.785156 28.757812 47.59375 29.648438 C 47.699219 30.398438 47.902344 31.121094 48.105469 31.847656 C 48.347656 32.765625 48.429688 33.640625 48.203125 34.5625 C 47.378906 35.828125 45.816406 36.878906 44.410156 37.417969 C 44.097656 37.574219 44.097656 37.574219 44.011719 37.910156 C 43.992188 38.039062 43.976562 38.167969 43.957031 38.296875 C 43.933594 38.4375 43.910156 38.582031 43.890625 38.726562 C 43.867188 38.875 43.847656 39.023438 43.824219 39.175781 C 43.40625 42.0625 43.40625 42.0625 42.46875 42.859375 C 41.527344 43.339844 40.507812 43.535156 39.472656 43.707031 C 39.355469 43.726562 39.238281 43.746094 39.117188 43.769531 C 38.828125 43.816406 38.539062 43.867188 38.253906 43.914062 C 39.230469 47.757812 40.25 51.59375 41.285156 55.421875 C 41.492188 56.183594 41.695312 56.949219 41.902344 57.710938 C 42.574219 60.199219 43.242188 62.6875 43.917969 65.171875 C 44.175781 66.132812 44.4375 67.097656 44.695312 68.058594 C 44.871094 68.710938 45.050781 69.363281 45.226562 70.015625 C 45.308594 70.320312 45.390625 70.621094 45.472656 70.921875 C 45.570312 71.285156 45.667969 71.648438 45.765625 72.011719 C 45.808594 72.167969 45.851562 72.324219 45.894531 72.484375 C 45.933594 72.621094 45.96875 72.757812 46.007812 72.898438 C 46.085938 73.242188 46.085938 73.242188 46.085938 73.691406 C 45.660156 73.492188 45.285156 73.265625 44.910156 72.984375 C 44.796875 72.902344 44.6875 72.820312 44.570312 72.738281 C 44.453125 72.648438 44.332031 72.5625 44.210938 72.46875 C 44.085938 72.378906 43.960938 72.285156 43.832031 72.191406 C 42.734375 71.375 41.648438 70.546875 40.5625 69.71875 C 39.652344 69.023438 38.734375 68.339844 37.800781 67.675781 C 37.265625 68.714844 36.78125 69.769531 36.328125 70.847656 C 36.261719 71 36.195312 71.152344 36.128906 71.308594 C 35.921875 71.792969 35.71875 72.277344 35.515625 72.761719 C 35.375 73.089844 35.234375 73.414062 35.097656 73.742188 C 34.84375 74.339844 34.589844 74.9375 34.335938 75.539062 C 34.285156 75.65625 34.234375 75.777344 34.183594 75.898438 C 34.027344 76.265625 33.882812 76.632812 33.734375 77 C 33.636719 77 33.535156 77 33.433594 77 C 32.527344 73.746094 31.644531 70.484375 30.773438 67.222656 C 30.480469 66.140625 30.191406 65.058594 29.902344 63.976562 C 29.828125 63.703125 29.753906 63.429688 29.679688 63.152344 C 29.1875 61.316406 28.691406 59.480469 28.195312 57.644531 C 28.003906 56.941406 27.8125 56.238281 27.625 55.535156 C 27.445312 54.875 27.265625 54.214844 27.085938 53.554688 C 27.003906 53.25 26.917969 52.941406 26.835938 52.632812 C 26.734375 52.261719 26.636719 51.890625 26.535156 51.519531 C 26.488281 51.359375 26.445312 51.195312 26.402344 51.027344 C 26.363281 50.886719 26.324219 50.746094 26.285156 50.601562 C 26.203125 50.230469 26.203125 50.230469 26.203125 49.628906 C 26.109375 49.679688 26.011719 49.734375 25.914062 49.789062 C 25.222656 50 24.449219 49.953125 23.796875 49.628906 C 23.757812 49.785156 23.722656 49.9375 23.6875 50.097656 C 23.328125 51.648438 22.9375 53.183594 22.519531 54.71875 C 22.457031 54.960938 22.390625 55.203125 22.324219 55.445312 C 22.152344 56.089844 21.976562 56.734375 21.804688 57.378906 C 21.621094 58.054688 21.4375 58.730469 21.257812 59.40625 C 20.953125 60.535156 20.648438 61.664062 20.34375 62.792969 C 19.921875 64.363281 19.496094 65.933594 19.074219 67.503906 C 18.785156 68.582031 18.496094 69.660156 18.207031 70.734375 C 18.101562 71.125 17.996094 71.515625 17.890625 71.902344 C 17.726562 72.515625 17.5625 73.125 17.398438 73.734375 C 17.339844 73.957031 17.277344 74.179688 17.21875 74.402344 C 17.136719 74.707031 17.054688 75.011719 16.972656 75.316406 C 16.925781 75.484375 16.878906 75.65625 16.832031 75.832031 C 16.75 76.121094 16.660156 76.414062 16.566406 76.699219 C 16.46875 76.699219 16.367188 76.699219 16.265625 76.699219 C 16.195312 76.535156 16.125 76.367188 16.050781 76.195312 C 14.207031 71.859375 14.207031 71.859375 12.347656 67.523438 C 11.824219 67.523438 11.742188 67.605469 11.34375 67.921875 C 11.238281 68.007812 11.128906 68.09375 11.015625 68.183594 C 10.898438 68.277344 10.785156 68.367188 10.664062 68.464844 C 10.417969 68.660156 10.171875 68.855469 9.925781 69.050781 C 9.800781 69.148438 9.675781 69.246094 9.550781 69.347656 C 8.738281 69.984375 7.910156 70.59375 7.082031 71.207031 C 6.757812 71.453125 6.429688 71.699219 6.105469 71.945312 C 5.996094 72.027344 5.886719 72.109375 5.773438 72.195312 C 5.5625 72.355469 5.351562 72.515625 5.140625 72.675781 C 4.734375 72.984375 4.402344 73.230469 3.914062 73.390625 C 4.121094 72.128906 4.421875 70.90625 4.761719 69.675781 C 4.816406 69.46875 4.875 69.261719 4.929688 69.058594 C 5.050781 68.613281 5.171875 68.167969 5.292969 67.722656 C 5.597656 66.621094 5.894531 65.523438 6.191406 64.425781 C 6.265625 64.160156 6.335938 63.894531 6.410156 63.628906 C 7.425781 59.894531 8.421875 56.15625 9.421875 52.421875 C 9.511719 52.082031 9.605469 51.742188 9.695312 51.398438 C 9.761719 51.152344 9.761719 51.152344 9.828125 50.898438 C 9.960938 50.410156 10.089844 49.921875 10.21875 49.433594 C 10.378906 48.835938 10.539062 48.238281 10.699219 47.636719 C 11.046875 46.34375 11.390625 45.054688 11.746094 43.765625 C 11.597656 43.769531 11.453125 43.773438 11.300781 43.78125 C 10.648438 43.78125 10.046875 43.652344 9.414062 43.5 C 9.304688 43.476562 9.195312 43.453125 9.082031 43.429688 C 8.359375 43.257812 7.628906 43.078125 7.078125 42.5625 C 6.542969 41.6875 6.40625 40.742188 6.292969 39.738281 C 6.171875 38.375 6.171875 38.375 5.53125 37.21875 C 5.125 37.003906 5.125 37.003906 4.683594 36.863281 C 4.128906 36.664062 3.707031 36.363281 3.246094 36.007812 C 3.101562 35.902344 2.957031 35.792969 2.804688 35.679688 C 2.105469 35.082031 1.734375 34.65625 1.65625 33.707031 C 1.65625 33.167969 1.746094 32.65625 1.855469 32.128906 C 1.875 32.023438 1.894531 31.917969 1.914062 31.8125 C 1.933594 31.707031 1.953125 31.601562 1.976562 31.492188 C 1.996094 31.386719 2.015625 31.28125 2.035156 31.167969 C 2.109375 30.828125 2.109375 30.828125 2.222656 30.460938 C 2.429688 29.71875 2.429688 29.71875 2.273438 28.988281 C 2.054688 28.648438 1.820312 28.339844 1.5625 28.027344 C 1.398438 27.816406 1.230469 27.605469 1.066406 27.394531 C 0.988281 27.289062 0.90625 27.1875 0.824219 27.082031 C 0.273438 26.308594 -0.128906 25.542969 -0.0742188 24.574219 C 0.199219 23.265625 1.167969 22.164062 1.980469 21.132812 C 2.28125 20.765625 2.28125 20.765625 2.410156 20.300781 C 2.324219 19.902344 2.230469 19.511719 2.128906 19.117188 C 1.378906 16.117188 1.378906 16.117188 1.957031 15.039062 C 2.953125 13.914062 4.386719 13.015625 5.722656 12.332031 C 5.824219 12.332031 5.921875 12.332031 6.023438 12.332031 C 6.03125 12.144531 6.03125 12.144531 6.035156 11.949219 C 6.117188 10.285156 6.289062 8.40625 7.378906 7.070312 C 8.097656 6.601562 8.875 6.460938 9.703125 6.296875 C 9.828125 6.273438 9.953125 6.246094 10.078125 6.21875 C 10.199219 6.195312 10.320312 6.171875 10.449219 6.144531 C 10.566406 6.121094 10.683594 6.097656 10.808594 6.074219 C 11.144531 6.015625 11.144531 6.015625 11.714844 5.992188 C 12.246094 5.851562 12.296875 5.808594 12.582031 5.378906 C 12.703125 5.167969 12.820312 4.957031 12.933594 4.746094 C 13.578125 3.625 14.292969 2.722656 15.210938 1.804688 C 16.460938 1.703125 17.5625 1.769531 18.769531 2.097656 C 19.84375 2.417969 19.84375 2.417969 20.925781 2.300781 C 21.472656 1.976562 21.914062 1.542969 22.367188 1.101562 C 23.351562 0.222656 24.675781 -0.339844 25.953125 0.128906 Z M 25.953125 0.128906 "/>
<path style=" stroke:none;fill-rule:nonzero;fill:rgb(63.137257%,81.568629%,92.941177%);fill-opacity:1;" d="M 34.78125 11.308594 C 38.449219 14.148438 41.011719 17.902344 41.648438 22.574219 C 41.917969 25.039062 41.835938 27.5 41.039062 29.851562 C 40.984375 30.011719 40.933594 30.167969 40.878906 30.332031 C 40.140625 32.441406 39.183594 34.300781 37.652344 35.945312 C 37.542969 36.0625 37.542969 36.0625 37.433594 36.179688 C 35.0625 38.730469 32.265625 40.300781 28.914062 41.207031 C 28.816406 41.234375 28.71875 41.261719 28.617188 41.289062 C 27.570312 41.570312 26.53125 41.613281 25.453125 41.65625 C 25.234375 41.667969 25.234375 41.667969 25.011719 41.675781 C 20.621094 41.773438 16.503906 39.941406 13.355469 36.980469 C 12.394531 36.058594 11.527344 35.136719 10.84375 33.988281 C 10.792969 33.902344 10.738281 33.816406 10.6875 33.726562 C 9.917969 32.441406 9.34375 31.128906 8.886719 29.703125 C 8.839844 29.566406 8.796875 29.429688 8.753906 29.289062 C 7.53125 25.269531 8.253906 20.609375 10.199219 16.949219 C 12.367188 13.023438 15.96875 10.132812 20.25 8.8125 C 25.152344 7.410156 30.652344 8.308594 34.78125 11.308594 Z M 34.78125 11.308594 "/>
<path style=" stroke:none;fill-rule:nonzero;fill:rgb(37.64706%,58.431375%,78.823531%);fill-opacity:1;" d="M 25.453125 2.859375 C 25.84375 3.011719 25.84375 3.011719 26.234375 3.234375 C 26.375 3.3125 26.519531 3.394531 26.664062 3.480469 C 27.125 3.769531 27.546875 4.085938 27.972656 4.417969 C 28.476562 4.792969 28.710938 4.953125 29.339844 5.058594 C 29.8125 4.976562 29.8125 4.976562 30.234375 4.820312 C 30.941406 4.589844 31.640625 4.558594 32.378906 4.511719 C 32.492188 4.496094 32.601562 4.480469 32.71875 4.464844 C 33.152344 4.421875 33.488281 4.449219 33.855469 4.6875 C 34.628906 5.40625 35.15625 6.320312 35.691406 7.21875 C 35.777344 7.351562 35.863281 7.488281 35.949219 7.625 C 36.144531 7.96875 36.144531 7.96875 36.144531 8.273438 C 36.265625 8.277344 36.386719 8.28125 36.507812 8.289062 C 39.734375 8.480469 39.734375 8.480469 40.8125 9.476562 C 41.164062 10.191406 41.363281 10.867188 41.519531 11.65625 C 41.558594 11.84375 41.59375 12.03125 41.632812 12.222656 C 41.714844 12.769531 41.730469 13.285156 41.71875 13.835938 C 41.847656 13.871094 41.976562 13.910156 42.109375 13.945312 C 43.03125 14.289062 43.789062 14.910156 44.578125 15.492188 C 44.6875 15.5625 44.792969 15.636719 44.90625 15.710938 C 45.292969 16.015625 45.464844 16.308594 45.554688 16.789062 C 45.589844 17.5625 45.523438 18.253906 45.285156 18.992188 C 44.871094 20.183594 44.871094 20.183594 45.007812 21.394531 C 45.375 22.058594 45.84375 22.628906 46.335938 23.207031 C 46.804688 23.796875 47.109375 24.441406 47.082031 25.207031 C 46.800781 26.300781 45.976562 27.3125 45.238281 28.140625 C 44.960938 28.496094 44.878906 28.652344 44.878906 29.105469 C 44.957031 29.539062 45.0625 29.957031 45.179688 30.378906 C 45.652344 32.65625 45.652344 32.65625 45.332031 33.460938 C 44.773438 34.160156 44.164062 34.742188 43.335938 35.105469 C 42.3125 35.570312 42.3125 35.570312 41.714844 36.472656 C 41.5 37.222656 41.371094 37.980469 41.253906 38.75 C 41.136719 39.523438 40.980469 40.1875 40.363281 40.707031 C 39.34375 41.152344 38.328125 41.351562 37.226562 41.453125 C 36.554688 41.542969 36.554688 41.542969 36.011719 41.917969 C 35.78125 42.273438 35.589844 42.636719 35.390625 43.011719 C 35.1875 43.304688 34.980469 43.597656 34.769531 43.886719 C 34.671875 44.019531 34.578125 44.15625 34.476562 44.292969 C 33.742188 45.234375 33.742188 45.234375 33.191406 45.347656 C 32.417969 45.339844 31.714844 45.308594 30.96875 45.078125 C 29.804688 44.671875 29.804688 44.671875 28.613281 44.773438 C 28.03125 45.101562 27.535156 45.535156 27.039062 45.976562 C 26.710938 46.25 26.363281 46.453125 25.988281 46.648438 C 25.824219 46.734375 25.824219 46.734375 25.660156 46.824219 C 24.957031 47.015625 24.398438 46.847656 23.761719 46.523438 C 23.605469 46.421875 23.449219 46.320312 23.285156 46.21875 C 23.203125 46.164062 23.117188 46.109375 23.027344 46.054688 C 22.644531 45.816406 22.289062 45.570312 21.953125 45.265625 C 21.605469 44.96875 21.375 44.796875 20.933594 44.664062 C 20.273438 44.753906 19.660156 44.917969 19.023438 45.097656 C 18.085938 45.355469 17 45.582031 16.101562 45.097656 C 15.382812 44.449219 14.914062 43.539062 14.425781 42.710938 C 14.339844 42.5625 14.25 42.414062 14.15625 42.257812 C 14.097656 42.144531 14.039062 42.03125 13.976562 41.914062 C 13.539062 41.5 12.992188 41.5 12.414062 41.433594 C 9.957031 41.082031 9.957031 41.082031 9.242188 40.355469 C 8.964844 39.882812 8.847656 39.390625 8.726562 38.855469 C 8.699219 38.75 8.671875 38.640625 8.644531 38.53125 C 8.5 37.941406 8.417969 37.386719 8.378906 36.78125 C 8.277344 36.230469 8.140625 36.101562 7.691406 35.746094 C 7.328125 35.503906 6.953125 35.285156 6.574219 35.066406 C 5.8125 34.628906 4.917969 34.035156 4.519531 33.234375 C 4.4375 32.234375 4.644531 31.308594 4.855469 30.332031 C 4.894531 30.148438 4.929688 29.964844 4.96875 29.777344 C 5.011719 29.597656 5.054688 29.421875 5.097656 29.234375 C 5.128906 28.5625 4.929688 28.351562 4.5 27.839844 C 2.847656 25.792969 2.847656 25.792969 2.929688 24.6875 C 3.152344 23.804688 3.652344 22.996094 4.265625 22.332031 C 4.914062 21.640625 4.914062 21.640625 5.113281 20.75 C 5.023438 20.160156 4.859375 19.59375 4.695312 19.023438 C 4.441406 18.140625 4.460938 17.304688 4.519531 16.390625 C 4.617188 16.390625 4.71875 16.390625 4.820312 16.390625 C 4.851562 16.308594 4.882812 16.222656 4.917969 16.132812 C 5.191406 15.671875 5.535156 15.441406 5.96875 15.125 C 6.046875 15.0625 6.128906 15 6.210938 14.9375 C 6.664062 14.601562 7.097656 14.363281 7.613281 14.144531 C 7.953125 13.949219 8.101562 13.789062 8.21875 13.410156 C 8.371094 12.710938 8.453125 12.003906 8.539062 11.292969 C 8.625 10.691406 8.789062 10.179688 9.035156 9.625 C 9.351562 9.441406 9.351562 9.441406 9.636719 9.324219 C 9.636719 9.226562 9.636719 9.125 9.636719 9.023438 C 9.875 8.949219 10.109375 8.878906 10.34375 8.808594 C 10.476562 8.765625 10.605469 8.726562 10.742188 8.6875 C 11.289062 8.53125 11.800781 8.425781 12.371094 8.394531 C 12.902344 8.355469 13.351562 8.296875 13.855469 8.121094 C 14.234375 7.664062 14.398438 7.167969 14.609375 6.617188 C 15.027344 5.96875 15.609375 5.484375 16.210938 5.007812 C 16.277344 4.941406 16.347656 4.878906 16.414062 4.8125 C 16.414062 4.714844 16.414062 4.613281 16.414062 4.511719 C 17.664062 4.480469 18.820312 4.503906 20.03125 4.8125 C 20.699219 4.988281 20.699219 4.988281 21.386719 4.960938 C 21.625 4.757812 21.863281 4.554688 22.09375 4.339844 C 22.539062 3.980469 23.011719 3.691406 23.503906 3.402344 C 23.636719 3.320312 23.636719 3.320312 23.773438 3.238281 C 24.359375 2.90625 24.78125 2.769531 25.453125 2.859375 Z M 17.769531 9.773438 C 17.636719 9.839844 17.5 9.90625 17.359375 9.976562 C 13.542969 11.933594 10.480469 15.402344 9.046875 19.445312 C 8.074219 22.824219 7.824219 26.492188 8.960938 29.851562 C 9.015625 30.011719 9.066406 30.167969 9.121094 30.332031 C 9.859375 32.441406 10.816406 34.300781 12.347656 35.945312 C 12.421875 36.023438 12.492188 36.101562 12.566406 36.179688 C 14.730469 38.507812 17.378906 40.277344 20.480469 41.054688 C 20.648438 41.101562 20.816406 41.144531 20.992188 41.1875 C 22.496094 41.554688 23.90625 41.699219 25.453125 41.65625 C 25.621094 41.65625 25.785156 41.652344 25.957031 41.652344 C 30.691406 41.472656 34.707031 39.105469 37.890625 35.726562 C 38.382812 35.183594 38.78125 34.617188 39.15625 33.988281 C 39.207031 33.902344 39.261719 33.816406 39.3125 33.726562 C 40.082031 32.441406 40.65625 31.128906 41.113281 29.703125 C 41.160156 29.566406 41.203125 29.429688 41.246094 29.289062 C 42.445312 25.351562 41.792969 20.691406 39.875 17.089844 C 39.28125 16.019531 38.609375 15.054688 37.800781 14.136719 C 37.703125 14.015625 37.601562 13.894531 37.5 13.769531 C 34.824219 10.621094 30.890625 8.71875 26.808594 8.273438 C 23.660156 8.03125 20.621094 8.359375 17.769531 9.773438 Z M 17.769531 9.773438 "/>
<path style=" stroke:none;fill-rule:nonzero;fill:rgb(38.431373%,59.607846%,79.607844%);fill-opacity:1;" d="M 37.800781 43.914062 C 37.949219 43.964844 38.097656 44.011719 38.253906 44.0625 C 38.398438 44.464844 38.511719 44.84375 38.617188 45.253906 C 38.652344 45.378906 38.683594 45.507812 38.71875 45.636719 C 38.832031 46.058594 38.945312 46.484375 39.054688 46.910156 C 39.132812 47.210938 39.214844 47.515625 39.296875 47.816406 C 39.511719 48.636719 39.730469 49.460938 39.945312 50.28125 C 40.167969 51.136719 40.394531 51.992188 40.621094 52.847656 C 40.902344 53.90625 41.183594 54.964844 41.464844 56.023438 C 42.109375 58.472656 42.765625 60.917969 43.425781 63.359375 C 43.515625 63.6875 43.601562 64.015625 43.691406 64.339844 C 44.027344 65.59375 44.367188 66.84375 44.707031 68.09375 C 44.902344 68.820312 45.097656 69.542969 45.296875 70.269531 C 45.367188 70.535156 45.4375 70.800781 45.511719 71.066406 C 45.609375 71.425781 45.707031 71.785156 45.804688 72.144531 C 45.832031 72.25 45.859375 72.355469 45.890625 72.464844 C 46.003906 72.890625 46.085938 73.25 46.085938 73.691406 C 45.660156 73.492188 45.285156 73.265625 44.910156 72.984375 C 44.796875 72.902344 44.6875 72.820312 44.570312 72.738281 C 44.453125 72.648438 44.332031 72.5625 44.210938 72.46875 C 44.085938 72.378906 43.960938 72.285156 43.832031 72.191406 C 42.734375 71.375 41.648438 70.546875 40.5625 69.71875 C 39.652344 69.023438 38.734375 68.339844 37.800781 67.675781 C 37.265625 68.714844 36.78125 69.769531 36.328125 70.847656 C 36.261719 71 36.195312 71.152344 36.128906 71.308594 C 35.921875 71.792969 35.71875 72.277344 35.515625 72.761719 C 35.375 73.089844 35.234375 73.414062 35.097656 73.742188 C 34.84375 74.339844 34.589844 74.9375 34.335938 75.539062 C 34.285156 75.65625 34.234375 75.777344 34.183594 75.898438 C 34.027344 76.265625 33.882812 76.632812 33.734375 77 C 33.636719 77 33.535156 77 33.433594 77 C 32.773438 74.625 32.121094 72.25 31.480469 69.871094 C 31.449219 69.75 31.417969 69.628906 31.382812 69.503906 C 31.035156 68.210938 30.6875 66.914062 30.34375 65.621094 C 30.160156 64.933594 29.976562 64.25 29.792969 63.566406 C 29.738281 63.359375 29.738281 63.359375 29.679688 63.152344 C 29.1875 61.316406 28.691406 59.484375 28.191406 57.652344 C 28 56.949219 27.808594 56.246094 27.617188 55.542969 C 27.4375 54.882812 27.253906 54.226562 27.074219 53.566406 C 26.988281 53.261719 26.90625 52.953125 26.824219 52.648438 C 26.722656 52.277344 26.621094 51.90625 26.515625 51.535156 C 26.472656 51.375 26.429688 51.210938 26.382812 51.046875 C 26.34375 50.90625 26.308594 50.765625 26.265625 50.621094 C 26.199219 50.1875 26.226562 49.898438 26.355469 49.476562 C 26.691406 49.171875 26.691406 49.171875 27.117188 48.886719 C 27.652344 48.523438 28.148438 48.160156 28.632812 47.738281 C 29.054688 47.429688 29.304688 47.316406 29.828125 47.363281 C 30.078125 47.410156 30.324219 47.464844 30.574219 47.523438 C 32.726562 48.097656 32.726562 48.097656 34.863281 47.808594 C 35.339844 47.449219 35.652344 47.015625 35.984375 46.527344 C 36.050781 46.433594 36.113281 46.339844 36.183594 46.242188 C 36.628906 45.601562 37.0625 44.953125 37.492188 44.300781 C 37.652344 44.0625 37.652344 44.0625 37.800781 43.914062 Z M 37.800781 43.914062 "/>
<path style=" stroke:none;fill-rule:nonzero;fill:rgb(38.431373%,59.607846%,79.607844%);fill-opacity:1;" d="M 11.746094 43.914062 C 12.101562 43.960938 12.101562 43.960938 12.5 44.0625 C 12.761719 44.429688 12.976562 44.761719 13.1875 45.15625 C 13.300781 45.355469 13.414062 45.558594 13.527344 45.757812 C 13.582031 45.855469 13.636719 45.953125 13.691406 46.050781 C 13.914062 46.417969 14.1875 46.738281 14.457031 47.070312 C 14.457031 47.171875 14.457031 47.269531 14.457031 47.375 C 14.558594 47.375 14.65625 47.375 14.757812 47.375 C 14.757812 47.472656 14.757812 47.570312 14.757812 47.671875 C 16.171875 48.296875 17.582031 47.921875 19.03125 47.585938 C 20.308594 47.292969 20.308594 47.292969 20.78125 47.375 C 21.210938 47.644531 21.210938 47.644531 21.660156 48.003906 C 22.347656 48.542969 23.042969 49.03125 23.796875 49.476562 C 23.601562 50.5 23.367188 51.503906 23.097656 52.511719 C 23.042969 52.726562 23.042969 52.726562 22.984375 52.949219 C 22.855469 53.429688 22.726562 53.910156 22.597656 54.386719 C 22.507812 54.726562 22.417969 55.066406 22.328125 55.410156 C 22.085938 56.316406 21.84375 57.222656 21.601562 58.128906 C 21.453125 58.6875 21.300781 59.25 21.152344 59.808594 C 19.648438 65.445312 18.128906 71.078125 16.566406 76.699219 C 16.46875 76.699219 16.367188 76.699219 16.265625 76.699219 C 16.195312 76.535156 16.125 76.367188 16.050781 76.195312 C 14.207031 71.859375 14.207031 71.859375 12.347656 67.523438 C 11.824219 67.523438 11.742188 67.605469 11.34375 67.921875 C 11.238281 68.007812 11.128906 68.09375 11.015625 68.183594 C 10.898438 68.277344 10.785156 68.367188 10.664062 68.464844 C 10.417969 68.660156 10.171875 68.855469 9.925781 69.050781 C 9.800781 69.148438 9.675781 69.246094 9.550781 69.347656 C 8.738281 69.984375 7.910156 70.59375 7.082031 71.207031 C 6.757812 71.453125 6.429688 71.699219 6.105469 71.945312 C 5.941406 72.070312 5.941406 72.070312 5.773438 72.195312 C 5.5625 72.355469 5.351562 72.515625 5.140625 72.675781 C 4.734375 72.984375 4.402344 73.230469 3.914062 73.390625 C 4.121094 72.128906 4.421875 70.90625 4.761719 69.675781 C 4.816406 69.46875 4.875 69.261719 4.929688 69.058594 C 5.050781 68.613281 5.171875 68.167969 5.292969 67.722656 C 5.597656 66.625 5.894531 65.523438 6.191406 64.425781 C 6.265625 64.160156 6.335938 63.894531 6.410156 63.628906 C 7.050781 61.269531 7.6875 58.90625 8.316406 56.546875 C 8.363281 56.375 8.410156 56.203125 8.457031 56.027344 C 8.914062 54.3125 9.371094 52.597656 9.828125 50.886719 C 10 50.242188 10.171875 49.597656 10.34375 48.953125 C 10.464844 48.507812 10.582031 48.0625 10.699219 47.621094 C 10.773438 47.347656 10.847656 47.078125 10.917969 46.804688 C 10.949219 46.6875 10.980469 46.566406 11.015625 46.445312 C 11.242188 45.597656 11.488281 44.753906 11.746094 43.914062 Z M 11.746094 43.914062 "/>
<path style=" stroke:none;fill-rule:nonzero;fill:rgb(0%,38.82353%,66.666669%);fill-opacity:1;" d="M 24.847656 15.039062 C 25.246094 15.238281 25.257812 15.394531 25.40625 15.808594 C 25.476562 16.003906 25.476562 16.003906 25.550781 16.203125 C 25.601562 16.347656 25.65625 16.488281 25.707031 16.636719 C 25.761719 16.78125 25.8125 16.925781 25.867188 17.078125 C 25.980469 17.386719 26.089844 17.695312 26.203125 18.003906 C 26.375 18.476562 26.546875 18.949219 26.71875 19.421875 C 26.828125 19.722656 26.933594 20.019531 27.042969 20.320312 C 27.09375 20.460938 27.148438 20.605469 27.199219 20.75 C 27.246094 20.882812 27.296875 21.015625 27.34375 21.148438 C 27.386719 21.265625 27.425781 21.382812 27.472656 21.503906 C 27.558594 21.804688 27.558594 21.804688 27.558594 22.257812 C 27.703125 22.257812 27.84375 22.257812 27.988281 22.253906 C 29.578125 22.25 31.167969 22.285156 32.757812 22.332031 C 33 22.339844 33.242188 22.347656 33.484375 22.355469 C 34.070312 22.371094 34.65625 22.390625 35.242188 22.40625 C 35.242188 22.507812 35.242188 22.605469 35.242188 22.710938 C 34.96875 22.9375 34.699219 23.148438 34.414062 23.359375 C 33.5 24.042969 32.609375 24.746094 31.730469 25.472656 C 31.085938 26.003906 30.425781 26.496094 29.714844 26.941406 C 29.4375 27.332031 29.539062 27.628906 29.605469 28.082031 C 29.710938 28.65625 29.878906 29.210938 30.050781 29.769531 C 30.125 30.023438 30.203125 30.277344 30.277344 30.53125 C 30.398438 30.925781 30.515625 31.324219 30.636719 31.71875 C 30.753906 32.101562 30.867188 32.488281 30.984375 32.871094 C 31.039062 33.050781 31.039062 33.050781 31.09375 33.230469 C 31.261719 33.796875 31.351562 34.175781 31.175781 34.742188 C 31.054688 34.660156 30.9375 34.578125 30.816406 34.496094 C 30.367188 34.191406 29.921875 33.890625 29.472656 33.585938 C 29.28125 33.457031 29.089844 33.324219 28.894531 33.195312 C 28.804688 33.132812 28.710938 33.070312 28.617188 33.003906 C 28.523438 32.941406 28.429688 32.878906 28.335938 32.8125 C 28.148438 32.6875 27.964844 32.5625 27.777344 32.4375 C 27.328125 32.136719 26.878906 31.828125 26.441406 31.511719 C 26.285156 31.398438 26.125 31.285156 25.960938 31.167969 C 25.824219 31.066406 25.683594 30.964844 25.542969 30.859375 C 25.160156 30.632812 25.160156 30.632812 24.757812 30.777344 C 24.445312 30.953125 24.152344 31.128906 23.863281 31.335938 C 23.765625 31.40625 23.667969 31.476562 23.566406 31.550781 C 23.410156 31.664062 23.410156 31.664062 23.25 31.78125 C 23.023438 31.941406 22.796875 32.101562 22.570312 32.265625 C 22.394531 32.390625 22.394531 32.390625 22.210938 32.519531 C 21.5625 32.980469 20.910156 33.425781 20.257812 33.875 C 20.132812 33.960938 20.003906 34.046875 19.875 34.136719 C 19.761719 34.214844 19.644531 34.292969 19.527344 34.375 C 19.421875 34.445312 19.320312 34.515625 19.214844 34.589844 C 18.976562 34.742188 18.976562 34.742188 18.824219 34.742188 C 18.921875 33.992188 19.0625 33.28125 19.25 32.550781 C 19.289062 32.394531 19.289062 32.394531 19.328125 32.234375 C 19.546875 31.378906 19.789062 30.527344 20.039062 29.679688 C 20.253906 28.914062 20.445312 28.144531 20.632812 27.371094 C 19.488281 26.402344 18.324219 25.472656 17.128906 24.5625 C 16.648438 24.195312 16.167969 23.824219 15.691406 23.453125 C 15.550781 23.34375 15.550781 23.34375 15.410156 23.234375 C 15.191406 23.0625 14.972656 22.886719 14.757812 22.710938 C 14.757812 22.660156 14.757812 22.609375 14.757812 22.558594 C 17.320312 22.453125 19.875 22.386719 22.441406 22.40625 C 22.480469 22.214844 22.519531 22.019531 22.558594 21.820312 C 22.730469 21.0625 22.96875 20.339844 23.230469 19.605469 C 23.277344 19.476562 23.324219 19.34375 23.371094 19.207031 C 23.519531 18.792969 23.667969 18.378906 23.8125 17.960938 C 23.914062 17.679688 24.015625 17.394531 24.113281 17.113281 C 24.359375 16.421875 24.605469 15.730469 24.847656 15.039062 Z M 24.847656 15.039062 "/>
<path style=" stroke:none;fill-rule:nonzero;fill:rgb(18.431373%,33.333334%,46.666667%);fill-opacity:1;" d="M 35.578125 10.4375 C 35.976562 10.757812 36.363281 11.089844 36.746094 11.429688 C 36.910156 11.558594 37.074219 11.6875 37.238281 11.816406 C 38.867188 13.257812 40.15625 15.207031 41.113281 17.144531 C 41.179688 17.269531 41.242188 17.394531 41.308594 17.523438 C 41.714844 18.355469 42.015625 19.203125 42.28125 20.085938 C 42.328125 20.242188 42.328125 20.242188 42.378906 20.398438 C 43.503906 24.277344 42.875 28.707031 41.265625 32.335938 C 41.195312 32.496094 41.121094 32.660156 41.046875 32.832031 C 39.21875 36.742188 35.648438 39.960938 31.640625 41.546875 C 26.875 43.238281 21.9375 43.1875 17.328125 41.074219 C 15.882812 40.382812 14.632812 39.519531 13.402344 38.5 C 13.28125 38.398438 13.15625 38.296875 13.027344 38.195312 C 12.132812 37.4375 11.40625 36.570312 10.691406 35.640625 C 10.554688 35.464844 10.554688 35.464844 10.414062 35.289062 C 8.324219 32.46875 7.164062 28.988281 7.199219 25.5 C 7.199219 25.191406 7.199219 24.882812 7.199219 24.574219 C 7.210938 19.777344 9.046875 15.574219 12.433594 12.171875 C 13.300781 11.324219 14.160156 10.539062 15.210938 9.925781 C 15.296875 9.875 15.382812 9.820312 15.46875 9.769531 C 21.628906 6.027344 29.714844 5.957031 35.578125 10.4375 Z M 17.769531 9.773438 C 17.636719 9.839844 17.5 9.90625 17.359375 9.976562 C 13.542969 11.933594 10.480469 15.402344 9.046875 19.445312 C 8.074219 22.824219 7.824219 26.492188 8.960938 29.851562 C 9.015625 30.011719 9.066406 30.167969 9.121094 30.332031 C 9.859375 32.441406 10.816406 34.300781 12.347656 35.945312 C 12.421875 36.023438 12.492188 36.101562 12.566406 36.179688 C 14.730469 38.507812 17.378906 40.277344 20.480469 41.054688 C 20.648438 41.101562 20.816406 41.144531 20.992188 41.1875 C 22.496094 41.554688 23.90625 41.699219 25.453125 41.65625 C 25.621094 41.65625 25.785156 41.652344 25.957031 41.652344 C 30.691406 41.472656 34.707031 39.105469 37.890625 35.726562 C 38.382812 35.183594 38.78125 34.617188 39.15625 33.988281 C 39.207031 33.902344 39.261719 33.816406 39.3125 33.726562 C 40.082031 32.441406 40.65625 31.128906 41.113281 29.703125 C 41.160156 29.566406 41.203125 29.429688 41.246094 29.289062 C 42.445312 25.351562 41.792969 20.691406 39.875 17.089844 C 39.28125 16.019531 38.609375 15.054688 37.800781 14.136719 C 37.703125 14.015625 37.601562 13.894531 37.5 13.769531 C 34.824219 10.621094 30.890625 8.71875 26.808594 8.273438 C 23.660156 8.03125 20.621094 8.359375 17.769531 9.773438 Z M 17.769531 9.773438 "/>
<path style=" stroke:none;fill-rule:nonzero;fill:rgb(2.352941%,22.745098%,42.352942%);fill-opacity:1;" d="M 24.847656 15.039062 C 25.246094 15.238281 25.257812 15.394531 25.40625 15.808594 C 25.476562 16.003906 25.476562 16.003906 25.550781 16.203125 C 25.601562 16.347656 25.65625 16.488281 25.707031 16.636719 C 25.761719 16.78125 25.8125 16.925781 25.867188 17.078125 C 25.980469 17.386719 26.089844 17.695312 26.203125 18.003906 C 26.375 18.476562 26.546875 18.949219 26.71875 19.421875 C 26.828125 19.722656 26.933594 20.019531 27.042969 20.320312 C 27.09375 20.460938 27.148438 20.605469 27.199219 20.75 C 27.246094 20.882812 27.296875 21.015625 27.34375 21.148438 C 27.386719 21.265625 27.425781 21.382812 27.472656 21.503906 C 27.558594 21.804688 27.558594 21.804688 27.558594 22.257812 C 27.703125 22.257812 27.84375 22.257812 27.988281 22.253906 C 29.578125 22.25 31.167969 22.285156 32.757812 22.332031 C 33 22.339844 33.242188 22.347656 33.484375 22.355469 C 34.070312 22.371094 34.65625 22.390625 35.242188 22.40625 C 35.242188 22.507812 35.242188 22.605469 35.242188 22.710938 C 34.96875 22.9375 34.699219 23.148438 34.414062 23.359375 C 33.5 24.042969 32.609375 24.746094 31.730469 25.472656 C 31.085938 26.003906 30.425781 26.496094 29.714844 26.941406 C 29.4375 27.332031 29.539062 27.628906 29.605469 28.082031 C 29.710938 28.65625 29.878906 29.210938 30.050781 29.769531 C 30.125 30.023438 30.203125 30.277344 30.277344 30.53125 C 30.398438 30.925781 30.515625 31.324219 30.636719 31.71875 C 30.753906 32.101562 30.867188 32.488281 30.984375 32.871094 C 31.039062 33.050781 31.039062 33.050781 31.09375 33.230469 C 31.261719 33.796875 31.351562 34.175781 31.175781 34.742188 C 31.054688 34.660156 30.9375 34.578125 30.816406 34.496094 C 30.367188 34.191406 29.921875 33.890625 29.472656 33.585938 C 29.28125 33.457031 29.089844 33.324219 28.894531 33.195312 C 28.804688 33.132812 28.710938 33.070312 28.617188 33.003906 C 28.523438 32.941406 28.429688 32.878906 28.335938 32.8125 C 28.148438 32.6875 27.964844 32.5625 27.777344 32.4375 C 27.328125 32.136719 26.878906 31.828125 26.441406 31.511719 C 26.285156 31.398438 26.125 31.285156 25.960938 31.167969 C 25.824219 31.066406 25.683594 30.964844 25.542969 30.859375 C 25.160156 30.632812 25.160156 30.632812 24.757812 30.777344 C 24.445312 30.953125 24.152344 31.128906 23.863281 31.335938 C 23.765625 31.40625 23.667969 31.476562 23.566406 31.550781 C 23.410156 31.664062 23.410156 31.664062 23.25 31.78125 C 23.023438 31.941406 22.796875 32.101562 22.570312 32.265625 C 22.394531 32.390625 22.394531 32.390625 22.210938 32.519531 C 21.5625 32.980469 20.910156 33.425781 20.257812 33.875 C 20.132812 33.960938 20.003906 34.046875 19.875 34.136719 C 19.761719 34.214844 19.644531 34.292969 19.527344 34.375 C 19.421875 34.445312 19.320312 34.515625 19.214844 34.589844 C 18.976562 34.742188 18.976562 34.742188 18.824219 34.742188 C 18.921875 33.992188 19.0625 33.28125 19.25 32.550781 C 19.289062 32.394531 19.289062 32.394531 19.328125 32.234375 C 19.546875 31.378906 19.789062 30.527344 20.039062 29.679688 C 20.253906 28.914062 20.445312 28.144531 20.632812 27.371094 C 19.488281 26.402344 18.324219 25.472656 17.128906 24.5625 C 16.648438 24.195312 16.167969 23.824219 15.691406 23.453125 C 15.550781 23.34375 15.550781 23.34375 15.410156 23.234375 C 15.191406 23.0625 14.972656 22.886719 14.757812 22.710938 C 14.757812 22.660156 14.757812 22.609375 14.757812 22.558594 C 17.320312 22.453125 19.875 22.386719 22.441406 22.40625 C 22.480469 22.214844 22.519531 22.019531 22.558594 21.820312 C 22.730469 21.0625 22.96875 20.339844 23.230469 19.605469 C 23.277344 19.476562 23.324219 19.34375 23.371094 19.207031 C 23.519531 18.792969 23.667969 18.378906 23.8125 17.960938 C 23.914062 17.679688 24.015625 17.394531 24.113281 17.113281 C 24.359375 16.421875 24.605469 15.730469 24.847656 15.039062 Z M 24.847656 16.84375 C 24.570312 17.628906 24.289062 18.410156 24.011719 19.195312 C 23.917969 19.464844 23.824219 19.730469 23.726562 19.996094 C 23.589844 20.378906 23.457031 20.761719 23.320312 21.148438 C 23.277344 21.265625 23.234375 21.386719 23.191406 21.507812 C 23.027344 21.976562 22.890625 22.359375 22.890625 22.859375 C 22.773438 22.863281 22.65625 22.867188 22.535156 22.871094 C 21.992188 22.886719 21.449219 22.90625 20.90625 22.925781 C 20.722656 22.929688 20.535156 22.9375 20.347656 22.941406 C 19.132812 22.984375 17.925781 23.058594 16.71875 23.160156 C 17.0625 23.609375 17.386719 24 17.847656 24.332031 C 17.945312 24.40625 18.042969 24.476562 18.144531 24.550781 C 18.25 24.625 18.351562 24.699219 18.457031 24.777344 C 19.460938 25.511719 20.433594 26.273438 21.386719 27.070312 C 21.011719 28.605469 20.628906 30.128906 20.148438 31.632812 C 20.003906 32.121094 19.925781 32.582031 19.878906 33.085938 C 20.671875 32.835938 21.28125 32.34375 21.941406 31.855469 C 22.0625 31.765625 22.183594 31.679688 22.304688 31.589844 C 22.820312 31.21875 23.328125 30.84375 23.828125 30.457031 C 23.957031 30.359375 24.085938 30.261719 24.21875 30.164062 C 24.378906 30.039062 24.378906 30.039062 24.542969 29.910156 C 24.847656 29.777344 24.847656 29.777344 25.195312 29.886719 C 25.628906 30.089844 26 30.328125 26.390625 30.609375 C 26.539062 30.710938 26.6875 30.816406 26.839844 30.921875 C 26.996094 31.03125 27.148438 31.140625 27.304688 31.253906 C 28.28125 31.941406 29.25 32.617188 30.269531 33.234375 C 30.039062 31.9375 29.675781 30.695312 29.289062 29.4375 C 29.15625 29 29.035156 28.5625 28.914062 28.125 C 28.863281 27.953125 28.863281 27.953125 28.808594 27.78125 C 28.738281 27.472656 28.738281 27.472656 28.765625 26.921875 C 29.082031 26.496094 29.476562 26.207031 29.902344 25.894531 C 30.019531 25.804688 30.136719 25.714844 30.253906 25.625 C 30.492188 25.441406 30.730469 25.257812 30.972656 25.078125 C 31.40625 24.753906 31.832031 24.421875 32.257812 24.085938 C 32.445312 23.941406 32.628906 23.796875 32.8125 23.65625 C 33.023438 23.492188 33.230469 23.328125 33.433594 23.160156 C 33.433594 23.109375 33.433594 23.0625 33.433594 23.007812 C 31.324219 22.871094 29.222656 22.839844 27.109375 22.859375 C 27.09375 22.734375 27.074219 22.609375 27.058594 22.480469 C 26.945312 21.894531 26.761719 21.347656 26.558594 20.789062 C 26.5 20.625 26.5 20.625 26.441406 20.460938 C 26.355469 20.230469 26.273438 20.003906 26.191406 19.777344 C 26.0625 19.425781 25.9375 19.078125 25.8125 18.726562 C 25.730469 18.503906 25.652344 18.285156 25.570312 18.0625 C 25.515625 17.90625 25.515625 17.90625 25.457031 17.746094 C 25.28125 17.1875 25.28125 17.1875 24.847656 16.84375 Z M 24.847656 16.84375 "/>
</g>
</svg>
