<?xml version="1.0" encoding="UTF-8"?>
<svg version="1.1" xmlns="http://www.w3.org/2000/svg" width="332" height="512">
<path d="M0 0 C7.27945358 3.34832009 14.91388143 8.13802359 20.41796875 14 C24.25768047 15.94642826 27.89893727 14.34139049 31.92578125 13.33203125 C53.43859973 8.58183816 53.43859973 8.58183816 61.0546875 12.30859375 C63.41992392 14.40146962 64.93593656 16.4946676 66.67578125 19.14453125 C67.13388184 19.84191406 67.59198242 20.53929688 68.06396484 21.2578125 C77.67578125 36.05749407 77.67578125 36.05749407 77.67578125 39.14453125 C79.37734375 39.09039062 79.37734375 39.09039062 81.11328125 39.03515625 C85.80116198 39.03928291 90.11984355 39.8527298 94.67578125 40.89453125 C95.43117188 41.05179688 96.1865625 41.2090625 96.96484375 41.37109375 C103.48910142 42.82840216 109.70119774 44.68964365 113.98828125 50.01953125 C118.56107208 59.48885032 119.17795962 70.81044083 119.67578125 81.14453125 C120.5471875 81.40105469 121.41859375 81.65757813 122.31640625 81.921875 C131.27176321 85.18120841 141.91185355 92.50762914 147.67578125 100.14453125 C149.03313923 106.08452902 148.48909428 111.09139224 147.36328125 117.01953125 C147.16158325 118.20579102 147.16158325 118.20579102 146.95581055 119.41601562 C146.22670287 123.61388219 145.24302742 127.56984007 143.98828125 131.64453125 C143.3552843 134.72058254 143.43409477 135.73647135 145.0546875 138.47265625 C146.42856633 140.13959339 147.84442632 141.77251839 149.29296875 143.375 C154.19634436 149.07416936 159.87939974 157.00780142 160.67578125 164.64453125 C159.89276983 172.1670338 154.24010596 180.34745732 149.22265625 185.8203125 C144.96182914 190.36339456 144.96182914 190.36339456 143.70849609 196.27539062 C144.39266739 201.26435528 145.73948084 206.07752535 147.09375 210.91943359 C148.69149491 217.02759092 149.24614365 222.82505748 147.73828125 228.95703125 C142.28377524 237.38672235 131.88424047 244.36519576 122.56152344 247.9597168 C120.48896097 248.99257123 120.48896097 248.99257123 119.91796875 251.23242188 C119.79679687 252.07998047 119.675625 252.92753906 119.55078125 253.80078125 C119.40125 254.74179688 119.25171875 255.6828125 119.09765625 256.65234375 C118.9584375 257.63976562 118.81921875 258.6271875 118.67578125 259.64453125 C115.88383691 278.82622292 115.88383691 278.82622292 109.67578125 284.14453125 C103.40552525 287.3146235 96.64452838 288.62414826 89.77734375 289.76953125 C88.99528564 289.90359375 88.21322754 290.03765625 87.4074707 290.17578125 C85.49757266 290.50260872 83.5867662 290.82412019 81.67578125 291.14453125 C88.16975336 316.71019873 94.93991685 342.19653461 101.80955887 367.66355133 C103.1775229 372.73728501 104.5426211 377.81178959 105.90795898 382.88623047 C110.359346 399.4275751 114.81581233 415.96754325 119.28447247 432.5042305 C121.01166999 438.89594599 122.7368068 445.28821497 124.46033955 451.68091965 C125.63185195 456.02521392 126.80680398 460.36855822 127.98445892 464.71119118 C128.5284943 466.71955404 129.07083942 468.72836375 129.61239624 470.73739624 C130.26195591 473.14705052 130.91421621 475.55597914 131.56973267 477.96401978 C131.85037567 479.00859344 132.13101868 480.05316711 132.42016602 481.12939453 C132.66452896 482.03247345 132.90889191 482.93555237 133.16065979 483.86599731 C133.67578125 486.14453125 133.67578125 486.14453125 133.67578125 489.14453125 C130.84828161 487.81011754 128.37967557 486.30683774 125.8671875 484.44921875 C125.13048828 483.90604004 124.39378906 483.36286133 123.63476562 482.80322266 C122.84392578 482.21460449 122.05308594 481.62598633 121.23828125 481.01953125 C120.41005859 480.4064209 119.58183594 479.79331055 118.72851562 479.16162109 C111.43597093 473.74675667 104.21354985 468.2409532 96.99951172 462.72216797 C90.95565911 458.10281546 84.8628236 453.57076213 78.67578125 449.14453125 C75.11750018 456.05881764 71.90530587 463.06337824 68.8828125 470.2265625 C68.45070969 471.24376877 68.01860687 472.26097504 67.57341003 473.30900574 C66.20871946 476.52375945 64.84849389 479.7403807 63.48828125 482.95703125 C62.56473376 485.13358264 61.64090807 487.31001601 60.71679688 489.48632812 C59.02938526 493.46391452 57.34233649 497.44165034 55.65942383 501.42114258 C55.32364822 502.21482742 54.98787262 503.00851227 54.641922 503.82624817 C53.62915196 506.25641959 52.64791344 508.69785209 51.67578125 511.14453125 C51.01578125 511.14453125 50.35578125 511.14453125 49.67578125 511.14453125 C43.66041041 489.50898004 37.80821423 467.83157138 32.00196075 446.13910675 C30.07644601 438.94546916 28.1498262 431.75212739 26.22291183 424.55886459 C25.73319729 422.7307053 25.24353511 420.90253198 24.75392532 419.07434464 C21.4831373 406.86256917 18.19653248 394.65519 14.89253616 382.45235825 C13.62582844 377.77239576 12.3615575 373.09177418 11.09712791 368.41119576 C9.91188903 364.02524211 8.72230891 359.64049478 7.52962112 355.25656128 C6.9744305 353.21277806 6.4215094 351.16839758 5.86962891 349.12371826 C5.20311738 346.6544416 4.53294674 344.18614849 3.85839844 341.71905518 C3.56819824 340.63952576 3.27799805 339.55999634 2.97900391 338.44775391 C2.72559235 337.51371735 2.47218079 336.57968079 2.21109009 335.61734009 C1.67578125 333.14453125 1.67578125 333.14453125 1.67578125 329.14453125 C1.03640625 329.49515625 0.39703125 329.84578125 -0.26171875 330.20703125 C-4.83668148 331.60753005 -9.99166539 331.31080793 -14.32421875 329.14453125 C-14.56116959 330.17616898 -14.79812042 331.2078067 -15.04225159 332.27070618 C-17.42609372 342.57124785 -20.0318255 352.79379899 -22.7890625 363 C-23.21978188 364.60229462 -23.65026581 366.20465254 -24.08053589 367.80706787 C-25.23245489 372.09442999 -26.38761393 376.38091266 -27.54346085 380.66721725 C-28.75631968 385.16705383 -29.96625005 389.66767776 -31.17651367 394.16821289 C-33.19579751 401.67573272 -35.21694219 409.18274944 -37.23925781 416.68945312 C-40.05131485 427.12804505 -42.85816 437.56803348 -45.6638546 448.00833702 C-47.58860771 455.16990694 -49.51453594 462.33116093 -51.44038773 469.49243546 C-52.13667269 472.08185995 -52.83274243 474.67134222 -53.52877808 477.26083374 C-54.61837448 481.31416091 -55.7089092 485.3672345 -56.80017471 489.42011261 C-57.2001252 490.90605585 -57.59976707 492.3920822 -57.99908066 493.87819672 C-58.54257871 495.90071316 -59.08718281 497.92292852 -59.63208008 499.94506836 C-59.9365657 501.07673935 -60.24105133 502.20841034 -60.55476379 503.37437439 C-61.09318549 505.31277578 -61.68803498 507.23597994 -62.32421875 509.14453125 C-62.98421875 509.14453125 -63.64421875 509.14453125 -64.32421875 509.14453125 C-64.79206787 508.04278564 -65.25991699 506.94104004 -65.74194336 505.8059082 C-77.98861697 476.95624254 -77.98861697 476.95624254 -90.32421875 448.14453125 C-93.81229832 448.14453125 -94.35370132 448.67062714 -96.9921875 450.78515625 C-97.71229004 451.35508301 -98.43239258 451.92500977 -99.17431641 452.51220703 C-99.94565918 453.13337402 -100.71700195 453.75454102 -101.51171875 454.39453125 C-103.14751833 455.68996361 -104.78425462 456.98421393 -106.421875 458.27734375 C-107.24574707 458.92993164 -108.06961914 459.58251953 -108.91845703 460.25488281 C-114.3005767 464.48236467 -119.8109845 468.54060422 -125.29931641 472.62841797 C-127.46512307 474.25003111 -129.62005335 475.88536917 -131.7734375 477.5234375 C-132.50353027 478.07692871 -133.23362305 478.63041992 -133.98583984 479.20068359 C-135.38824041 480.26434314 -136.78842009 481.33093914 -138.18603516 482.40087891 C-140.87821987 484.43707185 -143.09859586 486.06932362 -146.32421875 487.14453125 C-144.97068183 478.74819464 -142.9575346 470.62915892 -140.703125 462.43359375 C-140.33091528 461.06640282 -139.95917609 459.69908371 -139.58786011 458.33164978 C-138.78309245 455.37082863 -137.97569737 452.41074189 -137.16622925 449.45120239 C-135.16814998 442.14447717 -133.18473882 434.83376407 -131.20069313 427.52321815 C-130.7223649 425.76088554 -130.24387629 423.99859645 -129.76523399 422.23634911 C-123.02370745 397.41301662 -116.39632058 372.55910759 -109.76171875 347.70703125 C-109.15798128 345.44581789 -108.55423176 343.18460775 -107.95046997 340.92340088 C-107.50831146 339.26741898 -107.50831146 339.26741898 -107.05722046 337.5779829 C-106.19193659 334.33742082 -105.32657636 331.09687913 -104.46121216 327.8563385 C-103.39691732 323.87081784 -102.33312948 319.88516242 -101.26974487 315.8993988 C-98.97691637 307.30829303 -96.68264017 298.71793133 -94.32421875 290.14453125 C-95.30390625 290.180625 -96.28359375 290.21671875 -97.29296875 290.25390625 C-101.63043139 290.24954261 -105.62141653 289.40200084 -109.82421875 288.39453125 C-110.54480469 288.23726563 -111.26539063 288.08 -112.0078125 287.91796875 C-116.80831097 286.78946097 -121.65794905 285.59458354 -125.32421875 282.14453125 C-128.87626409 276.34192202 -129.78566541 270.04315015 -130.53710938 263.39111328 C-131.33836154 254.31463137 -131.33836154 254.31463137 -135.6015625 246.63671875 C-138.30427832 245.20679132 -138.30427832 245.20679132 -141.234375 244.25 C-144.90143205 242.93801878 -147.71198532 240.93546557 -150.76171875 238.58203125 C-151.72980469 237.85886719 -152.69789063 237.13570312 -153.6953125 236.390625 C-158.34256558 232.42008931 -160.81893127 229.57541505 -161.32275391 223.27246094 C-161.32522797 219.67846908 -160.72781875 216.28198557 -160.01171875 212.76953125 C-159.88087891 212.07859375 -159.75003906 211.38765625 -159.61523438 210.67578125 C-159.48181641 209.97710937 -159.34839844 209.2784375 -159.2109375 208.55859375 C-159.07816406 207.84654785 -158.94539062 207.13450195 -158.80859375 206.40087891 C-158.32421875 204.14453125 -158.32421875 204.14453125 -157.57421875 201.68115234 C-156.19169579 196.76156543 -156.19169579 196.76156543 -157.22631836 191.88818359 C-158.67630103 189.63242812 -160.24110786 187.58622975 -161.94921875 185.51953125 C-163.0507664 184.11473401 -164.14718514 182.70589897 -165.23828125 181.29296875 C-165.76663574 180.60904053 -166.29499023 179.9251123 -166.83935547 179.22045898 C-170.51302046 174.08445547 -173.16955677 168.98291521 -172.828125 162.55078125 C-171.00484276 153.84425519 -164.55826917 146.52288689 -159.1796875 139.67578125 C-157.17803992 137.21569154 -157.17803992 137.21569154 -156.32421875 134.14453125 C-156.88001623 131.48255385 -157.50302833 128.89420945 -158.19921875 126.26953125 C-163.17919405 106.30702974 -163.17919405 106.30702974 -159.32421875 99.14453125 C-152.72752859 91.65670926 -143.19644426 85.67922429 -134.32421875 81.14453125 C-133.66421875 81.14453125 -133.00421875 81.14453125 -132.32421875 81.14453125 C-132.28554687 79.88962891 -132.28554687 79.88962891 -132.24609375 78.609375 C-131.70593164 67.5237753 -130.56377675 55.03920635 -123.32421875 46.14453125 C-118.56596207 43.02825742 -113.38645175 42.0945377 -107.88671875 41.01953125 C-107.06623047 40.85066406 -106.24574219 40.68179688 -105.40039062 40.5078125 C-104.59279297 40.34410156 -103.78519531 40.18039063 -102.953125 40.01171875 C-102.16583008 39.85098877 -101.37853516 39.69025879 -100.56738281 39.5246582 C-98.32421875 39.14453125 -98.32421875 39.14453125 -94.53125 38.9921875 C-91.019402 38.06396458 -90.67524894 37.75568137 -88.76953125 34.8984375 C-87.9755945 33.51284832 -87.20302939 32.11485314 -86.44921875 30.70703125 C-82.15267733 23.24409122 -77.43097805 17.25129055 -71.32421875 11.14453125 C-63.03228439 10.46192937 -55.71441899 10.90999308 -47.70629883 13.08764648 C-40.56364812 15.22298212 -40.56364812 15.22298212 -33.36474609 14.44921875 C-29.73472099 12.2969118 -26.81544391 9.40817355 -23.81103516 6.47460938 C-17.26290656 0.61677611 -8.47858459 -3.12068912 0 0 Z " fill="#6690B3" transform="translate(172.32421875,0.85546875)"/>
<path d="M0 0 C24.36585762 18.88117557 41.38755668 43.85941134 45.6015625 74.91015625 C47.40004426 91.31027389 46.84590613 107.66350632 41.5625 123.3125 C41.20792725 124.36332764 40.85335449 125.41415527 40.48803711 126.49682617 C35.59853638 140.51553242 29.25268881 152.88989137 19.0625 163.8125 C18.34320313 164.59318848 18.34320313 164.59318848 17.609375 165.38964844 C1.86621793 182.33540779 -16.70067473 192.78613349 -38.9375 198.8125 C-39.59387451 198.99506348 -40.25024902 199.17762695 -40.92651367 199.36572266 C-47.86537748 201.21999477 -54.77871378 201.50548093 -61.9375 201.8125 C-63.38382813 201.87630859 -63.38382813 201.87630859 -64.859375 201.94140625 C-94.00278421 202.58807953 -121.35511517 190.40392447 -142.26171875 170.703125 C-148.62780379 164.58555218 -154.40291054 158.44078134 -158.9375 150.8125 C-159.28232422 150.24144531 -159.62714844 149.67039063 -159.98242188 149.08203125 C-165.07892513 140.51425282 -168.89690806 131.80874872 -171.9375 122.3125 C-172.22818359 121.40532227 -172.51886719 120.49814453 -172.81835938 119.56347656 C-180.93359116 92.83037041 -176.13821173 61.85340826 -163.22143555 37.50805664 C-148.80685388 11.42125026 -124.8992427 -7.81806162 -96.46875 -16.6015625 C-63.92764053 -25.90724534 -27.418635 -19.93437629 0 0 Z " fill="#A1D0ED" transform="translate(230.9375,75.1875)"/>
<path d="M0 0 C2.60546875 1.03125 2.60546875 1.03125 5.1875 2.5 C6.13496094 3.03882813 7.08242187 3.57765625 8.05859375 4.1328125 C11.09751485 6.06190185 13.90313034 8.1742562 16.75 10.375 C20.09687483 12.86968337 21.63178011 13.93963608 25.8125 14.625 C28.9627779 14.08151092 28.9627779 14.08151092 31.75 13.0625 C36.448694 11.5263885 41.09008232 11.3217325 46 11 C46.73992187 10.89945313 47.47984375 10.79890625 48.2421875 10.6953125 C51.12405053 10.41497563 53.35004665 10.57562699 55.80078125 12.17578125 C60.93610398 16.94673518 64.43923404 23.02425911 68 29 C68.56203125 29.89460938 69.1240625 30.78921875 69.703125 31.7109375 C71 34 71 34 71 36 C71.79921875 36.03738281 72.5984375 36.07476562 73.421875 36.11328125 C94.84530907 37.39566991 94.84530907 37.39566991 102 44 C104.32819312 48.77397175 105.66488141 53.26246141 106.6875 58.5 C106.93886719 59.7478125 107.19023437 60.995625 107.44921875 62.28125 C107.98761786 65.91639857 108.09927376 69.33159823 108 73 C108.8559375 73.24234375 109.711875 73.4846875 110.59375 73.734375 C116.73493578 76.01619173 121.77202382 80.13036998 127 84 C127.71800781 84.4846875 128.43601562 84.969375 129.17578125 85.46875 C131.7466373 87.48125784 132.89639157 89.44300109 133.48828125 92.625 C133.71390148 97.78203382 133.28060784 102.37660343 131.69921875 107.28515625 C128.94263764 115.20395268 128.94263764 115.20395268 129.84179688 123.26904297 C132.29071119 127.68037717 135.39982492 131.47810587 138.65942383 135.30883789 C141.77291224 139.23656221 143.79866666 143.51419322 143.61328125 148.59765625 C141.75642861 155.87131467 136.28187718 162.60476317 131.375 168.125 C129.54333621 170.48636115 128.99854086 171.52505005 129.0078125 174.54296875 C129.5191905 177.42048463 130.22565585 180.18246064 131 183 C134.14007092 198.1498227 134.14007092 198.1498227 132 203.5 C128.28516978 208.14353777 124.25700845 212.011708 118.76171875 214.41796875 C111.94301735 217.52236216 111.94301735 217.52236216 107.97705078 223.50878906 C106.57204516 228.50567097 105.70852758 233.53764844 104.9296875 238.6640625 C104.1462522 243.79414249 103.10933056 248.22025234 99 251.6875 C92.23722091 254.64621585 85.51023174 255.96386193 78.1875 256.625 C73.7194106 257.24099853 73.7194106 257.24099853 70.125 259.73828125 C68.5868232 262.09152457 67.3096322 264.51279934 66 267 C64.656046 268.95916281 63.27986359 270.89654344 61.875 272.8125 C61.23304688 273.70582031 60.59109375 274.59914063 59.9296875 275.51953125 C55.05593631 281.78437337 55.05593631 281.78437337 51.3984375 282.53125 C46.24959681 282.47803201 41.57450954 282.26634422 36.63671875 280.7421875 C28.89084408 278.04815894 28.89084408 278.04815894 20.99169922 278.71142578 C17.11998857 280.89727731 13.8395276 283.77054784 10.52685547 286.71289062 C8.36362491 288.53645178 6.06426072 289.87830792 3.5625 291.1875 C2.48162109 291.76564453 2.48162109 291.76564453 1.37890625 292.35546875 C-3.27656119 293.61680229 -7.00227408 292.50857319 -11.2109375 290.36328125 C-12.25507813 289.68652344 -13.29921875 289.00976562 -14.375 288.3125 C-14.9431543 287.95961914 -15.51130859 287.60673828 -16.09667969 287.24316406 C-18.64616245 285.6412511 -20.99553668 284.003989 -23.2421875 281.99609375 C-25.53275434 280.00410274 -27.07704569 278.87862615 -30 278 C-34.37712815 278.59126529 -38.45324473 279.67634893 -42.6953125 280.87109375 C-48.92107736 282.59708948 -56.12498641 284.08710713 -62.07421875 280.8828125 C-66.85464094 276.56431874 -69.96516211 270.49929409 -73.203125 264.98828125 C-73.79609375 264.00214844 -74.3890625 263.01601563 -75 262 C-75.39574219 261.24074219 -75.79148437 260.48148437 -76.19921875 259.69921875 C-79.1116597 256.95103694 -82.73868485 256.95385724 -86.5625 256.5 C-102.88355464 254.16888555 -102.88355464 254.16888555 -107.625 249.34765625 C-109.47660774 246.18624644 -110.24992762 242.90948361 -111.0625 239.375 C-111.24184082 238.66077881 -111.42118164 237.94655762 -111.60595703 237.21069336 C-112.57085877 233.28406701 -113.10144536 229.6022023 -113.375 225.5625 C-114.04218083 221.90830774 -114.94022185 221.04761445 -117.91796875 218.67578125 C-120.34755707 217.08357694 -122.84188827 215.62378134 -125.359375 214.17578125 C-130.39307695 211.27001002 -136.34584763 207.30830474 -139 202 C-139.52324428 195.32863537 -138.15145906 189.17174953 -136.75390625 182.68359375 C-136.50511719 181.46800781 -136.25632812 180.25242188 -136 179 C-135.71769531 177.81277344 -135.43539062 176.62554687 -135.14453125 175.40234375 C-134.95402063 170.91762068 -136.26780173 169.51505196 -139.125 166.125 C-150.08241467 152.51505155 -150.08241467 152.51505155 -149.54296875 145.15234375 C-148.06249272 139.28369417 -144.75252819 133.9000474 -140.6796875 129.484375 C-136.37475362 124.90427371 -136.37475362 124.90427371 -135.04003906 118.97021484 C-135.64867825 115.04874041 -136.72838421 111.29163418 -137.828125 107.484375 C-139.50090219 101.62211981 -139.38612854 96.07079874 -139 90 C-138.34 90 -137.68 90 -137 90 C-136.78601563 89.43152344 -136.57203125 88.86304687 -136.3515625 88.27734375 C-134.53001697 85.20809217 -132.25101436 83.66308264 -129.375 81.5625 C-128.83883057 81.15765381 -128.30266113 80.75280762 -127.75024414 80.33569336 C-124.74389613 78.10154384 -121.875402 76.49655968 -118.4375 75.0625 C-116.18079754 73.74298183 -115.21516784 72.6838739 -114.42773438 70.18115234 C-113.41064248 65.53203784 -112.86072941 60.82413895 -112.29003906 56.10351562 C-111.73556798 52.08220011 -110.65192357 48.70030879 -109 45 C-106.90234375 43.78125 -106.90234375 43.78125 -105 43 C-105 42.34 -105 41.68 -105 41 C-103.43840941 40.51787786 -101.87568072 40.03944127 -100.3125 39.5625 C-99.44238281 39.29566406 -98.57226562 39.02882812 -97.67578125 38.75390625 C-94.02914895 37.72646094 -90.63344793 37.0368466 -86.84375 36.81640625 C-83.32951662 36.54955442 -80.33563222 36.15629519 -77 35 C-74.48349566 31.97026122 -73.38560461 28.64988531 -72 25 C-69.21299882 20.67730429 -65.3496821 17.46499305 -61.35546875 14.296875 C-60.90816406 13.86890625 -60.46085937 13.4409375 -60 13 C-60 12.34 -60 11.68 -60 11 C-51.7213293 10.78527943 -44.0417766 10.93684758 -36 13 C-31.55552399 14.17663456 -31.55552399 14.17663456 -27 14 C-25.40918913 12.64611841 -23.82583915 11.28210521 -22.2890625 9.8671875 C-19.35129977 7.47085544 -16.20173346 5.53393841 -12.9375 3.625 C-12.05300171 3.08842773 -12.05300171 3.08842773 -11.15063477 2.54101562 C-7.2608052 0.31173752 -4.45861478 -0.5904652 0 0 Z M-51 46 C-51.90492187 46.43957031 -52.80984375 46.87914062 -53.7421875 47.33203125 C-79.08163672 60.36067157 -99.40157437 83.41086247 -108.9375 110.296875 C-115.38509472 132.76863896 -117.04233427 157.1602558 -109.5 179.5 C-109.14542725 180.55082764 -108.79085449 181.60165527 -108.42553711 182.68432617 C-103.53603638 196.70303242 -97.19018881 209.07739137 -87 220 C-86.52046875 220.52045898 -86.0409375 221.04091797 -85.546875 221.57714844 C-71.17722235 237.04448288 -53.60994777 248.80971975 -33 254 C-31.88367188 254.28617188 -30.76734375 254.57234375 -29.6171875 254.8671875 C-19.62618243 257.30119106 -10.26795754 258.27573799 0 258 C1.11117187 257.98324219 2.22234375 257.96648437 3.3671875 257.94921875 C34.79040453 256.76662456 61.44277938 241.03518587 82.59326172 218.54589844 C85.86693528 214.94838004 88.51799734 211.17533158 91 207 C91.34482422 206.42894531 91.68964844 205.85789063 92.04492188 205.26953125 C97.14142513 196.70175282 100.95940806 187.99624872 104 178.5 C104.29068359 177.59282227 104.58136719 176.68564453 104.88085938 175.75097656 C112.82818698 149.5709785 108.5167109 118.58202958 95.77197266 94.62792969 C91.8253441 87.52097405 87.37442988 81.11681222 82 75 C81.33742187 74.19433594 80.67484375 73.38867188 79.9921875 72.55859375 C62.22396178 51.61044572 36.12082425 38.9813672 9 36 C-11.8857162 34.40398585 -32.0663294 36.58968312 -51 46 Z " fill="#6095C9" transform="translate(169,19)"/>
<path d="M0 0 C0.99 0.33 1.98 0.66 3 1 C3.96988416 3.65165361 4.72788809 6.1824714 5.42236328 8.90917969 C5.64648046 9.74688086 5.87059763 10.58458202 6.10150623 11.44766808 C6.85318029 14.26935259 7.58654906 17.09548448 8.3203125 19.921875 C8.85240616 21.93283166 9.38568173 23.94347592 9.9200592 25.9538269 C11.36772643 31.41201401 12.80010147 36.87411195 14.22997665 42.33698273 C15.7214415 48.02442688 17.22676733 53.70819446 18.73168945 59.39208984 C20.59639701 66.43703273 22.46034802 73.48216636 24.31874084 80.52877808 C28.61174688 96.80103266 32.95951771 113.05784168 37.34765625 129.3046875 C37.93435071 131.47814828 38.52104102 133.65161018 39.10772705 135.82507324 C41.35434593 144.14559259 43.6025563 152.46567868 45.85528564 160.7845459 C47.15972774 165.60226954 48.46063546 170.42093452 49.75900078 175.24029922 C50.23527546 177.00537515 50.71292544 178.77008062 51.19203377 180.5343895 C51.84261156 182.93038782 52.48863597 185.32756838 53.13354492 187.72509766 C53.32495623 188.42548031 53.51636753 189.12586296 53.71357918 189.84746933 C54.46704408 192.66494864 55 195.06736468 55 198 C52.17250036 196.66558629 49.70389432 195.16230649 47.19140625 193.3046875 C46.45470703 192.76150879 45.71800781 192.21833008 44.95898438 191.65869141 C44.16814453 191.07007324 43.37730469 190.48145508 42.5625 189.875 C41.73427734 189.26188965 40.90605469 188.6487793 40.05273438 188.01708984 C32.76018968 182.60222542 25.5377686 177.09642195 18.32373047 171.57763672 C12.27987786 166.95828421 6.18704235 162.42623088 0 158 C-3.55828107 164.91428639 -6.77047538 171.91884699 -9.79296875 179.08203125 C-10.22507156 180.09923752 -10.65717438 181.11644379 -11.10237122 182.16447449 C-12.46706179 185.3792282 -13.82728736 188.59584945 -15.1875 191.8125 C-16.11104749 193.98905139 -17.03487318 196.16548476 -17.95898438 198.34179688 C-19.64639599 202.31938327 -21.33344476 206.29711909 -23.01635742 210.27661133 C-23.35213303 211.07029617 -23.68790863 211.86398102 -24.03385925 212.68171692 C-25.04662929 215.11188834 -26.02786781 217.55332084 -27 220 C-27.66 220 -28.32 220 -29 220 C-33.38910663 204.21365136 -37.71564177 188.4115567 -41.9609375 172.5859375 C-42.17619772 171.78349546 -42.39145794 170.98105343 -42.6132412 170.15429497 C-44.92136259 161.54728665 -47.22422858 152.93887242 -49.52702999 144.33043957 C-50.74544058 139.77616375 -51.96442344 135.22204124 -53.18359375 130.66796875 C-53.54691772 129.31046603 -53.54691772 129.31046603 -53.91758156 127.92553902 C-57.18492954 115.72117607 -60.48338957 103.52573514 -63.81387329 91.3384552 C-65.08966227 86.66610782 -66.36002656 81.9922819 -67.63046646 77.31847763 C-68.82110161 72.94128966 -70.02122495 68.56684483 -71.22829151 64.19416142 C-71.78944116 62.15471111 -72.34561198 60.11398325 -72.89952087 58.07255554 C-73.56809985 55.60866213 -74.24461732 53.14690309 -74.93067932 50.68782043 C-75.22095505 49.60836655 -75.51123077 48.52891266 -75.81030273 47.41674805 C-76.06593491 46.4849321 -76.32156708 45.55311615 -76.58494568 44.59306335 C-77.04631333 41.71065616 -76.86653651 39.77983133 -76 37 C-73.77734375 34.97265625 -73.77734375 34.97265625 -70.9375 33.0625 C-67.39963867 30.66131928 -64.10020032 28.23918917 -60.875 25.4375 C-58.08565527 23.37215018 -56.41241353 22.6268932 -52.9375 22.9375 C-51.2835747 23.25171724 -49.63831603 23.61254424 -48 24 C-33.69846871 27.82925146 -33.69846871 27.82925146 -19.50390625 25.890625 C-16.33236476 23.49588853 -14.26610448 20.62707629 -12.0625 17.375 C-11.6301001 16.75343018 -11.1977002 16.13186035 -10.75219727 15.49145508 C-7.79614648 11.22553087 -4.8947109 6.92078923 -2.05859375 2.57421875 C-1 1 -1 1 0 0 Z " fill="#6298CB" transform="translate(251,292)"/>
<path d="M0 0 C2.35522461 0.29980469 2.35522461 0.29980469 5 1 C6.74751075 3.41645669 8.15874053 5.64826779 9.5625 8.25 C10.3102514 9.59052842 11.06149999 10.92911269 11.81640625 12.265625 C12.17621582 12.90564453 12.53602539 13.54566406 12.90673828 14.20507812 C14.39121582 16.64229984 16.21334682 18.77985047 18 21 C18 21.66 18 22.32 18 23 C18.66 23 19.32 23 20 23 C20 23.66 20 24.32 20 25 C29.38854931 29.14688574 38.74625967 26.65306152 48.36181641 24.42333984 C56.84817355 22.46843132 56.84817355 22.46843132 60 23 C62.83203125 24.79296875 62.83203125 24.79296875 65.8125 27.1875 C70.38379462 30.78721761 75.00071041 34.01965428 80 37 C78.71720983 43.79776679 77.17009645 50.47612377 75.38061523 57.15722656 C74.9964027 58.60638474 74.9964027 58.60638474 74.60442829 60.08481884 C73.75883221 63.2708976 72.90879688 66.45577281 72.05859375 69.640625 C71.45667482 71.90383815 70.85497457 74.16710947 70.253479 76.43043518 C68.64949081 82.46206925 67.04127268 88.49256755 65.43191147 94.52276993 C64.43867515 98.24559533 63.44663835 101.96873832 62.45498657 105.69198608 C52.47095909 143.17437198 42.38522608 180.62663092 32 218 C31.34 218 30.68 218 30 218 C29.53215088 216.89825439 29.06430176 215.79650879 28.58227539 214.66137695 C16.33560178 185.81171129 16.33560178 185.81171129 4 157 C0.51192043 157 -0.02948257 157.52609589 -2.66796875 159.640625 C-3.38807129 160.21055176 -4.10817383 160.78047852 -4.85009766 161.36767578 C-5.62144043 161.98884277 -6.3927832 162.61000977 -7.1875 163.25 C-8.82329958 164.54543236 -10.46003587 165.83968268 -12.09765625 167.1328125 C-12.92152832 167.78540039 -13.74540039 168.43798828 -14.59423828 169.11035156 C-19.97635795 173.33783342 -25.48676575 177.39607297 -30.97509766 181.48388672 C-33.14090432 183.10549986 -35.2958346 184.74083792 -37.44921875 186.37890625 C-38.54435791 187.20914307 -38.54435791 187.20914307 -39.66162109 188.05615234 C-41.06402166 189.11981189 -42.46420134 190.18640789 -43.86181641 191.25634766 C-46.55400112 193.2925406 -48.77437711 194.92479237 -52 196 C-50.64646291 187.60366234 -48.6333075 179.48463057 -46.37890625 171.2890625 C-46.00669575 169.921826 -45.63495659 168.55446111 -45.26364136 167.1869812 C-44.45888309 164.22611168 -43.65149311 161.26597786 -42.8420105 158.30639648 C-40.84419818 151.00087492 -38.86047989 143.6915213 -36.87647438 136.3822403 C-36.39814701 134.62014777 -35.91965839 132.858099 -35.44101524 131.09609222 C-31.17928288 115.40523436 -26.96745737 99.70126885 -22.7734375 83.9921875 C-22.46874228 82.85107136 -22.16404705 81.70995522 -21.85011864 80.5342598 C-18.80820531 69.14071257 -15.76947063 57.74631958 -12.73300171 46.35132027 C-11.5916361 42.06934885 -10.44908078 37.78769545 -9.30627823 33.50610733 C-8.51818608 30.55157347 -7.73182972 27.59658131 -6.94552612 24.64157104 C-6.46435017 22.83849559 -5.98308297 21.03544447 -5.50170898 19.23242188 C-5.29140328 18.44004938 -5.08109758 17.64767689 -4.86441898 16.83129311 C-3.35432609 11.1861707 -1.70502516 5.58918524 0 0 Z " fill="#6298CB" transform="translate(78,292)"/>
<path d="M0 0 C2.63793308 1.31896654 2.70069517 2.36508219 3.69580078 5.10498047 C4.17607224 6.41171219 4.17607224 6.41171219 4.66604614 7.74484253 C5.00570404 8.69271637 5.34536194 9.64059021 5.6953125 10.6171875 C6.04761932 11.58528351 6.39992615 12.55337952 6.76290894 13.55081177 C7.50767812 15.60244359 8.24888001 17.65537331 8.98681641 19.70947266 C10.1188395 22.85786637 11.26357616 26.00141377 12.41015625 29.14453125 C13.13097174 31.1351404 13.85104852 33.12601722 14.5703125 35.1171875 C14.91401886 36.06101288 15.25772522 37.00483826 15.61184692 37.9772644 C15.92572357 38.85472321 16.23960022 39.73218201 16.56298828 40.63623047 C16.84119415 41.4082077 17.11940002 42.18018494 17.40603638 42.97555542 C18 45 18 45 18 48 C18.94037109 47.99419922 19.88074219 47.98839844 20.84960938 47.98242188 C31.40918221 47.94627664 41.94611424 48.17177437 52.5 48.5 C54.11327473 48.54839499 55.72655598 48.59657305 57.33984375 48.64453125 C61.22664184 48.76053377 65.11334122 48.87942379 69 49 C69 49.66 69 50.32 69 51 C67.20037367 52.5192051 65.39521752 53.92064831 63.5 55.3125 C57.44453457 59.85748769 51.53722111 64.5569833 45.70141602 69.38085938 C41.40724894 72.91754148 37.03134822 76.18956011 32.30859375 79.14453125 C30.47622917 81.74266013 31.13603444 83.70513621 31.57478333 86.72966003 C32.2912011 90.55479673 33.39826526 94.23618022 34.5390625 97.953125 C35.04185038 99.64057027 35.54444907 101.32807192 36.046875 103.015625 C36.8380346 105.64558946 37.6324459 108.27451282 38.43066406 110.90234375 C39.20452525 113.45845947 39.96616362 116.01797793 40.7265625 118.578125 C41.0905162 119.75631805 41.0905162 119.75631805 41.46182251 120.95831299 C42.57629866 124.73010769 43.18382565 127.24276767 42 131 C41.21463867 130.46632812 40.42927734 129.93265625 39.62011719 129.3828125 C36.64586471 127.36194174 33.67114063 125.34176607 30.69628906 123.32177734 C29.42012296 122.45509856 28.14407703 121.5882428 26.86816406 120.72119141 C26.25424805 120.30401855 25.64033203 119.8868457 25.0078125 119.45703125 C24.39466187 119.04018066 23.78151123 118.62333008 23.14978027 118.19384766 C21.91460211 117.35634494 20.67769934 116.52138011 19.43908691 115.68896484 C16.44887851 113.67793534 13.4885013 111.64211216 10.57617188 109.51953125 C9.52494141 108.77058594 8.47371094 108.02164063 7.390625 107.25 C6.46797852 106.57453125 5.54533203 105.8990625 4.59472656 105.203125 C2.05514306 103.69622879 2.05514306 103.69622879 -0.61572266 104.64916992 C-2.67480471 105.81575819 -4.62419576 106.97558983 -6.5390625 108.36328125 C-7.19326172 108.83217773 -7.84746094 109.30107422 -8.52148438 109.78417969 C-9.56272461 110.54069824 -9.56272461 110.54069824 -10.625 111.3125 C-12.12673989 112.38792666 -13.62938069 113.46209614 -15.1328125 114.53515625 C-16.31278809 115.37844482 -16.31278809 115.37844482 -17.51660156 116.23876953 C-21.81411561 119.28657393 -26.15454327 122.27111962 -30.5 125.25 C-31.33096191 125.82274658 -32.16192383 126.39549316 -33.01806641 126.9855957 C-33.78554199 127.51113037 -34.55301758 128.03666504 -35.34375 128.578125 C-36.02630859 129.04637695 -36.70886719 129.51462891 -37.41210938 129.99707031 C-39 131 -39 131 -40 131 C-39.36620571 126.03847908 -38.41785065 121.29517927 -37.1875 116.4375 C-36.9246521 115.39867676 -36.9246521 115.39867676 -36.65649414 114.33886719 C-35.20012634 108.64337079 -33.59075464 102.99636971 -31.94921875 97.3515625 C-30.50861634 92.26499103 -29.24218243 87.13811822 -28 82 C-35.60040224 75.56362333 -43.33930481 69.37878921 -51.25439453 63.33691406 C-54.45332402 60.88693674 -57.63554687 58.4158794 -60.8125 55.9375 C-61.73844971 55.22122437 -61.73844971 55.22122437 -62.68310547 54.49047852 C-64.1408936 53.35065872 -65.57333837 52.17854656 -67 51 C-67 50.67 -67 50.34 -67 50 C-49.99103795 49.29199937 -33.02392955 48.8475515 -16 49 C-15.73719238 47.71359619 -15.47438477 46.42719238 -15.20361328 45.10180664 C-14.07780289 40.04700804 -12.48229701 35.24311018 -10.7421875 30.37109375 C-10.43427277 29.49598648 -10.12635803 28.62087921 -9.80911255 27.71925354 C-8.83592261 24.95692936 -7.85559529 22.19720289 -6.875 19.4375 C-6.2091596 17.55160022 -5.54379051 15.66553396 -4.87890625 13.77929688 C-3.25804319 9.18425656 -1.63077929 4.59152991 0 0 Z " fill="#0063AA" transform="translate(165,100)"/>
<path d="M0 0 C2.6427436 2.14700627 5.21450137 4.35154484 7.76953125 6.6015625 C8.85029972 7.45897215 9.93317344 8.31374579 11.01953125 9.1640625 C21.83479279 18.75031704 30.39712203 31.72238603 36.76953125 44.6015625 C37.1975 45.43558594 37.62546875 46.26960938 38.06640625 47.12890625 C40.75722336 52.65172532 42.74393254 58.29613767 44.51953125 64.1640625 C44.83579468 65.19007568 44.83579468 65.19007568 45.15844727 66.23681641 C52.62647955 92.02433913 48.46111701 121.47421729 37.76953125 145.6015625 C37.29515625 146.69210938 36.82078125 147.78265625 36.33203125 148.90625 C24.19127642 174.91229871 0.48559841 196.32280383 -26.1484375 206.86181641 C-57.79024375 218.1041561 -90.56856089 217.78011555 -121.16748047 203.7109375 C-130.77335158 199.13232486 -139.06298155 193.38602187 -147.23046875 186.6015625 C-148.05289063 185.93253906 -148.8753125 185.26351562 -149.72265625 184.57421875 C-155.67796156 179.53590682 -160.49654591 173.78268827 -165.23046875 167.6015625 C-166.14119141 166.43173828 -166.14119141 166.43173828 -167.0703125 165.23828125 C-180.95916037 146.49935951 -188.6501985 123.3607002 -188.4362793 100.15185547 C-188.41799959 98.10501591 -188.4157706 96.05863166 -188.41601562 94.01171875 C-188.33750213 62.10238329 -176.16368843 34.15525106 -153.66796875 11.5390625 C-147.91191223 5.90753906 -142.21283542 0.67893264 -135.23046875 -3.3984375 C-134.66569824 -3.74277832 -134.10092773 -4.08711914 -133.51904297 -4.44189453 C-92.61931056 -29.33324087 -38.92529732 -29.77851878 0 0 Z M-118.23046875 -4.3984375 C-119.13539062 -3.95886719 -120.0403125 -3.51929688 -120.97265625 -3.06640625 C-146.31210547 9.96223407 -166.63204312 33.01242497 -176.16796875 59.8984375 C-182.61556347 82.37020146 -184.27280302 106.7618183 -176.73046875 129.1015625 C-176.375896 130.15239014 -176.02132324 131.20321777 -175.65600586 132.28588867 C-170.76650513 146.30459492 -164.42065756 158.67895387 -154.23046875 169.6015625 C-153.7509375 170.12202148 -153.27140625 170.64248047 -152.77734375 171.17871094 C-138.4076911 186.64604538 -120.84041652 198.41128225 -100.23046875 203.6015625 C-99.11414063 203.88773438 -97.9978125 204.17390625 -96.84765625 204.46875 C-86.85665118 206.90275356 -77.49842629 207.87730049 -67.23046875 207.6015625 C-66.11929688 207.58480469 -65.008125 207.56804687 -63.86328125 207.55078125 C-32.44006422 206.36818706 -5.78768937 190.63674837 15.36279297 168.14746094 C18.63646653 164.54994254 21.28752859 160.77689408 23.76953125 156.6015625 C24.11435547 156.03050781 24.45917969 155.45945313 24.81445312 154.87109375 C29.91095638 146.30331532 33.72893931 137.59781122 36.76953125 128.1015625 C37.06021484 127.19438477 37.35089844 126.28720703 37.65039062 125.35253906 C45.59771823 99.172541 41.28624215 68.18359208 28.54150391 44.22949219 C24.59487535 37.12253655 20.14396113 30.71837472 14.76953125 24.6015625 C14.10695312 23.79589844 13.444375 22.99023438 12.76171875 22.16015625 C-5.00650697 1.21200822 -31.1096445 -11.4170703 -58.23046875 -14.3984375 C-79.11618495 -15.99445165 -99.29679815 -13.80875438 -118.23046875 -4.3984375 Z " fill="#2F5577" transform="translate(236.23046875,69.3984375)"/>
<path d="M0 0 C2.63793308 1.31896654 2.70069517 2.36508219 3.69580078 5.10498047 C4.17607224 6.41171219 4.17607224 6.41171219 4.66604614 7.74484253 C5.00570404 8.69271637 5.34536194 9.64059021 5.6953125 10.6171875 C6.04761932 11.58528351 6.39992615 12.55337952 6.76290894 13.55081177 C7.50767812 15.60244359 8.24888001 17.65537331 8.98681641 19.70947266 C10.1188395 22.85786637 11.26357616 26.00141377 12.41015625 29.14453125 C13.13097174 31.1351404 13.85104852 33.12601722 14.5703125 35.1171875 C14.91401886 36.06101288 15.25772522 37.00483826 15.61184692 37.9772644 C15.92572357 38.85472321 16.23960022 39.73218201 16.56298828 40.63623047 C16.84119415 41.4082077 17.11940002 42.18018494 17.40603638 42.97555542 C18 45 18 45 18 48 C18.94037109 47.99419922 19.88074219 47.98839844 20.84960938 47.98242188 C31.40918221 47.94627664 41.94611424 48.17177437 52.5 48.5 C54.11327473 48.54839499 55.72655598 48.59657305 57.33984375 48.64453125 C61.22664184 48.76053377 65.11334122 48.87942379 69 49 C69 49.66 69 50.32 69 51 C67.20037367 52.5192051 65.39521752 53.92064831 63.5 55.3125 C57.44453457 59.85748769 51.53722111 64.5569833 45.70141602 69.38085938 C41.40724894 72.91754148 37.03134822 76.18956011 32.30859375 79.14453125 C30.47622917 81.74266013 31.13603444 83.70513621 31.57478333 86.72966003 C32.2912011 90.55479673 33.39826526 94.23618022 34.5390625 97.953125 C35.04185038 99.64057027 35.54444907 101.32807192 36.046875 103.015625 C36.8380346 105.64558946 37.6324459 108.27451282 38.43066406 110.90234375 C39.20452525 113.45845947 39.96616362 116.01797793 40.7265625 118.578125 C41.0905162 119.75631805 41.0905162 119.75631805 41.46182251 120.95831299 C42.57629866 124.73010769 43.18382565 127.24276767 42 131 C41.21463867 130.46632812 40.42927734 129.93265625 39.62011719 129.3828125 C36.64586471 127.36194174 33.67114063 125.34176607 30.69628906 123.32177734 C29.42012296 122.45509856 28.14407703 121.5882428 26.86816406 120.72119141 C26.25424805 120.30401855 25.64033203 119.8868457 25.0078125 119.45703125 C24.39466187 119.04018066 23.78151123 118.62333008 23.14978027 118.19384766 C21.91460211 117.35634494 20.67769934 116.52138011 19.43908691 115.68896484 C16.44887851 113.67793534 13.4885013 111.64211216 10.57617188 109.51953125 C9.52494141 108.77058594 8.47371094 108.02164063 7.390625 107.25 C6.46797852 106.57453125 5.54533203 105.8990625 4.59472656 105.203125 C2.05514306 103.69622879 2.05514306 103.69622879 -0.61572266 104.64916992 C-2.67480471 105.81575819 -4.62419576 106.97558983 -6.5390625 108.36328125 C-7.19326172 108.83217773 -7.84746094 109.30107422 -8.52148438 109.78417969 C-9.56272461 110.54069824 -9.56272461 110.54069824 -10.625 111.3125 C-12.12673989 112.38792666 -13.62938069 113.46209614 -15.1328125 114.53515625 C-16.31278809 115.37844482 -16.31278809 115.37844482 -17.51660156 116.23876953 C-21.81411561 119.28657393 -26.15454327 122.27111962 -30.5 125.25 C-31.33096191 125.82274658 -32.16192383 126.39549316 -33.01806641 126.9855957 C-33.78554199 127.51113037 -34.55301758 128.03666504 -35.34375 128.578125 C-36.02630859 129.04637695 -36.70886719 129.51462891 -37.41210938 129.99707031 C-39 131 -39 131 -40 131 C-39.36620571 126.03847908 -38.41785065 121.29517927 -37.1875 116.4375 C-36.9246521 115.39867676 -36.9246521 115.39867676 -36.65649414 114.33886719 C-35.20012634 108.64337079 -33.59075464 102.99636971 -31.94921875 97.3515625 C-30.50861634 92.26499103 -29.24218243 87.13811822 -28 82 C-35.60040224 75.56362333 -43.33930481 69.37878921 -51.25439453 63.33691406 C-54.45332402 60.88693674 -57.63554687 58.4158794 -60.8125 55.9375 C-61.73844971 55.22122437 -61.73844971 55.22122437 -62.68310547 54.49047852 C-64.1408936 53.35065872 -65.57333837 52.17854656 -67 51 C-67 50.67 -67 50.34 -67 50 C-49.99103795 49.29199937 -33.02392955 48.8475515 -16 49 C-15.73719238 47.71359619 -15.47438477 46.42719238 -15.20361328 45.10180664 C-14.07780289 40.04700804 -12.48229701 35.24311018 -10.7421875 30.37109375 C-10.43427277 29.49598648 -10.12635803 28.62087921 -9.80911255 27.71925354 C-8.83592261 24.95692936 -7.85559529 22.19720289 -6.875 19.4375 C-6.2091596 17.55160022 -5.54379051 15.66553396 -4.87890625 13.77929688 C-3.25804319 9.18425656 -1.63077929 4.59152991 0 0 Z M0 12 C-1.85739285 17.21232768 -3.70864006 22.42678107 -5.55419922 27.64331055 C-6.18304247 29.41799904 -6.81356779 31.19209244 -7.44580078 32.96557617 C-8.35370549 35.51326794 -9.25556074 38.06303109 -10.15625 40.61328125 C-10.44060913 41.40712723 -10.72496826 42.20097321 -11.01794434 43.01887512 C-12.11077417 46.12828553 -13 48.67853679 -13 52 C-13.78012451 52.02505615 -14.56024902 52.0501123 -15.36401367 52.07592773 C-18.97194545 52.19349944 -22.57971603 52.31548005 -26.1875 52.4375 C-27.41404297 52.47681641 -28.64058594 52.51613281 -29.90429688 52.55664062 C-37.95775381 52.83288057 -45.97118779 53.31229827 -54 54 C-51.70283771 56.99906424 -49.55999525 59.57958347 -46.49609375 61.796875 C-45.84253906 62.27672852 -45.18898438 62.75658203 -44.515625 63.25097656 C-43.82984375 63.7456543 -43.1440625 64.24033203 -42.4375 64.75 C-35.78027599 69.63946937 -29.32962537 74.6895516 -23 80 C-25.47798128 90.21020065 -28.01957538 100.33342942 -31.21875 110.34375 C-32.16930144 113.5756249 -32.68849479 116.65131902 -33 120 C-27.73453525 118.34994418 -23.68996674 115.05236105 -19.3125 111.8125 C-18.51175049 111.23040771 -17.71100098 110.64831543 -16.88598633 110.04858398 C-13.48466641 107.57574273 -10.09795508 105.0909861 -6.7734375 102.515625 C-5.92007813 101.87109375 -5.06671875 101.2265625 -4.1875 100.5625 C-3.12595703 99.72912109 -3.12595703 99.72912109 -2.04296875 98.87890625 C0 98 0 98 2.30029297 98.72509766 C5.18702459 100.08831999 7.63368293 101.67432141 10.23828125 103.51953125 C11.22376953 104.21240234 12.20925781 104.90527344 13.22460938 105.61914062 C14.24361328 106.34294922 15.26261719 107.06675781 16.3125 107.8125 C22.77949367 112.38449488 29.23144461 116.88387731 36 121 C34.47003209 112.37045464 32.04386186 104.11612363 29.47851562 95.74609375 C28.60705238 92.84121626 27.7915438 89.92753065 27 87 C26.65207397 85.8699353 26.65207397 85.8699353 26.29711914 84.71704102 C25.8125 82.68359375 25.8125 82.68359375 26 79 C28.10151728 76.17059392 30.7312466 74.25292012 33.5625 72.1875 C34.32941162 71.59364502 35.09632324 70.99979004 35.88647461 70.38793945 C37.46632797 69.16775935 39.05507982 67.95901741 40.65234375 66.76171875 C43.53595413 64.59781146 46.37280246 62.37845603 49.20483398 60.14770508 C50.42584374 59.1879391 51.65180726 58.23443596 52.88305664 57.2878418 C54.27293914 56.2142618 55.6394082 55.11046716 57 54 C57 53.67 57 53.34 57 53 C42.98696157 52.08432888 29.04093755 51.87688373 15 52 C14.88970459 51.17024658 14.77940918 50.34049316 14.66577148 49.4855957 C13.91959469 45.57904417 12.70702626 41.95434697 11.34765625 38.23046875 C10.95736488 37.14805656 10.95736488 37.14805656 10.55918884 36.04377747 C10.01124737 34.52928835 9.46062944 33.01576516 8.9074707 31.50317383 C8.05993726 29.18047671 7.2258582 26.85323361 6.39257812 24.52539062 C5.85757578 23.05179084 5.32179598 21.57847304 4.78515625 20.10546875 C4.41161766 19.05869209 4.41161766 19.05869209 4.03053284 17.99076843 C2.87567356 14.29859407 2.87567356 14.29859407 0 12 Z " fill="#063A6C" transform="translate(165,100)"/>
</svg>
