<?xml version="1.0" encoding="UTF-8"?>
<svg version="1.1" xmlns="http://www.w3.org/2000/svg" width="800" height="800">
<path d="M0 0 C0.91507324 0.16628906 1.83014648 0.33257812 2.77294922 0.50390625 C49.25562361 9.11033319 92.54523618 28.90411898 129 59 C129.56106445 59.45810059 130.12212891 59.91620117 130.70019531 60.38818359 C144.40567169 71.62198859 157.14102461 83.97299326 168 98 C168.86361102 99.06434948 169.72962678 100.1267509 170.59765625 101.1875 C182.12052367 115.37232154 191.51728885 130.8397278 200 147 C200.60859863 148.14202881 200.60859863 148.14202881 201.22949219 149.30712891 C221.1639337 187.14462752 230.217 230.5874462 230.25 273.125 C230.25101212 274.3076947 230.25101212 274.3076947 230.25204468 275.51428223 C230.17119273 335.44144457 210.18966136 397.33801041 172 444 C171.26394531 444.92683594 170.52789063 445.85367187 169.76953125 446.80859375 C158.43716983 460.94897393 145.78150676 475.39912141 131 486 C131.58913553 489.97510033 132.82045195 492.80697025 134.8515625 496.26171875 C135.44775391 497.28458984 136.04394531 498.30746094 136.65820312 499.36132812 C137.30724609 500.45896484 137.95628906 501.55660156 138.625 502.6875 C139.30478918 503.84916922 139.98381248 505.01128693 140.66210938 506.17382812 C142.07158303 508.58817446 143.48432987 511.00055922 144.89941406 513.41162109 C148.13055521 518.92318583 151.31272995 524.4629938 154.5 530 C155.74976947 532.16679965 156.99977024 534.3334659 158.25 536.5 C225.75 653.50000001 225.75 653.50000001 227.62817383 656.75561523 C228.86746267 658.90364046 230.10688141 661.05159075 231.34643555 663.19946289 C234.28202567 668.28655549 237.21625672 673.37441847 240.14590454 678.4649353 C241.53328095 680.87543748 242.92139624 683.28551376 244.30957031 685.69555664 C245.29173815 687.40143968 246.27283385 689.10793986 247.25390625 690.81445312 C247.846875 691.84376953 248.43984375 692.87308594 249.05078125 693.93359375 C249.57325439 694.84165771 250.09572754 695.74972168 250.6340332 696.68530273 C251.69977966 698.49126201 252.83680752 700.25521129 254 702 C254 702.99 254 703.98 254 705 C241.20305479 703.73426141 228.40644023 702.46523458 215.61022758 701.19211006 C209.66722861 700.60092964 203.72412522 700.01084521 197.78076172 699.42333984 C192.03573663 698.85539838 186.29101411 698.28448091 180.54648209 697.71157455 C178.36436418 697.4944639 176.18214267 697.27839178 173.99981308 697.06341934 C162.62604333 695.94234617 151.29338855 694.77911123 140 693 C139.82721527 693.5498053 139.65443054 694.0996106 139.47640991 694.66607666 C137.70747391 700.14994592 135.62273311 705.37271764 133.2265625 710.609375 C132.8665062 711.4058696 132.50644989 712.2023642 132.13548279 713.022995 C130.96931672 715.60049459 129.79713315 718.17520931 128.625 720.75 C127.80997747 722.54933957 126.99544783 724.34890248 126.18139648 726.14868164 C124.55128394 729.7517977 122.91928646 733.35404924 121.28564453 736.95556641 C118.1937698 743.77505097 115.12574647 750.60512033 112.0625 757.4375 C111.54848633 758.57960938 111.03447266 759.72171875 110.50488281 760.8984375 C107.9088773 766.6791647 105.35671516 772.47500833 102.86328125 778.30078125 C102.35982178 779.4700415 101.8563623 780.63930176 101.33764648 781.84399414 C100.38635776 784.05922181 99.44396288 786.27829722 98.51196289 788.50170898 C98.09293701 789.47567627 97.67391113 790.44964355 97.2421875 791.453125 C96.8797998 792.31067383 96.51741211 793.16822266 96.14404297 794.05175781 C95 796 95 796 92 797 C91.51926025 796.14341797 91.51926025 796.14341797 91.02880859 795.26953125 C84.26667374 783.23307472 77.42357766 771.25006938 70.44482422 759.33789062 C65.91083939 751.58812816 61.44456994 743.80119898 57 736 C51.46031101 726.27865901 45.86624937 716.59104908 40.21655273 706.93310547 C34.06233258 696.40915375 27.97630004 685.84619863 21.89111328 675.28222656 C18.76319852 669.85340058 15.63141552 664.42680719 12.5 659 C11.24998121 656.83334417 9.99998122 654.6666775 8.75 652.5 C8.13125 651.4275 7.5125 650.355 6.875 649.25 C-13.75 613.5 -13.75 613.5 -15.62719727 610.24609375 C-16.86976019 608.0923828 -18.11243489 605.93873633 -19.35522461 603.78515625 C-22.25314623 598.76315738 -25.15003349 593.74057193 -28.04275513 588.71557617 C-29.05947198 586.94954478 -30.07655658 585.18372569 -31.09375 583.41796875 C-32.36400873 581.21265845 -33.63359018 579.00695784 -34.90234375 576.80078125 C-40.18578367 566.33203005 -40.18578367 566.33203005 -47 557 C-47.56376343 557.97718994 -47.56376343 557.97718994 -48.13891602 558.97412109 C-64.00927734 586.4827474 -79.87963867 613.9913737 -95.75 641.5 C-96.36883057 642.57266113 -96.98766113 643.64532227 -97.62524414 644.75048828 C-98.87435518 646.91557071 -100.12354129 649.08060982 -101.37280273 651.24560547 C-104.51202309 656.68615706 -107.64990563 662.12747216 -110.78515625 667.5703125 C-116.80747329 678.02206199 -122.84669337 688.46299548 -128.9375 698.875 C-134.01275123 707.55262241 -139.02258767 716.26605568 -144 725 C-149.53254472 734.70804391 -155.11650756 744.38409497 -160.76147461 754.02734375 C-163.86916783 759.33881943 -166.96199589 764.65840354 -170.03125 769.9921875 C-170.53754189 770.87174606 -170.53754189 770.87174606 -171.05406189 771.76907349 C-172.6847291 774.60281236 -174.31344068 777.43765307 -175.93969727 780.27392578 C-177.6157401 783.18904231 -179.30244086 786.09736731 -181 789 C-181.72872314 790.24910156 -181.72872314 790.24910156 -182.47216797 791.5234375 C-183.58969078 793.38529501 -184.78600219 795.19956118 -186 797 C-186.66 797 -187.32 797 -188 797 C-197.30865438 776.32545191 -206.61558686 755.65019054 -215.8828125 734.95703125 C-217.81810668 730.63578342 -219.75600838 726.31572295 -221.69691467 721.99699402 C-222.90353138 719.31205127 -224.10941904 716.62678135 -225.3152771 713.9414978 C-225.88948287 712.66336208 -226.46403832 711.38538339 -227.03897095 710.10757446 C-227.83289162 708.3429639 -228.62545834 706.57774438 -229.41796875 704.8125 C-230.09508911 703.30623047 -230.09508911 703.30623047 -230.78588867 701.76953125 C-231.91281144 699.19888739 -232.97461401 696.61257008 -234 694 C-255.97945029 695.64433334 -277.88470817 698.01033372 -299.80297852 700.30938721 C-307.77171924 701.14508037 -315.74075402 701.97793719 -323.71005821 702.80823898 C-326.47724699 703.0971478 -329.24422184 703.38804421 -332.01118469 703.67910767 C-333.69209999 703.85467211 -335.37302302 704.03016253 -337.05395508 704.20556641 C-337.81897842 704.28658096 -338.58400177 704.36759552 -339.37220764 704.45106506 C-342.26490875 704.75142772 -345.08931869 705 -348 705 C-346.34587201 700.46874514 -344.10294229 696.38138882 -341.75 692.1875 C-341.31381348 691.40616699 -340.87762695 690.62483398 -340.42822266 689.81982422 C-336.24084956 682.35765465 -331.92300108 674.97276297 -327.59667969 667.59057617 C-323.01042201 659.75745932 -318.4927339 651.88692251 -314 644 C-308.46048161 634.27856294 -302.86624806 624.59104683 -297.21655273 614.93310547 C-291.06233258 604.40915375 -284.97630004 593.84619863 -278.89111328 583.28222656 C-275.76319852 577.85340058 -272.63141552 572.42680719 -269.5 567 C-268.24998121 564.83334417 -266.99998122 562.6666775 -265.75 560.5 C-258.25 547.50000001 -258.25 547.50000001 -256.37329102 544.24707031 C-255.12895002 542.09019097 -253.88464636 539.93329008 -252.64038086 537.77636719 C-249.76363263 532.78965174 -246.88655262 527.80312898 -244.0080719 522.81741333 C-233.96798192 505.42939927 -233.96798192 505.42939927 -224 488 C-224.75667969 487.24460937 -225.51335937 486.48921875 -226.29296875 485.7109375 C-227.78019082 484.22156937 -229.2649591 482.72968218 -230.73828125 481.2265625 C-233.72552228 478.18743391 -236.77269987 475.28409257 -240 472.5 C-246.56624714 466.803371 -252.18270485 460.71417031 -257.625 453.9296875 C-259.17795711 452.01403316 -260.76051457 450.12190588 -262.375 448.2578125 C-269.76347573 439.70896718 -275.9622871 430.53602876 -282 421 C-282.43844238 420.30777344 -282.87688477 419.61554688 -283.32861328 418.90234375 C-316.7418315 365.52347416 -330.73141051 299.39295403 -322 237 C-321.87641113 236.11006348 -321.75282227 235.22012695 -321.62548828 234.30322266 C-313.74469576 179.8445582 -290.18501207 129.0068188 -253.125 88.34375 C-251.17505276 86.19307289 -249.26973871 84.01175029 -247.375 81.8125 C-241.71672956 75.33475591 -235.54183003 69.57183455 -229 64 C-228.14921875 63.26007813 -227.2984375 62.52015625 -226.421875 61.7578125 C-214.1601151 51.27166264 -200.92868474 42.12971045 -186.93212891 34.11523438 C-184.94508157 32.96830081 -182.97891572 31.78997835 -181.01171875 30.609375 C-154.40314604 14.92644351 -124.24728171 5.57517394 -94 0 C-93.14116211 -0.16516113 -92.28232422 -0.33032227 -91.39746094 -0.50048828 C-62.35878398 -5.85321429 -28.97706807 -5.5517068 0 0 Z " fill="#E2E2E2" transform="translate(435,3)"/>
<path d="M0 0 C0.91023926 0.30566895 1.82047852 0.61133789 2.75830078 0.92626953 C28.00568315 9.47773791 51.11720697 20.20172021 72 37 C72.99773437 37.7940625 73.99546875 38.588125 75.0234375 39.40625 C89.28266102 50.98284745 102.22054776 64.12417934 113 79 C113.77601563 80.05445313 114.55203125 81.10890625 115.3515625 82.1953125 C121.24584191 90.43920157 126.22363681 99.07449459 131 108 C131.34417969 108.63244629 131.68835938 109.26489258 132.04296875 109.91650391 C141.74876104 127.85455585 148.03669655 147.03370675 152 167 C152.16371094 167.77972168 152.32742188 168.55944336 152.49609375 169.36279297 C157.87394143 195.76869176 156.49732648 224.78462437 151 251 C150.85046875 251.74330566 150.7009375 252.48661133 150.546875 253.25244141 C149.58876498 257.90437608 148.37544365 262.45711187 147 267 C146.73203613 267.88864746 146.46407227 268.77729492 146.18798828 269.69287109 C136.61599278 300.90409927 121.53196805 327.5547466 100 352 C99.34185303 352.75289307 99.34185303 352.75289307 98.67041016 353.52099609 C94.11633937 358.71471223 89.5201124 363.7151239 84.21484375 368.1484375 C82.55370502 369.53711432 80.92608714 370.96605262 79.31640625 372.4140625 C40.96146644 406.62473189 -10.0537517 423.17604147 -60.8125 423.3125 C-61.96664398 423.31814972 -61.96664398 423.31814972 -63.144104 423.32391357 C-78.10129992 423.36105199 -93.03372123 422.33785674 -107.625 418.875 C-108.53048584 418.66254639 -109.43597168 418.45009277 -110.36889648 418.23120117 C-140.90165346 410.78412356 -169.44483416 397.74574025 -194 378 C-194.98613281 377.21753906 -195.97226563 376.43507813 -196.98828125 375.62890625 C-212.5973689 362.98935235 -226.57230897 348.52272189 -238 332 C-238.76086914 330.90099365 -238.76086914 330.90099365 -239.53710938 329.77978516 C-255.87664916 305.81409135 -266.74568636 279.23658023 -273 251 C-273.22429687 249.99839844 -273.44859375 248.99679687 -273.6796875 247.96484375 C-274.21207275 245.31520331 -274.62838208 242.67709219 -275 240 C-275.18433594 238.71351563 -275.36867188 237.42703125 -275.55859375 236.1015625 C-282.95841615 179.48256516 -267.52764509 121.98236585 -232.99145508 76.63452148 C-227.50502567 69.56989816 -221.59638664 62.93443638 -215.41259766 56.47558594 C-214.10408851 55.10872986 -212.80737271 53.7306102 -211.51171875 52.3515625 C-186.89354698 26.80668377 -153.03367197 8.3434056 -119 -1 C-117.89011719 -1.33644531 -116.78023437 -1.67289062 -115.63671875 -2.01953125 C-80.09508478 -12.04024537 -35.18594168 -12.06164582 0 0 Z " fill="#787A7B" transform="translate(449,69)"/>
<path d="M0 0 C3.34702836 2.1823884 6.6134181 4.42850078 9.8203125 6.8125 C67.38833152 49.57616002 140.53852214 70.68332857 212.06689453 60.34277344 C214.71627593 59.92051189 217.35776348 59.4646726 220 59 C220.88945312 58.85546387 221.77890625 58.71092773 222.6953125 58.56201172 C248.80668926 54.31515055 274.30803193 45.72869706 298 34 C299.25551008 33.41192211 300.51204656 32.82603117 301.76953125 32.2421875 C318.60148955 24.29951473 334.41232349 13.67041218 348.69140625 1.75390625 C351 0 351 0 353 0 C353.35078613 0.63164062 353.70157227 1.26328125 354.06298828 1.9140625 C361.70985139 15.66702135 369.48090039 29.33369051 377.4375 42.91015625 C381.1321331 49.21570419 384.78852681 55.54294436 388.4375 61.875 C389.06003662 62.95515381 389.68257324 64.03530762 390.32397461 65.14819336 C391.58576826 67.33796334 392.84740534 69.52782355 394.10888672 71.71777344 C397.23680148 77.14659942 400.36858448 82.57319281 403.5 88 C404.75001879 90.16665583 406.00001878 92.3333225 407.25 94.5 C407.86875 95.5725 408.4875 96.645 409.125 97.75 C444.75 159.5 444.75 159.5 446.62719727 162.75390625 C447.86976019 164.9076172 449.11243489 167.06126367 450.35522461 169.21484375 C453.25314623 174.23684262 456.15003349 179.25942807 459.04275513 184.28442383 C460.05947198 186.05045522 461.07655658 187.81627431 462.09375 189.58203125 C463.36400873 191.78734155 464.63359018 193.99304216 465.90234375 196.19921875 C466.48242188 197.20597656 467.0625 198.21273437 467.66015625 199.25 C468.49184326 200.69439453 468.49184326 200.69439453 469.34033203 202.16796875 C471.46964934 205.80140222 473.68759761 209.37766114 475.93139648 212.94140625 C477 215 477 215 477 218 C464.20305479 216.73426141 451.40644023 215.46523458 438.61022758 214.19211006 C432.66722861 213.60092964 426.72412522 213.01084521 420.78076172 212.42333984 C415.03573663 211.85539838 409.29101411 211.28448091 403.54648209 210.71157455 C401.36436418 210.4944639 399.18214267 210.27839178 396.99981308 210.06341934 C385.62604333 208.94234617 374.29338855 207.77911123 363 206 C362.82721527 206.5498053 362.65443054 207.0996106 362.47640991 207.66607666 C360.70747391 213.14994592 358.62273311 218.37271764 356.2265625 223.609375 C355.8665062 224.4058696 355.50644989 225.2023642 355.13548279 226.022995 C353.96931672 228.60049459 352.79713315 231.17520931 351.625 233.75 C350.80997747 235.54933957 349.99544783 237.34890248 349.18139648 239.14868164 C347.55128394 242.7517977 345.91928646 246.35404924 344.28564453 249.95556641 C341.1937698 256.77505097 338.12574647 263.60512033 335.0625 270.4375 C334.54848633 271.57960938 334.03447266 272.72171875 333.50488281 273.8984375 C330.9088773 279.6791647 328.35671516 285.47500833 325.86328125 291.30078125 C325.35982178 292.4700415 324.8563623 293.63930176 324.33764648 294.84399414 C323.38635776 297.05922181 322.44396288 299.27829722 321.51196289 301.50170898 C321.09293701 302.47567627 320.67391113 303.44964355 320.2421875 304.453125 C319.8797998 305.31067383 319.51741211 306.16822266 319.14404297 307.05175781 C318 309 318 309 315 310 C314.51926025 309.14341797 314.51926025 309.14341797 314.02880859 308.26953125 C307.26667374 296.23307472 300.42357766 284.25006938 293.44482422 272.33789062 C288.91083939 264.58812816 284.44456994 256.80119898 280 249 C274.46031101 239.27865901 268.86624937 229.59104908 263.21655273 219.93310547 C257.06233258 209.40915375 250.97630004 198.84619863 244.89111328 188.28222656 C241.76319852 182.85340058 238.63141552 177.42680719 235.5 172 C234.24998121 169.83334417 232.99998122 167.6666775 231.75 165.5 C231.13125 164.4275 230.5125 163.355 229.875 162.25 C209.25 126.5 209.25 126.5 207.37280273 123.24609375 C206.13023981 121.0923828 204.88756511 118.93873633 203.64477539 116.78515625 C200.74685377 111.76315738 197.84996651 106.74057193 194.95724487 101.71557617 C193.94052802 99.94954478 192.92344342 98.18372569 191.90625 96.41796875 C190.63599127 94.21265845 189.36640982 92.00695784 188.09765625 89.80078125 C182.81421633 79.33203005 182.81421633 79.33203005 176 70 C175.62415771 70.65145996 175.24831543 71.30291992 174.86108398 71.97412109 C151.05554199 113.23706055 151.05554199 113.23706055 127.25 154.5 C126.63116943 155.57266113 126.01233887 156.64532227 125.37475586 157.75048828 C124.12564482 159.91557071 122.87645871 162.08060982 121.62719727 164.24560547 C118.48797691 169.68615706 115.35009437 175.12747216 112.21484375 180.5703125 C106.19252671 191.02206199 100.15330663 201.46299548 94.0625 211.875 C88.98724877 220.55262241 83.97741233 229.26605568 79 238 C73.46745528 247.70804391 67.88349244 257.38409497 62.23852539 267.02734375 C59.13083217 272.33881943 56.03800411 277.65840354 52.96875 282.9921875 C52.46245811 283.87174606 52.46245811 283.87174606 51.94593811 284.76907349 C50.3152709 287.60281236 48.68655932 290.43765307 47.06030273 293.27392578 C45.3842599 296.18904231 43.69755914 299.09736731 42 302 C41.51418457 302.83273437 41.02836914 303.66546875 40.52783203 304.5234375 C39.41030922 306.38529501 38.21399781 308.19956118 37 310 C36.34 310 35.68 310 35 310 C25.69134562 289.32545191 16.38441314 268.65019054 7.1171875 247.95703125 C5.18189332 243.63578342 3.24399162 239.31572295 1.30308533 234.99699402 C0.09646862 232.31205127 -1.10941904 229.62678135 -2.3152771 226.9414978 C-2.88948287 225.66336208 -3.46403832 224.38538339 -4.03897095 223.10757446 C-4.83289162 221.3429639 -5.62545834 219.57774438 -6.41796875 217.8125 C-7.09508911 216.30623047 -7.09508911 216.30623047 -7.78588867 214.76953125 C-8.91281144 212.19888739 -9.97461401 209.61257008 -11 207 C-32.97945029 208.64433334 -54.88470817 211.01033372 -76.80297852 213.30938721 C-84.77171924 214.14508037 -92.74075402 214.97793719 -100.71005821 215.80823898 C-103.47724699 216.0971478 -106.24422184 216.38804421 -109.01118469 216.67910767 C-110.69209999 216.85467211 -112.37302302 217.03016253 -114.05395508 217.20556641 C-114.81897842 217.28658096 -115.58400177 217.36759552 -116.37220764 217.45106506 C-119.26490875 217.75142772 -122.08931869 218 -125 218 C-123.34587201 213.46874514 -121.10294229 209.38138882 -118.75 205.1875 C-118.31381348 204.40616699 -117.87762695 203.62483398 -117.42822266 202.81982422 C-113.24084956 195.35765465 -108.92300108 187.97276297 -104.59667969 180.59057617 C-100.01042201 172.75745932 -95.4927339 164.88692251 -91 157 C-85.46048161 147.27856294 -79.86624806 137.59104683 -74.21655273 127.93310547 C-68.06233258 117.40915375 -61.97630004 106.84619863 -55.89111328 96.28222656 C-52.76319852 90.85340058 -49.63141552 85.42680719 -46.5 80 C-45.24998121 77.83334417 -43.99998122 75.6666775 -42.75 73.5 C-39 67 -39 67 -35.25 60.5 C-34.3211499 58.88992065 -34.3211499 58.88992065 -33.37353516 57.24731445 C-32.12858718 55.08950197 -30.8834711 52.93178647 -29.63818359 50.77416992 C-26.43447349 45.22283408 -23.2340637 39.66963459 -20.0390625 34.11328125 C-13.46078718 22.67967041 -6.86060273 11.26700611 0 0 Z " fill="#3578BE" transform="translate(212,490)"/>
<path d="M0 0 C3.16956298 3.79621869 5.19098142 8.10105779 7.37963867 12.50048828 C7.80923386 13.35617401 8.23882904 14.21185974 8.68144226 15.09347534 C10.09764479 17.91709079 11.5079872 20.74358607 12.91796875 23.5703125 C13.89993768 25.53290327 14.88214411 27.49537522 15.86457825 29.45773315 C17.92070663 33.56704269 19.9739363 37.67778417 22.02514648 41.78955078 C24.65950909 47.06969118 27.30105991 52.34619689 29.94477367 57.62166023 C31.97303811 61.67097768 33.99750325 65.72218506 36.02080727 69.773983 C36.99370042 71.7211067 37.96778956 73.66763327 38.94307518 75.61355972 C40.30210378 78.32656131 41.65600884 81.04205793 43.00854492 83.75830078 C43.61862396 84.97238617 43.61862396 84.97238617 44.24102783 86.21099854 C47 91.77146862 47 91.77146862 47 94 C48.27182129 94.06912598 48.27182129 94.06912598 49.56933594 94.13964844 C60.51170645 94.79566585 71.36534491 95.96590102 82.25 97.25 C83.6363414 97.4117421 83.6363414 97.4117421 85.0506897 97.57675171 C103.41540899 99.72392804 121.71559562 102.25689833 140 105 C136.02397291 110.53028396 131.76690252 115.57974616 127.0625 120.5 C125.81942059 121.81556406 124.57722182 123.13196082 123.3359375 124.44921875 C122.75295898 125.06716309 122.16998047 125.68510742 121.56933594 126.32177734 C119.19017251 128.86601652 116.90249538 131.48281864 114.62890625 134.12109375 C110.39028533 139.01024642 106.00840736 143.77592474 101.671875 148.578125 C97.69034057 152.99302372 93.73650643 157.42749261 89.8359375 161.9140625 C86.87309149 165.28035988 83.84447831 168.58723222 80.8203125 171.8984375 C78.76955149 174.26605429 77.99663973 175.21093632 78.00999451 178.34692383 C78.7814094 188.56872128 80.44856877 198.58820403 82.16015625 208.6875 C82.47321958 210.56256116 82.78566272 212.43772597 83.09751892 214.31298828 C83.9131669 219.21077501 84.73482643 224.10753002 85.55853271 229.00396729 C86.8812002 236.8670869 88.19864867 244.73106099 89.50839043 252.59634399 C89.96579841 255.33395548 90.42828898 258.0706754 90.89112854 260.80737305 C91.17120665 262.48352501 91.45107926 264.15971133 91.73071289 265.8359375 C91.86005219 266.59235031 91.98939148 267.34876312 92.12265015 268.12809753 C92.72840517 271.78955072 93.14804618 275.28674326 93 279 C87.92209801 277.47272871 83.37440114 275.31727016 78.6640625 272.9296875 C77.86704926 272.52976593 77.07003601 272.12984436 76.24887085 271.71780396 C73.70566633 270.4406353 71.1652896 269.15795501 68.625 267.875 C66.95721896 267.03608506 65.28925171 266.1975402 63.62109375 265.359375 C60.32224681 263.70127388 57.02427619 262.04145015 53.72705078 260.38012695 C42.42387598 254.68667063 31.11031917 249.0129331 19.73242188 243.4699707 C18.47474021 242.85551188 17.21859371 242.23790256 15.96386719 241.61743164 C14.10185281 240.69713937 12.23515957 239.78703266 10.3671875 238.87890625 C9.28550293 238.3485376 8.20381836 237.81816895 7.08935547 237.27172852 C1.70261393 235.01058381 1.70261393 235.01058381 -3.97921562 235.63164425 C-6.34773255 236.68091029 -8.64214672 237.8266216 -10.94287109 239.01733398 C-11.8215686 239.45609863 -12.70026611 239.89486328 -13.60559082 240.34692383 C-16.50271846 241.79827021 -19.38785697 243.27194126 -22.2734375 244.74609375 C-24.28198276 245.75782811 -26.29124007 246.76815002 -28.30117798 247.77711487 C-33.58550999 250.43454232 -38.85994999 253.11104929 -44.13256836 255.79162598 C-49.51613682 258.52435143 -54.90882677 261.23894788 -60.30078125 263.95507812 C-70.8762009 269.28566789 -81.44126027 274.63645569 -92 280 C-93.35015351 275.94953947 -92.46114446 272.56788221 -91.75244141 268.46118164 C-91.60789017 267.58934738 -91.46333893 266.71751312 -91.31440735 265.81925964 C-90.83379812 262.93167149 -90.34278447 260.04595639 -89.8515625 257.16015625 C-89.51563524 255.15630303 -89.18030583 253.15234951 -88.84555054 251.14830017 C-88.14197808 246.94520214 -87.43371448 242.74293239 -86.72167969 238.54125977 C-85.80875726 233.1540924 -84.90348275 227.76567865 -84.00121498 222.37671757 C-83.14123761 217.24162544 -82.27796286 212.10708965 -81.4140625 206.97265625 C-81.16664747 205.50062587 -81.16664747 205.50062587 -80.91423416 203.9988575 C-80.44672548 201.22167038 -79.97693841 198.44487921 -79.50634766 195.66821289 C-79.36811081 194.84574066 -79.22987396 194.02326843 -79.08744812 193.1758728 C-78.10962429 187.42832929 -78.10962429 187.42832929 -77.48015404 184.96883297 C-76.70766517 181.80130455 -76.65982861 179.25091628 -77 176 C-78.64274345 173.69778269 -80.07000072 171.99561803 -82.0625 170.0625 C-83.08269535 169.01496927 -84.10222741 167.96679217 -85.12109375 166.91796875 C-85.61851074 166.41700684 -86.11592773 165.91604492 -86.62841797 165.39990234 C-88.37070345 163.6216423 -90.00415705 161.76406756 -91.625 159.875 C-95.68740725 155.19355926 -99.84597333 150.60009665 -104 146 C-108.77033937 140.71740942 -113.51894407 135.42065865 -118.1953125 130.0546875 C-120.23802091 127.7290065 -122.30389706 125.42542922 -124.375 123.125 C-125.12523437 122.29097656 -125.87546875 121.45695312 -126.6484375 120.59765625 C-128.27022696 118.80614464 -129.90101154 117.02274902 -131.5390625 115.24609375 C-132.35117187 114.36050781 -133.16328125 113.47492188 -134 112.5625 C-135.11375 111.35787109 -135.11375 111.35787109 -136.25 110.12890625 C-138 108 -138 108 -139 105 C-129.07139718 103.45814639 -119.13444308 101.97223088 -109.17424011 100.64788818 C-106.71860839 100.30992039 -104.26610316 99.9479883 -101.8183136 99.55725098 C-94.99628693 98.5316321 -88.55490022 97.9072618 -81.65264034 98.21699333 C-62.07662719 99.09543376 -62.07662719 99.09543376 -44.86549377 91.14386749 C-34.48935437 79.65173698 -28.7491116 64.16210461 -22.8505249 50.06726074 C-20.48173405 44.50621444 -17.92800847 39.03158768 -15.38867188 33.546875 C-11.32520746 24.71953861 -7.37641301 15.85168321 -3.5770874 6.90731812 C-1.09954193 1.09954193 -1.09954193 1.09954193 0 0 Z " fill="#F6F8F8" transform="translate(389,126)"/>
<path d="M0 0 C0.35078613 0.63164062 0.70157227 1.26328125 1.06298828 1.9140625 C8.70985139 15.66702135 16.48090039 29.33369051 24.4375 42.91015625 C28.1321331 49.21570419 31.78852681 55.54294436 35.4375 61.875 C36.06003662 62.95515381 36.68257324 64.03530762 37.32397461 65.14819336 C38.58576826 67.33796334 39.84740534 69.52782355 41.10888672 71.71777344 C44.23680148 77.14659942 47.36858448 82.57319281 50.5 88 C51.75001879 90.16665583 53.00001878 92.3333225 54.25 94.5 C55.178125 96.10875 55.178125 96.10875 56.125 97.75 C91.75 159.5 91.75 159.5 93.62719727 162.75390625 C94.86976019 164.9076172 96.11243489 167.06126367 97.35522461 169.21484375 C100.25314623 174.23684262 103.15003349 179.25942807 106.04275513 184.28442383 C107.05947198 186.05045522 108.07655658 187.81627431 109.09375 189.58203125 C110.36400873 191.78734155 111.63359018 193.99304216 112.90234375 196.19921875 C113.48242188 197.20597656 114.0625 198.21273437 114.66015625 199.25 C115.21461426 200.21292969 115.76907227 201.17585937 116.34033203 202.16796875 C118.46964934 205.80140222 120.68759761 209.37766114 122.93139648 212.94140625 C124 215 124 215 124 218 C111.20305479 216.73426141 98.40644023 215.46523458 85.61022758 214.19211006 C79.66722861 213.60092964 73.72412522 213.01084521 67.78076172 212.42333984 C62.03573663 211.85539838 56.29101411 211.28448091 50.54648209 210.71157455 C48.36436418 210.4944639 46.18214267 210.27839178 43.99981308 210.06341934 C38.15777387 209.48758973 32.3181896 208.89494337 26.48177528 208.26448822 C24.89169423 208.0950298 23.30095078 207.9316121 21.70946312 207.77591705 C19.73473785 207.58127399 17.76279907 207.35890728 15.79125977 207.13427734 C14.74688248 207.02272308 13.70250519 206.91116882 12.6264801 206.79623413 C8.27206379 205.47616516 6.64148534 202.47516515 4.55493164 198.61376953 C3.81617798 197.07245361 3.81617798 197.07245361 3.0625 195.5 C1.89697416 193.2988747 0.73026713 191.09837454 -0.4375 188.8984375 C-1.02144531 187.75729492 -1.60539063 186.61615234 -2.20703125 185.44042969 C-5.09767471 179.89373203 -8.27856074 174.52181172 -11.4375 169.125 C-12.69833537 166.94109673 -13.95744205 164.75619454 -15.21484375 162.5703125 C-18.97355381 156.04513757 -22.7364175 149.5223655 -26.5 143 C-27.75001879 140.83334417 -29.00001878 138.6666775 -30.25 136.5 C-30.86875 135.4275 -31.4875 134.355 -32.125 133.25 C-39 121.33333333 -45.875 109.41666667 -52.75 97.5 C-53.67969604 95.88871216 -53.67969604 95.88871216 -54.62817383 94.24487305 C-55.86802723 92.09554585 -57.1074535 89.94597219 -58.34643555 87.79614258 C-61.27163763 82.72165511 -64.20111723 77.64978383 -67.14590454 72.5866394 C-68.5354863 70.19684332 -69.92262172 67.80563164 -71.30957031 65.41430664 C-72.28863253 63.72859411 -73.27122606 62.04493413 -74.25390625 60.36132812 C-74.846875 59.33845703 -75.43984375 58.31558594 -76.05078125 57.26171875 C-76.57325439 56.36412842 -77.09572754 55.46653809 -77.6340332 54.54174805 C-79 52 -79 52 -80.05932617 49.23364258 C-80.7833507 46.83718477 -80.7833507 46.83718477 -83 46 C-82.12601562 45.65388672 -82.12601562 45.65388672 -81.234375 45.30078125 C-53.47738044 34.25908373 -27.38511766 20.9632256 -4.27734375 1.734375 C-2 0 -2 0 0 0 Z " fill="#408ED6" transform="translate(565,490)"/>
<path d="M0 0 C3.34702836 2.1823884 6.6134181 4.42850078 9.8203125 6.8125 C31.73607771 23.09234337 55.47071286 36.22802406 81 46 C79.62551133 49.63632623 77.99565142 52.97064121 76.09375 56.359375 C75.23342163 57.89549438 75.23342163 57.89549438 74.35571289 59.46264648 C73.74332764 60.54747314 73.13094238 61.6322998 72.5 62.75 C71.86634521 63.87672119 71.23269043 65.00344238 70.57983398 66.16430664 C66.74999436 72.95517743 62.86664399 79.70984746 58.8894043 86.4152832 C55.14695337 92.72724525 51.47596521 99.07941601 47.8125 105.4375 C46.85549194 107.09833618 46.85549194 107.09833618 45.87915039 108.79272461 C44.57110523 111.06337068 43.26324552 113.33412358 41.95556641 115.60498047 C38.80667946 121.0716998 35.65316736 126.53574887 32.5 132 C31.2499765 134.16665311 29.99997653 136.33331979 28.75 138.5 C26.25 142.83333333 23.75 147.16666667 21.25 151.5 C20.6305249 152.57386963 20.0110498 153.64773926 19.37280273 154.75415039 C18.13052194 156.90721037 16.88785012 159.06004478 15.64477539 161.21264648 C12.74163888 166.24101461 9.84221133 171.27139814 6.95724487 176.31021118 C5.94122816 178.08432545 4.92393072 179.85769919 3.90625 181.63085938 C2.63417708 183.84815314 1.36447715 186.06681075 0.09765625 188.28710938 C-1.04909838 190.28373661 -2.21263828 192.27084392 -3.39501953 194.24658203 C-5.01987502 196.94657474 -5.01987502 196.94657474 -6.27294922 199.67138672 C-7.64381288 202.28347294 -8.83303913 203.99396857 -11 206 C-13.60824585 206.73252869 -13.60824585 206.73252869 -16.81005859 207.09350586 C-18.06578171 207.24201492 -19.32150482 207.39052399 -20.61528015 207.54353333 C-22.07676078 207.69657631 -23.53834056 207.84867438 -25 208 C-26.66099502 208.18320241 -28.32190515 208.36717561 -29.98274231 208.55180359 C-35.81247448 209.19025009 -41.64624331 209.78708108 -47.48046875 210.3828125 C-49.62805679 210.60395953 -51.7756242 210.82530701 -53.923172 211.04684448 C-58.39334969 211.50739366 -62.86371179 211.96609365 -67.33422852 212.42333984 C-73.06889017 213.00995571 -78.80314906 213.60040616 -84.53728771 214.19211006 C-88.9576846 214.64797698 -93.37824108 215.10227967 -97.79885292 215.55605698 C-99.91484833 215.77337208 -102.03080395 215.99107499 -104.14671898 216.2091713 C-107.09009004 216.51223341 -110.03365879 216.8132944 -112.97729492 217.11376953 C-114.28865669 217.24931747 -114.28865669 217.24931747 -115.62651062 217.38760376 C-118.76431093 217.70626562 -121.84374419 218 -125 218 C-123.34587201 213.46874514 -121.10294229 209.38138882 -118.75 205.1875 C-118.31381348 204.40616699 -117.87762695 203.62483398 -117.42822266 202.81982422 C-113.24084956 195.35765465 -108.92300108 187.97276297 -104.59667969 180.59057617 C-100.01042201 172.75745932 -95.4927339 164.88692251 -91 157 C-85.46048161 147.27856294 -79.86624806 137.59104683 -74.21655273 127.93310547 C-68.06233258 117.40915375 -61.97630004 106.84619863 -55.89111328 96.28222656 C-52.76319852 90.85340058 -49.63141552 85.42680719 -46.5 80 C-45.24998121 77.83334417 -43.99998122 75.6666775 -42.75 73.5 C-39 67 -39 67 -35.25 60.5 C-34.3211499 58.88992065 -34.3211499 58.88992065 -33.37353516 57.24731445 C-32.12858718 55.08950197 -30.8834711 52.93178647 -29.63818359 50.77416992 C-26.43447349 45.22283408 -23.2340637 39.66963459 -20.0390625 34.11328125 C-13.46078718 22.67967041 -6.86060273 11.26700611 0 0 Z " fill="#2B63A6" transform="translate(212,490)"/>
<path d="M0 0 C0.91023926 0.30566895 1.82047852 0.61133789 2.75830078 0.92626953 C28.00568315 9.47773791 51.11720697 20.20172021 72 37 C72.99773437 37.7940625 73.99546875 38.588125 75.0234375 39.40625 C89.28266102 50.98284745 102.22054776 64.12417934 113 79 C113.77601563 80.05445313 114.55203125 81.10890625 115.3515625 82.1953125 C119.6249793 88.1722219 123.47420454 94.31538419 127.125 100.6875 C127.52799316 101.38343262 127.93098633 102.07936523 128.34619141 102.79638672 C129.29657974 104.49577057 130.15729778 106.24472326 131 108 C130.67 108.66 130.34 109.32 130 110 C129.52691406 109.33355469 129.05382812 108.66710937 128.56640625 107.98046875 C114.18407286 87.93491637 97.9897346 70.52655956 78 56 C77.44924805 55.59813477 76.89849609 55.19626953 76.33105469 54.78222656 C50.53228536 36.20052445 20.79179956 24.3652301 -10.25 18.25 C-11.31492676 18.03899658 -12.37985352 17.82799316 -13.47705078 17.6105957 C-65.67917561 7.79298664 -124.18382135 19.9404178 -168.0859375 49.8984375 C-169.04757812 50.59195313 -170.00921875 51.28546875 -171 52 C-172.00289063 52.71414062 -173.00578125 53.42828125 -174.0390625 54.1640625 C-221.35583435 88.76521608 -253.61203865 139.0553144 -262.84375 197.2109375 C-265.8588416 217.58601203 -266.72693798 238.66489464 -263 259 C-262.78882854 260.3341893 -262.58063696 261.66885273 -262.375 263.00390625 C-260.64776268 273.87252507 -257.93306953 284.40223415 -255 295 C-254.39554213 297.22908772 -253.79131785 299.45823882 -253.1875 301.6875 C-252.79260725 303.12525867 -252.39722531 304.56288402 -252 306 C-255.33214576 303.29200239 -256.68699479 299.66561737 -258.3125 295.8125 C-258.61591309 295.10125977 -258.91932617 294.39001953 -259.23193359 293.65722656 C-260.16722608 291.44316434 -261.08631323 289.22305687 -262 287 C-262.40919678 286.01362549 -262.40919678 286.01362549 -262.82666016 285.00732422 C-267.36279909 273.94995761 -270.38998236 262.65082138 -273 251 C-273.22558594 249.99453125 -273.45117188 248.9890625 -273.68359375 247.953125 C-274.21354954 245.30745423 -274.62898192 242.67277105 -275 240 C-275.18433594 238.71351563 -275.36867188 237.42703125 -275.55859375 236.1015625 C-282.95841615 179.48256516 -267.52764509 121.98236585 -232.99145508 76.63452148 C-227.50502567 69.56989816 -221.59638664 62.93443638 -215.41259766 56.47558594 C-214.10408851 55.10872986 -212.80737271 53.7306102 -211.51171875 52.3515625 C-186.89354698 26.80668377 -153.03367197 8.3434056 -119 -1 C-117.89011719 -1.33644531 -116.78023437 -1.67289062 -115.63671875 -2.01953125 C-80.09508478 -12.04024537 -35.18594168 -12.06164582 0 0 Z " fill="#5A5A5A" transform="translate(449,69)"/>
<path d="M0 0 C2.45823172 3.68734758 3.01242616 6.69699971 4 11 C1.66666177 8.87878343 0.0851114 6.98405635 -1 4 C-0.625 1.75 -0.625 1.75 0 0 Z " fill="#646464" transform="translate(193,364)"/>
</svg>
