<?xml version="1.0" encoding="UTF-8"?>
<svg xmlns="http://www.w3.org/2000/svg" xmlns:xlink="http://www.w3.org/1999/xlink" width="50px" height="px" viewBox="0 0 50 50" version="1.1">
<g id="surface1">
<path style=" stroke:none;fill-rule:nonzero;fill:rgb(88.627452%,88.627452%,88.627452%);fill-opacity:1;" d="M 27.1875 0.1875 C 27.246094 0.199219 27.300781 0.207031 27.359375 0.21875 C 30.265625 0.757812 32.972656 1.992188 35.25 3.875 C 35.285156 3.902344 35.320312 3.933594 35.355469 3.960938 C 36.210938 4.664062 37.007812 5.4375 37.6875 6.3125 C 37.742188 6.378906 37.796875 6.445312 37.851562 6.511719 C 38.570312 7.398438 39.15625 8.363281 39.6875 9.375 C 39.726562 9.445312 39.726562 9.445312 39.765625 9.519531 C 41.011719 11.882812 41.574219 14.597656 41.578125 17.257812 C 41.578125 17.332031 41.578125 17.332031 41.578125 17.40625 C 41.574219 21.152344 40.324219 25.019531 37.9375 27.9375 C 37.890625 27.996094 37.84375 28.054688 37.796875 28.113281 C 37.089844 28.996094 36.300781 29.898438 35.375 30.5625 C 35.410156 30.8125 35.488281 30.988281 35.617188 31.203125 C 35.652344 31.269531 35.691406 31.332031 35.730469 31.398438 C 35.769531 31.464844 35.808594 31.535156 35.851562 31.605469 C 35.894531 31.679688 35.9375 31.75 35.980469 31.824219 C 36.066406 31.972656 36.15625 32.125 36.242188 32.277344 C 36.445312 32.621094 36.644531 32.964844 36.84375 33.3125 C 36.921875 33.449219 37 33.582031 37.078125 33.71875 C 41.296875 41.03125 41.296875 41.03125 41.414062 41.234375 C 41.492188 41.367188 41.570312 41.503906 41.648438 41.636719 C 41.832031 41.957031 42.011719 42.273438 42.195312 42.589844 C 42.285156 42.742188 42.371094 42.894531 42.457031 43.042969 C 42.519531 43.148438 42.578125 43.257812 42.640625 43.363281 C 42.679688 43.429688 42.714844 43.492188 42.753906 43.558594 C 42.785156 43.613281 42.820312 43.671875 42.851562 43.730469 C 42.917969 43.84375 42.988281 43.953125 43.0625 44.0625 C 43.0625 44.125 43.0625 44.1875 43.0625 44.25 C 42.261719 44.171875 41.464844 44.089844 40.664062 44.011719 C 40.292969 43.976562 39.921875 43.9375 39.546875 43.902344 C 39.191406 43.867188 38.832031 43.832031 38.472656 43.792969 C 38.335938 43.78125 38.199219 43.765625 38.0625 43.753906 C 37.351562 43.683594 36.644531 43.609375 35.9375 43.5 C 35.925781 43.535156 35.914062 43.570312 35.90625 43.605469 C 35.792969 43.945312 35.664062 44.273438 35.515625 44.601562 C 35.492188 44.648438 35.46875 44.699219 35.445312 44.75 C 35.375 44.914062 35.300781 45.074219 35.226562 45.234375 C 35.175781 45.347656 35.125 45.460938 35.074219 45.570312 C 34.972656 45.796875 34.871094 46.023438 34.769531 46.246094 C 34.574219 46.671875 34.382812 47.101562 34.191406 47.527344 C 34.160156 47.597656 34.128906 47.671875 34.09375 47.742188 C 33.933594 48.105469 33.773438 48.46875 33.617188 48.832031 C 33.585938 48.90625 33.554688 48.976562 33.519531 49.054688 C 33.460938 49.191406 33.402344 49.328125 33.34375 49.46875 C 33.316406 49.53125 33.292969 49.589844 33.265625 49.652344 C 33.242188 49.707031 33.21875 49.761719 33.195312 49.816406 C 33.125 49.9375 33.125 49.9375 32.9375 50 C 32.90625 49.945312 32.90625 49.945312 32.875 49.890625 C 32.453125 49.140625 32.027344 48.390625 31.589844 47.644531 C 31.308594 47.160156 31.027344 46.675781 30.75 46.1875 C 30.402344 45.578125 30.054688 44.972656 29.699219 44.371094 C 29.316406 43.714844 28.9375 43.054688 28.554688 42.394531 C 28.359375 42.054688 28.164062 41.714844 27.96875 41.375 C 27.890625 41.238281 27.8125 41.105469 27.734375 40.96875 C 27.695312 40.902344 27.65625 40.835938 27.617188 40.765625 C 26.328125 38.53125 26.328125 38.53125 26.210938 38.328125 C 26.132812 38.191406 26.054688 38.058594 25.976562 37.925781 C 25.796875 37.609375 25.617188 37.296875 25.433594 36.980469 C 25.371094 36.871094 25.308594 36.761719 25.242188 36.652344 C 25.164062 36.511719 25.085938 36.375 25.007812 36.238281 C 24.675781 35.582031 24.675781 35.582031 24.25 35 C 24.214844 35.0625 24.214844 35.0625 24.179688 35.125 C 23.1875 36.84375 22.195312 38.5625 21.203125 40.28125 C 21.164062 40.347656 21.125 40.414062 21.085938 40.484375 C 21.007812 40.621094 20.929688 40.753906 20.851562 40.890625 C 20.65625 41.230469 20.460938 41.570312 20.261719 41.910156 C 19.886719 42.5625 19.507812 43.214844 19.128906 43.867188 C 18.8125 44.410156 18.5 44.953125 18.1875 45.5 C 17.839844 46.105469 17.492188 46.710938 17.140625 47.3125 C 16.945312 47.644531 16.753906 47.980469 16.5625 48.3125 C 16.527344 48.367188 16.527344 48.367188 16.496094 48.421875 C 16.394531 48.601562 16.292969 48.777344 16.191406 48.953125 C 16.085938 49.136719 15.980469 49.320312 15.875 49.5 C 15.828125 49.578125 15.828125 49.578125 15.78125 49.65625 C 15.714844 49.773438 15.636719 49.886719 15.5625 50 C 15.519531 50 15.480469 50 15.4375 50 C 14.855469 48.707031 14.273438 47.414062 13.695312 46.121094 C 13.574219 45.851562 13.453125 45.582031 13.332031 45.3125 C 13.257812 45.144531 13.179688 44.976562 13.105469 44.808594 C 13.070312 44.730469 13.035156 44.648438 12.996094 44.570312 C 12.949219 44.457031 12.898438 44.347656 12.847656 44.238281 C 12.804688 44.144531 12.804688 44.144531 12.761719 44.046875 C 12.691406 43.886719 12.625 43.726562 12.5625 43.5625 C 11.1875 43.664062 9.820312 43.8125 8.449219 43.957031 C 7.953125 44.007812 7.453125 44.0625 6.957031 44.113281 C 6.78125 44.132812 6.609375 44.148438 6.4375 44.167969 C 6.332031 44.179688 6.226562 44.1875 6.121094 44.199219 C 6.074219 44.207031 6.027344 44.210938 5.976562 44.214844 C 5.796875 44.234375 5.621094 44.25 5.4375 44.25 C 5.539062 43.964844 5.679688 43.710938 5.828125 43.449219 C 5.855469 43.398438 5.882812 43.351562 5.910156 43.300781 C 6.171875 42.835938 6.441406 42.375 6.710938 41.910156 C 7 41.421875 7.28125 40.929688 7.5625 40.4375 C 7.910156 39.828125 8.257812 39.222656 8.613281 38.621094 C 8.996094 37.964844 9.375 37.304688 9.757812 36.644531 C 9.953125 36.304688 10.148438 35.964844 10.34375 35.625 C 10.421875 35.488281 10.5 35.355469 10.578125 35.21875 C 11.046875 34.40625 11.046875 34.40625 11.164062 34.203125 C 11.242188 34.066406 11.320312 33.933594 11.398438 33.796875 C 11.578125 33.488281 11.757812 33.175781 11.9375 32.863281 C 12.566406 31.777344 12.566406 31.777344 13.1875 30.6875 C 13.140625 30.640625 13.09375 30.59375 13.042969 30.542969 C 12.953125 30.453125 12.859375 30.359375 12.765625 30.265625 C 12.578125 30.074219 12.390625 29.894531 12.1875 29.71875 C 11.777344 29.363281 11.425781 28.980469 11.085938 28.558594 C 10.988281 28.4375 10.890625 28.320312 10.789062 28.203125 C 10.328125 27.667969 9.941406 27.097656 9.5625 26.5 C 9.535156 26.457031 9.507812 26.414062 9.480469 26.367188 C 7.390625 23.03125 6.515625 18.898438 7.0625 15 C 7.070312 14.945312 7.078125 14.890625 7.085938 14.832031 C 7.578125 11.429688 9.050781 8.25 11.367188 5.710938 C 11.488281 5.574219 11.609375 5.4375 11.726562 5.300781 C 12.082031 4.894531 12.464844 4.535156 12.875 4.1875 C 12.929688 4.140625 12.980469 4.09375 13.035156 4.046875 C 13.800781 3.390625 14.628906 2.820312 15.503906 2.320312 C 15.628906 2.246094 15.75 2.175781 15.875 2.101562 C 17.539062 1.121094 19.421875 0.535156 21.3125 0.1875 C 21.367188 0.175781 21.417969 0.167969 21.476562 0.15625 C 23.289062 -0.179688 25.375 -0.160156 27.1875 0.1875 Z M 27.1875 0.1875 "/>
<path style=" stroke:none;fill-rule:nonzero;fill:rgb(47.058824%,47.843137%,48.235294%);fill-opacity:1;" d="M 28.0625 4.3125 C 28.121094 4.332031 28.175781 4.351562 28.234375 4.371094 C 29.8125 4.90625 31.257812 5.574219 32.5625 6.625 C 32.625 6.675781 32.6875 6.722656 32.75 6.773438 C 33.644531 7.5 34.453125 8.320312 35.125 9.25 C 35.171875 9.316406 35.222656 9.382812 35.273438 9.449219 C 35.640625 9.964844 35.953125 10.503906 36.25 11.0625 C 36.273438 11.101562 36.292969 11.140625 36.316406 11.183594 C 36.921875 12.304688 37.316406 13.503906 37.5625 14.75 C 37.574219 14.796875 37.582031 14.847656 37.59375 14.898438 C 37.929688 16.546875 37.84375 18.363281 37.5 20 C 37.492188 20.046875 37.480469 20.09375 37.472656 20.140625 C 37.410156 20.429688 37.335938 20.714844 37.25 21 C 37.234375 21.054688 37.214844 21.109375 37.199219 21.167969 C 36.601562 23.117188 35.660156 24.785156 34.3125 26.3125 C 34.269531 26.359375 34.269531 26.359375 34.230469 26.40625 C 33.945312 26.730469 33.65625 27.042969 33.324219 27.320312 C 33.222656 27.410156 33.121094 27.496094 33.019531 27.589844 C 30.621094 29.726562 27.433594 30.761719 24.261719 30.769531 C 24.191406 30.769531 24.191406 30.769531 24.117188 30.769531 C 23.179688 30.773438 22.246094 30.707031 21.335938 30.492188 C 21.28125 30.480469 21.222656 30.464844 21.164062 30.453125 C 19.257812 29.988281 17.472656 29.171875 15.9375 27.9375 C 15.875 27.886719 15.8125 27.839844 15.75 27.789062 C 14.773438 27 13.902344 26.09375 13.1875 25.0625 C 13.140625 24.992188 13.140625 24.992188 13.089844 24.921875 C 12.070312 23.425781 11.390625 21.765625 11 20 C 10.984375 19.9375 10.972656 19.875 10.957031 19.808594 C 10.925781 19.644531 10.898438 19.480469 10.875 19.3125 C 10.863281 19.230469 10.851562 19.152344 10.839844 19.070312 C 10.378906 15.53125 11.34375 11.9375 13.5 9.101562 C 13.84375 8.660156 14.210938 8.246094 14.597656 7.84375 C 14.679688 7.757812 14.761719 7.671875 14.84375 7.585938 C 16.382812 5.988281 18.496094 4.832031 20.625 4.25 C 20.695312 4.230469 20.765625 4.207031 20.835938 4.1875 C 23.054688 3.558594 25.863281 3.558594 28.0625 4.3125 Z M 28.0625 4.3125 "/>
<path style=" stroke:none;fill-rule:nonzero;fill:rgb(20.784314%,47.058824%,74.509805%);fill-opacity:1;" d="M 13.25 30.625 C 13.460938 30.761719 13.664062 30.902344 13.863281 31.050781 C 17.460938 33.722656 22.035156 35.042969 26.503906 34.394531 C 26.667969 34.371094 26.835938 34.339844 27 34.3125 C 27.054688 34.304688 27.109375 34.292969 27.167969 34.285156 C 28.800781 34.019531 30.394531 33.484375 31.875 32.75 C 31.953125 32.714844 32.03125 32.675781 32.109375 32.640625 C 33.164062 32.144531 34.152344 31.480469 35.042969 30.734375 C 35.1875 30.625 35.1875 30.625 35.3125 30.625 C 35.335938 30.664062 35.355469 30.703125 35.378906 30.746094 C 35.855469 31.605469 36.34375 32.457031 36.839844 33.308594 C 37.070312 33.699219 37.300781 34.097656 37.527344 34.492188 C 37.566406 34.558594 37.605469 34.628906 37.644531 34.695312 C 37.722656 34.832031 37.804688 34.96875 37.882812 35.105469 C 38.078125 35.445312 38.273438 35.785156 38.46875 36.125 C 38.546875 36.261719 38.625 36.394531 38.703125 36.53125 C 38.742188 36.597656 38.78125 36.664062 38.820312 36.734375 C 41.046875 40.59375 41.046875 40.59375 41.164062 40.796875 C 41.242188 40.933594 41.320312 41.066406 41.398438 41.199219 C 41.578125 41.515625 41.757812 41.828125 41.941406 42.144531 C 42.003906 42.253906 42.066406 42.363281 42.132812 42.472656 C 42.210938 42.613281 42.289062 42.75 42.367188 42.886719 C 42.40625 42.949219 42.441406 43.011719 42.480469 43.078125 C 42.53125 43.167969 42.53125 43.167969 42.582031 43.261719 C 42.71875 43.488281 42.855469 43.710938 42.996094 43.933594 C 43.0625 44.0625 43.0625 44.0625 43.0625 44.25 C 42.261719 44.171875 41.464844 44.089844 40.664062 44.011719 C 40.292969 43.976562 39.921875 43.9375 39.546875 43.902344 C 39.191406 43.867188 38.832031 43.832031 38.472656 43.792969 C 38.335938 43.78125 38.199219 43.765625 38.0625 43.753906 C 37.351562 43.683594 36.644531 43.609375 35.9375 43.5 C 35.925781 43.535156 35.914062 43.570312 35.90625 43.605469 C 35.792969 43.945312 35.664062 44.273438 35.515625 44.601562 C 35.492188 44.648438 35.46875 44.699219 35.445312 44.75 C 35.375 44.914062 35.300781 45.074219 35.226562 45.234375 C 35.175781 45.347656 35.125 45.460938 35.074219 45.570312 C 34.972656 45.796875 34.871094 46.023438 34.769531 46.246094 C 34.574219 46.671875 34.382812 47.101562 34.191406 47.527344 C 34.160156 47.597656 34.128906 47.671875 34.09375 47.742188 C 33.933594 48.105469 33.773438 48.46875 33.617188 48.832031 C 33.585938 48.90625 33.554688 48.976562 33.519531 49.054688 C 33.460938 49.191406 33.402344 49.328125 33.34375 49.46875 C 33.316406 49.53125 33.292969 49.589844 33.265625 49.652344 C 33.242188 49.707031 33.21875 49.761719 33.195312 49.816406 C 33.125 49.9375 33.125 49.9375 32.9375 50 C 32.90625 49.945312 32.90625 49.945312 32.875 49.890625 C 32.453125 49.140625 32.027344 48.390625 31.589844 47.644531 C 31.308594 47.160156 31.027344 46.675781 30.75 46.1875 C 30.402344 45.578125 30.054688 44.972656 29.699219 44.371094 C 29.316406 43.714844 28.9375 43.054688 28.554688 42.394531 C 28.359375 42.054688 28.164062 41.714844 27.96875 41.375 C 27.890625 41.238281 27.8125 41.105469 27.734375 40.96875 C 27.695312 40.902344 27.65625 40.835938 27.617188 40.765625 C 26.328125 38.53125 26.328125 38.53125 26.210938 38.328125 C 26.132812 38.191406 26.054688 38.058594 25.976562 37.925781 C 25.796875 37.609375 25.617188 37.296875 25.433594 36.980469 C 25.371094 36.871094 25.308594 36.761719 25.242188 36.652344 C 25.164062 36.511719 25.085938 36.375 25.007812 36.238281 C 24.675781 35.582031 24.675781 35.582031 24.25 35 C 24.226562 35.039062 24.203125 35.082031 24.179688 35.125 C 22.691406 37.703125 22.691406 37.703125 21.203125 40.28125 C 21.164062 40.347656 21.125 40.414062 21.085938 40.484375 C 21.007812 40.621094 20.929688 40.753906 20.851562 40.890625 C 20.65625 41.230469 20.460938 41.570312 20.261719 41.910156 C 19.886719 42.5625 19.507812 43.214844 19.128906 43.867188 C 18.8125 44.410156 18.5 44.953125 18.1875 45.5 C 17.839844 46.105469 17.492188 46.710938 17.140625 47.3125 C 16.945312 47.644531 16.753906 47.980469 16.5625 48.3125 C 16.527344 48.367188 16.527344 48.367188 16.496094 48.421875 C 16.394531 48.601562 16.292969 48.777344 16.191406 48.953125 C 16.085938 49.136719 15.980469 49.320312 15.875 49.5 C 15.84375 49.550781 15.8125 49.605469 15.78125 49.65625 C 15.714844 49.773438 15.636719 49.886719 15.5625 50 C 15.519531 50 15.480469 50 15.4375 50 C 14.855469 48.707031 14.273438 47.414062 13.695312 46.121094 C 13.574219 45.851562 13.453125 45.582031 13.332031 45.3125 C 13.257812 45.144531 13.179688 44.976562 13.105469 44.808594 C 13.070312 44.730469 13.035156 44.648438 12.996094 44.570312 C 12.949219 44.457031 12.898438 44.347656 12.847656 44.238281 C 12.804688 44.144531 12.804688 44.144531 12.761719 44.046875 C 12.691406 43.886719 12.625 43.726562 12.5625 43.5625 C 11.1875 43.664062 9.820312 43.8125 8.449219 43.957031 C 7.953125 44.007812 7.453125 44.0625 6.957031 44.113281 C 6.78125 44.132812 6.609375 44.148438 6.4375 44.167969 C 6.332031 44.179688 6.226562 44.1875 6.121094 44.199219 C 6.074219 44.207031 6.027344 44.210938 5.976562 44.214844 C 5.796875 44.234375 5.621094 44.25 5.4375 44.25 C 5.539062 43.964844 5.679688 43.710938 5.828125 43.449219 C 5.855469 43.398438 5.882812 43.351562 5.910156 43.300781 C 6.171875 42.835938 6.441406 42.375 6.710938 41.910156 C 7 41.421875 7.28125 40.929688 7.5625 40.4375 C 7.910156 39.828125 8.257812 39.222656 8.613281 38.621094 C 8.996094 37.964844 9.375 37.304688 9.757812 36.644531 C 9.953125 36.304688 10.148438 35.964844 10.34375 35.625 C 10.421875 35.488281 10.5 35.355469 10.578125 35.21875 C 10.8125 34.8125 10.8125 34.8125 11.046875 34.40625 C 11.105469 34.304688 11.105469 34.304688 11.164062 34.203125 C 11.242188 34.066406 11.320312 33.933594 11.398438 33.796875 C 11.597656 33.453125 11.796875 33.105469 11.996094 32.757812 C 12.410156 32.042969 12.820312 31.328125 13.25 30.625 Z M 13.25 30.625 "/>
<path style=" stroke:none;fill-rule:nonzero;fill:rgb(96.470588%,97.254902%,97.254902%);fill-opacity:1;" d="M 24.3125 7.875 C 24.511719 8.113281 24.636719 8.382812 24.773438 8.65625 C 24.800781 8.710938 24.828125 8.761719 24.855469 8.816406 C 24.945312 8.996094 25.03125 9.171875 25.121094 9.347656 C 25.179688 9.472656 25.242188 9.59375 25.304688 9.714844 C 25.433594 9.972656 25.5625 10.230469 25.6875 10.488281 C 25.855469 10.816406 26.019531 11.148438 26.183594 11.476562 C 26.3125 11.730469 26.4375 11.984375 26.5625 12.234375 C 26.625 12.359375 26.683594 12.480469 26.746094 12.601562 C 26.832031 12.769531 26.914062 12.941406 27 13.109375 C 27.039062 13.1875 27.039062 13.1875 27.078125 13.261719 C 27.25 13.609375 27.25 13.609375 27.25 13.75 C 27.328125 13.753906 27.328125 13.753906 27.410156 13.757812 C 28.09375 13.800781 28.773438 13.871094 29.453125 13.953125 C 29.539062 13.964844 29.539062 13.964844 29.628906 13.972656 C 30.777344 14.109375 31.917969 14.265625 33.0625 14.4375 C 32.8125 14.78125 32.546875 15.097656 32.253906 15.40625 C 32.175781 15.488281 32.097656 15.570312 32.019531 15.652344 C 31.984375 15.691406 31.949219 15.730469 31.910156 15.769531 C 31.761719 15.929688 31.617188 16.09375 31.476562 16.257812 C 31.210938 16.5625 30.9375 16.859375 30.667969 17.160156 C 30.417969 17.4375 30.171875 17.714844 29.925781 17.996094 C 29.742188 18.203125 29.554688 18.410156 29.363281 18.617188 C 29.234375 18.765625 29.1875 18.824219 29.1875 19.023438 C 29.238281 19.660156 29.339844 20.285156 29.449219 20.917969 C 29.46875 21.035156 29.488281 21.152344 29.507812 21.269531 C 29.558594 21.574219 29.609375 21.882812 29.660156 22.1875 C 29.742188 22.679688 29.824219 23.171875 29.90625 23.664062 C 29.933594 23.832031 29.964844 24.003906 29.992188 24.175781 C 30.011719 24.28125 30.027344 24.386719 30.046875 24.488281 C 30.054688 24.535156 30.0625 24.585938 30.070312 24.632812 C 30.109375 24.863281 30.132812 25.082031 30.125 25.3125 C 29.808594 25.21875 29.523438 25.082031 29.230469 24.933594 C 29.179688 24.90625 29.128906 24.882812 29.078125 24.855469 C 28.917969 24.777344 28.761719 24.699219 28.601562 24.617188 C 28.496094 24.566406 28.394531 24.511719 28.289062 24.460938 C 28.082031 24.355469 27.875 24.253906 27.671875 24.148438 C 26.964844 23.792969 26.257812 23.4375 25.546875 23.09375 C 25.46875 23.054688 25.386719 23.015625 25.308594 22.976562 C 25.195312 22.917969 25.078125 22.863281 24.960938 22.804688 C 24.894531 22.773438 24.824219 22.738281 24.753906 22.703125 C 24.417969 22.5625 24.417969 22.5625 24.0625 22.601562 C 23.914062 22.667969 23.773438 22.738281 23.628906 22.8125 C 23.574219 22.839844 23.519531 22.867188 23.460938 22.898438 C 23.28125 22.988281 23.101562 23.078125 22.921875 23.171875 C 22.792969 23.234375 22.667969 23.296875 22.542969 23.359375 C 22.214844 23.527344 21.882812 23.695312 21.554688 23.863281 C 21.21875 24.03125 20.878906 24.203125 20.542969 24.371094 C 19.882812 24.707031 19.222656 25.039062 18.5625 25.375 C 18.476562 25.121094 18.535156 24.910156 18.578125 24.652344 C 18.585938 24.597656 18.597656 24.542969 18.605469 24.488281 C 18.636719 24.308594 18.667969 24.128906 18.695312 23.949219 C 18.71875 23.824219 18.738281 23.695312 18.757812 23.570312 C 18.804688 23.308594 18.847656 23.046875 18.890625 22.785156 C 18.949219 22.445312 19.007812 22.109375 19.0625 21.773438 C 19.117188 21.453125 19.171875 21.132812 19.222656 20.8125 C 19.238281 20.71875 19.238281 20.71875 19.253906 20.625 C 19.285156 20.453125 19.3125 20.277344 19.34375 20.105469 C 19.351562 20.054688 19.359375 20 19.371094 19.949219 C 19.429688 19.589844 19.429688 19.589844 19.46875 19.4375 C 19.519531 19.238281 19.519531 19.078125 19.5 18.875 C 19.398438 18.730469 19.308594 18.625 19.183594 18.503906 C 19.121094 18.4375 19.054688 18.371094 18.992188 18.308594 C 18.960938 18.277344 18.929688 18.246094 18.898438 18.210938 C 18.789062 18.101562 18.6875 17.984375 18.585938 17.867188 C 18.332031 17.574219 18.070312 17.289062 17.8125 17 C 17.515625 16.667969 17.21875 16.339844 16.925781 16.003906 C 16.796875 15.859375 16.667969 15.714844 16.539062 15.570312 C 16.492188 15.519531 16.445312 15.464844 16.398438 15.414062 C 16.296875 15.300781 16.195312 15.1875 16.089844 15.078125 C 16.039062 15.023438 15.988281 14.96875 15.9375 14.910156 C 15.867188 14.835938 15.867188 14.835938 15.796875 14.757812 C 15.6875 14.625 15.6875 14.625 15.625 14.4375 C 16.246094 14.339844 16.867188 14.25 17.488281 14.164062 C 17.644531 14.144531 17.796875 14.121094 17.949219 14.097656 C 18.375 14.035156 18.777344 13.996094 19.210938 14.011719 C 20.433594 14.070312 20.433594 14.070312 21.507812 13.570312 C 22.15625 12.851562 22.515625 11.886719 22.882812 11.003906 C 23.03125 10.65625 23.191406 10.316406 23.351562 9.972656 C 23.605469 9.421875 23.851562 8.867188 24.089844 8.308594 C 24.242188 7.945312 24.242188 7.945312 24.3125 7.875 Z M 24.3125 7.875 "/>
<path style=" stroke:none;fill-rule:nonzero;fill:rgb(25.098041%,55.686277%,83.92157%);fill-opacity:1;" d="M 35.3125 30.625 C 35.335938 30.664062 35.355469 30.703125 35.378906 30.746094 C 35.855469 31.605469 36.34375 32.457031 36.839844 33.308594 C 37.070312 33.699219 37.300781 34.097656 37.527344 34.492188 C 37.566406 34.558594 37.605469 34.628906 37.644531 34.695312 C 37.722656 34.832031 37.804688 34.96875 37.882812 35.105469 C 38.078125 35.445312 38.273438 35.785156 38.46875 36.125 C 38.546875 36.261719 38.625 36.394531 38.703125 36.53125 C 38.761719 36.632812 38.761719 36.632812 38.820312 36.734375 C 41.046875 40.59375 41.046875 40.59375 41.164062 40.796875 C 41.242188 40.933594 41.320312 41.066406 41.398438 41.199219 C 41.578125 41.515625 41.757812 41.828125 41.941406 42.144531 C 42.003906 42.253906 42.066406 42.363281 42.132812 42.472656 C 42.210938 42.613281 42.289062 42.75 42.367188 42.886719 C 42.40625 42.949219 42.441406 43.011719 42.480469 43.078125 C 42.511719 43.136719 42.546875 43.199219 42.582031 43.261719 C 42.71875 43.488281 42.855469 43.710938 42.996094 43.933594 C 43.0625 44.0625 43.0625 44.0625 43.0625 44.25 C 42.261719 44.171875 41.464844 44.089844 40.664062 44.011719 C 40.292969 43.976562 39.921875 43.9375 39.546875 43.902344 C 39.191406 43.867188 38.832031 43.832031 38.472656 43.792969 C 38.335938 43.78125 38.199219 43.765625 38.0625 43.753906 C 37.699219 43.71875 37.332031 43.679688 36.96875 43.640625 C 36.867188 43.632812 36.769531 43.621094 36.667969 43.609375 C 36.546875 43.597656 36.421875 43.585938 36.300781 43.570312 C 36.234375 43.5625 36.167969 43.558594 36.101562 43.550781 C 35.828125 43.46875 35.726562 43.28125 35.597656 43.039062 C 35.550781 42.941406 35.550781 42.941406 35.503906 42.84375 C 35.429688 42.707031 35.359375 42.570312 35.285156 42.429688 C 35.25 42.359375 35.210938 42.289062 35.175781 42.214844 C 34.992188 41.867188 34.796875 41.53125 34.597656 41.195312 C 34.519531 41.058594 34.441406 40.921875 34.363281 40.785156 C 34.125 40.378906 33.890625 39.96875 33.65625 39.5625 C 33.578125 39.425781 33.5 39.292969 33.421875 39.15625 C 33.382812 39.089844 33.34375 39.023438 33.304688 38.953125 C 32.875 38.207031 32.445312 37.464844 32.015625 36.71875 C 31.957031 36.617188 31.957031 36.617188 31.898438 36.515625 C 31.820312 36.382812 31.742188 36.246094 31.664062 36.113281 C 31.484375 35.796875 31.300781 35.476562 31.117188 35.160156 C 31.027344 35.011719 30.941406 34.863281 30.855469 34.714844 C 30.792969 34.609375 30.734375 34.503906 30.671875 34.398438 C 30.632812 34.332031 30.597656 34.269531 30.558594 34.203125 C 30.527344 34.148438 30.492188 34.089844 30.460938 34.035156 C 30.375 33.875 30.375 33.875 30.308594 33.703125 C 30.261719 33.550781 30.261719 33.550781 30.125 33.5 C 30.179688 33.476562 30.179688 33.476562 30.234375 33.457031 C 31.96875 32.765625 33.601562 31.933594 35.046875 30.734375 C 35.1875 30.625 35.1875 30.625 35.3125 30.625 Z M 35.3125 30.625 "/>
<path style=" stroke:none;fill-rule:nonzero;fill:rgb(16.862746%,38.82353%,65.098041%);fill-opacity:1;" d="M 13.25 30.625 C 13.460938 30.761719 13.664062 30.902344 13.863281 31.050781 C 15.234375 32.066406 16.71875 32.890625 18.3125 33.5 C 18.226562 33.726562 18.125 33.9375 18.007812 34.148438 C 17.953125 34.242188 17.953125 34.242188 17.898438 34.339844 C 17.859375 34.410156 17.820312 34.476562 17.78125 34.546875 C 17.742188 34.617188 17.703125 34.6875 17.660156 34.761719 C 17.421875 35.183594 17.179688 35.605469 16.929688 36.027344 C 16.695312 36.421875 16.46875 36.816406 16.238281 37.214844 C 16.179688 37.320312 16.179688 37.320312 16.117188 37.425781 C 16.035156 37.566406 15.953125 37.707031 15.871094 37.851562 C 15.675781 38.191406 15.476562 38.535156 15.28125 38.875 C 15.203125 39.011719 15.125 39.144531 15.046875 39.28125 C 14.890625 39.550781 14.734375 39.824219 14.578125 40.09375 C 14.539062 40.160156 14.5 40.226562 14.460938 40.296875 C 14.382812 40.433594 14.304688 40.566406 14.226562 40.699219 C 14.046875 41.015625 13.863281 41.328125 13.683594 41.644531 C 13.621094 41.753906 13.558594 41.867188 13.492188 41.976562 C 13.414062 42.117188 13.335938 42.253906 13.257812 42.394531 C 13.183594 42.519531 13.113281 42.640625 13.039062 42.765625 C 12.9375 42.933594 12.9375 42.933594 12.859375 43.105469 C 12.773438 43.269531 12.699219 43.375 12.5625 43.5 C 12.398438 43.546875 12.398438 43.546875 12.199219 43.566406 C 12.121094 43.578125 12.042969 43.585938 11.960938 43.597656 C 11.871094 43.605469 11.777344 43.617188 11.6875 43.625 C 11.582031 43.636719 11.480469 43.648438 11.375 43.660156 C 11.011719 43.699219 10.648438 43.738281 10.28125 43.773438 C 10.148438 43.789062 10.015625 43.800781 9.878906 43.816406 C 9.601562 43.84375 9.320312 43.871094 9.042969 43.902344 C 8.683594 43.9375 8.324219 43.976562 7.964844 44.011719 C 7.691406 44.039062 7.414062 44.070312 7.136719 44.097656 C 7.003906 44.109375 6.875 44.125 6.742188 44.136719 C 6.558594 44.15625 6.371094 44.175781 6.1875 44.195312 C 6.105469 44.203125 6.105469 44.203125 6.023438 44.210938 C 5.828125 44.230469 5.636719 44.25 5.4375 44.25 C 5.539062 43.964844 5.679688 43.710938 5.828125 43.449219 C 5.855469 43.398438 5.882812 43.351562 5.910156 43.300781 C 6.171875 42.835938 6.441406 42.375 6.710938 41.910156 C 7 41.421875 7.28125 40.929688 7.5625 40.4375 C 7.910156 39.828125 8.257812 39.222656 8.613281 38.621094 C 8.996094 37.964844 9.375 37.304688 9.757812 36.644531 C 9.953125 36.304688 10.148438 35.964844 10.34375 35.625 C 10.421875 35.488281 10.5 35.355469 10.578125 35.21875 C 10.8125 34.8125 10.8125 34.8125 11.046875 34.40625 C 11.105469 34.304688 11.105469 34.304688 11.164062 34.203125 C 11.242188 34.066406 11.320312 33.933594 11.398438 33.796875 C 11.597656 33.453125 11.796875 33.105469 11.996094 32.757812 C 12.410156 32.042969 12.820312 31.328125 13.25 30.625 Z M 13.25 30.625 "/>
<path style=" stroke:none;fill-rule:nonzero;fill:rgb(35.294119%,35.294119%,35.294119%);fill-opacity:1;" d="M 28.0625 4.3125 C 28.121094 4.332031 28.175781 4.351562 28.234375 4.371094 C 29.8125 4.90625 31.257812 5.574219 32.5625 6.625 C 32.625 6.675781 32.6875 6.722656 32.75 6.773438 C 33.644531 7.5 34.453125 8.320312 35.125 9.25 C 35.171875 9.316406 35.222656 9.382812 35.273438 9.449219 C 35.539062 9.824219 35.78125 10.207031 36.007812 10.605469 C 36.03125 10.648438 36.058594 10.691406 36.085938 10.738281 C 36.144531 10.84375 36.199219 10.953125 36.25 11.0625 C 36.230469 11.105469 36.207031 11.144531 36.1875 11.1875 C 36.15625 11.144531 36.128906 11.105469 36.097656 11.0625 C 35.199219 9.808594 34.1875 8.71875 32.9375 7.8125 C 32.902344 7.789062 32.867188 7.761719 32.832031 7.738281 C 31.222656 6.574219 29.363281 5.835938 27.421875 5.453125 C 27.355469 5.441406 27.289062 5.425781 27.21875 5.414062 C 23.957031 4.800781 20.300781 5.558594 17.558594 7.429688 C 17.496094 7.472656 17.4375 7.519531 17.375 7.5625 C 17.3125 7.605469 17.25 7.652344 17.183594 7.699219 C 14.226562 9.859375 12.210938 13.003906 11.632812 16.636719 C 11.445312 17.910156 11.390625 19.230469 11.625 20.5 C 11.636719 20.582031 11.652344 20.667969 11.664062 20.75 C 11.773438 21.429688 11.941406 22.085938 12.125 22.75 C 12.164062 22.890625 12.199219 23.027344 12.238281 23.167969 C 12.261719 23.257812 12.289062 23.347656 12.3125 23.4375 C 12.105469 23.269531 12.019531 23.042969 11.917969 22.800781 C 11.898438 22.757812 11.878906 22.710938 11.859375 22.667969 C 11.800781 22.527344 11.746094 22.390625 11.6875 22.25 C 11.660156 22.1875 11.660156 22.1875 11.636719 22.125 C 11.351562 21.433594 11.164062 20.726562 11 20 C 10.984375 19.9375 10.972656 19.875 10.957031 19.808594 C 10.925781 19.644531 10.898438 19.480469 10.875 19.3125 C 10.863281 19.230469 10.851562 19.152344 10.839844 19.070312 C 10.378906 15.53125 11.34375 11.9375 13.5 9.101562 C 13.84375 8.660156 14.210938 8.246094 14.597656 7.84375 C 14.679688 7.757812 14.761719 7.671875 14.84375 7.585938 C 16.382812 5.988281 18.496094 4.832031 20.625 4.25 C 20.695312 4.230469 20.765625 4.207031 20.835938 4.1875 C 23.054688 3.558594 25.863281 3.558594 28.0625 4.3125 Z M 28.0625 4.3125 "/>
<path style=" stroke:none;fill-rule:nonzero;fill:rgb(39.215687%,39.215687%,39.215687%);fill-opacity:1;" d="M 12.0625 22.75 C 12.214844 22.980469 12.25 23.167969 12.3125 23.4375 C 12.167969 23.304688 12.066406 23.1875 12 23 C 12.023438 22.859375 12.023438 22.859375 12.0625 22.75 Z M 12.0625 22.75 "/>
</g>
</svg>
