<?xml version="1.0" encoding="UTF-8"?>
<svg xmlns="http://www.w3.org/2000/svg" xmlns:xlink="http://www.w3.org/1999/xlink" width="50px" height="px" viewBox="0 0 50 71" version="1.1">
<g id="surface1">
<path style=" stroke:none;fill-rule:nonzero;fill:rgb(89.019608%,49.411765%,0%);fill-opacity:1;" d="M 28.472656 0.695312 C 28.921875 0.980469 29.316406 1.316406 29.722656 1.664062 C 32.328125 3.851562 34.089844 4.96875 37.546875 5.148438 C 39.484375 5.265625 41.335938 5.546875 42.777344 6.933594 C 43.011719 7.234375 43.21875 7.523438 43.421875 7.84375 C 43.472656 7.917969 43.523438 7.996094 43.574219 8.074219 C 44.425781 9.398438 44.664062 10.851562 44.792969 12.394531 C 45.066406 15.148438 45.890625 17.101562 47.5 19.335938 C 49.039062 21.472656 50.113281 23.492188 49.859375 26.210938 C 49.457031 28.210938 48.203125 29.441406 46.738281 30.757812 C 46.65625 30.835938 46.570312 30.910156 46.484375 30.992188 C 46.285156 31.167969 46.082031 31.339844 45.875 31.511719 C 44.960938 32.613281 44.910156 33.984375 44.851562 35.359375 C 44.785156 36.898438 44.625 38.292969 43.921875 39.6875 C 43.859375 39.8125 43.800781 39.941406 43.734375 40.074219 C 43.5 40.445312 43.261719 40.746094 42.96875 41.074219 C 42.882812 41.171875 42.792969 41.269531 42.703125 41.375 C 42.636719 41.449219 42.570312 41.523438 42.5 41.601562 C 43.253906 43.519531 44.050781 45.410156 44.878906 47.296875 C 45.226562 48.09375 45.574219 48.894531 45.921875 49.691406 C 45.992188 49.855469 46.066406 50.019531 46.140625 50.191406 C 46.894531 51.925781 47.644531 53.660156 48.386719 55.402344 C 48.53125 55.734375 48.671875 56.066406 48.816406 56.402344 C 49.015625 56.863281 49.214844 57.328125 49.414062 57.792969 C 49.472656 57.929688 49.53125 58.070312 49.59375 58.210938 C 49.648438 58.339844 49.703125 58.464844 49.757812 58.59375 C 49.828125 58.761719 49.828125 58.761719 49.898438 58.929688 C 50 59.210938 50 59.210938 50 59.628906 C 49.800781 59.625 49.800781 59.625 49.597656 59.617188 C 48.335938 59.582031 47.070312 59.558594 45.808594 59.542969 C 45.160156 59.535156 44.511719 59.523438 43.863281 59.503906 C 43.234375 59.484375 42.605469 59.476562 41.980469 59.472656 C 41.742188 59.46875 41.503906 59.460938 41.265625 59.453125 C 39.910156 59.402344 38.992188 59.488281 37.953125 60.421875 C 37.734375 60.636719 37.515625 60.855469 37.304688 61.078125 C 36.929688 61.441406 36.515625 61.75 36.101562 62.0625 C 35.46875 62.554688 34.847656 63.058594 34.234375 63.582031 C 33.308594 64.371094 32.351562 65.121094 31.390625 65.867188 C 31.191406 66.023438 31.191406 66.023438 30.988281 66.179688 C 30.707031 66.402344 30.421875 66.621094 30.140625 66.839844 C 29.75 66.648438 29.726562 66.433594 29.566406 66.035156 C 29.507812 65.894531 29.449219 65.75 29.390625 65.605469 C 29.328125 65.449219 29.265625 65.292969 29.199219 65.132812 C 29.132812 64.972656 29.070312 64.8125 29.003906 64.644531 C 28.828125 64.21875 28.65625 63.789062 28.480469 63.359375 C 28.308594 62.929688 28.136719 62.503906 27.964844 62.074219 C 27.699219 61.417969 27.433594 60.761719 27.167969 60.105469 C 26.730469 59.019531 26.28125 57.9375 25.832031 56.855469 C 25.425781 57.648438 25.070312 58.445312 24.742188 59.273438 C 24.691406 59.402344 24.640625 59.527344 24.589844 59.65625 C 24.425781 60.070312 24.261719 60.480469 24.097656 60.894531 C 23.984375 61.183594 23.871094 61.46875 23.757812 61.757812 C 23.457031 62.511719 23.15625 63.265625 22.859375 64.019531 C 22.550781 64.789062 22.246094 65.5625 21.9375 66.332031 C 21.339844 67.839844 20.738281 69.351562 20.140625 70.859375 C 19.550781 70.859375 19.503906 70.851562 19.089844 70.5 C 18.996094 70.421875 18.902344 70.34375 18.808594 70.261719 C 18.707031 70.175781 18.609375 70.089844 18.507812 70.003906 C 18.292969 69.824219 18.082031 69.644531 17.867188 69.464844 C 17.761719 69.375 17.652344 69.285156 17.542969 69.1875 C 17.0625 68.785156 16.574219 68.386719 16.085938 67.992188 C 15.949219 67.882812 15.949219 67.882812 15.808594 67.769531 C 15.132812 67.222656 14.449219 66.6875 13.765625 66.152344 C 13.101562 65.632812 12.457031 65.09375 11.816406 64.542969 C 11.160156 63.976562 10.785156 63.90625 9.933594 63.898438 C 9.828125 63.898438 9.71875 63.898438 9.609375 63.894531 C 9.253906 63.890625 8.898438 63.886719 8.546875 63.882812 C 8.300781 63.882812 8.054688 63.878906 7.808594 63.875 C 7.160156 63.867188 6.515625 63.859375 5.867188 63.855469 C 5.207031 63.847656 4.546875 63.839844 3.886719 63.832031 C 2.589844 63.816406 1.296875 63.800781 0 63.789062 C 0.078125 63.347656 0.179688 62.953125 0.355469 62.539062 C 0.402344 62.433594 0.445312 62.328125 0.492188 62.21875 C 0.542969 62.105469 0.589844 61.988281 0.640625 61.871094 C 0.695312 61.75 0.746094 61.628906 0.796875 61.503906 C 0.910156 61.242188 1.023438 60.980469 1.132812 60.71875 C 1.375 60.15625 1.613281 59.589844 1.855469 59.027344 C 1.976562 58.734375 2.101562 58.445312 2.226562 58.152344 C 2.78125 56.847656 3.328125 55.542969 3.875 54.238281 C 4.917969 51.746094 5.964844 49.261719 7.019531 46.773438 C 7.273438 46.179688 7.523438 45.585938 7.773438 44.992188 C 7.871094 44.761719 7.964844 44.535156 8.0625 44.304688 C 8.203125 43.976562 8.339844 43.648438 8.480469 43.320312 C 8.519531 43.222656 8.5625 43.121094 8.605469 43.023438 C 8.773438 42.617188 8.890625 42.320312 8.890625 41.878906 C 8.707031 41.789062 8.523438 41.695312 8.332031 41.601562 C 8.332031 41.511719 8.332031 41.417969 8.332031 41.324219 C 8.242188 41.324219 8.148438 41.324219 8.054688 41.324219 C 7.835938 41.035156 7.640625 40.753906 7.449219 40.449219 C 7.390625 40.359375 7.335938 40.273438 7.277344 40.183594 C 6.488281 38.910156 6.117188 37.652344 6.070312 36.167969 C 6.007812 34.097656 5.929688 32.359375 4.367188 30.863281 C 3.757812 30.273438 3.757812 30.273438 3.054688 29.8125 C 3.054688 29.722656 3.054688 29.632812 3.054688 29.539062 C 2.964844 29.539062 2.871094 29.539062 2.777344 29.539062 C 2.777344 29.445312 2.777344 29.355469 2.777344 29.257812 C 2.6875 29.257812 2.59375 29.257812 2.5 29.257812 C 1.472656 28 0.847656 26.417969 0.929688 24.78125 C 1.183594 22.515625 2.386719 20.5625 3.753906 18.78125 C 5.175781 16.90625 5.824219 15.046875 6.03125 12.714844 C 6.273438 10.351562 6.753906 8.164062 8.582031 6.472656 C 10.261719 5.203125 12.386719 5.214844 14.402344 5.113281 C 16.695312 4.976562 18.144531 4.148438 19.855469 2.671875 C 22.382812 0.503906 25.210938 -1.085938 28.472656 0.695312 Z M 28.472656 0.695312 "/>
<path style=" stroke:none;fill-rule:nonzero;fill:rgb(99.607843%,40.000001%,0%);fill-opacity:1;" d="M 42.222656 41.601562 C 42.570312 41.914062 42.746094 42.199219 42.925781 42.628906 C 42.980469 42.753906 43.03125 42.878906 43.089844 43.007812 C 43.144531 43.144531 43.203125 43.28125 43.261719 43.421875 C 43.324219 43.566406 43.382812 43.710938 43.445312 43.863281 C 43.648438 44.339844 43.851562 44.820312 44.054688 45.300781 C 44.230469 45.722656 44.410156 46.140625 44.585938 46.5625 C 44.640625 46.691406 44.640625 46.691406 44.695312 46.820312 C 44.734375 46.90625 44.769531 46.992188 44.808594 47.082031 C 44.917969 47.347656 45.03125 47.613281 45.144531 47.878906 C 45.898438 49.664062 46.664062 51.449219 47.429688 53.230469 C 47.644531 53.726562 47.855469 54.222656 48.070312 54.71875 C 48.136719 54.875 48.203125 55.03125 48.273438 55.191406 C 48.402344 55.488281 48.527344 55.789062 48.65625 56.085938 C 48.917969 56.695312 49.179688 57.300781 49.445312 57.90625 C 49.484375 58 49.527344 58.089844 49.566406 58.183594 C 49.667969 58.414062 49.769531 58.644531 49.871094 58.871094 C 50 59.210938 50 59.210938 50 59.628906 C 49.867188 59.625 49.734375 59.621094 49.597656 59.617188 C 48.335938 59.582031 47.070312 59.558594 45.808594 59.542969 C 45.160156 59.535156 44.511719 59.523438 43.863281 59.503906 C 43.234375 59.484375 42.605469 59.476562 41.980469 59.472656 C 41.742188 59.46875 41.503906 59.460938 41.265625 59.453125 C 39.910156 59.402344 38.992188 59.488281 37.953125 60.421875 C 37.734375 60.636719 37.515625 60.855469 37.304688 61.078125 C 36.929688 61.441406 36.515625 61.75 36.101562 62.0625 C 35.46875 62.554688 34.847656 63.058594 34.234375 63.582031 C 33.308594 64.371094 32.351562 65.121094 31.390625 65.867188 C 31.191406 66.023438 31.191406 66.023438 30.988281 66.179688 C 30.707031 66.402344 30.421875 66.621094 30.140625 66.839844 C 29.75 66.648438 29.726562 66.433594 29.566406 66.035156 C 29.507812 65.894531 29.449219 65.75 29.390625 65.605469 C 29.328125 65.449219 29.265625 65.292969 29.199219 65.132812 C 29.132812 64.972656 29.070312 64.8125 29.003906 64.644531 C 28.828125 64.21875 28.65625 63.789062 28.480469 63.359375 C 28.308594 62.929688 28.136719 62.503906 27.964844 62.074219 C 27.699219 61.417969 27.433594 60.761719 27.167969 60.105469 C 26.730469 59.019531 26.28125 57.9375 25.832031 56.855469 C 25.425781 57.648438 25.070312 58.445312 24.742188 59.273438 C 24.691406 59.402344 24.640625 59.527344 24.589844 59.65625 C 24.425781 60.070312 24.261719 60.480469 24.097656 60.894531 C 23.984375 61.183594 23.871094 61.46875 23.757812 61.757812 C 23.457031 62.511719 23.15625 63.265625 22.859375 64.019531 C 22.550781 64.789062 22.246094 65.5625 21.9375 66.332031 C 21.339844 67.839844 20.738281 69.351562 20.140625 70.859375 C 19.550781 70.859375 19.503906 70.851562 19.089844 70.5 C 18.949219 70.382812 18.949219 70.382812 18.808594 70.261719 C 18.707031 70.175781 18.609375 70.089844 18.507812 70.003906 C 18.292969 69.824219 18.082031 69.644531 17.867188 69.464844 C 17.761719 69.375 17.652344 69.285156 17.542969 69.1875 C 17.0625 68.785156 16.574219 68.386719 16.085938 67.992188 C 15.949219 67.882812 15.949219 67.882812 15.808594 67.769531 C 15.132812 67.222656 14.449219 66.6875 13.765625 66.152344 C 13.101562 65.632812 12.457031 65.09375 11.816406 64.542969 C 11.160156 63.976562 10.785156 63.90625 9.933594 63.898438 C 9.828125 63.898438 9.71875 63.898438 9.609375 63.894531 C 9.253906 63.890625 8.898438 63.886719 8.546875 63.882812 C 8.300781 63.882812 8.054688 63.878906 7.808594 63.875 C 7.160156 63.867188 6.515625 63.859375 5.867188 63.855469 C 5.207031 63.847656 4.546875 63.839844 3.886719 63.832031 C 2.589844 63.816406 1.296875 63.800781 0 63.789062 C 0.078125 63.347656 0.179688 62.953125 0.355469 62.539062 C 0.402344 62.433594 0.445312 62.328125 0.492188 62.21875 C 0.566406 62.046875 0.566406 62.046875 0.640625 61.871094 C 0.695312 61.75 0.746094 61.628906 0.796875 61.503906 C 0.910156 61.242188 1.023438 60.980469 1.132812 60.71875 C 1.375 60.15625 1.613281 59.589844 1.855469 59.027344 C 1.976562 58.734375 2.101562 58.445312 2.226562 58.152344 C 2.78125 56.847656 3.328125 55.542969 3.875 54.238281 C 4.917969 51.746094 5.964844 49.261719 7.019531 46.773438 C 7.652344 45.285156 8.273438 43.792969 8.890625 42.296875 C 9.546875 42.296875 9.9375 42.527344 10.496094 42.839844 C 11.351562 43.316406 11.929688 43.558594 12.925781 43.550781 C 13.125 43.554688 13.324219 43.554688 13.523438 43.558594 C 13.832031 43.558594 14.144531 43.558594 14.457031 43.558594 C 16.011719 43.542969 17.015625 43.765625 18.332031 44.652344 C 18.421875 44.710938 18.515625 44.769531 18.605469 44.832031 C 18.808594 44.96875 19 45.117188 19.191406 45.269531 C 19.328125 45.371094 19.464844 45.476562 19.609375 45.585938 C 19.855469 45.785156 20.101562 45.988281 20.34375 46.191406 C 22.34375 47.878906 24.242188 48.28125 26.804688 48.117188 C 28.601562 47.863281 29.898438 46.71875 31.257812 45.605469 C 32.039062 44.972656 32.878906 44.460938 33.75 43.960938 C 33.828125 43.910156 33.910156 43.859375 33.992188 43.808594 C 34.425781 43.632812 34.804688 43.648438 35.273438 43.648438 C 35.464844 43.644531 35.660156 43.644531 35.851562 43.640625 C 36.152344 43.640625 36.453125 43.636719 36.757812 43.640625 C 38.695312 43.640625 40.597656 43.160156 42.050781 41.785156 C 42.109375 41.722656 42.164062 41.664062 42.222656 41.601562 Z M 42.222656 41.601562 "/>
<path style=" stroke:none;fill-rule:nonzero;fill:rgb(95.686275%,78.039217%,0%);fill-opacity:1;" d="M 34.101562 12.984375 C 36.914062 15.234375 39.195312 18.554688 39.664062 22.191406 C 39.886719 24.433594 39.992188 26.859375 39.167969 28.984375 C 39.097656 29.171875 39.03125 29.363281 38.960938 29.554688 C 37.605469 33.210938 34.839844 36.03125 31.363281 37.753906 C 27.84375 39.308594 23.730469 39.464844 20.140625 38.078125 C 16.421875 36.554688 13.636719 33.839844 11.996094 30.167969 C 10.53125 26.417969 10.484375 22.351562 12.097656 18.65625 C 12.652344 17.449219 13.304688 16.40625 14.167969 15.390625 C 14.261719 15.273438 14.355469 15.15625 14.453125 15.039062 C 19.273438 9.34375 28.191406 8.464844 34.101562 12.984375 Z M 34.101562 12.984375 "/>
<path style=" stroke:none;fill-rule:nonzero;fill:rgb(99.607843%,86.274511%,37.254903%);fill-opacity:1;" d="M 28.472656 0.695312 C 28.921875 0.980469 29.316406 1.316406 29.722656 1.664062 C 32.328125 3.851562 34.089844 4.96875 37.546875 5.148438 C 40.480469 5.324219 40.480469 5.324219 41.390625 6.101562 C 40.160156 7.78125 38.910156 9.445312 37.640625 11.09375 C 37.101562 10.980469 36.851562 10.777344 36.441406 10.410156 C 33.203125 7.703125 28.769531 6.410156 24.582031 6.65625 C 24.433594 6.664062 24.433594 6.664062 24.28125 6.671875 C 22.421875 6.773438 20.769531 7.113281 19.027344 7.765625 C 18.855469 7.828125 18.683594 7.890625 18.507812 7.957031 C 16.523438 8.746094 14.550781 9.972656 13.054688 11.507812 C 12.964844 11.601562 12.871094 11.691406 12.777344 11.789062 C 12.6875 11.789062 12.59375 11.789062 12.5 11.789062 C 12.464844 11.867188 12.429688 11.949219 12.390625 12.03125 C 12.207031 12.367188 12 12.59375 11.734375 12.871094 C 9.835938 14.976562 8.648438 17.527344 7.917969 20.246094 C 7.871094 20.394531 7.828125 20.546875 7.78125 20.699219 C 7.09375 23.429688 7.292969 26.566406 8.054688 29.257812 C 8.085938 29.367188 8.113281 29.472656 8.144531 29.578125 C 9.3125 33.71875 11.890625 37.09375 15.417969 39.523438 C 15.507812 39.566406 15.601562 39.613281 15.695312 39.660156 C 15.515625 40.152344 15.3125 40.527344 14.984375 40.9375 C 14.898438 41.042969 14.816406 41.152344 14.726562 41.261719 C 14.640625 41.371094 14.550781 41.480469 14.460938 41.59375 C 14.289062 41.8125 14.113281 42.027344 13.941406 42.246094 C 13.859375 42.347656 13.777344 42.453125 13.691406 42.558594 C 13.5 42.8125 13.347656 43.066406 13.195312 43.34375 C 12.917969 43.679688 12.917969 43.679688 12.472656 43.765625 C 11.828125 43.664062 11.324219 43.445312 10.746094 43.152344 C 10.644531 43.105469 10.542969 43.054688 10.4375 43.003906 C 9.347656 42.472656 9.347656 42.472656 8.890625 42.15625 C 8.890625 42.066406 8.890625 41.972656 8.890625 41.878906 C 8.707031 41.789062 8.523438 41.695312 8.332031 41.601562 C 8.332031 41.511719 8.332031 41.417969 8.332031 41.324219 C 8.242188 41.324219 8.148438 41.324219 8.054688 41.324219 C 7.835938 41.035156 7.640625 40.753906 7.449219 40.449219 C 7.390625 40.359375 7.335938 40.273438 7.277344 40.183594 C 6.488281 38.910156 6.117188 37.652344 6.070312 36.167969 C 6.007812 34.097656 5.929688 32.359375 4.367188 30.863281 C 3.757812 30.273438 3.757812 30.273438 3.054688 29.8125 C 3.054688 29.722656 3.054688 29.632812 3.054688 29.539062 C 2.964844 29.539062 2.871094 29.539062 2.777344 29.539062 C 2.777344 29.445312 2.777344 29.355469 2.777344 29.257812 C 2.6875 29.257812 2.59375 29.257812 2.5 29.257812 C 1.472656 28 0.847656 26.417969 0.929688 24.78125 C 1.183594 22.515625 2.386719 20.5625 3.753906 18.78125 C 5.175781 16.90625 5.824219 15.046875 6.03125 12.714844 C 6.273438 10.351562 6.753906 8.164062 8.582031 6.472656 C 10.261719 5.203125 12.386719 5.214844 14.402344 5.113281 C 16.695312 4.976562 18.144531 4.148438 19.855469 2.671875 C 22.382812 0.503906 25.210938 -1.085938 28.472656 0.695312 Z M 28.472656 0.695312 "/>
<path style=" stroke:none;fill-rule:nonzero;fill:rgb(81.568629%,25.098041%,10.196079%);fill-opacity:1;" d="M 42.222656 41.601562 C 42.570312 41.914062 42.746094 42.199219 42.925781 42.628906 C 42.980469 42.753906 43.03125 42.878906 43.089844 43.007812 C 43.171875 43.214844 43.171875 43.214844 43.261719 43.421875 C 43.351562 43.640625 43.351562 43.640625 43.445312 43.863281 C 43.648438 44.339844 43.851562 44.820312 44.054688 45.300781 C 44.230469 45.722656 44.410156 46.140625 44.585938 46.5625 C 44.625 46.648438 44.660156 46.734375 44.695312 46.820312 C 44.734375 46.90625 44.769531 46.992188 44.808594 47.082031 C 44.917969 47.347656 45.03125 47.613281 45.144531 47.878906 C 45.898438 49.664062 46.664062 51.449219 47.429688 53.230469 C 47.644531 53.726562 47.855469 54.222656 48.070312 54.71875 C 48.136719 54.875 48.203125 55.03125 48.273438 55.191406 C 48.402344 55.488281 48.527344 55.789062 48.65625 56.085938 C 48.917969 56.695312 49.179688 57.300781 49.445312 57.90625 C 49.507812 58.042969 49.507812 58.042969 49.566406 58.183594 C 49.667969 58.414062 49.769531 58.644531 49.871094 58.871094 C 50 59.210938 50 59.210938 50 59.628906 C 49.867188 59.625 49.734375 59.621094 49.597656 59.617188 C 48.335938 59.582031 47.070312 59.558594 45.808594 59.542969 C 45.160156 59.535156 44.511719 59.523438 43.863281 59.503906 C 43.234375 59.484375 42.605469 59.476562 41.980469 59.472656 C 41.742188 59.46875 41.503906 59.460938 41.265625 59.453125 C 39.910156 59.402344 38.992188 59.488281 37.953125 60.421875 C 37.734375 60.636719 37.515625 60.855469 37.304688 61.078125 C 36.929688 61.441406 36.515625 61.75 36.101562 62.0625 C 35.46875 62.554688 34.847656 63.058594 34.234375 63.582031 C 33.308594 64.371094 32.351562 65.121094 31.390625 65.867188 C 31.257812 65.972656 31.125 66.074219 30.988281 66.179688 C 30.707031 66.402344 30.421875 66.621094 30.140625 66.839844 C 29.75 66.648438 29.726562 66.433594 29.566406 66.035156 C 29.507812 65.894531 29.449219 65.75 29.390625 65.605469 C 29.328125 65.449219 29.265625 65.292969 29.199219 65.132812 C 29.132812 64.972656 29.070312 64.8125 29.003906 64.644531 C 28.828125 64.21875 28.65625 63.789062 28.480469 63.359375 C 28.242188 62.761719 28 62.167969 27.761719 61.574219 C 27.625 61.242188 27.492188 60.914062 27.359375 60.582031 C 27.078125 59.878906 26.789062 59.171875 26.492188 58.472656 C 26.445312 58.363281 26.398438 58.257812 26.351562 58.144531 C 26.269531 57.953125 26.183594 57.761719 26.097656 57.570312 C 25.714844 56.667969 25.785156 56.054688 26.136719 55.171875 C 26.179688 55.066406 26.226562 54.960938 26.269531 54.851562 C 26.316406 54.738281 26.363281 54.625 26.410156 54.507812 C 26.558594 54.144531 26.707031 53.777344 26.859375 53.414062 C 27.0625 52.914062 27.269531 52.410156 27.476562 51.90625 C 27.527344 51.78125 27.578125 51.660156 27.628906 51.53125 C 27.917969 50.824219 28.191406 50.113281 28.445312 49.394531 C 29.097656 47.550781 29.691406 46.492188 31.390625 45.484375 C 31.628906 45.308594 31.871094 45.132812 32.109375 44.957031 C 32.332031 44.808594 32.554688 44.660156 32.777344 44.515625 C 32.882812 44.441406 32.988281 44.367188 33.097656 44.292969 C 34.210938 43.59375 35.246094 43.578125 36.519531 43.605469 C 38.558594 43.640625 40.507812 43.242188 42.050781 41.785156 C 42.136719 41.695312 42.136719 41.695312 42.222656 41.601562 Z M 42.222656 41.601562 "/>
<path style=" stroke:none;fill-rule:nonzero;fill:rgb(95.686275%,78.039217%,0%);fill-opacity:1;" d="M 41.390625 5.960938 C 42.410156 6.53125 43.015625 7.179688 43.609375 8.179688 C 43.675781 8.292969 43.742188 8.402344 43.8125 8.515625 C 44.554688 9.871094 44.726562 11.300781 44.851562 12.820312 C 45.074219 15.386719 46.007812 17.269531 47.5 19.335938 C 49.039062 21.472656 50.113281 23.492188 49.859375 26.210938 C 49.457031 28.210938 48.203125 29.441406 46.738281 30.757812 C 46.65625 30.835938 46.570312 30.910156 46.484375 30.992188 C 46.285156 31.167969 46.082031 31.339844 45.875 31.511719 C 44.960938 32.613281 44.910156 33.984375 44.851562 35.359375 C 44.75 37.6875 44.289062 39.953125 42.5 41.601562 C 41.175781 42.71875 39.570312 43.707031 37.804688 43.6875 C 34.886719 43.617188 34.886719 43.617188 32.359375 44.929688 C 32.214844 45.042969 32.066406 45.152344 31.914062 45.261719 C 31.609375 45.488281 31.308594 45.722656 31.011719 45.957031 C 28.734375 47.753906 26.863281 48.542969 23.890625 48.257812 C 22.261719 47.941406 20.957031 46.847656 19.71875 45.808594 C 19.257812 45.445312 18.78125 45.125 18.289062 44.808594 C 18.171875 44.730469 18.171875 44.730469 18.046875 44.652344 C 17.820312 44.511719 17.589844 44.375 17.359375 44.234375 C 17.242188 44.15625 17.125 44.078125 17.003906 44 C 16.242188 43.714844 15.472656 43.738281 14.671875 43.726562 C 14.5 43.71875 14.332031 43.714844 14.160156 43.710938 C 13.746094 43.699219 13.332031 43.691406 12.917969 43.679688 C 13.238281 43 13.695312 42.421875 14.140625 41.816406 C 14.226562 41.699219 14.3125 41.582031 14.398438 41.460938 C 14.84375 40.863281 15.285156 40.308594 15.832031 39.796875 C 16.058594 39.921875 16.058594 39.921875 16.285156 40.046875 C 20.460938 42.316406 25.285156 43.28125 29.960938 41.976562 C 30.925781 41.679688 31.855469 41.316406 32.777344 40.90625 C 32.867188 40.871094 32.953125 40.832031 33.042969 40.792969 C 37.210938 38.933594 40.484375 35.304688 42.117188 31.074219 C 42.433594 30.207031 42.679688 29.320312 42.917969 28.429688 C 42.949219 28.304688 42.980469 28.183594 43.015625 28.054688 C 44.074219 23.726562 42.957031 18.898438 40.703125 15.132812 C 39.757812 13.660156 38.597656 12.328125 37.359375 11.09375 C 37.5 10.964844 37.5 10.964844 37.644531 10.828125 C 38.179688 10.296875 38.613281 9.679688 39.0625 9.074219 C 39.152344 8.953125 39.246094 8.828125 39.339844 8.703125 C 39.523438 8.457031 39.703125 8.210938 39.886719 7.964844 C 40.21875 7.515625 40.558594 7.070312 40.894531 6.621094 C 40.992188 6.492188 41.089844 6.363281 41.1875 6.230469 C 41.253906 6.140625 41.320312 6.054688 41.390625 5.960938 Z M 41.390625 5.960938 "/>
<path style=" stroke:none;fill-rule:nonzero;fill:rgb(99.607843%,86.274511%,37.64706%);fill-opacity:1;" d="M 33.851562 12.796875 C 34.296875 13.136719 34.722656 13.496094 35.140625 13.867188 C 35.054688 14.320312 34.902344 14.59375 34.613281 14.953125 C 34.535156 15.054688 34.457031 15.15625 34.375 15.257812 C 34.289062 15.367188 34.203125 15.472656 34.113281 15.582031 C 33.980469 15.75 33.980469 15.75 33.847656 15.921875 C 33.667969 16.148438 33.488281 16.375 33.308594 16.601562 C 33.027344 16.953125 32.75 17.304688 32.472656 17.660156 C 32.351562 17.8125 32.230469 17.964844 32.113281 18.117188 C 31.472656 18.925781 30.839844 19.738281 30.210938 20.554688 C 30.128906 20.65625 30.050781 20.757812 29.96875 20.863281 C 29.898438 20.957031 29.828125 21.046875 29.753906 21.140625 C 29.582031 21.355469 29.582031 21.355469 29.445312 21.496094 C 29.210938 21.503906 28.976562 21.503906 28.742188 21.503906 C 28.550781 21.5 28.550781 21.5 28.355469 21.5 C 28.207031 21.496094 28.207031 21.496094 28.054688 21.496094 C 27.988281 21.332031 27.917969 21.167969 27.847656 21 C 27.59375 20.394531 27.335938 19.792969 27.078125 19.191406 C 26.964844 18.929688 26.855469 18.667969 26.746094 18.40625 C 26.585938 18.03125 26.425781 17.65625 26.265625 17.28125 C 26.191406 17.105469 26.191406 17.105469 26.117188 16.925781 C 26.070312 16.816406 26.023438 16.710938 25.972656 16.597656 C 25.914062 16.453125 25.914062 16.453125 25.851562 16.308594 C 25.707031 16.058594 25.707031 16.058594 25.398438 15.984375 C 25.3125 15.972656 25.226562 15.960938 25.140625 15.949219 C 24.914062 16.449219 24.6875 16.953125 24.464844 17.457031 C 24.351562 17.707031 24.238281 17.960938 24.125 18.214844 C 23.707031 19.152344 23.300781 20.09375 22.914062 21.046875 C 22.777344 21.355469 22.777344 21.355469 22.640625 21.496094 C 22.207031 21.546875 21.78125 21.589844 21.347656 21.628906 C 21.21875 21.640625 21.089844 21.652344 20.957031 21.664062 C 20.542969 21.703125 20.128906 21.742188 19.714844 21.78125 C 19.433594 21.804688 19.152344 21.832031 18.871094 21.859375 C 18.183594 21.921875 17.496094 21.984375 16.804688 22.050781 C 16.738281 22.324219 16.738281 22.324219 16.667969 22.605469 C 18.023438 23.886719 18.023438 23.886719 19.445312 25.101562 C 19.566406 25.199219 19.6875 25.296875 19.8125 25.398438 C 20.125 25.652344 20.125 25.652344 20.421875 25.835938 C 20.660156 25.992188 20.660156 25.992188 20.972656 26.347656 C 21.046875 27.488281 20.617188 28.695312 20.339844 29.789062 C 20.246094 30.144531 20.15625 30.5 20.070312 30.855469 C 20.027344 31.011719 19.988281 31.167969 19.949219 31.328125 C 19.867188 31.71875 19.84375 32.054688 19.859375 32.449219 C 19.945312 32.46875 20.03125 32.488281 20.121094 32.511719 C 20.417969 32.589844 20.417969 32.589844 20.695312 32.726562 C 18.601562 35.421875 18.601562 35.421875 17.640625 36.609375 C 15.152344 35.761719 13.34375 32.921875 12.222656 30.691406 C 10.742188 27.605469 10.347656 23.574219 11.433594 20.300781 C 12.101562 18.496094 12.914062 16.863281 14.167969 15.394531 C 14.261719 15.273438 14.355469 15.15625 14.453125 15.039062 C 19.195312 9.4375 27.941406 8.472656 33.851562 12.796875 Z M 33.851562 12.796875 "/>
<path style=" stroke:none;fill-rule:nonzero;fill:rgb(89.019608%,49.411765%,0%);fill-opacity:1;" d="M 25.140625 15.808594 C 25.390625 15.832031 25.390625 15.832031 25.695312 15.945312 C 25.902344 16.257812 25.902344 16.257812 26.09375 16.667969 C 26.164062 16.820312 26.238281 16.972656 26.308594 17.125 C 26.664062 17.914062 27.007812 18.703125 27.34375 19.5 C 27.414062 19.664062 27.480469 19.824219 27.554688 19.992188 C 28.054688 21.179688 28.054688 21.179688 28.054688 21.492188 C 28.253906 21.492188 28.253906 21.492188 28.457031 21.488281 C 28.628906 21.488281 28.804688 21.488281 28.984375 21.484375 C 29.242188 21.484375 29.242188 21.484375 29.507812 21.480469 C 30 21.492188 30 21.492188 30.328125 21.558594 C 30.714844 21.636719 31.09375 21.671875 31.488281 21.703125 C 31.632812 21.714844 31.78125 21.726562 31.933594 21.738281 C 32.242188 21.761719 32.554688 21.78125 32.863281 21.804688 C 33.011719 21.816406 33.15625 21.828125 33.308594 21.839844 C 33.511719 21.855469 33.511719 21.855469 33.71875 21.871094 C 34.027344 21.910156 34.027344 21.910156 34.167969 22.046875 C 34.210938 22.367188 34.210938 22.367188 34.167969 22.742188 C 33.917969 23.039062 33.917969 23.039062 33.566406 23.332031 C 33.441406 23.441406 33.3125 23.546875 33.183594 23.660156 C 33.050781 23.769531 32.914062 23.878906 32.777344 23.992188 C 32.652344 24.09375 32.523438 24.199219 32.394531 24.304688 C 32.269531 24.40625 32.144531 24.507812 32.015625 24.613281 C 31.890625 24.71875 31.761719 24.820312 31.632812 24.925781 C 31.371094 25.140625 31.105469 25.34375 30.835938 25.546875 C 30.707031 25.648438 30.574219 25.75 30.441406 25.855469 C 30.324219 25.941406 30.207031 26.03125 30.085938 26.121094 C 29.824219 26.546875 29.84375 26.625 29.9375 27.097656 C 30.003906 27.355469 30.070312 27.613281 30.140625 27.875 C 30.210938 28.191406 30.28125 28.511719 30.347656 28.828125 C 30.460938 29.34375 30.574219 29.855469 30.691406 30.371094 C 30.726562 30.535156 30.761719 30.703125 30.800781 30.875 C 30.832031 31.023438 30.867188 31.171875 30.898438 31.328125 C 30.972656 31.757812 30.984375 32.152344 30.972656 32.585938 C 30.5 32.75 30.316406 32.746094 29.851562 32.53125 C 29.699219 32.4375 29.542969 32.339844 29.382812 32.238281 C 29.300781 32.1875 29.214844 32.136719 29.128906 32.082031 C 28.863281 31.917969 28.597656 31.75 28.332031 31.582031 C 28.15625 31.472656 27.976562 31.359375 27.796875 31.25 C 27.46875 31.046875 27.140625 30.839844 26.8125 30.636719 C 26.671875 30.546875 26.535156 30.460938 26.390625 30.367188 C 26.273438 30.285156 26.15625 30.203125 26.039062 30.117188 C 25.574219 29.894531 25.351562 29.945312 24.859375 30.09375 C 24.53125 30.253906 24.226562 30.421875 23.914062 30.609375 C 23.824219 30.664062 23.738281 30.714844 23.648438 30.765625 C 23.371094 30.929688 23.097656 31.097656 22.820312 31.261719 C 22.632812 31.371094 22.449219 31.484375 22.261719 31.59375 C 21.328125 32.144531 21.328125 32.144531 20.417969 32.726562 C 19.929688 32.65625 19.929688 32.65625 19.722656 32.449219 C 19.792969 31.664062 19.941406 30.90625 20.117188 30.140625 C 20.140625 30.03125 20.167969 29.921875 20.191406 29.808594 C 20.269531 29.464844 20.347656 29.117188 20.425781 28.773438 C 20.476562 28.539062 20.53125 28.304688 20.585938 28.066406 C 20.710938 27.496094 20.84375 26.921875 20.972656 26.347656 C 20.886719 26.308594 20.800781 26.269531 20.714844 26.226562 C 20.320312 26.019531 20.039062 25.742188 19.714844 25.4375 C 19.183594 24.945312 18.644531 24.476562 18.082031 24.023438 C 16.945312 23.101562 16.945312 23.101562 16.527344 22.601562 C 16.597656 22.121094 16.597656 22.121094 16.804688 21.910156 C 17.234375 21.859375 17.664062 21.8125 18.09375 21.773438 C 18.222656 21.761719 18.355469 21.75 18.488281 21.738281 C 18.902344 21.699219 19.316406 21.660156 19.730469 21.625 C 20.011719 21.597656 20.292969 21.570312 20.570312 21.546875 C 21.261719 21.480469 21.949219 21.417969 22.640625 21.355469 C 22.703125 21.203125 22.769531 21.050781 22.839844 20.890625 C 23.082031 20.324219 23.328125 19.753906 23.574219 19.1875 C 23.679688 18.941406 23.785156 18.695312 23.890625 18.449219 C 24.042969 18.09375 24.195312 17.742188 24.347656 17.386719 C 24.394531 17.277344 24.441406 17.167969 24.492188 17.054688 C 24.535156 16.953125 24.578125 16.847656 24.625 16.742188 C 24.664062 16.652344 24.703125 16.5625 24.742188 16.46875 C 24.859375 16.226562 24.859375 16.226562 25.140625 15.808594 Z M 25.140625 15.808594 "/>
</g>
</svg>
