<?xml version="1.0" encoding="UTF-8"?>
<svg version="1.1" xmlns="http://www.w3.org/2000/svg" width="360" height="512">
<path d="M0 0 C3.24313584 2.08082317 6.0888826 4.48059259 9 7 C27.76118078 22.76794396 40.43619659 30.83705906 65.34375 32.12304688 C79.2965224 32.96843865 92.61138108 34.99501806 103 45 C104.6788738 47.17601604 106.1678134 49.2544205 107.625 51.5625 C107.99367188 52.10712891 108.36234375 52.65175781 108.7421875 53.21289062 C114.87759771 62.77246464 116.57142321 73.25186914 117.5 84.375 C119.47939052 104.24570936 125.40034181 118.33100297 137 134.4375 C148.08462829 149.83426603 155.81361814 164.42116784 154 184 C151.10322306 198.44939928 142.05584942 207.30085232 131.5234375 216.80078125 C130.91854492 217.35459473 130.31365234 217.9084082 129.69042969 218.47900391 C128.25738958 219.76840885 126.77769791 221.0056693 125.2890625 222.23046875 C118.70798845 230.19289452 118.33916718 240.08149837 117.9375 250 C117.45223106 261.09528495 116.29461227 271.14078624 111.25 281.1875 C110.80140625 282.10917969 110.3528125 283.03085937 109.890625 283.98046875 C108.20873753 286.66662374 106.47652755 288.8280341 104.38183594 291.1887207 C103.74920837 291.90397415 103.11658081 292.6192276 102.46478271 293.3561554 C101.98140442 293.89862411 101.49802612 294.44109283 101 295 C106.41781508 308.82516651 112.17151436 322.47814285 118.12252808 336.081604 C120.63447367 341.82673794 123.13351345 347.57748065 125.6328125 353.328125 C126.14974167 354.51733551 126.66667084 355.70654602 127.19926453 356.93179321 C132.63349594 369.44276729 138.02929322 381.97004459 143.39157104 394.51202393 C144.42011783 396.91583098 145.45064842 399.31879018 146.48318481 401.72088623 C147.91984995 405.06429933 149.34955549 408.41060083 150.77734375 411.7578125 C151.20743744 412.75528503 151.63753113 413.75275757 152.08065796 414.78045654 C152.46774933 415.6922467 152.8548407 416.60403687 153.25366211 417.54345703 C153.76249184 418.73263229 153.76249184 418.73263229 154.28160095 419.9458313 C155 422 155 422 155 425 C153.56205582 424.96002899 153.56205582 424.96002899 152.09506226 424.91925049 C143.00547109 424.67466648 133.91655754 424.49548788 124.82440758 424.37825394 C120.15106145 424.31594896 115.48039664 424.23163975 110.80859375 424.09472656 C106.28902024 423.96312264 101.77200326 423.89234677 97.25065994 423.86147308 C95.53693037 423.83951124 93.82332132 423.79662375 92.1106987 423.73123932 C82.34554732 423.37368255 75.73583585 423.99699608 68.27587891 430.72558594 C66.67983853 432.27152074 65.12297028 433.84561055 63.58111954 435.44550323 C60.90546518 438.07610512 57.92438517 440.3003825 54.9375 442.5625 C50.36484294 446.10621359 45.8936737 449.73656911 41.5 453.5 C34.82770411 459.20934721 27.93788646 464.61877253 21 470 C19.57300781 471.11181641 19.57300781 471.11181641 18.1171875 472.24609375 C16.07994621 473.83309833 14.04105823 475.41790989 12 477 C9.21240374 475.60620187 9.02284163 474.07168271 7.86450195 471.19921875 C7.44679031 470.17304443 7.02907867 469.14687012 6.59870911 468.08959961 C6.14976791 466.96690674 5.70082672 465.84421387 5.23828125 464.6875 C4.76939987 463.53064697 4.30051849 462.37379395 3.81742859 461.18188477 C2.56417462 458.086477 1.3168236 454.98882254 0.07232666 451.88989258 C-1.16795774 448.80497281 -2.41532574 445.72292263 -3.66210938 442.640625 C-5.57469016 437.91119534 -7.48429014 433.18057877 -9.39208984 428.44921875 C-12.5544806 420.6161469 -15.76508861 412.80336153 -19 405 C-21.94706599 410.71153147 -24.49369358 416.46874199 -26.85058594 422.4453125 C-27.21205215 423.35356277 -27.57351837 424.26181305 -27.94593811 425.19758606 C-29.12877031 428.17207109 -30.30660537 431.14850721 -31.484375 434.125 C-32.30789834 436.19877177 -33.13173523 438.27241904 -33.95587158 440.34594727 C-36.11586058 445.78292185 -38.27160531 451.22156943 -40.42645264 456.6605835 C-42.62938334 462.21875493 -44.83634857 467.77532377 -47.04296875 473.33203125 C-51.36591595 484.21979474 -55.68437835 495.10933098 -60 506 C-64.22910294 506 -64.57748685 505.93247331 -67.546875 503.39453125 C-68.21871826 502.82968018 -68.89056152 502.2648291 -69.58276367 501.68286133 C-70.29795166 501.06564209 -71.01313965 500.44842285 -71.75 499.8125 C-73.28207109 498.52026285 -74.81463469 497.22860944 -76.34765625 495.9375 C-77.12383301 495.27878906 -77.90000977 494.62007813 -78.69970703 493.94140625 C-82.16000675 491.02097499 -85.66982288 488.16335165 -89.1875 485.3125 C-90.17472046 484.50993774 -90.17472046 484.50993774 -91.18188477 483.69116211 C-96.04132033 479.74989367 -100.95938427 475.88821655 -105.89624023 472.04467773 C-110.67728226 468.30158429 -115.3172735 464.40474003 -119.91479492 460.43896484 C-124.65738404 456.36399619 -127.35148535 455.84288805 -133.47900391 455.79467773 C-134.24982803 455.78477814 -135.02065216 455.77487854 -135.81483459 455.76467896 C-138.3687124 455.7330317 -140.92260882 455.70829383 -143.4765625 455.68359375 C-145.24490855 455.663027 -147.01324965 455.64203061 -148.78158569 455.62062073 C-153.44059243 455.56537119 -158.09964375 455.51597464 -162.75872803 455.46777344 C-167.51106747 455.41757944 -172.26334202 455.36188242 -177.015625 455.30664062 C-186.34369459 455.19902381 -195.67182047 455.09758667 -205 455 C-204.43059384 451.81245872 -203.698136 448.96071947 -202.42797852 445.98388672 C-202.10503311 445.2203891 -201.78208771 444.45689148 -201.44935608 443.67025757 C-201.09610764 442.84836945 -200.74285919 442.02648132 -200.37890625 441.1796875 C-200.00781235 440.30551178 -199.63671844 439.43133606 -199.25437927 438.53067017 C-198.45004941 436.63732683 -197.64357544 434.74489324 -196.83520508 432.85327148 C-195.10026274 428.79331337 -193.37555393 424.7290342 -191.65023804 420.66497803 C-190.75560111 418.55786213 -189.86043279 416.45097178 -188.9647522 414.34429932 C-184.97266258 404.95143455 -181.02694928 395.53958503 -177.09460449 386.12158203 C-169.59620059 368.16287542 -162.04269809 350.22783082 -154.45507812 332.30664062 C-152.64239465 328.0239018 -150.83501783 323.73896409 -149.0322876 319.45202637 C-148.33666995 317.7997031 -147.63932726 316.14810514 -146.94036865 314.49719238 C-145.93811235 312.12788214 -144.94279632 309.75577281 -143.94921875 307.3828125 C-143.64917435 306.67728241 -143.34912994 305.97175232 -143.03999329 305.24484253 C-141.82615609 302.32796765 -141 300.19345839 -141 297 C-142.32 296.34 -143.64 295.68 -145 295 C-145 294.34 -145 293.68 -145 293 C-145.66 293 -146.32 293 -147 293 C-148.56828202 290.92611355 -149.98498605 288.87733702 -151.375 286.6875 C-151.77912109 286.05465088 -152.18324219 285.42180176 -152.59960938 284.76977539 C-158.29166879 275.59859457 -160.96517748 266.5339325 -161.28979492 255.8034668 C-161.75325905 240.89426414 -162.30511497 228.36098008 -173.54296875 217.5546875 C-177.93891998 213.31643968 -177.93891998 213.31643968 -183 210 C-183 209.34 -183 208.68 -183 208 C-183.66 208 -184.32 208 -185 208 C-185 207.34 -185 206.68 -185 206 C-185.66 206 -186.32 206 -187 206 C-194.40082232 196.90391542 -198.89301742 185.50880413 -198.30078125 173.71484375 C-196.49027956 157.3733025 -187.81658559 143.27622837 -177.984375 130.43359375 C-167.74278143 116.91469024 -163.06276324 103.50667372 -161.5625 86.6875 C-159.82629661 69.65415372 -156.36789593 53.86636887 -143.22265625 41.68359375 C-131.12514733 32.52010281 -115.80961029 32.61630723 -101.29492188 31.87695312 C-84.78360792 30.87708632 -74.35906762 24.90501085 -62.04980469 14.27294922 C-43.83914853 -1.37063681 -23.48534087 -12.82509536 0 0 Z " fill="#E37E00" transform="translate(205,5)"/>
<path d="M0 0 C2.51827677 2.24979815 3.76672013 4.30691656 5.07104492 7.40893555 C5.45471222 8.31113327 5.83837952 9.21333099 6.2336731 10.14286804 C6.64511566 11.13083878 7.05655823 12.11880951 7.48046875 13.13671875 C7.92188202 14.17975662 8.36329529 15.22279449 8.81808472 16.29743958 C10.28110927 19.75806693 11.73413575 23.22280587 13.1875 26.6875 C14.46635489 29.71719724 15.74692985 32.74616085 17.02795124 35.7749424 C17.41850083 36.69840997 17.41850083 36.69840997 17.81694031 37.64053345 C18.07937719 38.2610622 18.34181408 38.88159096 18.6122036 39.52092361 C19.4215238 41.43562076 20.22985306 43.35073351 21.03791809 45.26596069 C26.47446334 58.14803027 31.97988466 71.00031337 37.49526978 83.8487854 C39.03233244 87.4297179 40.56845575 91.0110518 42.10424805 94.5925293 C42.58555679 95.71467331 43.06686554 96.83681732 43.5627594 97.9929657 C44.4857459 100.14563525 45.40816194 102.2985495 46.3299408 104.45173645 C48.20809303 108.83681987 50.0905783 113.21927866 52.01123047 117.5859375 C52.30001572 118.24621948 52.58880096 118.90650146 52.88633728 119.58679199 C53.61075523 121.24002166 54.34106146 122.89066804 55.07202148 124.54101562 C56 127 56 127 56 130 C55.04137054 129.97335266 54.08274109 129.94670532 53.09506226 129.91925049 C44.00547109 129.67466648 34.91655754 129.49548788 25.82440758 129.37825394 C21.15106145 129.31594896 16.48039664 129.23163975 11.80859375 129.09472656 C7.28902024 128.96312264 2.77200326 128.89234677 -1.74934006 128.86147308 C-3.46306963 128.83951124 -5.17667868 128.79662375 -6.8893013 128.73123932 C-16.65445268 128.37368255 -23.26416415 128.99699608 -30.72412109 135.72558594 C-32.32016147 137.27152074 -33.87702972 138.84561055 -35.41888046 140.44550323 C-38.09453482 143.07610512 -41.07561483 145.3003825 -44.0625 147.5625 C-48.63515706 151.10621359 -53.1063263 154.73656911 -57.5 158.5 C-64.17229589 164.20934721 -71.06211354 169.61877253 -78 175 C-79.42699219 176.11181641 -79.42699219 176.11181641 -80.8828125 177.24609375 C-82.92005379 178.83309833 -84.95894177 180.41790989 -87 182 C-89.78759626 180.60620187 -89.97715837 179.07168271 -91.13549805 176.19921875 C-91.55320969 175.17304443 -91.97092133 174.14687012 -92.40129089 173.08959961 C-92.85023209 171.96690674 -93.29917328 170.84421387 -93.76171875 169.6875 C-94.23060013 168.53064697 -94.69948151 167.37379395 -95.18257141 166.18188477 C-96.43582538 163.086477 -97.6831764 159.98882254 -98.92767334 156.88989258 C-100.16795774 153.80497281 -101.41532574 150.72292263 -102.66210938 147.640625 C-104.57469016 142.91119534 -106.48429014 138.18057877 -108.39208984 133.44921875 C-111.5544806 125.6161469 -114.76508861 117.80336153 -118 110 C-120.94706599 115.71153147 -123.49369358 121.46874199 -125.85058594 127.4453125 C-126.21205215 128.35356277 -126.57351837 129.26181305 -126.94593811 130.19758606 C-128.12877031 133.17207109 -129.30660537 136.14850721 -130.484375 139.125 C-131.30789834 141.19877177 -132.13173523 143.27241904 -132.95587158 145.34594727 C-135.11586058 150.78292185 -137.27160531 156.22156943 -139.42645264 161.6605835 C-141.62938334 167.21875493 -143.83634857 172.77532377 -146.04296875 178.33203125 C-150.36591595 189.21979474 -154.68437835 200.10933098 -159 211 C-163.22910294 211 -163.57748685 210.93247331 -166.546875 208.39453125 C-167.55463989 207.54725464 -167.55463989 207.54725464 -168.58276367 206.68286133 C-169.29795166 206.06564209 -170.01313965 205.44842285 -170.75 204.8125 C-172.28207109 203.52026285 -173.81463469 202.22860944 -175.34765625 200.9375 C-176.12383301 200.27878906 -176.90000977 199.62007812 -177.69970703 198.94140625 C-181.16000675 196.02097499 -184.66982288 193.16335165 -188.1875 190.3125 C-189.17472046 189.50993774 -189.17472046 189.50993774 -190.18188477 188.69116211 C-195.04132033 184.74989367 -199.95938427 180.88821655 -204.89624023 177.04467773 C-209.67728226 173.30158429 -214.3172735 169.40474003 -218.91479492 165.43896484 C-223.65738404 161.36399619 -226.35148535 160.84288805 -232.47900391 160.79467773 C-233.24982803 160.78477814 -234.02065216 160.77487854 -234.81483459 160.76467896 C-237.3687124 160.7330317 -239.92260882 160.70829383 -242.4765625 160.68359375 C-244.24490855 160.663027 -246.01324965 160.64203061 -247.78158569 160.62062073 C-252.44059243 160.56537119 -257.09964375 160.51597464 -261.75872803 160.46777344 C-266.51106747 160.41757944 -271.26334202 160.36188242 -276.015625 160.30664062 C-285.34369459 160.19902381 -294.67182047 160.09758667 -304 160 C-303.43059384 156.81245872 -302.698136 153.96071947 -301.42797852 150.98388672 C-301.10503311 150.2203891 -300.78208771 149.45689148 -300.44935608 148.67025757 C-299.91948341 147.43742538 -299.91948341 147.43742538 -299.37890625 146.1796875 C-299.00781235 145.30551178 -298.63671844 144.43133606 -298.25437927 143.53067017 C-297.45004941 141.63732683 -296.64357544 139.74489324 -295.83520508 137.85327148 C-294.10026274 133.79331337 -292.37555393 129.7290342 -290.65023804 125.66497803 C-289.75560111 123.55786213 -288.86043279 121.45097178 -287.9647522 119.34429932 C-283.97266258 109.95143455 -280.02694928 100.53958503 -276.09460449 91.12158203 C-268.59620059 73.16287542 -261.04269809 55.22783082 -253.45507812 37.30664062 C-248.90880983 26.5624676 -244.41840596 15.79740782 -240 5 C-235.2517886 5 -232.44483149 6.67685495 -228.4375 8.9375 C-222.26486811 12.36410965 -218.09586353 14.11428 -210.9453125 14.0703125 C-209.51040462 14.07891171 -208.07550704 14.08939317 -206.640625 14.1015625 C-204.39798124 14.11809543 -202.15762098 14.12537479 -199.91503906 14.09960938 C-188.70790506 13.98958843 -181.49599662 15.60706676 -172 22 C-171.34999023 22.42539062 -170.69998047 22.85078125 -170.03027344 23.2890625 C-168.58473156 24.28326511 -167.19494197 25.35727578 -165.8125 26.4375 C-164.82636719 27.19675781 -163.84023437 27.95601563 -162.82421875 28.73828125 C-161.0364664 30.16996674 -159.26566936 31.62331373 -157.51953125 33.10546875 C-143.11389543 45.2550833 -129.46955746 48.17025718 -111 47 C-98.06868457 45.14312723 -88.72330738 36.88732772 -78.9375 28.875 C-73.33128591 24.30077557 -67.25932977 20.61310905 -61 17 C-60.42427246 16.64059326 -59.84854492 16.28118652 -59.25537109 15.91088867 C-56.12174991 14.64529648 -53.40509633 14.76062562 -50.03125 14.76171875 C-48.64061548 14.74627761 -47.24999034 14.72997246 -45.859375 14.71289062 C-43.69184456 14.69658059 -41.52500741 14.68741736 -39.35742188 14.69458008 C-25.401854 14.71223317 -11.70839095 11.22990793 -1.22265625 1.3203125 C-0.81917969 0.88460938 -0.41570312 0.44890625 0 0 Z " fill="#FE6600" transform="translate(304,300)"/>
<path d="M0 0 C20.25725454 16.21803487 36.68496613 40.16719452 40.05859375 66.3984375 C41.66518523 82.55625479 42.42184799 100.05410795 36.4765625 115.3671875 C35.98534912 116.74727915 35.49448227 118.12749416 35.00390625 119.5078125 C25.24472153 145.86739712 5.31542408 166.19977085 -19.7109375 178.6171875 C-45.05555447 189.82250461 -74.65685493 190.96814618 -100.51855469 180.97094727 C-127.29914056 169.97201238 -147.33067585 150.40187279 -159.140625 123.91015625 C-169.69212775 96.87565627 -170.04090627 67.5449918 -158.40991211 40.90869141 C-154.41959615 32.20457363 -149.73692273 24.67973054 -143.5234375 17.3671875 C-142.83894531 16.5215625 -142.15445313 15.6759375 -141.44921875 14.8046875 C-106.74344477 -26.25205067 -42.55016652 -32.58603789 0 0 Z " fill="#F4C700" transform="translate(245.5234375,93.6328125)"/>
<path d="M0 0 C3.24313584 2.08082317 6.0888826 4.48059259 9 7 C27.76118078 22.76794396 40.43619659 30.83705906 65.34375 32.12304688 C86.46168899 33.40257265 86.46168899 33.40257265 93 39 C84.1391686 51.10920137 75.16045121 63.11576014 66 75 C62.12923553 74.18459544 60.32823191 72.72978406 57.375 70.0625 C34.05307342 50.55519705 2.15109095 41.23318448 -28 43 C-29.0830542 43.05365723 -29.0830542 43.05365723 -30.18798828 43.10839844 C-43.56420889 43.83229424 -55.47111226 46.28867632 -68 51 C-69.23234375 51.45375 -70.4646875 51.9075 -71.734375 52.375 C-86.04046434 58.07154236 -100.23375583 66.92348943 -111 78 C-111.66 78.66 -112.32 79.32 -113 80 C-113.66 80 -114.32 80 -115 80 C-115.2578125 80.58136719 -115.515625 81.16273437 -115.78125 81.76171875 C-117.10214491 84.18759306 -118.5866152 85.82461866 -120.5 87.8125 C-134.17699086 103.00089746 -142.74141225 121.39980928 -148 141 C-148.3196875 142.0828125 -148.639375 143.165625 -148.96875 144.28125 C-153.93443408 163.9600721 -152.48186584 186.58033272 -147 206 C-146.79101074 206.7616748 -146.58202148 207.52334961 -146.36669922 208.30810547 C-137.95667655 238.14951173 -119.38064735 262.48137136 -94 280 C-93.34 280.33 -92.68 280.66 -92 281 C-93.28015823 284.55595195 -94.7626107 287.26524879 -97.1171875 290.21484375 C-97.72433594 290.98376953 -98.33148438 291.75269531 -98.95703125 292.54492188 C-99.58996094 293.33447266 -100.22289063 294.12402344 -100.875 294.9375 C-102.12435104 296.50756074 -103.37179213 298.07914347 -104.6171875 299.65234375 C-105.21112305 300.39339355 -105.80505859 301.13444336 -106.41699219 301.89794922 C-107.80358789 303.7391875 -108.89873676 305.55436097 -110.0078125 307.56640625 C-112 310 -112 310 -115.2109375 310.61328125 C-119.84542854 309.8631626 -123.4597769 308.28850918 -127.625 306.1875 C-128.36234375 305.83107422 -129.0996875 305.47464844 -129.859375 305.10742188 C-137.68830094 301.28415607 -137.68830094 301.28415607 -141 299 C-141 298.34 -141 297.68 -141 297 C-142.32 296.34 -143.64 295.68 -145 295 C-145 294.34 -145 293.68 -145 293 C-145.66 293 -146.32 293 -147 293 C-148.56828202 290.92611355 -149.98498605 288.87733702 -151.375 286.6875 C-151.77912109 286.05465088 -152.18324219 285.42180176 -152.59960938 284.76977539 C-158.29166879 275.59859457 -160.96517748 266.5339325 -161.28979492 255.8034668 C-161.75325905 240.89426414 -162.30511497 228.36098008 -173.54296875 217.5546875 C-177.93891998 213.31643968 -177.93891998 213.31643968 -183 210 C-183 209.34 -183 208.68 -183 208 C-183.66 208 -184.32 208 -185 208 C-185 207.34 -185 206.68 -185 206 C-185.66 206 -186.32 206 -187 206 C-194.40082232 196.90391542 -198.89301742 185.50880413 -198.30078125 173.71484375 C-196.49027956 157.3733025 -187.81658559 143.27622837 -177.984375 130.43359375 C-167.74278143 116.91469024 -163.06276324 103.50667372 -161.5625 86.6875 C-159.82629661 69.65415372 -156.36789593 53.86636887 -143.22265625 41.68359375 C-131.12514733 32.52010281 -115.80961029 32.61630723 -101.29492188 31.87695312 C-84.78360792 30.87708632 -74.35906762 24.90501085 -62.04980469 14.27294922 C-43.83914853 -1.37063681 -23.48534087 -12.82509536 0 0 Z " fill="#FEDC5F" transform="translate(205,5)"/>
<path d="M0 0 C2.51827677 2.24979815 3.76672013 4.30691656 5.07104492 7.40893555 C5.45471222 8.31113327 5.83837952 9.21333099 6.2336731 10.14286804 C6.85083694 11.62482414 6.85083694 11.62482414 7.48046875 13.13671875 C8.14258865 14.70127556 8.14258865 14.70127556 8.81808472 16.29743958 C10.28110927 19.75806693 11.73413575 23.22280587 13.1875 26.6875 C14.46635489 29.71719724 15.74692985 32.74616085 17.02795124 35.7749424 C17.28831763 36.39058744 17.54868402 37.00623249 17.81694031 37.64053345 C18.07937719 38.2610622 18.34181408 38.88159096 18.6122036 39.52092361 C19.4215238 41.43562076 20.22985306 43.35073351 21.03791809 45.26596069 C26.47446334 58.14803027 31.97988466 71.00031337 37.49526978 83.8487854 C39.03233244 87.4297179 40.56845575 91.0110518 42.10424805 94.5925293 C42.58555679 95.71467331 43.06686554 96.83681732 43.5627594 97.9929657 C44.4857459 100.14563525 45.40816194 102.2985495 46.3299408 104.45173645 C48.20809303 108.83681987 50.0905783 113.21927866 52.01123047 117.5859375 C52.44440834 118.57636047 52.44440834 118.57636047 52.88633728 119.58679199 C53.61075523 121.24002166 54.34106146 122.89066804 55.07202148 124.54101562 C56 127 56 127 56 130 C55.04137054 129.97335266 54.08274109 129.94670532 53.09506226 129.91925049 C44.00547109 129.67466648 34.91655754 129.49548788 25.82440758 129.37825394 C21.15106145 129.31594896 16.48039664 129.23163975 11.80859375 129.09472656 C7.28902024 128.96312264 2.77200326 128.89234677 -1.74934006 128.86147308 C-3.46306963 128.83951124 -5.17667868 128.79662375 -6.8893013 128.73123932 C-16.65445268 128.37368255 -23.26416415 128.99699608 -30.72412109 135.72558594 C-32.32016147 137.27152074 -33.87702972 138.84561055 -35.41888046 140.44550323 C-38.09453482 143.07610512 -41.07561483 145.3003825 -44.0625 147.5625 C-48.63515706 151.10621359 -53.1063263 154.73656911 -57.5 158.5 C-64.17229589 164.20934721 -71.06211354 169.61877253 -78 175 C-78.95132813 175.74121094 -79.90265625 176.48242188 -80.8828125 177.24609375 C-82.92005379 178.83309833 -84.95894177 180.41790989 -87 182 C-89.78759626 180.60620187 -89.97715837 179.07168271 -91.13549805 176.19921875 C-91.55320969 175.17304443 -91.97092133 174.14687012 -92.40129089 173.08959961 C-92.85023209 171.96690674 -93.29917328 170.84421387 -93.76171875 169.6875 C-94.23060013 168.53064697 -94.69948151 167.37379395 -95.18257141 166.18188477 C-96.43582538 163.086477 -97.6831764 159.98882254 -98.92767334 156.88989258 C-100.65395828 152.5961592 -102.39238914 148.30731965 -104.12796021 144.01733398 C-105.0883371 141.64017269 -106.04642517 139.26208536 -107.00216675 136.88305664 C-109.04871923 131.79249044 -111.10662135 126.71097818 -113.26806641 121.66796875 C-113.60054886 120.88687744 -113.93303131 120.10578613 -114.27558899 119.30102539 C-114.87012332 117.91208068 -115.47312093 116.52670769 -116.08708191 115.14624023 C-118.85937003 108.65127997 -118.35970785 104.21479431 -115.81585693 97.86022949 C-115.49763977 97.09553345 -115.17942261 96.3308374 -114.8515625 95.54296875 C-114.52367737 94.73065796 -114.19579224 93.91834717 -113.85797119 93.0814209 C-112.79116433 90.4455443 -111.70939433 87.81618565 -110.625 85.1875 C-109.13822124 81.56348186 -107.65473484 77.93812312 -106.171875 74.3125 C-105.80565033 73.42044357 -105.43942566 72.52838715 -105.06210327 71.60929871 C-102.97886842 66.50684835 -101.02304298 61.38963997 -99.203125 56.1875 C-94.49864583 42.89085244 -90.21482971 35.25563702 -78 28 C-76.2628948 26.74003958 -74.5328511 25.47024192 -72.8125 24.1875 C-71.21288864 23.11815419 -69.60819536 22.05639227 -68 21 C-67.23574707 20.47067871 -66.47149414 19.94135742 -65.68408203 19.39599609 C-57.66813093 14.37128278 -50.22057753 14.25073114 -41.0625 14.4375 C-26.38151585 14.6999361 -12.33016041 11.81751424 -1.22265625 1.3203125 C-0.61744141 0.66675781 -0.61744141 0.66675781 0 0 Z " fill="#D0401A" transform="translate(304,300)"/>
<path d="M0 0 C7.36337905 4.10746314 11.7098353 8.7817979 16 16 C16.474375 16.79535156 16.94875 17.59070313 17.4375 18.41015625 C22.78082593 28.19035102 24.0332516 38.49891708 24.9375 49.4375 C26.5277888 67.95968718 33.26512721 81.53178521 44 96.4375 C55.08462829 111.83426603 62.81361814 126.42116784 61 146 C58.10322306 160.44939928 49.05584942 169.30085232 38.5234375 178.80078125 C37.91854492 179.35459473 37.31365234 179.9084082 36.69042969 180.47900391 C35.25738958 181.76840885 33.77769791 183.0056693 32.2890625 184.23046875 C25.70798845 192.19289452 25.33916718 202.08149837 24.9375 212 C24.20392032 228.77271075 20.89264762 245.1258467 8 257 C-1.52939546 265.04568541 -13.0826844 272.18191309 -25.80078125 272.03515625 C-46.812095 271.53695605 -46.812095 271.53695605 -65 281 C-66.06356847 281.80799505 -67.13277803 282.6086096 -68.20703125 283.40234375 C-70.40234218 285.04076673 -72.57079808 286.70620913 -74.71875 288.40625 C-91.10483084 301.36543413 -104.58868967 307.05566572 -126 305 C-137.70548573 302.73139095 -147.1225676 294.81885132 -156.03125 287.34375 C-159.3441893 284.72827161 -162.76155859 282.40101606 -166.3125 280.125 C-167.17452026 279.57126709 -167.17452026 279.57126709 -168.05395508 279.00634766 C-169.68640035 277.97799468 -171.34297622 276.98826089 -173 276 C-173.85207031 275.43410156 -174.70414063 274.86820312 -175.58203125 274.28515625 C-181.04614864 272.23064811 -186.58394415 272.42229792 -192.375 272.3125 C-193.58800781 272.27833984 -194.80101562 272.24417969 -196.05078125 272.20898438 C-199.03376181 272.12677625 -202.01645842 272.05753474 -205 272 C-202.69739864 267.07520429 -199.40707043 262.91800091 -196.1875 258.5625 C-195.57068359 257.71623047 -194.95386719 256.86996094 -194.31835938 255.99804688 C-191.12545412 251.66506068 -187.94863386 247.66282799 -184 244 C-182.38544922 244.88751953 -182.38544922 244.88751953 -180.73828125 245.79296875 C-150.68732718 262.14600492 -115.93717307 269.11364883 -82.27050781 259.69335938 C-75.32309455 257.57178371 -68.63347303 254.95102476 -62 252 C-61.36868164 251.72285156 -60.73736328 251.44570313 -60.08691406 251.16015625 C-30.07565915 237.76484973 -6.52068197 211.58896052 5.24609375 181.078125 C7.51602909 174.82110117 9.30379889 168.43226069 11 162 C11.23589844 161.11441406 11.47179687 160.22882813 11.71484375 159.31640625 C19.33514698 128.11209886 11.29652715 93.27720619 -4.9375 66.125 C-11.75042768 55.50677107 -20.08605317 45.91394683 -29 37 C-27.98679687 36.05833984 -27.98679687 36.05833984 -26.953125 35.09765625 C-23.09977573 31.24024227 -19.98021913 26.81521641 -16.75 22.4375 C-16.0912085 21.5515918 -15.43241699 20.66568359 -14.75366211 19.75292969 C-13.44021465 17.98664147 -12.12824941 16.21924995 -10.81787109 14.45068359 C-8.41214722 11.20751192 -5.98893644 7.97768488 -3.5625 4.75 C-2.86253906 3.81671875 -2.16257812 2.8834375 -1.44140625 1.921875 C-0.96574219 1.28765625 -0.49007812 0.6534375 0 0 Z " fill="#F4C700" transform="translate(298,43)"/>
<path d="M0 0 C3.19155025 2.45425588 6.25725485 5.03475787 9.25488281 7.72119141 C8.64709675 10.99633156 7.54376986 12.95923694 5.48144531 15.55712891 C4.90974609 16.28416016 4.33804688 17.01119141 3.74902344 17.76025391 C3.13220703 18.53111328 2.51539063 19.30197266 1.87988281 20.09619141 C0.92758789 21.30275391 0.92758789 21.30275391 -0.04394531 22.53369141 C-1.33582009 24.16963333 -2.63040444 25.80343932 -3.92773438 27.43505859 C-5.94601482 29.97390573 -7.95123932 32.52268563 -9.953125 35.07446289 C-10.81350493 36.17107337 -11.67483161 37.26694172 -12.53710938 38.36206055 C-17.13350734 44.20070534 -21.68775279 50.07212397 -26.23925781 55.94580078 C-26.81095703 56.6825 -27.38265625 57.41919922 -27.97167969 58.17822266 C-28.4829541 58.83798096 -28.99422852 59.49773926 -29.52099609 60.17749023 C-30.74511719 61.72119141 -30.74511719 61.72119141 -31.74511719 62.72119141 C-33.43120685 62.79324652 -35.12012378 62.80505208 -36.80761719 62.78369141 C-38.18626953 62.77015625 -38.18626953 62.77015625 -39.59277344 62.75634766 C-40.65818359 62.73894531 -40.65818359 62.73894531 -41.74511719 62.72119141 C-42.23915039 61.54500244 -42.73318359 60.36881348 -43.2421875 59.15698242 C-45.07581651 54.80263517 -46.92913241 50.45690509 -48.78857422 46.11352539 C-49.59119198 44.23106029 -50.38842269 42.34628898 -51.18017578 40.45922852 C-52.31799655 37.74996192 -53.47481822 35.04953056 -54.63574219 32.35009766 C-55.16255585 31.0782235 -55.16255585 31.0782235 -55.70001221 29.78065491 C-56.04006287 28.99992111 -56.38011353 28.21918732 -56.73046875 27.41479492 C-57.17014984 26.37887962 -57.17014984 26.37887962 -57.61871338 25.32203674 C-58.65220912 23.52083295 -58.65220912 23.52083295 -60.87103271 22.99034119 C-61.48948059 22.90152176 -62.10792847 22.81270233 -62.74511719 22.72119141 C-64.36444913 26.34583409 -65.98177144 29.97136667 -67.59741211 33.59765625 C-68.41061483 35.42183563 -69.22530634 37.2453511 -70.04003906 39.06884766 C-73.05542006 45.83958046 -75.98595673 52.63243709 -78.77563477 59.49951172 C-79.74511719 61.72119141 -79.74511719 61.72119141 -80.74511719 62.72119141 C-83.84139472 63.09620343 -86.92497777 63.41397857 -90.03027344 63.69384766 C-90.96109238 63.78121689 -91.89191132 63.86858612 -92.85093689 63.95860291 C-95.83612374 64.23782523 -98.82184375 64.51082003 -101.80761719 64.78369141 C-103.82653544 64.97143382 -105.84541623 65.15957952 -107.86425781 65.34814453 C-112.82412106 65.81051458 -117.78447125 66.26729877 -122.74511719 66.72119141 C-123.24011719 68.70119141 -123.24011719 68.70119141 -123.74511719 70.72119141 C-113.9626083 79.96616367 -113.9626083 79.96616367 -103.74511719 88.72119141 C-102.87371094 89.43404297 -102.00230469 90.14689453 -101.10449219 90.88134766 C-98.84595287 92.70158362 -98.84595287 92.70158362 -96.69824219 94.02978516 C-94.99511719 95.15869141 -94.99511719 95.15869141 -92.74511719 97.72119141 C-92.20272032 105.95890947 -95.29859535 114.65275622 -97.30761719 122.53369141 C-97.96164186 125.1010963 -98.60737637 127.67014899 -99.24902344 130.24072266 C-99.53592041 131.36583252 -99.82281738 132.49094238 -100.1184082 133.65014648 C-100.68973855 136.44982098 -100.87206374 138.87699204 -100.74511719 141.72119141 C-100.12636719 141.86556641 -99.50761719 142.00994141 -98.87011719 142.15869141 C-96.74511719 142.72119141 -96.74511719 142.72119141 -94.74511719 143.72119141 C-109.80837741 163.1472087 -109.80837741 163.1472087 -116.74511719 171.72119141 C-134.64552447 165.61437376 -147.66308448 145.11720918 -155.73339844 129.03759766 C-166.40025454 106.80211014 -169.25111026 77.72336149 -161.42089844 54.11181641 C-156.61250109 41.08944121 -150.76807242 29.34015098 -141.74511719 18.72119141 C-141.060625 17.87556641 -140.37613281 17.02994141 -139.67089844 16.15869141 C-105.53749615 -24.22093422 -42.56545725 -31.19164312 0 0 Z " fill="#FEDC60" transform="translate(243.7451171875,92.27880859375)"/>
<path d="M0 0 C1.81982422 0.17431641 1.81982422 0.17431641 4 1 C5.49658203 3.24365234 5.49658203 3.24365234 6.8828125 6.2109375 C7.39489258 7.29858398 7.90697266 8.38623047 8.43457031 9.50683594 C10.98005275 15.18692992 13.46658342 20.88537678 15.875 26.625 C16.37257813 27.79417969 16.87015625 28.96335938 17.3828125 30.16796875 C21 38.74388307 21 38.74388307 21 41 C22.42892578 40.98259766 22.42892578 40.98259766 23.88671875 40.96484375 C25.14097656 40.95582031 26.39523438 40.94679687 27.6875 40.9375 C29.54955078 40.92009766 29.54955078 40.92009766 31.44921875 40.90234375 C35 41 35 41 37.36547852 41.47485352 C40.1559814 42.03109221 42.86611788 42.28950328 45.703125 42.5 C46.7653125 42.5825 47.8275 42.665 48.921875 42.75 C51.15616263 42.91783381 53.39053944 43.0844844 55.625 43.25 C56.68203125 43.3325 57.7390625 43.415 58.828125 43.5 C60.2807373 43.60828125 60.2807373 43.60828125 61.76269531 43.71875 C64 44 64 44 65 45 C65.33203125 47.296875 65.33203125 47.296875 65 50 C63.19921875 52.140625 63.19921875 52.140625 60.6875 54.25 C59.77355469 55.02859375 58.85960937 55.8071875 57.91796875 56.609375 C56.95503906 57.39828125 55.99210937 58.1871875 55 59 C54.08863281 59.74765625 53.17726563 60.4953125 52.23828125 61.265625 C51.33464844 62.00296875 50.43101562 62.7403125 49.5 63.5 C48.59894531 64.24378906 47.69789063 64.98757812 46.76953125 65.75390625 C44.88382034 67.28322046 42.96227019 68.76914092 41.01171875 70.21484375 C40.07972656 70.94832031 39.14773437 71.68179688 38.1875 72.4375 C37.33542969 73.07558594 36.48335938 73.71367187 35.60546875 74.37109375 C33.73666471 77.43120353 33.88417673 78.00258627 34.54296875 81.39453125 C35.01554875 83.26637625 35.50266726 85.13457895 36 87 C36.51177662 89.29484867 37.01383703 91.59187883 37.5078125 93.890625 C38.32144286 97.59760431 39.13706071 101.30396466 39.96484375 105.0078125 C40.22652344 106.20664063 40.48820312 107.40546875 40.7578125 108.640625 C40.9964502 109.71860352 41.23508789 110.79658203 41.48095703 111.90722656 C42.0000314 115.00018712 42.09336216 117.87031248 42 121 C38.58847004 122.1705296 37.27736611 122.12690474 33.94140625 120.60058594 C32.82636719 119.90223633 31.71132812 119.20388672 30.5625 118.484375 C29.95994385 118.11274231 29.3573877 117.74110962 28.73657227 117.35821533 C26.81550892 116.16908931 24.90788822 114.96012698 23 113.75 C21.71699008 112.95046656 20.43314332 112.15227432 19.1484375 111.35546875 C16.77971745 109.88418405 14.41758765 108.40397649 12.05859375 106.91699219 C11.04925781 106.28438477 10.03992188 105.65177734 9 105 C8.16597656 104.4009082 7.33195312 103.80181641 6.47265625 103.18457031 C3.12781779 101.58216547 1.53493216 101.95379311 -2 103 C-4.36852748 104.1803159 -6.57173352 105.37927249 -8.82421875 106.74609375 C-9.45229935 107.11726822 -10.08037994 107.48844269 -10.72749329 107.87086487 C-12.71950832 109.05100894 -14.70342493 110.24406595 -16.6875 111.4375 C-18.03139964 112.23587066 -19.37579633 113.03340526 -20.72070312 113.83007812 C-27.43197879 117.80001153 -27.43197879 117.80001153 -34 122 C-37.51724138 121.48275862 -37.51724138 121.48275862 -39 120 C-38.48225145 114.33813111 -37.41260333 108.88086583 -36.15234375 103.34375 C-35.97619034 102.55601196 -35.80003693 101.76827393 -35.61854553 100.95666504 C-35.06170924 98.47030613 -34.49969798 95.98515142 -33.9375 93.5 C-33.55629618 91.80216063 -33.17543357 90.10424462 -32.79492188 88.40625 C-31.86722091 84.26993735 -30.93488083 80.13469552 -30 76 C-30.61029053 75.71261963 -31.22058105 75.42523926 -31.84936523 75.12915039 C-34.69706413 73.63401957 -36.7216406 71.64045899 -39.0625 69.4375 C-42.88420796 65.89679998 -46.75079923 62.51822644 -50.8125 59.25 C-58.98360184 52.60292002 -58.98360184 52.60292002 -62 49 C-61.5075594 45.5075594 -61.5075594 45.5075594 -60 44 C-56.90372247 43.62498798 -53.82013941 43.30721284 -50.71484375 43.02734375 C-49.78402481 42.93997452 -48.85320587 42.85260529 -47.8941803 42.7625885 C-44.90899345 42.48336618 -41.92327344 42.21037138 -38.9375 41.9375 C-36.91858175 41.74975758 -34.89970096 41.56161189 -32.88085938 41.37304688 C-27.92099613 40.91067683 -22.96064593 40.45389264 -18 40 C-17.52578613 38.89487061 -17.05157227 37.78974121 -16.56298828 36.65112305 C-14.80297484 32.55168145 -13.0390448 28.45393499 -11.27392578 24.35668945 C-10.51048539 22.58306136 -9.74810825 20.8089752 -8.98681641 19.03442383 C-7.89244252 16.48397622 -6.79425688 13.93519975 -5.6953125 11.38671875 C-5.3556546 10.59287277 -5.0159967 9.79902679 -4.66604614 8.98112488 C-4.34586517 8.24058365 -4.0256842 7.50004242 -3.69580078 6.73706055 C-3.41600372 6.08642136 -3.13620667 5.43578217 -2.84793091 4.76542664 C-2 3 -2 3 0 0 Z " fill="#E37E00" transform="translate(181,114)"/>
</svg>
