<?xml version="1.0" encoding="UTF-8"?>
<svg xmlns="http://www.w3.org/2000/svg" xmlns:xlink="http://www.w3.org/1999/xlink" width="50px" height="px" viewBox="0 0 50 50" version="1.1">
<g id="surface1">
<path style=" stroke:none;fill-rule:nonzero;fill:rgb(75.294119%,58.431375%,14.509805%);fill-opacity:1;" d="M 24.070312 -0.015625 C 24.132812 -0.015625 24.191406 -0.015625 24.253906 -0.015625 C 25.222656 -0.015625 26.167969 0.0195312 27.125 0.1875 C 27.175781 0.195312 27.226562 0.203125 27.277344 0.214844 C 27.605469 0.273438 27.925781 0.351562 28.25 0.4375 C 28.304688 0.453125 28.359375 0.464844 28.417969 0.480469 C 29.773438 0.839844 31.078125 1.335938 32.3125 2 C 32.351562 2.019531 32.390625 2.039062 32.429688 2.0625 C 33.636719 2.695312 34.726562 3.515625 35.730469 4.429688 C 35.855469 4.542969 35.980469 4.652344 36.109375 4.757812 C 36.800781 5.363281 37.390625 6.078125 37.9375 6.8125 C 37.964844 6.847656 37.992188 6.886719 38.019531 6.921875 C 38.394531 7.429688 38.742188 7.953125 39.0625 8.5 C 39.085938 8.539062 39.105469 8.574219 39.128906 8.613281 C 40.527344 10.96875 41.375 13.757812 41.4375 16.5 C 41.4375 16.554688 41.441406 16.609375 41.441406 16.667969 C 41.53125 21.195312 40.03125 25.644531 36.902344 28.964844 C 36.800781 29.078125 36.703125 29.191406 36.605469 29.304688 C 36.371094 29.574219 36.117188 29.820312 35.855469 30.0625 C 35.8125 30.105469 35.765625 30.148438 35.71875 30.191406 C 35.675781 30.230469 35.632812 30.269531 35.589844 30.3125 C 35.53125 30.367188 35.53125 30.367188 35.472656 30.421875 C 35.375 30.5 35.375 30.5 35.25 30.5 C 35.644531 31.226562 36.046875 31.945312 36.464844 32.65625 C 36.75 33.144531 37.03125 33.632812 37.3125 34.125 C 37.660156 34.734375 38.007812 35.339844 38.363281 35.941406 C 38.746094 36.597656 39.125 37.257812 39.507812 37.917969 C 39.703125 38.257812 39.898438 38.597656 40.09375 38.9375 C 40.171875 39.074219 40.25 39.207031 40.328125 39.34375 C 40.386719 39.445312 40.386719 39.445312 40.445312 39.546875 C 40.796875 40.15625 40.796875 40.15625 40.914062 40.359375 C 40.992188 40.496094 41.070312 40.628906 41.148438 40.765625 C 41.347656 41.109375 41.546875 41.457031 41.746094 41.800781 C 41.785156 41.871094 41.824219 41.941406 41.867188 42.011719 C 41.945312 42.152344 42.027344 42.289062 42.105469 42.425781 C 42.28125 42.730469 42.457031 43.03125 42.636719 43.332031 C 42.664062 43.382812 42.695312 43.429688 42.726562 43.480469 C 42.777344 43.570312 42.832031 43.660156 42.886719 43.75 C 43.0625 44.042969 43.0625 44.042969 43.0625 44.25 C 42.261719 44.171875 41.464844 44.089844 40.664062 44.011719 C 40.292969 43.976562 39.921875 43.9375 39.546875 43.902344 C 39.191406 43.867188 38.832031 43.832031 38.472656 43.792969 C 38.335938 43.78125 38.199219 43.765625 38.0625 43.753906 C 37.351562 43.683594 36.644531 43.609375 35.9375 43.5 C 35.925781 43.535156 35.914062 43.570312 35.90625 43.605469 C 35.792969 43.945312 35.664062 44.273438 35.515625 44.601562 C 35.492188 44.648438 35.46875 44.699219 35.445312 44.75 C 35.375 44.914062 35.300781 45.074219 35.226562 45.234375 C 35.175781 45.347656 35.125 45.460938 35.074219 45.570312 C 34.972656 45.796875 34.871094 46.023438 34.769531 46.246094 C 34.574219 46.671875 34.382812 47.101562 34.191406 47.527344 C 34.160156 47.597656 34.128906 47.671875 34.09375 47.742188 C 33.933594 48.105469 33.773438 48.46875 33.617188 48.832031 C 33.585938 48.90625 33.554688 48.976562 33.519531 49.054688 C 33.460938 49.191406 33.402344 49.328125 33.34375 49.46875 C 33.316406 49.53125 33.292969 49.589844 33.265625 49.652344 C 33.242188 49.707031 33.21875 49.761719 33.195312 49.816406 C 33.125 49.9375 33.125 49.9375 32.9375 50 C 32.90625 49.945312 32.90625 49.945312 32.875 49.890625 C 32.453125 49.140625 32.027344 48.390625 31.589844 47.644531 C 31.308594 47.160156 31.027344 46.675781 30.75 46.1875 C 30.402344 45.578125 30.054688 44.972656 29.699219 44.371094 C 29.316406 43.714844 28.9375 43.054688 28.554688 42.394531 C 28.359375 42.054688 28.164062 41.714844 27.96875 41.375 C 27.890625 41.238281 27.8125 41.105469 27.734375 40.96875 C 27.695312 40.902344 27.65625 40.835938 27.617188 40.765625 C 26.328125 38.53125 26.328125 38.53125 26.210938 38.328125 C 26.132812 38.191406 26.054688 38.058594 25.976562 37.925781 C 25.796875 37.609375 25.617188 37.296875 25.433594 36.980469 C 25.371094 36.871094 25.308594 36.761719 25.242188 36.652344 C 25.164062 36.511719 25.085938 36.375 25.007812 36.238281 C 24.675781 35.582031 24.675781 35.582031 24.25 35 C 24.214844 35.0625 24.214844 35.0625 24.179688 35.125 C 22.875 37.382812 21.570312 39.644531 20.265625 41.90625 C 20.226562 41.972656 20.1875 42.039062 20.148438 42.109375 C 20.070312 42.246094 19.992188 42.378906 19.914062 42.515625 C 19.71875 42.855469 19.523438 43.195312 19.324219 43.535156 C 18.949219 44.1875 18.570312 44.839844 18.191406 45.492188 C 17.875 46.035156 17.5625 46.578125 17.25 47.125 C 16.925781 47.695312 16.597656 48.261719 16.269531 48.828125 C 16.234375 48.890625 16.199219 48.949219 16.164062 49.011719 C 16.066406 49.175781 15.972656 49.335938 15.875 49.5 C 15.84375 49.550781 15.816406 49.601562 15.785156 49.652344 C 15.757812 49.699219 15.730469 49.746094 15.703125 49.792969 C 15.679688 49.832031 15.652344 49.871094 15.628906 49.914062 C 15.597656 49.957031 15.597656 49.957031 15.5625 50 C 15.519531 50 15.480469 50 15.4375 50 C 14.855469 48.707031 14.273438 47.414062 13.695312 46.121094 C 13.574219 45.851562 13.453125 45.582031 13.332031 45.3125 C 13.257812 45.144531 13.179688 44.976562 13.105469 44.808594 C 13.070312 44.730469 13.035156 44.648438 12.996094 44.570312 C 12.949219 44.457031 12.898438 44.347656 12.847656 44.238281 C 12.804688 44.144531 12.804688 44.144531 12.761719 44.046875 C 12.691406 43.886719 12.625 43.726562 12.5625 43.5625 C 11.1875 43.664062 9.820312 43.8125 8.449219 43.957031 C 7.953125 44.007812 7.453125 44.0625 6.957031 44.113281 C 6.78125 44.132812 6.609375 44.148438 6.4375 44.167969 C 6.332031 44.179688 6.226562 44.1875 6.121094 44.199219 C 6.074219 44.207031 6.027344 44.210938 5.976562 44.214844 C 5.796875 44.234375 5.621094 44.25 5.4375 44.25 C 5.539062 43.964844 5.679688 43.710938 5.828125 43.449219 C 5.855469 43.398438 5.882812 43.351562 5.910156 43.300781 C 6.171875 42.835938 6.441406 42.375 6.710938 41.910156 C 7 41.421875 7.28125 40.929688 7.5625 40.4375 C 7.910156 39.828125 8.257812 39.222656 8.613281 38.621094 C 8.996094 37.964844 9.375 37.304688 9.757812 36.644531 C 9.953125 36.304688 10.148438 35.964844 10.34375 35.625 C 10.421875 35.488281 10.5 35.355469 10.578125 35.21875 C 11.046875 34.40625 11.046875 34.40625 11.164062 34.203125 C 11.242188 34.066406 11.320312 33.933594 11.398438 33.796875 C 11.578125 33.488281 11.757812 33.175781 11.9375 32.863281 C 12.566406 31.777344 12.566406 31.777344 13.1875 30.6875 C 13.132812 30.660156 13.132812 30.660156 13.074219 30.636719 C 12.941406 30.566406 12.847656 30.492188 12.738281 30.390625 C 12.703125 30.355469 12.664062 30.320312 12.625 30.285156 C 12.585938 30.246094 12.546875 30.210938 12.507812 30.171875 C 12.464844 30.132812 12.425781 30.09375 12.382812 30.054688 C 12.253906 29.933594 12.128906 29.808594 12 29.6875 C 11.941406 29.628906 11.941406 29.628906 11.878906 29.570312 C 11.40625 29.113281 10.960938 28.648438 10.5625 28.125 C 10.53125 28.082031 10.5 28.042969 10.464844 28 C 9.898438 27.261719 9.398438 26.496094 8.9375 25.6875 C 8.914062 25.644531 8.886719 25.601562 8.859375 25.554688 C 6.976562 22.269531 6.375 18.15625 7 14.4375 C 7.011719 14.375 7.019531 14.3125 7.03125 14.25 C 7.632812 10.8125 9.292969 7.707031 11.6875 5.1875 C 11.722656 5.152344 11.753906 5.117188 11.789062 5.082031 C 12.273438 4.574219 12.773438 4.125 13.332031 3.707031 C 13.433594 3.625 13.535156 3.546875 13.636719 3.464844 C 14.148438 3.058594 14.6875 2.707031 15.25 2.375 C 15.292969 2.347656 15.339844 2.324219 15.382812 2.296875 C 18.050781 0.738281 20.988281 -0.0117188 24.070312 -0.015625 Z M 24.070312 -0.015625 "/>
<path style=" stroke:none;fill-rule:nonzero;fill:rgb(70.19608%,23.529412%,23.529412%);fill-opacity:1;" d="M 35.125 30.5625 C 35.394531 30.652344 35.457031 30.855469 35.582031 31.097656 C 35.636719 31.203125 35.695312 31.304688 35.75 31.410156 C 35.796875 31.492188 35.796875 31.492188 35.84375 31.578125 C 36.007812 31.875 36.179688 32.167969 36.351562 32.460938 C 36.675781 33.011719 36.996094 33.570312 37.3125 34.125 C 37.660156 34.734375 38.007812 35.339844 38.363281 35.941406 C 38.746094 36.597656 39.125 37.257812 39.507812 37.917969 C 39.703125 38.257812 39.898438 38.597656 40.09375 38.9375 C 40.171875 39.074219 40.25 39.207031 40.328125 39.34375 C 40.386719 39.445312 40.386719 39.445312 40.445312 39.546875 C 40.796875 40.15625 40.796875 40.15625 40.914062 40.359375 C 40.992188 40.496094 41.070312 40.628906 41.148438 40.765625 C 41.347656 41.109375 41.546875 41.457031 41.746094 41.800781 C 41.785156 41.871094 41.824219 41.941406 41.867188 42.011719 C 41.945312 42.152344 42.027344 42.289062 42.105469 42.425781 C 42.28125 42.730469 42.457031 43.03125 42.636719 43.332031 C 42.664062 43.382812 42.695312 43.429688 42.726562 43.480469 C 42.777344 43.570312 42.832031 43.660156 42.886719 43.75 C 43.0625 44.042969 43.0625 44.042969 43.0625 44.25 C 42.261719 44.171875 41.464844 44.089844 40.664062 44.011719 C 40.292969 43.976562 39.921875 43.9375 39.546875 43.902344 C 39.191406 43.867188 38.832031 43.832031 38.472656 43.792969 C 38.335938 43.78125 38.199219 43.765625 38.0625 43.753906 C 37.351562 43.683594 36.644531 43.609375 35.9375 43.5 C 35.925781 43.535156 35.914062 43.570312 35.90625 43.605469 C 35.792969 43.945312 35.664062 44.273438 35.515625 44.601562 C 35.492188 44.648438 35.46875 44.699219 35.445312 44.75 C 35.375 44.914062 35.300781 45.074219 35.226562 45.234375 C 35.175781 45.347656 35.125 45.460938 35.074219 45.570312 C 34.972656 45.796875 34.871094 46.023438 34.769531 46.246094 C 34.574219 46.671875 34.382812 47.101562 34.191406 47.527344 C 34.160156 47.597656 34.128906 47.671875 34.09375 47.742188 C 33.933594 48.105469 33.773438 48.46875 33.617188 48.832031 C 33.585938 48.90625 33.554688 48.976562 33.519531 49.054688 C 33.460938 49.191406 33.402344 49.328125 33.34375 49.46875 C 33.316406 49.53125 33.292969 49.589844 33.265625 49.652344 C 33.242188 49.707031 33.21875 49.761719 33.195312 49.816406 C 33.125 49.9375 33.125 49.9375 32.9375 50 C 32.90625 49.945312 32.90625 49.945312 32.875 49.890625 C 32.453125 49.140625 32.027344 48.390625 31.589844 47.644531 C 31.308594 47.160156 31.027344 46.675781 30.75 46.1875 C 30.402344 45.578125 30.054688 44.972656 29.699219 44.371094 C 29.316406 43.714844 28.9375 43.054688 28.554688 42.394531 C 28.359375 42.054688 28.164062 41.714844 27.96875 41.375 C 27.890625 41.238281 27.8125 41.105469 27.734375 40.96875 C 27.695312 40.902344 27.65625 40.835938 27.617188 40.765625 C 26.328125 38.53125 26.328125 38.53125 26.210938 38.328125 C 26.132812 38.191406 26.054688 38.058594 25.976562 37.925781 C 25.796875 37.609375 25.617188 37.296875 25.433594 36.980469 C 25.371094 36.871094 25.308594 36.761719 25.242188 36.652344 C 25.164062 36.511719 25.085938 36.375 25.007812 36.238281 C 24.675781 35.582031 24.675781 35.582031 24.25 35 C 24.226562 35.039062 24.203125 35.082031 24.179688 35.125 C 22.875 37.382812 21.570312 39.644531 20.265625 41.90625 C 20.226562 41.972656 20.1875 42.039062 20.148438 42.109375 C 20.070312 42.246094 19.992188 42.378906 19.914062 42.515625 C 19.71875 42.855469 19.523438 43.195312 19.324219 43.535156 C 18.949219 44.1875 18.570312 44.839844 18.191406 45.492188 C 17.875 46.035156 17.5625 46.578125 17.25 47.125 C 16.925781 47.695312 16.597656 48.261719 16.269531 48.828125 C 16.234375 48.890625 16.199219 48.949219 16.164062 49.011719 C 16.066406 49.175781 15.972656 49.335938 15.875 49.5 C 15.84375 49.550781 15.816406 49.601562 15.785156 49.652344 C 15.757812 49.699219 15.730469 49.746094 15.703125 49.792969 C 15.679688 49.832031 15.652344 49.871094 15.628906 49.914062 C 15.605469 49.941406 15.585938 49.972656 15.5625 50 C 15.519531 50 15.480469 50 15.4375 50 C 14.855469 48.707031 14.273438 47.414062 13.695312 46.121094 C 13.574219 45.851562 13.453125 45.582031 13.332031 45.3125 C 13.257812 45.144531 13.179688 44.976562 13.105469 44.808594 C 13.070312 44.730469 13.035156 44.648438 12.996094 44.570312 C 12.949219 44.457031 12.898438 44.347656 12.847656 44.238281 C 12.804688 44.144531 12.804688 44.144531 12.761719 44.046875 C 12.691406 43.886719 12.625 43.726562 12.5625 43.5625 C 11.1875 43.664062 9.820312 43.8125 8.449219 43.957031 C 7.953125 44.007812 7.453125 44.0625 6.957031 44.113281 C 6.78125 44.132812 6.609375 44.148438 6.4375 44.167969 C 6.332031 44.179688 6.226562 44.1875 6.121094 44.199219 C 6.074219 44.207031 6.027344 44.210938 5.976562 44.214844 C 5.796875 44.234375 5.621094 44.25 5.4375 44.25 C 5.539062 43.964844 5.679688 43.710938 5.828125 43.449219 C 5.855469 43.398438 5.882812 43.351562 5.910156 43.300781 C 6.171875 42.835938 6.441406 42.375 6.710938 41.910156 C 7 41.421875 7.28125 40.929688 7.5625 40.4375 C 7.910156 39.828125 8.257812 39.222656 8.613281 38.621094 C 8.996094 37.964844 9.375 37.304688 9.757812 36.644531 C 9.953125 36.304688 10.148438 35.964844 10.34375 35.625 C 10.421875 35.488281 10.5 35.355469 10.578125 35.21875 C 10.8125 34.8125 10.8125 34.8125 11.046875 34.40625 C 11.085938 34.339844 11.125 34.273438 11.164062 34.203125 C 11.242188 34.066406 11.320312 33.933594 11.398438 33.796875 C 11.578125 33.488281 11.757812 33.175781 11.9375 32.863281 C 12.785156 31.386719 12.785156 31.386719 13.1875 30.75 C 13.449219 30.839844 13.628906 30.96875 13.84375 31.144531 C 14.402344 31.585938 15.011719 31.953125 15.625 32.3125 C 15.691406 32.351562 15.691406 32.351562 15.761719 32.390625 C 16.929688 33.070312 18.214844 33.558594 19.523438 33.894531 C 19.644531 33.925781 19.761719 33.960938 19.882812 33.996094 C 20.460938 34.171875 21.03125 34.28125 21.628906 34.359375 C 21.679688 34.367188 21.726562 34.371094 21.777344 34.378906 C 24.414062 34.726562 27.113281 34.496094 29.621094 33.605469 C 29.707031 33.578125 29.792969 33.546875 29.878906 33.519531 C 31.664062 32.953125 33.785156 31.902344 35.125 30.5625 Z M 35.125 30.5625 "/>
<path style=" stroke:none;fill-rule:nonzero;fill:rgb(99.607843%,79.607844%,9.803922%);fill-opacity:1;" d="M 24.070312 -0.015625 C 24.132812 -0.015625 24.191406 -0.015625 24.253906 -0.015625 C 25.222656 -0.015625 26.167969 0.0195312 27.125 0.1875 C 27.175781 0.195312 27.226562 0.203125 27.277344 0.214844 C 27.605469 0.273438 27.925781 0.351562 28.25 0.4375 C 28.304688 0.453125 28.359375 0.464844 28.417969 0.480469 C 29.773438 0.839844 31.078125 1.335938 32.3125 2 C 32.351562 2.019531 32.390625 2.039062 32.429688 2.0625 C 33.636719 2.695312 34.726562 3.515625 35.730469 4.429688 C 35.855469 4.542969 35.980469 4.652344 36.109375 4.757812 C 36.800781 5.363281 37.390625 6.078125 37.9375 6.8125 C 37.964844 6.847656 37.992188 6.886719 38.019531 6.921875 C 38.394531 7.429688 38.742188 7.953125 39.0625 8.5 C 39.085938 8.539062 39.105469 8.574219 39.128906 8.613281 C 40.527344 10.96875 41.375 13.757812 41.4375 16.5 C 41.4375 16.554688 41.441406 16.609375 41.441406 16.667969 C 41.53125 21.195312 40.03125 25.644531 36.902344 28.964844 C 36.800781 29.078125 36.703125 29.191406 36.605469 29.304688 C 36.378906 29.566406 36.132812 29.804688 35.882812 30.039062 C 35.84375 30.078125 35.800781 30.117188 35.757812 30.15625 C 35.503906 30.394531 35.246094 30.59375 34.953125 30.78125 C 34.8125 30.875 34.679688 30.972656 34.546875 31.074219 C 33.085938 32.1875 31.46875 33.074219 29.714844 33.636719 C 29.597656 33.675781 29.480469 33.714844 29.367188 33.757812 C 26.898438 34.621094 24.207031 34.769531 21.628906 34.421875 C 21.582031 34.414062 21.535156 34.410156 21.484375 34.402344 C 20.867188 34.316406 20.285156 34.183594 19.6875 34 C 19.578125 33.96875 19.472656 33.941406 19.363281 33.914062 C 18.546875 33.695312 17.773438 33.402344 17 33.0625 C 16.949219 33.042969 16.898438 33.019531 16.847656 32.996094 C 15.605469 32.460938 14.472656 31.71875 13.410156 30.886719 C 13.320312 30.816406 13.222656 30.753906 13.125 30.691406 C 12.898438 30.535156 12.699219 30.355469 12.5 30.164062 C 12.460938 30.125 12.417969 30.085938 12.378906 30.046875 C 11.734375 29.4375 11.101562 28.832031 10.5625 28.125 C 10.515625 28.0625 10.515625 28.0625 10.464844 28 C 9.898438 27.261719 9.398438 26.496094 8.9375 25.6875 C 8.914062 25.644531 8.886719 25.601562 8.859375 25.554688 C 6.976562 22.269531 6.375 18.15625 7 14.4375 C 7.011719 14.375 7.019531 14.3125 7.03125 14.25 C 7.632812 10.8125 9.292969 7.707031 11.6875 5.1875 C 11.722656 5.152344 11.753906 5.117188 11.789062 5.082031 C 12.273438 4.574219 12.773438 4.125 13.332031 3.707031 C 13.433594 3.625 13.535156 3.546875 13.636719 3.464844 C 14.148438 3.058594 14.6875 2.707031 15.25 2.375 C 15.292969 2.347656 15.339844 2.324219 15.382812 2.296875 C 18.050781 0.738281 20.988281 -0.0117188 24.070312 -0.015625 Z M 19.777344 4.445312 C 19.726562 4.464844 19.671875 4.484375 19.617188 4.5 C 17.683594 5.203125 16.054688 6.28125 14.5625 7.6875 C 14.511719 7.734375 14.464844 7.777344 14.414062 7.824219 C 14 8.222656 13.65625 8.667969 13.3125 9.125 C 13.273438 9.175781 13.273438 9.175781 13.234375 9.230469 C 11.878906 11.003906 10.980469 13.160156 10.6875 15.375 C 10.679688 15.4375 10.679688 15.4375 10.671875 15.5 C 10.339844 18.230469 10.824219 20.902344 12 23.375 C 12.023438 23.421875 12.042969 23.464844 12.066406 23.511719 C 12.183594 23.757812 12.304688 24 12.433594 24.242188 C 12.507812 24.390625 12.582031 24.539062 12.65625 24.6875 C 13.207031 25.78125 13.867188 26.777344 14.6875 27.6875 C 14.71875 27.722656 14.746094 27.753906 14.777344 27.789062 C 15.757812 28.890625 16.867188 29.746094 18.125 30.5 C 18.164062 30.523438 18.203125 30.546875 18.246094 30.570312 C 19.324219 31.210938 20.527344 31.644531 21.75 31.910156 C 21.867188 31.9375 21.984375 31.96875 22.097656 32.003906 C 23.238281 32.316406 24.515625 32.269531 25.6875 32.25 C 25.761719 32.25 25.839844 32.246094 25.917969 32.246094 C 27.238281 32.1875 28.605469 31.84375 29.8125 31.3125 C 29.890625 31.28125 29.96875 31.246094 30.042969 31.214844 C 31.601562 30.558594 32.964844 29.671875 34.1875 28.5 C 34.242188 28.449219 34.242188 28.449219 34.296875 28.394531 C 35.203125 27.535156 35.9375 26.578125 36.5625 25.5 C 36.585938 25.460938 36.609375 25.417969 36.632812 25.375 C 38.363281 22.371094 38.851562 18.679688 37.96875 15.328125 C 37.683594 14.304688 37.300781 13.34375 36.824219 12.398438 C 36.753906 12.261719 36.6875 12.125 36.621094 11.984375 C 35.957031 10.625 35.191406 9.386719 34.1875 8.25 C 34.140625 8.199219 34.097656 8.144531 34.050781 8.089844 C 33.824219 7.824219 33.585938 7.585938 33.320312 7.363281 C 33.230469 7.285156 33.140625 7.207031 33.054688 7.125 C 32.242188 6.359375 31.304688 5.761719 30.3125 5.25 C 30.269531 5.226562 30.230469 5.207031 30.1875 5.183594 C 29.046875 4.585938 27.765625 4.167969 26.5 3.9375 C 26.429688 3.921875 26.429688 3.921875 26.355469 3.910156 C 24.199219 3.507812 21.84375 3.707031 19.777344 4.445312 Z M 19.777344 4.445312 "/>
<path style=" stroke:none;fill-rule:nonzero;fill:rgb(99.607843%,94.117647%,70.588237%);fill-opacity:1;" d="M 24.125 7.9375 C 24.167969 7.9375 24.207031 7.9375 24.25 7.9375 C 24.277344 8.007812 24.304688 8.078125 24.332031 8.152344 C 25.417969 11.515625 25.417969 11.515625 27.640625 14.003906 C 28.621094 14.398438 29.738281 14.304688 30.769531 14.210938 C 31.503906 14.15625 32.21875 14.292969 32.9375 14.4375 C 32.878906 14.507812 32.820312 14.578125 32.757812 14.644531 C 32.726562 14.683594 32.691406 14.722656 32.660156 14.761719 C 32.535156 14.90625 32.410156 15.042969 32.285156 15.183594 C 32.117188 15.371094 31.945312 15.558594 31.78125 15.75 C 31.476562 16.097656 31.164062 16.441406 30.855469 16.785156 C 30.605469 17.0625 30.359375 17.339844 30.113281 17.621094 C 29.941406 17.816406 29.765625 18.011719 29.585938 18.207031 C 29.539062 18.261719 29.488281 18.316406 29.4375 18.375 C 29.382812 18.425781 29.382812 18.425781 29.324219 18.480469 C 29.085938 18.710938 29.085938 18.710938 28.976562 19.019531 C 28.992188 19.179688 29.015625 19.332031 29.050781 19.492188 C 29.0625 19.550781 29.070312 19.609375 29.082031 19.671875 C 29.105469 19.800781 29.128906 19.925781 29.152344 20.054688 C 29.199219 20.316406 29.238281 20.582031 29.28125 20.847656 C 29.320312 21.121094 29.363281 21.390625 29.410156 21.660156 C 29.441406 21.871094 29.476562 22.078125 29.507812 22.289062 C 29.53125 22.421875 29.550781 22.554688 29.574219 22.691406 C 29.582031 22.753906 29.59375 22.8125 29.601562 22.878906 C 29.65625 23.214844 29.726562 23.542969 29.8125 23.875 C 29.832031 23.976562 29.851562 24.074219 29.867188 24.175781 C 29.875 24.226562 29.882812 24.277344 29.890625 24.328125 C 29.898438 24.378906 29.90625 24.429688 29.914062 24.484375 C 29.921875 24.535156 29.929688 24.589844 29.9375 24.644531 C 29.976562 24.871094 30 25.078125 30 25.3125 C 29.6875 25.273438 29.441406 25.136719 29.164062 24.996094 C 29.113281 24.96875 29.0625 24.941406 29.007812 24.914062 C 28.894531 24.859375 28.78125 24.800781 28.671875 24.742188 C 28.492188 24.652344 28.316406 24.5625 28.136719 24.472656 C 27.628906 24.21875 27.125 23.960938 26.621094 23.703125 C 26.3125 23.542969 26 23.386719 25.691406 23.230469 C 25.574219 23.171875 25.457031 23.113281 25.339844 23.050781 C 25.171875 22.96875 25.007812 22.882812 24.84375 22.800781 C 24.796875 22.777344 24.746094 22.75 24.695312 22.722656 C 24.417969 22.585938 24.246094 22.527344 23.9375 22.625 C 23.777344 22.6875 23.777344 22.6875 23.621094 22.769531 C 23.558594 22.800781 23.5 22.832031 23.4375 22.863281 C 23.371094 22.894531 23.308594 22.929688 23.242188 22.960938 C 23.136719 23.015625 23.136719 23.015625 23.035156 23.066406 C 22.816406 23.175781 22.597656 23.289062 22.378906 23.398438 C 22.09375 23.542969 21.808594 23.6875 21.527344 23.828125 C 21.457031 23.863281 21.386719 23.898438 21.3125 23.9375 C 20.730469 24.230469 20.140625 24.515625 19.550781 24.792969 C 19.238281 24.941406 18.929688 25.097656 18.625 25.253906 C 18.5 25.3125 18.5 25.3125 18.375 25.3125 C 18.613281 23.617188 18.613281 23.617188 18.726562 22.898438 C 18.734375 22.855469 18.742188 22.808594 18.746094 22.761719 C 18.78125 22.542969 18.824219 22.320312 18.867188 22.101562 C 18.960938 21.652344 19.03125 21.199219 19.105469 20.746094 C 19.128906 20.589844 19.15625 20.433594 19.179688 20.277344 C 19.195312 20.179688 19.210938 20.078125 19.230469 19.976562 C 19.234375 19.929688 19.242188 19.886719 19.25 19.835938 C 19.273438 19.703125 19.292969 19.570312 19.3125 19.4375 C 19.320312 19.386719 19.328125 19.339844 19.335938 19.289062 C 19.382812 19.003906 19.382812 19.003906 19.308594 18.734375 C 19.273438 18.699219 19.242188 18.667969 19.203125 18.632812 C 19.167969 18.59375 19.128906 18.558594 19.089844 18.519531 C 19.050781 18.480469 19.011719 18.441406 18.96875 18.402344 C 18.886719 18.320312 18.804688 18.238281 18.722656 18.15625 C 18.683594 18.117188 18.644531 18.082031 18.605469 18.042969 C 18.484375 17.921875 18.371094 17.796875 18.261719 17.667969 C 18.011719 17.378906 17.757812 17.097656 17.5 16.8125 C 17.203125 16.484375 16.90625 16.152344 16.613281 15.816406 C 16.484375 15.667969 16.351562 15.523438 16.222656 15.378906 C 16.152344 15.300781 16.152344 15.300781 16.082031 15.222656 C 15.984375 15.113281 15.886719 15.007812 15.789062 14.898438 C 15.746094 14.847656 15.699219 14.796875 15.652344 14.746094 C 15.589844 14.675781 15.589844 14.675781 15.527344 14.605469 C 15.4375 14.5 15.4375 14.5 15.4375 14.4375 C 16.679688 14.234375 17.929688 14.089844 19.183594 13.945312 C 19.28125 13.933594 19.28125 13.933594 19.386719 13.921875 C 19.511719 13.90625 19.636719 13.890625 19.761719 13.878906 C 19.882812 13.863281 20 13.847656 20.121094 13.832031 C 20.3125 13.8125 20.3125 13.8125 20.542969 13.824219 C 20.800781 13.824219 21.023438 13.816406 21.25 13.6875 C 21.585938 13.335938 21.769531 12.851562 21.96875 12.417969 C 22.035156 12.289062 22.097656 12.160156 22.160156 12.03125 C 22.324219 11.695312 22.488281 11.355469 22.648438 11.011719 C 22.8125 10.667969 22.980469 10.320312 23.148438 9.976562 C 23.476562 9.296875 23.804688 8.617188 24.125 7.9375 Z M 24.125 7.9375 "/>
<path style=" stroke:none;fill-rule:nonzero;fill:rgb(80.784315%,26.666668%,26.274511%);fill-opacity:1;" d="M 35.125 30.5625 C 35.394531 30.652344 35.457031 30.855469 35.582031 31.097656 C 35.636719 31.203125 35.695312 31.304688 35.75 31.410156 C 35.78125 31.464844 35.8125 31.519531 35.84375 31.578125 C 36.007812 31.875 36.179688 32.167969 36.351562 32.460938 C 36.675781 33.011719 36.996094 33.570312 37.3125 34.125 C 37.660156 34.734375 38.007812 35.339844 38.363281 35.941406 C 38.746094 36.597656 39.125 37.257812 39.507812 37.917969 C 39.703125 38.257812 39.898438 38.597656 40.09375 38.9375 C 40.171875 39.074219 40.25 39.207031 40.328125 39.34375 C 40.367188 39.410156 40.40625 39.476562 40.445312 39.546875 C 40.796875 40.15625 40.796875 40.15625 40.914062 40.359375 C 40.992188 40.496094 41.070312 40.628906 41.148438 40.765625 C 41.347656 41.109375 41.546875 41.457031 41.746094 41.800781 C 41.785156 41.871094 41.824219 41.941406 41.867188 42.011719 C 41.945312 42.152344 42.027344 42.289062 42.105469 42.425781 C 42.28125 42.730469 42.457031 43.03125 42.636719 43.332031 C 42.664062 43.382812 42.695312 43.429688 42.726562 43.480469 C 42.777344 43.570312 42.832031 43.660156 42.886719 43.75 C 43.0625 44.042969 43.0625 44.042969 43.0625 44.25 C 42.261719 44.171875 41.464844 44.089844 40.664062 44.011719 C 40.292969 43.976562 39.921875 43.9375 39.546875 43.902344 C 39.191406 43.867188 38.832031 43.832031 38.472656 43.792969 C 38.335938 43.78125 38.199219 43.765625 38.0625 43.753906 C 37.699219 43.71875 37.332031 43.679688 36.96875 43.640625 C 36.867188 43.632812 36.769531 43.621094 36.667969 43.609375 C 36.546875 43.597656 36.421875 43.585938 36.300781 43.570312 C 36.234375 43.5625 36.167969 43.554688 36.101562 43.550781 C 35.832031 43.46875 35.730469 43.285156 35.601562 43.042969 C 35.570312 42.980469 35.539062 42.917969 35.507812 42.851562 C 35.433594 42.714844 35.363281 42.578125 35.289062 42.441406 C 35.253906 42.367188 35.214844 42.296875 35.179688 42.222656 C 35.003906 41.886719 34.816406 41.5625 34.625 41.234375 C 34.539062 41.085938 34.457031 40.9375 34.371094 40.789062 C 34.125 40.359375 33.875 39.929688 33.625 39.5 C 33.308594 38.960938 32.996094 38.417969 32.6875 37.875 C 32.339844 37.269531 31.992188 36.664062 31.640625 36.0625 C 31.359375 35.582031 31.082031 35.101562 30.804688 34.621094 C 30.765625 34.554688 30.726562 34.484375 30.6875 34.414062 C 30.5 34.089844 30.3125 33.765625 30.125 33.4375 C 30.164062 33.421875 30.203125 33.40625 30.242188 33.390625 C 31.921875 32.714844 33.824219 31.863281 35.125 30.5625 Z M 35.125 30.5625 "/>
<path style=" stroke:none;fill-rule:nonzero;fill:rgb(59.607846%,20.392157%,20.392157%);fill-opacity:1;" d="M 13.1875 30.75 C 13.449219 30.839844 13.628906 30.96875 13.84375 31.144531 C 15.1875 32.210938 16.738281 32.917969 18.3125 33.5625 C 17.78125 34.539062 17.246094 35.507812 16.679688 36.464844 C 16.445312 36.859375 16.21875 37.253906 15.988281 37.652344 C 15.929688 37.757812 15.929688 37.757812 15.867188 37.863281 C 15.785156 38.003906 15.703125 38.144531 15.621094 38.289062 C 15.425781 38.628906 15.226562 38.972656 15.03125 39.3125 C 14.953125 39.449219 14.875 39.582031 14.796875 39.71875 C 14.640625 39.988281 14.484375 40.261719 14.328125 40.53125 C 14.289062 40.597656 14.25 40.664062 14.210938 40.734375 C 14.132812 40.867188 14.054688 41.003906 13.976562 41.136719 C 13.792969 41.457031 13.609375 41.773438 13.429688 42.09375 C 13.339844 42.246094 13.253906 42.394531 13.167969 42.546875 C 13.105469 42.652344 13.046875 42.761719 12.984375 42.867188 C 12.945312 42.933594 12.910156 42.996094 12.871094 43.0625 C 12.839844 43.121094 12.804688 43.179688 12.773438 43.238281 C 12.6875 43.375 12.6875 43.375 12.5625 43.5 C 11.824219 43.664062 11.035156 43.695312 10.28125 43.773438 C 10.148438 43.789062 10.015625 43.800781 9.878906 43.816406 C 9.601562 43.84375 9.320312 43.871094 9.042969 43.902344 C 8.683594 43.9375 8.324219 43.976562 7.964844 44.011719 C 7.691406 44.039062 7.414062 44.070312 7.136719 44.097656 C 7.003906 44.109375 6.875 44.125 6.742188 44.136719 C 6.558594 44.15625 6.371094 44.175781 6.1875 44.195312 C 6.105469 44.203125 6.105469 44.203125 6.023438 44.210938 C 5.828125 44.230469 5.636719 44.25 5.4375 44.25 C 5.539062 43.964844 5.679688 43.710938 5.828125 43.449219 C 5.855469 43.398438 5.882812 43.351562 5.910156 43.300781 C 6.171875 42.835938 6.441406 42.375 6.710938 41.910156 C 7 41.421875 7.28125 40.929688 7.5625 40.4375 C 7.910156 39.828125 8.257812 39.222656 8.613281 38.621094 C 8.996094 37.964844 9.375 37.304688 9.757812 36.644531 C 9.953125 36.304688 10.148438 35.964844 10.34375 35.625 C 10.421875 35.488281 10.5 35.355469 10.578125 35.21875 C 10.734375 34.949219 10.890625 34.675781 11.046875 34.40625 C 11.085938 34.339844 11.125 34.273438 11.164062 34.203125 C 11.242188 34.066406 11.320312 33.933594 11.398438 33.796875 C 11.578125 33.488281 11.757812 33.175781 11.9375 32.863281 C 12.785156 31.386719 12.785156 31.386719 13.1875 30.75 Z M 13.1875 30.75 "/>
<path style=" stroke:none;fill-rule:nonzero;fill:rgb(76.078433%,54.509807%,21.176471%);fill-opacity:1;" d="M 36.6875 12.3125 C 36.84375 12.453125 36.929688 12.589844 37.015625 12.78125 C 37.042969 12.835938 37.066406 12.890625 37.09375 12.949219 C 37.136719 13.039062 37.136719 13.039062 37.175781 13.128906 C 37.21875 13.222656 37.21875 13.222656 37.261719 13.316406 C 38.253906 15.566406 38.652344 18.125 38.25 20.5625 C 38.238281 20.644531 38.226562 20.730469 38.21875 20.8125 C 37.765625 24.160156 35.824219 27.394531 33.144531 29.441406 C 31.957031 30.324219 30.65625 31.042969 29.253906 31.519531 C 29.128906 31.5625 29.007812 31.609375 28.882812 31.65625 C 28.578125 31.773438 28.265625 31.839844 27.949219 31.910156 C 27.890625 31.921875 27.835938 31.9375 27.773438 31.949219 C 26.140625 32.3125 24.53125 32.316406 22.875 32.125 C 22.832031 32.121094 22.789062 32.117188 22.746094 32.109375 C 22.261719 32.058594 21.804688 31.957031 21.339844 31.816406 C 21.207031 31.773438 21.066406 31.734375 20.929688 31.703125 C 17.726562 30.898438 14.90625 28.476562 13.207031 25.699219 C 12.992188 25.332031 12.804688 24.949219 12.625 24.5625 C 12.863281 24.640625 12.882812 24.71875 13.007812 24.929688 C 14.355469 27.117188 16.605469 28.753906 18.9375 29.75 C 18.980469 29.769531 19.023438 29.789062 19.070312 29.804688 C 20.464844 30.394531 21.988281 30.703125 23.5 30.75 C 23.589844 30.753906 23.589844 30.753906 23.683594 30.757812 C 25.546875 30.804688 27.390625 30.511719 29.125 29.8125 C 29.195312 29.785156 29.195312 29.785156 29.269531 29.753906 C 32.574219 28.414062 35.167969 25.769531 36.5625 22.503906 C 36.917969 21.636719 37.203125 20.734375 37.375 19.8125 C 37.390625 19.738281 37.390625 19.738281 37.402344 19.660156 C 37.808594 17.359375 37.589844 14.945312 36.8125 12.746094 C 36.761719 12.601562 36.722656 12.460938 36.6875 12.3125 Z M 36.6875 12.3125 "/>
</g>
</svg>
