<?xml version="1.0" encoding="UTF-8"?>
<svg version="1.1" xmlns="http://www.w3.org/2000/svg" width="800" height="800">
<path d="M0 0 C0.97588074 -0.00100708 1.95176147 -0.00201416 2.95721436 -0.00305176 C18.44369519 0.00774044 33.58341365 0.57454899 48.875 3.25 C49.67292969 3.38921875 50.47085937 3.5284375 51.29296875 3.671875 C56.55162517 4.63611081 61.70986888 5.87560566 66.875 7.25 C67.76300293 7.48170898 68.65100586 7.71341797 69.56591797 7.95214844 C91.23491535 13.68578064 112.12595432 21.62235782 131.875 32.25 C132.50067871 32.57758301 133.12635742 32.90516602 133.77099609 33.24267578 C153.07974112 43.36888772 170.49649386 56.47664697 186.55859375 71.15625 C188.54348405 72.95034983 190.56920011 74.66401581 192.625 76.375 C203.66533978 86.03250934 213.14520857 97.5091396 221.875 109.25 C222.30796387 109.83136719 222.74092773 110.41273437 223.18701172 111.01171875 C229.21009245 119.15332433 234.73731292 127.51593196 239.875 136.25 C240.22916992 136.84474121 240.58333984 137.43948242 240.94824219 138.05224609 C263.29761451 175.738456 276.87929869 220.35255978 277.875 264.25 C277.89546387 265.13268555 277.91592773 266.01537109 277.93701172 266.92480469 C279.3770024 339.40036889 255.35838595 410.54227738 205.2902832 463.70556641 C203.67232116 465.47117412 202.12058868 467.28684867 200.5625 469.10546875 C196.80329168 473.42136942 192.74611397 477.34942942 188.5625 481.25 C187.84771484 481.92933594 187.13292969 482.60867188 186.39648438 483.30859375 C185.71263672 483.94925781 185.02878906 484.58992188 184.32421875 485.25 C183.40129028 486.11625 183.40129028 486.11625 182.4597168 487 C180.875 488.25 180.875 488.25 178.875 488.25 C185.16478041 499.87030108 191.64139599 511.3635789 198.32861328 522.75976562 C202.90066641 530.55806095 207.40116764 538.39517366 211.875 546.25 C217.41436035 555.97152594 223.00875319 565.6589553 228.65844727 575.31689453 C234.81266742 585.84084625 240.89869996 596.40380137 246.98388672 606.96777344 C250.11180148 612.39659942 253.24358448 617.82319281 256.375 623.25 C257.62501879 625.41665583 258.87501878 627.5833225 260.125 629.75 C261.053125 631.35875 261.053125 631.35875 262 633 C267.625 642.75 267.625 642.75 269.5012207 646.00219727 C270.7470577 648.16159395 271.99298818 650.32093669 273.23901367 652.48022461 C276.42848953 658.00767597 279.61616885 663.53615121 282.80078125 669.06640625 C283.446521 670.18716553 284.09226074 671.3079248 284.75756836 672.46264648 C286.02858748 674.66880124 287.29894941 676.87533478 288.56860352 679.08227539 C291.35985361 683.92627672 294.1658789 688.75875119 297.0390625 693.5546875 C297.51239014 694.34673584 297.98571777 695.13878418 298.47338867 695.95483398 C299.33742158 697.39541391 300.20698539 698.83269773 301.08325195 700.26586914 C303.875 704.91998719 303.875 704.91998719 303.875 708.25 C291.07805479 706.98426141 278.28144023 705.71523458 265.48522758 704.44211006 C259.54222861 703.85092964 253.59912522 703.26084521 247.65576172 702.67333984 C241.91073663 702.10539838 236.16601411 701.53448091 230.42148209 700.96157455 C228.23936418 700.7444639 226.05714267 700.52839178 223.87481308 700.31341934 C212.50104333 699.19234617 201.16838855 698.02911123 189.875 696.25 C189.70221527 696.7998053 189.52943054 697.3496106 189.35140991 697.91607666 C187.58247391 703.39994592 185.49773311 708.62271764 183.1015625 713.859375 C182.7415062 714.6558696 182.38144989 715.4523642 182.01048279 716.272995 C180.84431672 718.85049459 179.67213315 721.42520931 178.5 724 C177.68497747 725.79933957 176.87044783 727.59890248 176.05639648 729.39868164 C174.42628394 733.0017977 172.79428646 736.60404924 171.16064453 740.20556641 C168.0687698 747.02505097 165.00074647 753.85512033 161.9375 760.6875 C161.42348633 761.82960938 160.90947266 762.97171875 160.37988281 764.1484375 C157.7838773 769.9291647 155.23171516 775.72500833 152.73828125 781.55078125 C152.23482178 782.7200415 151.7313623 783.88930176 151.21264648 785.09399414 C150.26135776 787.30922181 149.31896288 789.52829722 148.38696289 791.75170898 C147.96793701 792.72567627 147.54891113 793.69964355 147.1171875 794.703125 C146.7547998 795.56067383 146.39241211 796.41822266 146.01904297 797.30175781 C144.875 799.25 144.875 799.25 141.875 800.25 C141.39426025 799.39341797 141.39426025 799.39341797 140.90380859 798.51953125 C134.14167374 786.48307472 127.29857766 774.50006938 120.31982422 762.58789062 C115.78583939 754.83812816 111.31956994 747.05119898 106.875 739.25 C101.33531101 729.52865901 95.74124937 719.84104908 90.09155273 710.18310547 C83.93733258 699.65915375 77.85130004 689.09619863 71.76611328 678.53222656 C68.63819852 673.10340058 65.50641552 667.67680719 62.375 662.25 C61.12498121 660.08334417 59.87498122 657.9166775 58.625 655.75 C58.00625 654.6775 57.3875 653.605 56.75 652.5 C36.125 616.75 36.125 616.75 34.24780273 613.49609375 C33.00523981 611.3423828 31.76256511 609.18873633 30.51977539 607.03515625 C27.62185377 602.01315738 24.72496651 596.99057193 21.83224487 591.96557617 C20.81552802 590.19954478 19.79844342 588.43372569 18.78125 586.66796875 C17.51099127 584.46265845 16.24140982 582.25695784 14.97265625 580.05078125 C9.68921633 569.58203005 9.68921633 569.58203005 2.875 560.25 C2.31123657 561.22718994 2.31123657 561.22718994 1.73608398 562.22412109 C-19.13427734 598.39941406 -40.00463867 634.57470703 -60.875 670.75 C-61.49383057 671.82266113 -62.11266113 672.89532227 -62.75024414 674.00048828 C-63.99935518 676.16557071 -65.24854129 678.33060982 -66.49780273 680.49560547 C-69.63702309 685.93615706 -72.77490563 691.37747216 -75.91015625 696.8203125 C-81.93247329 707.27206199 -87.97169337 717.71299548 -94.0625 728.125 C-99.13775355 736.80262637 -104.14732455 745.51620306 -109.125 754.25 C-114.31568326 763.35582848 -119.53538594 772.44386402 -124.8125 781.5 C-125.37646484 782.469375 -125.94042969 783.43875 -126.52148438 784.4375 C-128.04597295 787.04774888 -129.5821646 789.65056237 -131.125 792.25 C-131.59760254 793.05630859 -132.07020508 793.86261719 -132.55712891 794.69335938 C-132.99847168 795.42876953 -133.43981445 796.16417969 -133.89453125 796.921875 C-134.27843018 797.56737305 -134.6623291 798.21287109 -135.05786133 798.87792969 C-135.58609497 799.55710449 -135.58609497 799.55710449 -136.125 800.25 C-136.785 800.25 -137.445 800.25 -138.125 800.25 C-147.43365438 779.57545191 -156.74058686 758.90019054 -166.0078125 738.20703125 C-167.94310668 733.88578342 -169.88100838 729.56572295 -171.82191467 725.24699402 C-173.02853138 722.56205127 -174.23441904 719.87678135 -175.4402771 717.1914978 C-176.01448287 715.91336208 -176.58903832 714.63538339 -177.16397095 713.35757446 C-177.95789162 711.5929639 -178.75045834 709.82774438 -179.54296875 708.0625 C-180.22008911 706.55623047 -180.22008911 706.55623047 -180.91088867 705.01953125 C-182.03781144 702.44888739 -183.09961401 699.86257008 -184.125 697.25 C-206.10445029 698.89433334 -228.00970817 701.26033372 -249.92797852 703.55938721 C-257.89671924 704.39508037 -265.86575402 705.22793719 -273.83505821 706.05823898 C-276.60224699 706.3471478 -279.36922184 706.63804421 -282.13618469 706.92910767 C-283.81709999 707.10467211 -285.49802302 707.28016253 -287.17895508 707.45556641 C-287.94397842 707.53658096 -288.70900177 707.61759552 -289.49720764 707.70106506 C-292.38990875 708.00142772 -295.21431869 708.25 -298.125 708.25 C-296.47087201 703.71874514 -294.22794229 699.63138882 -291.875 695.4375 C-291.43881348 694.65616699 -291.00262695 693.87483398 -290.55322266 693.06982422 C-286.36584956 685.60765465 -282.04800108 678.22276297 -277.72167969 670.84057617 C-273.13542201 663.00745932 -268.6177339 655.13692251 -264.125 647.25 C-258.58548161 637.52856294 -252.99124806 627.84104683 -247.34155273 618.18310547 C-241.18733258 607.65915375 -235.10130004 597.09619863 -229.01611328 586.53222656 C-225.88819852 581.10340058 -222.75641552 575.67680719 -219.625 570.25 C-218.37498121 568.08334417 -217.12498122 565.9166775 -215.875 563.75 C-208.375 550.75000001 -208.375 550.75000001 -206.49829102 547.49707031 C-205.25395002 545.34019097 -204.00964636 543.18329008 -202.76538086 541.02636719 C-199.88863263 536.03965174 -197.01155262 531.05312898 -194.1330719 526.06741333 C-184.09298192 508.67939927 -184.09298192 508.67939927 -174.125 491.25 C-175.01662842 490.84056152 -175.01662842 490.84056152 -175.92626953 490.42285156 C-178.06146022 489.28389353 -179.54890627 488.13372871 -181.3046875 486.484375 C-181.89685059 485.93112549 -182.48901367 485.37787598 -183.09912109 484.80786133 C-183.72641113 484.21126709 -184.35370117 483.61467285 -185 483 C-185.65693848 482.37955811 -186.31387695 481.75911621 -186.99072266 481.11987305 C-189.04377558 479.17170808 -191.08657191 477.21345706 -193.125 475.25 C-194.07632813 474.33371826 -194.07632813 474.33371826 -195.046875 473.39892578 C-202.60660554 466.07543682 -209.73234854 458.63448902 -216.125 450.25 C-216.63498535 449.58935547 -217.1449707 448.92871094 -217.67041016 448.24804688 C-226.76082332 436.42814998 -234.76898474 424.21521241 -242.125 411.25 C-242.53057129 410.5472998 -242.93614258 409.84459961 -243.35400391 409.12060547 C-273.51492031 356.56959947 -283.14001612 290.71908687 -273.125 231.25 C-272.95871094 230.26112793 -272.79242188 229.27225586 -272.62109375 228.25341797 C-262.97985004 173.27154757 -236.46802606 123.56746033 -198.125 83.25 C-197.58713867 82.68345703 -197.04927734 82.11691406 -196.49511719 81.53320312 C-188.77465832 73.46039519 -180.75457957 66.2323413 -171.81884766 59.53369141 C-170.16434848 58.27982046 -168.53842665 56.99668165 -166.91796875 55.69921875 C-158.73569487 49.18066547 -150.13066849 43.56485466 -141.125 38.25 C-140.41714355 37.83218262 -139.70928711 37.41436523 -138.97998047 36.98388672 C-96.28818355 12.03313786 -49.28231319 0.0352765 0 0 Z " fill="#C09525" transform="translate(385.125,-0.25)"/>
<path d="M0 0 C4.33750066 1.44583355 5.29365098 4.71843499 7.3125 8.5625 C8.20973588 10.22401072 9.10961397 11.88409653 10.01171875 13.54296875 C10.73560791 14.87593994 10.73560791 14.87593994 11.47412109 16.23583984 C14.10388146 20.99970334 16.86778813 25.68412878 19.625 30.375 C24.80912132 39.21682669 29.92688418 48.09422631 35 57 C40.53951839 66.72143706 46.13375194 76.40895317 51.78344727 86.06689453 C57.93766742 96.59084625 64.02369996 107.15380137 70.10888672 117.71777344 C73.23680148 123.14659942 76.36858448 128.57319281 79.5 134 C80.75001879 136.16665583 82.00001878 138.3333225 83.25 140.5 C84.178125 142.10875 84.178125 142.10875 85.125 143.75 C90.75 153.5 90.75 153.5 92.6262207 156.75219727 C93.8720577 158.91159395 95.11798818 161.07093669 96.36401367 163.23022461 C99.55348953 168.75767597 102.74116885 174.28615121 105.92578125 179.81640625 C106.571521 180.93716553 107.21726074 182.0579248 107.88256836 183.21264648 C109.15358748 185.41880124 110.42394941 187.62533478 111.69360352 189.83227539 C114.48485361 194.67627672 117.2908789 199.50875119 120.1640625 204.3046875 C120.63739014 205.09673584 121.11071777 205.88878418 121.59838867 206.70483398 C122.46242158 208.14541391 123.33198539 209.58269773 124.20825195 211.01586914 C127 215.66998719 127 215.66998719 127 219 C114.20305479 217.73426141 101.40644023 216.46523458 88.61022758 215.19211006 C82.66722861 214.60092964 76.72412522 214.01084521 70.78076172 213.42333984 C65.03573663 212.85539838 59.29101411 212.28448091 53.54648209 211.71157455 C51.36436418 211.4944639 49.18214267 211.27839178 46.99981308 211.06341934 C35.62604333 209.94234617 24.29338855 208.77911123 13 207 C12.82721527 207.5498053 12.65443054 208.0996106 12.47640991 208.66607666 C10.70747391 214.14994592 8.62273311 219.37271764 6.2265625 224.609375 C5.8665062 225.4058696 5.50644989 226.2023642 5.13548279 227.022995 C3.96931672 229.60049459 2.79713315 232.17520931 1.625 234.75 C0.80997747 236.54933957 -0.00455217 238.34890248 -0.81860352 240.14868164 C-2.44871606 243.7517977 -4.08071354 247.35404924 -5.71435547 250.95556641 C-8.8062302 257.77505097 -11.87425353 264.60512033 -14.9375 271.4375 C-15.45151367 272.57960938 -15.96552734 273.72171875 -16.49511719 274.8984375 C-19.0911227 280.6791647 -21.64328484 286.47500833 -24.13671875 292.30078125 C-24.64017822 293.4700415 -25.1436377 294.63930176 -25.66235352 295.84399414 C-26.61364224 298.05922181 -27.55603712 300.27829722 -28.48803711 302.50170898 C-28.90706299 303.47567627 -29.32608887 304.44964355 -29.7578125 305.453125 C-30.1202002 306.31067383 -30.48258789 307.16822266 -30.85595703 308.05175781 C-32 310 -32 310 -35 311 C-35.48073975 310.14341797 -35.48073975 310.14341797 -35.97119141 309.26953125 C-42.73332626 297.23307472 -49.57642234 285.25006938 -56.55517578 273.33789062 C-61.08916061 265.58812816 -65.55543006 257.80119898 -70 250 C-75.53968899 240.27865901 -81.13375063 230.59104908 -86.78344727 220.93310547 C-92.93766742 210.40915375 -99.02369996 199.84619863 -105.10888672 189.28222656 C-108.23680148 183.85340058 -111.36858448 178.42680719 -114.5 173 C-115.75001879 170.83334417 -117.00001878 168.6666775 -118.25 166.5 C-118.86875 165.4275 -119.4875 164.355 -120.125 163.25 C-140.75 127.5 -140.75 127.5 -142.62719727 124.24609375 C-143.86976019 122.0923828 -145.11243489 119.93873633 -146.35522461 117.78515625 C-149.25314623 112.76315738 -152.15003349 107.74057193 -155.04275513 102.71557617 C-156.05947198 100.94954478 -157.07655658 99.18372569 -158.09375 97.41796875 C-159.36400873 95.21265845 -160.63359018 93.00695784 -161.90234375 90.80078125 C-167.18578367 80.33203005 -167.18578367 80.33203005 -174 71 C-174.37584229 71.65145996 -174.75168457 72.30291992 -175.13891602 72.97412109 C-196.00927734 109.14941406 -216.87963867 145.32470703 -237.75 181.5 C-238.36883057 182.57266113 -238.98766113 183.64532227 -239.62524414 184.75048828 C-240.87435518 186.91557071 -242.12354129 189.08060982 -243.37280273 191.24560547 C-246.51202309 196.68615706 -249.64990563 202.12747216 -252.78515625 207.5703125 C-258.80747329 218.02206199 -264.84669337 228.46299548 -270.9375 238.875 C-276.01275355 247.55262637 -281.02232455 256.26620306 -286 265 C-291.19068326 274.10582848 -296.41038594 283.19386402 -301.6875 292.25 C-302.25146484 293.219375 -302.81542969 294.18875 -303.39648438 295.1875 C-304.92097295 297.79774888 -306.4571646 300.40056237 -308 303 C-308.47260254 303.80630859 -308.94520508 304.61261719 -309.43212891 305.44335938 C-309.87347168 306.17876953 -310.31481445 306.91417969 -310.76953125 307.671875 C-311.15343018 308.31737305 -311.5373291 308.96287109 -311.93286133 309.62792969 C-312.28501709 310.08071289 -312.63717285 310.53349609 -313 311 C-313.66 311 -314.32 311 -315 311 C-324.30865438 290.32545191 -333.61558686 269.65019054 -342.8828125 248.95703125 C-344.81810668 244.63578342 -346.75600838 240.31572295 -348.69691467 235.99699402 C-349.90353138 233.31205127 -351.10941904 230.62678135 -352.3152771 227.9414978 C-352.88948287 226.66336208 -353.46403832 225.38538339 -354.03897095 224.10757446 C-354.83289162 222.3429639 -355.62545834 220.57774438 -356.41796875 218.8125 C-357.09508911 217.30623047 -357.09508911 217.30623047 -357.78588867 215.76953125 C-358.91281144 213.19888739 -359.97461401 210.61257008 -361 208 C-382.97945029 209.64433334 -404.88470817 212.01033372 -426.80297852 214.30938721 C-434.77171924 215.14508037 -442.74075402 215.97793719 -450.71005821 216.80823898 C-453.47724699 217.0971478 -456.24422184 217.38804421 -459.01118469 217.67910767 C-460.69209999 217.85467211 -462.37302302 218.03016253 -464.05395508 218.20556641 C-464.81897842 218.28658096 -465.58400177 218.36759552 -466.37220764 218.45106506 C-469.26490875 218.75142772 -472.08931869 219 -475 219 C-473.34587201 214.46874514 -471.10294229 210.38138882 -468.75 206.1875 C-468.31381348 205.40616699 -467.87762695 204.62483398 -467.42822266 203.81982422 C-463.24084956 196.35765465 -458.92300108 188.97276297 -454.59667969 181.59057617 C-450.01042201 173.75745932 -445.4927339 165.88692251 -441 158 C-435.46048161 148.27856294 -429.86624806 138.59104683 -424.21655273 128.93310547 C-418.06233258 118.40915375 -411.97630004 107.84619863 -405.89111328 97.28222656 C-402.76319852 91.85340058 -399.63141552 86.42680719 -396.5 81 C-395.24998121 78.83334417 -393.99998122 76.6666775 -392.75 74.5 C-389 68 -389 68 -385.25 61.5 C-384.63068604 60.42645264 -384.01137207 59.35290527 -383.37329102 58.24682617 C-382.12923208 56.09059787 -380.88493058 53.93450951 -379.64038086 51.77856445 C-376.75845933 46.78552493 -373.8787525 41.7912612 -371.0080719 36.79174805 C-357.44902888 13.17833951 -357.44902888 13.17833951 -351 3 C-346.78574348 4.42765574 -343.92614026 6.49882836 -340.5 9.3125 C-331.56603131 16.40564948 -321.81874255 22.22549134 -312 28 C-310.92540527 28.63252686 -310.92540527 28.63252686 -309.82910156 29.27783203 C-291.1167503 40.11680458 -270.53216292 47.94136088 -249.62231445 53.29541016 C-247.69960228 53.81202382 -245.78781953 54.36977914 -243.88354492 54.95068359 C-234.63408669 57.75474932 -225.49325408 59.47018785 -215.9375 60.75 C-215.14475677 60.85706268 -214.35201355 60.96412537 -213.5352478 61.07443237 C-171.34935338 66.6302657 -128.20445106 62.93638476 -88.04443359 48.70922852 C-86.67321452 48.23354289 -85.29563439 47.77583873 -83.91259766 47.33569336 C-55.39734107 38.25507565 -21.4487914 21.4487914 0 0 Z " fill="#B33C3C" transform="translate(562,489)"/>
<path d="M0 0 C0.97588074 -0.00100708 1.95176147 -0.00201416 2.95721436 -0.00305176 C18.44369519 0.00774044 33.58341365 0.57454899 48.875 3.25 C49.67292969 3.38921875 50.47085937 3.5284375 51.29296875 3.671875 C56.55162517 4.63611081 61.70986888 5.87560566 66.875 7.25 C67.76300293 7.48170898 68.65100586 7.71341797 69.56591797 7.95214844 C91.23491535 13.68578064 112.12595432 21.62235782 131.875 32.25 C132.50067871 32.57758301 133.12635742 32.90516602 133.77099609 33.24267578 C153.07974112 43.36888772 170.49649386 56.47664697 186.55859375 71.15625 C188.54348405 72.95034983 190.56920011 74.66401581 192.625 76.375 C203.66533978 86.03250934 213.14520857 97.5091396 221.875 109.25 C222.30796387 109.83136719 222.74092773 110.41273437 223.18701172 111.01171875 C229.21009245 119.15332433 234.73731292 127.51593196 239.875 136.25 C240.22916992 136.84474121 240.58333984 137.43948242 240.94824219 138.05224609 C263.29761451 175.738456 276.87929869 220.35255978 277.875 264.25 C277.89546387 265.13268555 277.91592773 266.01537109 277.93701172 266.92480469 C279.37710602 339.40558414 255.35492705 410.53304657 205.29199219 463.70410156 C203.66536191 465.47870924 202.10303573 467.30222473 200.53515625 469.12890625 C196.90857339 473.29053448 193.02811858 477.10499387 189 480.875 C188.34386719 481.5040625 187.68773437 482.133125 187.01171875 482.78125 C182.96127675 486.58692845 178.8021866 489.76312062 174.12988281 492.76660156 C171.88396186 494.24410435 169.74951088 495.81001434 167.61328125 497.44140625 C144.25452502 515.27517144 118.36792426 529.43864527 90.3359375 538.4453125 C88.45732482 539.05958903 86.58926355 539.70622906 84.7265625 540.3671875 C45.22270944 554.16354399 2.21729746 556.57497779 -39.0625 551 C-39.82519196 550.89785187 -40.58788391 550.79570374 -41.37368774 550.69046021 C-51.2461997 549.33106041 -60.57910902 547.16834707 -70.125 544.25 C-71.85186879 543.77924849 -73.58087456 543.31622288 -75.3125 542.86328125 C-88.39672934 539.36177368 -100.72909883 534.68651454 -113.125 529.25 C-113.92615234 528.90630371 -114.72730469 528.56260742 -115.55273438 528.20849609 C-135.41943023 519.63195885 -153.53947217 507.74415191 -170.54394531 494.43847656 C-172.01935908 493.32941013 -173.56693544 492.31820099 -175.1171875 491.31640625 C-178.78083846 488.79943046 -181.90771167 485.93053235 -185.125 482.875 C-185.77291504 482.26358154 -186.42083008 481.65216309 -187.08837891 481.0222168 C-197.37722866 471.26615129 -207.50850467 461.55124347 -216.125 450.25 C-216.88997803 449.2590332 -216.88997803 449.2590332 -217.67041016 448.24804688 C-226.76082332 436.42814998 -234.76898474 424.21521241 -242.125 411.25 C-242.53057129 410.5472998 -242.93614258 409.84459961 -243.35400391 409.12060547 C-273.51492031 356.56959947 -283.14001612 290.71908687 -273.125 231.25 C-272.95871094 230.26112793 -272.79242188 229.27225586 -272.62109375 228.25341797 C-262.97985004 173.27154757 -236.46802606 123.56746033 -198.125 83.25 C-197.58713867 82.68345703 -197.04927734 82.11691406 -196.49511719 81.53320312 C-188.77465832 73.46039519 -180.75457957 66.2323413 -171.81884766 59.53369141 C-170.16434848 58.27982046 -168.53842665 56.99668165 -166.91796875 55.69921875 C-158.73569487 49.18066547 -150.13066849 43.56485466 -141.125 38.25 C-140.41714355 37.83218262 -139.70928711 37.41436523 -138.97998047 36.98388672 C-96.28818355 12.03313786 -49.28231319 0.0352765 0 0 Z M-68.6875 71.375 C-69.52684082 71.672854 -70.36618164 71.97070801 -71.23095703 72.27758789 C-102.17467965 83.51231807 -128.24694367 100.75141872 -152.125 123.25 C-152.90746094 123.97832031 -153.68992188 124.70664063 -154.49609375 125.45703125 C-161.11292852 131.8143823 -166.61878485 138.93879357 -172.125 146.25 C-172.75341797 147.07129395 -172.75341797 147.07129395 -173.39453125 147.90917969 C-195.0395885 176.30543336 -209.45414681 210.82337506 -214.125 246.25 C-214.2631311 247.24640503 -214.2631311 247.24640503 -214.40405273 248.26293945 C-219.67935301 291.9204335 -211.93110711 334.70517304 -193.125 374.25 C-192.77969238 374.97687012 -192.43438477 375.70374023 -192.07861328 376.45263672 C-190.19116116 380.38443718 -188.22575927 384.27025728 -186.21289062 388.13916016 C-185.00013807 390.49227025 -183.82071952 392.86082093 -182.640625 395.23046875 C-173.81604694 412.75654396 -163.27035984 428.67328732 -150.125 443.25 C-149.6417627 443.79350098 -149.15852539 444.33700195 -148.66064453 444.89697266 C-132.98919713 462.49611519 -115.27675112 476.17639673 -95.125 488.25 C-94.49400391 488.62898438 -93.86300781 489.00796875 -93.21289062 489.3984375 C-75.92684892 499.60506812 -56.70516295 506.53295304 -37.14550781 510.78149414 C-35.25866703 511.21900592 -33.39670959 511.76020338 -31.5390625 512.30859375 C-13.28132462 517.34305008 7.10631981 516.55375815 25.875 516.25 C27.08671875 516.23324219 28.2984375 516.21648437 29.546875 516.19921875 C50.69024515 515.27879841 72.58115863 509.76966673 91.875 501.25 C93.10992243 500.72867748 94.34564093 500.20923784 95.58203125 499.69140625 C120.49376717 489.16871869 142.33854027 474.97464659 161.875 456.25 C162.75309326 455.42072998 162.75309326 455.42072998 163.64892578 454.57470703 C178.14271499 440.83631932 189.87331788 425.51796951 199.875 408.25 C200.2560791 407.59628418 200.6371582 406.94256836 201.02978516 406.26904297 C228.70212471 358.17553081 236.52366602 299.12052463 222.375 245.4921875 C217.81002648 229.15081607 211.66774853 213.77022169 204.0625 198.61914062 C202.96294207 196.42545022 201.88385115 194.22319426 200.8125 192.015625 C190.18365966 170.22597032 177.93286885 150.46711861 161.875 132.25 C161.15441406 131.40695313 160.43382812 130.56390625 159.69140625 129.6953125 C156.03398915 125.46040849 152.24824972 121.64371804 147.96875 118.0390625 C146.5415919 116.81958785 145.14628521 115.56207148 143.78125 114.2734375 C130.73415932 101.98593772 115.7651704 92.4138889 99.875 84.25 C99.21274414 83.90130859 98.55048828 83.55261719 97.86816406 83.19335938 C79.62213519 73.65545522 59.12163016 66.95314253 38.875 63.25 C37.7295874 63.03005371 37.7295874 63.03005371 36.56103516 62.80566406 C2.0620937 56.40550137 -35.65548153 59.5768594 -68.6875 71.375 Z " fill="#FECB19" transform="translate(385.125,-0.25)"/>
<path d="M0 0 C0.66 0 1.32 0 2 0 C2.42973114 1.13481812 2.85946228 2.26963623 3.30221558 3.43884277 C20.70138202 57.26117326 20.70138202 57.26117326 56.22119141 97.078125 C71.93707961 103.35457251 89.83661467 101.88199854 106.32568359 100.40234375 C118.08686078 99.505825 129.48248573 101.71834843 141 104 C140.04842006 105.11298899 139.09643738 106.22563365 138.14428711 107.33813477 C137.6141954 107.95777603 137.0841037 108.5774173 136.53794861 109.21583557 C134.5797989 111.48747263 132.57712034 113.7158728 130.5625 115.9375 C127.85119453 118.9384942 125.15582529 121.94980622 122.5 125 C117.62856797 130.58979989 112.6410485 136.07534898 107.671875 141.578125 C103.68295423 146.00121401 99.72432093 150.44615005 95.8125 154.9375 C93.04158178 158.09061383 90.22355889 161.2008454 87.40625 164.3125 C86.6121875 165.199375 85.818125 166.08625 85 167 C84.11164207 167.82417923 84.11164207 167.82417923 83.20533752 168.66500854 C79.38112061 172.3941186 79.38112061 172.3941186 77.64755249 177.29522705 C77.84561945 179.89095537 78.27133431 182.33550006 78.80859375 184.8828125 C78.97346786 185.83084747 79.13834198 186.77888245 79.30821228 187.75564575 C79.66270353 189.78990067 80.03301851 191.82145032 80.41766357 193.85021973 C81.19867114 198.07458576 81.83732173 202.31590892 82.47988892 206.56317139 C83.14021928 210.90694857 83.83757408 215.24447579 84.53442383 219.58251953 C85.06974952 222.92019974 85.59851195 226.25887989 86.12695312 229.59765625 C86.47096356 231.75006247 86.81535037 233.90240857 87.16015625 236.0546875 C87.31541275 237.03807098 87.47066925 238.02145447 87.63063049 239.03463745 C88.50612558 244.44737008 89.62307918 249.69367749 91 255 C91.30940101 256.59421202 91.59793968 258.1928437 91.8515625 259.796875 C91.98046875 260.61027344 92.109375 261.42367188 92.2421875 262.26171875 C92.36851562 263.08285156 92.49484375 263.90398437 92.625 264.75 C92.7590625 265.58660156 92.893125 266.42320312 93.03125 267.28515625 C93.6034956 270.94636027 94 274.2743608 94 278 C89.0162802 277.38188628 85.03458391 275.19027191 80.63305664 272.92333984 C79.8031572 272.50218399 78.97325775 272.08102814 78.11820984 271.64710999 C76.32015265 270.73402515 74.52342731 269.8183139 72.72789192 268.90028 C69.88556322 267.448375 67.03871403 266.00573757 64.19029236 264.56582642 C56.09344679 260.47159724 48.00223106 256.36646109 39.92114258 252.24121094 C34.97501927 249.71712553 30.02123195 247.2086783 25.06222343 244.71001053 C23.17458054 243.75502806 21.28993737 242.79409219 19.4084034 241.82712936 C16.77822106 240.47597143 14.13876463 239.14488413 11.49633789 237.81787109 C10.72160126 237.41376511 9.94686462 237.00965912 9.14865112 236.5933075 C4.69168343 234.38531079 1.9522791 233.42929565 -3 235 C-5.57433479 236.00596175 -5.57433479 236.00596175 -8.08959961 237.32568359 C-9.05598862 237.81064301 -10.02237762 238.29560242 -11.01805115 238.79525757 C-12.05236771 239.32430695 -13.08668427 239.85335632 -14.15234375 240.3984375 C-15.78907799 241.22282822 -15.78907799 241.22282822 -17.45887756 242.06387329 C-20.95561622 243.82671805 -24.44676064 245.60030956 -27.9375 247.375 C-32.48647712 249.67805888 -37.03773667 251.97657217 -41.58984375 254.2734375 C-42.70884567 254.8388475 -43.8278476 255.40425751 -44.98075867 255.98680115 C-54.32693851 260.69518928 -63.7479095 265.23424684 -73.20605469 269.71264648 C-78.18302029 272.07349163 -83.09740942 274.53953335 -87.98828125 277.07421875 C-90 278 -90 278 -92 278 C-88.18358535 250.90607998 -88.18358535 250.90607998 -86.375 239.375 C-86.26438232 238.66239014 -86.15376465 237.94978027 -86.03979492 237.21557617 C-85.47562436 233.66930138 -84.83493823 230.15273901 -84.10546875 226.63671875 C-82.64363867 219.43810372 -81.51075072 212.18239205 -80.34057617 204.93188477 C-79.93776075 202.43911364 -79.53057979 199.94708184 -79.12304688 197.45507812 C-78.86171594 195.84379267 -78.60063962 194.23246589 -78.33984375 192.62109375 C-78.22003647 191.88958603 -78.10022919 191.15807831 -77.97679138 190.40440369 C-77.63453892 188.27180019 -77.3161752 186.13660855 -77 184 C-76.86767975 183.20744308 -76.7353595 182.41488617 -76.59902954 181.59831238 C-75.84623405 177.04565887 -75.84623405 177.04565887 -77.06054688 172.72827148 C-77.60775391 172.19790283 -78.15496094 171.66753418 -78.71875 171.12109375 C-79.31792236 170.51418701 -79.91709473 169.90728027 -80.53442383 169.28198242 C-81.18306396 168.67330322 -81.8317041 168.06462402 -82.5 167.4375 C-83.80664079 166.13085921 -85.11263837 164.82357488 -86.41796875 163.515625 C-87.04493652 162.90396484 -87.6719043 162.29230469 -88.31787109 161.66210938 C-90.2514322 159.75156017 -92.05036858 157.75663761 -93.8125 155.6875 C-97.8014608 151.05870589 -101.90488836 146.53485517 -106 142 C-110.76910466 136.71877672 -115.51703151 131.42386915 -120.19140625 126.05859375 C-122.25506361 123.70967922 -124.34408982 121.38493283 -126.4375 119.0625 C-127.56285156 117.81339844 -127.56285156 117.81339844 -128.7109375 116.5390625 C-130.25668126 114.8245003 -131.80358539 113.11098361 -133.3515625 111.3984375 C-134.08117187 110.58632812 -134.81078125 109.77421875 -135.5625 108.9375 C-136.55443359 107.83728516 -136.55443359 107.83728516 -137.56640625 106.71484375 C-139 105 -139 105 -139 104 C-119.10220423 100.75791363 -99.11222507 98.41321637 -79.08862305 96.10693359 C-77.47122475 95.92028137 -77.47122475 95.92028137 -75.82115173 95.7298584 C-73.80932563 95.49817638 -71.79734626 95.26781879 -69.78517151 95.03918457 C-67.88359195 94.82085199 -65.98492968 94.57559156 -64.09010315 94.30484009 C-61 94 -61 94 -57.34141541 94.18417358 C-53.19144372 94.18460117 -49.62798906 94.09092738 -46 92 C-40.62566507 86.36645381 -37.70147644 78.65050166 -34.47265625 71.6796875 C-33.46768424 69.61747792 -32.45771277 67.55769787 -31.44297791 65.50027466 C-28.79365777 60.09504685 -26.21330493 54.65960929 -23.6461792 49.21496582 C-21.01154016 43.65853473 -18.31268661 38.13351569 -15.61914062 32.60546875 C-10.34960758 21.7666842 -5.15243704 10.89488171 0 0 Z " fill="#FEF0B4" transform="translate(386,127)"/>
<path d="M0 0 C4.33750066 1.44583355 5.29365098 4.71843499 7.3125 8.5625 C8.20973588 10.22401072 9.10961397 11.88409653 10.01171875 13.54296875 C10.49431152 14.43161621 10.9769043 15.32026367 11.47412109 16.23583984 C14.10388146 20.99970334 16.86778813 25.68412878 19.625 30.375 C24.80912132 39.21682669 29.92688418 48.09422631 35 57 C40.53951839 66.72143706 46.13375194 76.40895317 51.78344727 86.06689453 C57.93766742 96.59084625 64.02369996 107.15380137 70.10888672 117.71777344 C73.23680148 123.14659942 76.36858448 128.57319281 79.5 134 C80.75001879 136.16665583 82.00001878 138.3333225 83.25 140.5 C83.86875 141.5725 84.4875 142.645 85.125 143.75 C90.75 153.5 90.75 153.5 92.6262207 156.75219727 C93.8720577 158.91159395 95.11798818 161.07093669 96.36401367 163.23022461 C99.55348953 168.75767597 102.74116885 174.28615121 105.92578125 179.81640625 C106.571521 180.93716553 107.21726074 182.0579248 107.88256836 183.21264648 C109.15358748 185.41880124 110.42394941 187.62533478 111.69360352 189.83227539 C114.48485361 194.67627672 117.2908789 199.50875119 120.1640625 204.3046875 C120.63739014 205.09673584 121.11071777 205.88878418 121.59838867 206.70483398 C122.46242158 208.14541391 123.33198539 209.58269773 124.20825195 211.01586914 C127 215.66998719 127 215.66998719 127 219 C114.20305479 217.73426141 101.40644023 216.46523458 88.61022758 215.19211006 C82.66722861 214.60092964 76.72412522 214.01084521 70.78076172 213.42333984 C65.03573663 212.85539838 59.29101411 212.28448091 53.54648209 211.71157455 C51.36436418 211.4944639 49.18214267 211.27839178 46.99981308 211.06341934 C41.15783958 210.48759621 35.31828654 209.89517424 29.48192978 209.26479721 C27.89158202 209.09512293 26.3005983 208.93124868 24.70889664 208.77478409 C22.73363249 208.57890498 20.76114923 208.35551749 18.7890625 208.12988281 C17.74427734 208.01751282 16.69949219 207.90514282 15.62304688 207.78936768 C11.29657557 206.48737928 9.67966493 203.55024999 7.60546875 199.71484375 C7.11691406 198.69519531 6.62835937 197.67554688 6.125 196.625 C4.96188393 194.42918592 3.79778125 192.23389422 2.6328125 190.0390625 C2.04274414 188.88567383 1.45267578 187.73228516 0.84472656 186.54394531 C-1.94035849 181.19345634 -4.96128992 175.98440553 -7.98150635 170.76483154 C-9.34774991 168.39742382 -10.70024219 166.02228603 -12.052948 163.64712524 C-15.98915955 156.73766457 -19.98182276 149.86209263 -24 143 C-29.05630923 134.36502443 -34.04607122 125.69393681 -39 117 C-44.53189542 107.29272986 -50.11707533 97.6185539 -55.75927734 87.97485352 C-60.2413721 80.31115156 -64.69046822 72.62877938 -69.125 64.9375 C-69.752854 63.84872559 -70.38070801 62.75995117 -71.02758789 61.63818359 C-74.02834356 56.4310981 -77.02306592 51.2207426 -80 46 C-79.37246826 45.74943848 -78.74493652 45.49887695 -78.09838867 45.24072266 C-51.25722144 34.45927193 -20.83612961 20.83612961 0 0 Z " fill="#CE4443" transform="translate(562,489)"/>
<path d="M0 0 C4.21425652 1.42765574 7.07385974 3.49882836 10.5 6.3125 C31.96889977 23.35779314 56.81719875 34.68698798 82 45 C73.52876953 60.5998363 64.94559439 76.14819948 55.88842773 91.41674805 C52.14652161 97.7283517 48.47567329 104.07992266 44.8125 110.4375 C43.85549194 112.09833618 43.85549194 112.09833618 42.87915039 113.79272461 C41.57110523 116.06337068 40.26324552 118.33412358 38.95556641 120.60498047 C35.80667946 126.0716998 32.65316736 131.53574887 29.5 137 C28.2499765 139.16665311 26.99997653 141.33331979 25.75 143.5 C23.25 147.83333333 20.75 152.16666667 18.25 156.5 C17.63020264 157.57443359 17.01040527 158.64886719 16.37182617 159.75585938 C15.13281961 161.90323373 13.89340497 164.05037267 12.65356445 166.19726562 C9.7127388 171.2907183 6.77627381 176.38655143 3.85409546 181.49072266 C2.46781169 183.9115662 1.07921453 186.33107889 -0.30957031 188.75048828 C-1.29328204 190.46647617 -2.27362835 192.18439193 -3.25390625 193.90234375 C-3.846875 194.93488281 -4.43984375 195.96742188 -5.05078125 197.03125 C-5.57325439 197.94455078 -6.09572754 198.85785156 -6.6340332 199.79882812 C-8 202 -8 202 -10 204 C-21.83795243 206.63407234 -34.42999764 207.15234165 -46.48046875 208.3828125 C-48.62805679 208.60395953 -50.7756242 208.82530701 -52.923172 209.04684448 C-57.39334969 209.50739366 -61.86371179 209.96609365 -66.33422852 210.42333984 C-72.06889017 211.00995571 -77.80314906 211.60040616 -83.53728771 212.19211006 C-87.9576846 212.64797698 -92.37824108 213.10227967 -96.79885292 213.55605698 C-98.91484833 213.77337208 -101.03080395 213.99107499 -103.14671898 214.2091713 C-106.09009004 214.51223341 -109.03365879 214.8132944 -111.97729492 215.11376953 C-113.28865669 215.24931747 -113.28865669 215.24931747 -114.62651062 215.38760376 C-117.76431093 215.70626562 -120.84374419 216 -124 216 C-122.34587201 211.46874514 -120.10294229 207.38138882 -117.75 203.1875 C-117.31381348 202.40616699 -116.87762695 201.62483398 -116.42822266 200.81982422 C-112.24084956 193.35765465 -107.92300108 185.97276297 -103.59667969 178.59057617 C-99.01042201 170.75745932 -94.4927339 162.88692251 -90 155 C-84.46048161 145.27856294 -78.86624806 135.59104683 -73.21655273 125.93310547 C-67.06233258 115.40915375 -60.97630004 104.84619863 -54.89111328 94.28222656 C-51.76319852 88.85340058 -48.63141552 83.42680719 -45.5 78 C-44.24998121 75.83334417 -42.99998122 73.6666775 -41.75 71.5 C-39.25 67.16666667 -36.75 62.83333333 -34.25 58.5 C-33.63068604 57.42645264 -33.01137207 56.35290527 -32.37329102 55.24682617 C-31.12923208 53.09059787 -29.88493058 50.93450951 -28.64038086 48.77856445 C-25.75845933 43.78552493 -22.8787525 38.7912612 -20.0080719 33.79174805 C-6.44902888 10.17833951 -6.44902888 10.17833951 0 0 Z " fill="#983434" transform="translate(211,492)"/>
<path d="M0 0 C2.51406474 2.25917844 3.85803392 4.41259484 5.26953125 7.47265625 C5.68050049 8.36283447 6.09146973 9.2530127 6.51489258 10.17016602 C7.15720825 11.60187134 7.15720825 11.60187134 7.8125 13.0625 C8.4789856 14.54544556 8.4789856 14.54544556 9.15893555 16.05834961 C25.06605624 52.06294302 31.45677016 93.0126235 25 132 C24.82329122 133.33808001 24.65023889 134.67664696 24.48046875 136.015625 C17.23565793 189.58519031 -13.83138168 241.28783948 -56.6875 274.0625 C-75.69100268 288.19128643 -96.48278184 299.71251116 -118.93920898 307.28344727 C-120.93970765 307.97903589 -122.89887644 308.74604655 -124.8671875 309.52734375 C-129.73216651 311.36646277 -134.74053491 312.45136459 -139.8125 313.5625 C-140.73353516 313.77068359 -141.65457031 313.97886719 -142.60351562 314.19335938 C-168.72956671 320.02555692 -194.47190524 320.03487907 -221 317 C-221.6894873 316.92523437 -222.37897461 316.85046875 -223.08935547 316.7734375 C-230.82623978 315.9175261 -238.1005907 314.31588906 -245.54296875 312.04296875 C-247.7173846 311.38695854 -249.90713536 310.77805346 -252.11328125 310.23828125 C-303.40565225 297.39953149 -348.51419987 258.60363987 -375.70263672 214.21679688 C-379.15012665 208.32609145 -382.09998337 202.17396092 -385 196 C-381.20579388 197.26473537 -380.86587531 198.47993244 -378.875 201.875 C-357.30671746 236.84449575 -321.32817339 263.07798976 -284 279 C-283.30600098 279.2985791 -282.61200195 279.5971582 -281.89697266 279.90478516 C-259.54728738 289.31760877 -235.18327741 294.22452673 -211 295 C-209.53675293 295.04761475 -209.53675293 295.04761475 -208.04394531 295.09619141 C-178.23108688 295.89413819 -148.73811897 291.19976287 -121 280 C-119.86908936 279.54802246 -119.86908936 279.54802246 -118.71533203 279.08691406 C-65.82189384 257.62060567 -24.34270043 215.28792127 -2.03125 163.04296875 C3.67384075 149.16799282 8.26211101 134.76051727 11 120 C11.22429687 118.7929541 11.22429687 118.7929541 11.453125 117.56152344 C17.94489108 80.75153086 14.40813322 42.11106171 2.015625 6.93359375 C1.21636783 4.62497016 0.53532739 2.37987939 0 0 Z " fill="#C28B36" transform="translate(587,197)"/>
</svg>
