<?xml version="1.0" encoding="UTF-8"?>
<svg version="1.1" xmlns="http://www.w3.org/2000/svg" width="800" height="800">
<path d="M0 0 C0.91507324 0.16628906 1.83014648 0.33257812 2.77294922 0.50390625 C49.25562361 9.11033319 92.54523618 28.90411898 129 59 C129.56106445 59.45810059 130.12212891 59.91620117 130.70019531 60.38818359 C144.40567169 71.62198859 157.14102461 83.97299326 168 98 C168.86361102 99.06434948 169.72962678 100.1267509 170.59765625 101.1875 C182.12052367 115.37232154 191.51728885 130.8397278 200 147 C200.60859863 148.14202881 200.60859863 148.14202881 201.22949219 149.30712891 C221.1639337 187.14462752 230.217 230.5874462 230.25 273.125 C230.25101212 274.3076947 230.25101212 274.3076947 230.25204468 275.51428223 C230.17119273 335.44144457 210.18966136 397.33801041 172 444 C171.26394531 444.92683594 170.52789063 445.85367187 169.76953125 446.80859375 C158.43716983 460.94897393 145.78150676 475.39912141 131 486 C131.58913553 489.97510033 132.82045195 492.80697025 134.8515625 496.26171875 C135.44775391 497.28458984 136.04394531 498.30746094 136.65820312 499.36132812 C137.30724609 500.45896484 137.95628906 501.55660156 138.625 502.6875 C139.30478918 503.84916922 139.98381248 505.01128693 140.66210938 506.17382812 C142.07158303 508.58817446 143.48432987 511.00055922 144.89941406 513.41162109 C148.13055521 518.92318583 151.31272995 524.4629938 154.5 530 C155.74976947 532.16679965 156.99977024 534.3334659 158.25 536.5 C225.75 653.50000001 225.75 653.50000001 227.62817383 656.75561523 C228.86746267 658.90364046 230.10688141 661.05159075 231.34643555 663.19946289 C234.28202567 668.28655549 237.21625672 673.37441847 240.14590454 678.4649353 C241.53328095 680.87543748 242.92139624 683.28551376 244.30957031 685.69555664 C245.29173815 687.40143968 246.27283385 689.10793986 247.25390625 690.81445312 C247.846875 691.84376953 248.43984375 692.87308594 249.05078125 693.93359375 C249.57325439 694.84165771 250.09572754 695.74972168 250.6340332 696.68530273 C251.69977966 698.49126201 252.83680752 700.25521129 254 702 C254 702.99 254 703.98 254 705 C241.20305479 703.73426141 228.40644023 702.46523458 215.61022758 701.19211006 C209.66722861 700.60092964 203.72412522 700.01084521 197.78076172 699.42333984 C192.03573663 698.85539838 186.29101411 698.28448091 180.54648209 697.71157455 C178.36436418 697.4944639 176.18214267 697.27839178 173.99981308 697.06341934 C162.62604333 695.94234617 151.29338855 694.77911123 140 693 C139.82721527 693.5498053 139.65443054 694.0996106 139.47640991 694.66607666 C137.70747391 700.14994592 135.62273311 705.37271764 133.2265625 710.609375 C132.8665062 711.4058696 132.50644989 712.2023642 132.13548279 713.022995 C130.96931672 715.60049459 129.79713315 718.17520931 128.625 720.75 C127.80997747 722.54933957 126.99544783 724.34890248 126.18139648 726.14868164 C124.55128394 729.7517977 122.91928646 733.35404924 121.28564453 736.95556641 C118.1937698 743.77505097 115.12574647 750.60512033 112.0625 757.4375 C111.54848633 758.57960938 111.03447266 759.72171875 110.50488281 760.8984375 C107.9088773 766.6791647 105.35671516 772.47500833 102.86328125 778.30078125 C102.35982178 779.4700415 101.8563623 780.63930176 101.33764648 781.84399414 C100.38635776 784.05922181 99.44396288 786.27829722 98.51196289 788.50170898 C98.09293701 789.47567627 97.67391113 790.44964355 97.2421875 791.453125 C96.8797998 792.31067383 96.51741211 793.16822266 96.14404297 794.05175781 C95 796 95 796 92 797 C91.51926025 796.14341797 91.51926025 796.14341797 91.02880859 795.26953125 C84.26667374 783.23307472 77.42357766 771.25006938 70.44482422 759.33789062 C65.91083939 751.58812816 61.44456994 743.80119898 57 736 C51.46031101 726.27865901 45.86624937 716.59104908 40.21655273 706.93310547 C34.06233258 696.40915375 27.97630004 685.84619863 21.89111328 675.28222656 C18.76319852 669.85340058 15.63141552 664.42680719 12.5 659 C11.24998121 656.83334417 9.99998122 654.6666775 8.75 652.5 C8.13125 651.4275 7.5125 650.355 6.875 649.25 C-13.75 613.5 -13.75 613.5 -15.62719727 610.24609375 C-16.86976019 608.0923828 -18.11243489 605.93873633 -19.35522461 603.78515625 C-22.25314623 598.76315738 -25.15003349 593.74057193 -28.04275513 588.71557617 C-29.05947198 586.94954478 -30.07655658 585.18372569 -31.09375 583.41796875 C-32.36400873 581.21265845 -33.63359018 579.00695784 -34.90234375 576.80078125 C-40.18578367 566.33203005 -40.18578367 566.33203005 -47 557 C-47.56376343 557.97718994 -47.56376343 557.97718994 -48.13891602 558.97412109 C-64.00927734 586.4827474 -79.87963867 613.9913737 -95.75 641.5 C-96.36883057 642.57266113 -96.98766113 643.64532227 -97.62524414 644.75048828 C-98.87435518 646.91557071 -100.12354129 649.08060982 -101.37280273 651.24560547 C-104.51202309 656.68615706 -107.64990563 662.12747216 -110.78515625 667.5703125 C-116.80747329 678.02206199 -122.84669337 688.46299548 -128.9375 698.875 C-134.01275123 707.55262241 -139.02258767 716.26605568 -144 725 C-149.53254472 734.70804391 -155.11650756 744.38409497 -160.76147461 754.02734375 C-163.86916783 759.33881943 -166.96199589 764.65840354 -170.03125 769.9921875 C-170.53754189 770.87174606 -170.53754189 770.87174606 -171.05406189 771.76907349 C-172.6847291 774.60281236 -174.31344068 777.43765307 -175.93969727 780.27392578 C-177.6157401 783.18904231 -179.30244086 786.09736731 -181 789 C-181.72872314 790.24910156 -181.72872314 790.24910156 -182.47216797 791.5234375 C-183.58969078 793.38529501 -184.78600219 795.19956118 -186 797 C-186.66 797 -187.32 797 -188 797 C-197.30865438 776.32545191 -206.61558686 755.65019054 -215.8828125 734.95703125 C-217.81810668 730.63578342 -219.75600838 726.31572295 -221.69691467 721.99699402 C-222.90353138 719.31205127 -224.10941904 716.62678135 -225.3152771 713.9414978 C-225.88948287 712.66336208 -226.46403832 711.38538339 -227.03897095 710.10757446 C-227.83289162 708.3429639 -228.62545834 706.57774438 -229.41796875 704.8125 C-230.09508911 703.30623047 -230.09508911 703.30623047 -230.78588867 701.76953125 C-231.91281144 699.19888739 -232.97461401 696.61257008 -234 694 C-255.97945029 695.64433334 -277.88470817 698.01033372 -299.80297852 700.30938721 C-307.77171924 701.14508037 -315.74075402 701.97793719 -323.71005821 702.80823898 C-326.47724699 703.0971478 -329.24422184 703.38804421 -332.01118469 703.67910767 C-333.69209999 703.85467211 -335.37302302 704.03016253 -337.05395508 704.20556641 C-337.81897842 704.28658096 -338.58400177 704.36759552 -339.37220764 704.45106506 C-342.26490875 704.75142772 -345.08931869 705 -348 705 C-346.34587201 700.46874514 -344.10294229 696.38138882 -341.75 692.1875 C-341.31381348 691.40616699 -340.87762695 690.62483398 -340.42822266 689.81982422 C-336.24084956 682.35765465 -331.92300108 674.97276297 -327.59667969 667.59057617 C-323.01042201 659.75745932 -318.4927339 651.88692251 -314 644 C-308.46048161 634.27856294 -302.86624806 624.59104683 -297.21655273 614.93310547 C-291.06233258 604.40915375 -284.97630004 593.84619863 -278.89111328 583.28222656 C-275.76319852 577.85340058 -272.63141552 572.42680719 -269.5 567 C-268.24998121 564.83334417 -266.99998122 562.6666775 -265.75 560.5 C-258.25 547.50000001 -258.25 547.50000001 -256.37329102 544.24707031 C-255.12895002 542.09019097 -253.88464636 539.93329008 -252.64038086 537.77636719 C-249.76363263 532.78965174 -246.88655262 527.80312898 -244.0080719 522.81741333 C-233.96798192 505.42939927 -233.96798192 505.42939927 -224 488 C-224.75667969 487.24460937 -225.51335937 486.48921875 -226.29296875 485.7109375 C-227.78019082 484.22156937 -229.2649591 482.72968218 -230.73828125 481.2265625 C-233.72552228 478.18743391 -236.77269987 475.28409257 -240 472.5 C-246.56624714 466.803371 -252.18270485 460.71417031 -257.625 453.9296875 C-259.17795711 452.01403316 -260.76051457 450.12190588 -262.375 448.2578125 C-269.76347573 439.70896718 -275.9622871 430.53602876 -282 421 C-282.43844238 420.30777344 -282.87688477 419.61554688 -283.32861328 418.90234375 C-316.7418315 365.52347416 -330.73141051 299.39295403 -322 237 C-321.87641113 236.11006348 -321.75282227 235.22012695 -321.62548828 234.30322266 C-313.74469576 179.8445582 -290.18501207 129.0068188 -253.125 88.34375 C-251.17505276 86.19307289 -249.26973871 84.01175029 -247.375 81.8125 C-241.71672956 75.33475591 -235.54183003 69.57183455 -229 64 C-228.14921875 63.26007813 -227.2984375 62.52015625 -226.421875 61.7578125 C-214.1601151 51.27166264 -200.92868474 42.12971045 -186.93212891 34.11523438 C-184.94508157 32.96830081 -182.97891572 31.78997835 -181.01171875 30.609375 C-154.40314604 14.92644351 -124.24728171 5.57517394 -94 0 C-93.14116211 -0.16516113 -92.28232422 -0.33032227 -91.39746094 -0.50048828 C-62.35878398 -5.85321429 -28.97706807 -5.5517068 0 0 Z " fill="#DB9D41" transform="translate(435,3)"/>
<path d="M0 0 C0.91023926 0.30566895 1.82047852 0.61133789 2.75830078 0.92626953 C28.00568315 9.47773791 51.11720697 20.20172021 72 37 C72.99773437 37.7940625 73.99546875 38.588125 75.0234375 39.40625 C89.29849102 50.9956993 102.15991021 64.15056194 113 79 C113.6290625 79.845625 114.258125 80.69125 114.90625 81.5625 C123.59447556 93.56804804 130.75302542 106.58421495 137 120 C137.33918457 120.72670898 137.67836914 121.45341797 138.02783203 122.20214844 C150.84505164 150.07824524 155.33600358 179.08534359 155.4375 209.5625 C155.44689606 210.8852594 155.44689606 210.8852594 155.45648193 212.23474121 C155.51145252 224.4598569 154.41077826 236.02058191 152 248 C151.76587402 249.23000732 151.53174805 250.46001465 151.29052734 251.72729492 C149.60747745 260.13257511 147.26508356 268.24415032 144.5625 276.375 C144.34957306 277.01630859 144.13664612 277.65761719 143.91726685 278.31835938 C130.58581676 318.09490555 104.51232504 354.68748693 70.71484375 379.72509766 C69.05554449 380.95870539 67.41810396 382.21730975 65.78125 383.48046875 C50.11556197 395.34691535 32.25921888 403.92875669 14 411 C12.79214844 411.48082031 11.58429688 411.96164062 10.33984375 412.45703125 C-23.99523707 425.50515037 -63.1232944 426.62021038 -99 421 C-99.83160645 420.87141602 -100.66321289 420.74283203 -101.52001953 420.61035156 C-136.44065888 414.92879029 -169.8418127 398.42119685 -197 376 C-197.85585693 375.29641357 -197.85585693 375.29641357 -198.72900391 374.57861328 C-210.6359655 364.73028644 -221.55374436 354.28620709 -231 342 C-231.71494629 341.09096924 -231.71494629 341.09096924 -232.44433594 340.16357422 C-249.49973658 318.34665006 -261.60982162 292.65145777 -269 266 C-269.50466797 264.28876953 -269.50466797 264.28876953 -270.01953125 262.54296875 C-285.47920771 208.1735448 -275.96322981 150.00049538 -249.25 100.875 C-234.70488332 74.916463 -213.94899744 51.60494164 -190 34 C-189.12730469 33.35546875 -188.25460937 32.7109375 -187.35546875 32.046875 C-166.55991705 17.13051804 -143.70100806 5.78127054 -119 -1 C-117.89011719 -1.33644531 -116.78023437 -1.67289062 -115.63671875 -2.01953125 C-80.09508478 -12.04024537 -35.18594168 -12.06164582 0 0 Z " fill="#A36D1D" transform="translate(449,69)"/>
<path d="M0 0 C3.34702836 2.1823884 6.6134181 4.42850078 9.8203125 6.8125 C49.77493867 36.49227844 96.31114363 55.87424426 146 61 C146.88510254 61.0942627 147.77020508 61.18852539 148.68212891 61.28564453 C156.49835703 62.03388045 164.28168349 62.15383932 172.12548828 62.13037109 C174.23347277 62.12504178 176.34124093 62.1303354 178.44921875 62.13671875 C192.22544941 62.14564267 205.82789728 61.48227073 219.4375 59.1875 C220.51676758 59.00719238 221.59603516 58.82688477 222.70800781 58.64111328 C225.80872816 58.11137219 228.90501548 57.56219855 232 57 C233.145896 56.79383057 233.145896 56.79383057 234.31494141 56.58349609 C255.52755502 52.60391876 276.61425508 44.33155763 296 35 C297.30192432 34.39418941 298.60400707 33.78871916 299.90625 33.18359375 C317.49187563 24.8547178 333.81725794 14.20479687 348.71875 1.72265625 C351 0 351 0 353 0 C353.35078613 0.63164062 353.70157227 1.26328125 354.06298828 1.9140625 C361.70985139 15.66702135 369.48090039 29.33369051 377.4375 42.91015625 C381.1321331 49.21570419 384.78852681 55.54294436 388.4375 61.875 C389.06003662 62.95515381 389.68257324 64.03530762 390.32397461 65.14819336 C391.58576826 67.33796334 392.84740534 69.52782355 394.10888672 71.71777344 C397.23680148 77.14659942 400.36858448 82.57319281 403.5 88 C404.75001879 90.16665583 406.00001878 92.3333225 407.25 94.5 C407.86875 95.5725 408.4875 96.645 409.125 97.75 C444.75 159.5 444.75 159.5 446.62719727 162.75390625 C447.86976019 164.9076172 449.11243489 167.06126367 450.35522461 169.21484375 C453.25314623 174.23684262 456.15003349 179.25942807 459.04275513 184.28442383 C460.05947198 186.05045522 461.07655658 187.81627431 462.09375 189.58203125 C463.36400873 191.78734155 464.63359018 193.99304216 465.90234375 196.19921875 C466.48242188 197.20597656 467.0625 198.21273437 467.66015625 199.25 C468.49184326 200.69439453 468.49184326 200.69439453 469.34033203 202.16796875 C471.46964934 205.80140222 473.68759761 209.37766114 475.93139648 212.94140625 C477 215 477 215 477 218 C464.20305479 216.73426141 451.40644023 215.46523458 438.61022758 214.19211006 C432.66722861 213.60092964 426.72412522 213.01084521 420.78076172 212.42333984 C415.03573663 211.85539838 409.29101411 211.28448091 403.54648209 210.71157455 C401.36436418 210.4944639 399.18214267 210.27839178 396.99981308 210.06341934 C385.62604333 208.94234617 374.29338855 207.77911123 363 206 C362.82721527 206.5498053 362.65443054 207.0996106 362.47640991 207.66607666 C360.70747391 213.14994592 358.62273311 218.37271764 356.2265625 223.609375 C355.8665062 224.4058696 355.50644989 225.2023642 355.13548279 226.022995 C353.96931672 228.60049459 352.79713315 231.17520931 351.625 233.75 C350.80997747 235.54933957 349.99544783 237.34890248 349.18139648 239.14868164 C347.55128394 242.7517977 345.91928646 246.35404924 344.28564453 249.95556641 C341.1937698 256.77505097 338.12574647 263.60512033 335.0625 270.4375 C334.54848633 271.57960938 334.03447266 272.72171875 333.50488281 273.8984375 C330.9088773 279.6791647 328.35671516 285.47500833 325.86328125 291.30078125 C325.35982178 292.4700415 324.8563623 293.63930176 324.33764648 294.84399414 C323.38635776 297.05922181 322.44396288 299.27829722 321.51196289 301.50170898 C321.09293701 302.47567627 320.67391113 303.44964355 320.2421875 304.453125 C319.8797998 305.31067383 319.51741211 306.16822266 319.14404297 307.05175781 C318 309 318 309 315 310 C314.51926025 309.14341797 314.51926025 309.14341797 314.02880859 308.26953125 C307.26667374 296.23307472 300.42357766 284.25006938 293.44482422 272.33789062 C288.91083939 264.58812816 284.44456994 256.80119898 280 249 C274.46031101 239.27865901 268.86624937 229.59104908 263.21655273 219.93310547 C257.06233258 209.40915375 250.97630004 198.84619863 244.89111328 188.28222656 C241.76319852 182.85340058 238.63141552 177.42680719 235.5 172 C234.24998121 169.83334417 232.99998122 167.6666775 231.75 165.5 C231.13125 164.4275 230.5125 163.355 229.875 162.25 C209.25 126.5 209.25 126.5 207.37280273 123.24609375 C206.13023981 121.0923828 204.88756511 118.93873633 203.64477539 116.78515625 C200.74685377 111.76315738 197.84996651 106.74057193 194.95724487 101.71557617 C193.94052802 99.94954478 192.92344342 98.18372569 191.90625 96.41796875 C190.63599127 94.21265845 189.36640982 92.00695784 188.09765625 89.80078125 C182.81421633 79.33203005 182.81421633 79.33203005 176 70 C175.62415771 70.65145996 175.24831543 71.30291992 174.86108398 71.97412109 C151.05554199 113.23706055 151.05554199 113.23706055 127.25 154.5 C126.63116943 155.57266113 126.01233887 156.64532227 125.37475586 157.75048828 C124.12564482 159.91557071 122.87645871 162.08060982 121.62719727 164.24560547 C118.48797691 169.68615706 115.35009437 175.12747216 112.21484375 180.5703125 C106.19252671 191.02206199 100.15330663 201.46299548 94.0625 211.875 C88.98724877 220.55262241 83.97741233 229.26605568 79 238 C73.46745528 247.70804391 67.88349244 257.38409497 62.23852539 267.02734375 C59.13083217 272.33881943 56.03800411 277.65840354 52.96875 282.9921875 C52.46245811 283.87174606 52.46245811 283.87174606 51.94593811 284.76907349 C50.3152709 287.60281236 48.68655932 290.43765307 47.06030273 293.27392578 C45.3842599 296.18904231 43.69755914 299.09736731 42 302 C41.51418457 302.83273437 41.02836914 303.66546875 40.52783203 304.5234375 C39.41030922 306.38529501 38.21399781 308.19956118 37 310 C36.34 310 35.68 310 35 310 C25.69134562 289.32545191 16.38441314 268.65019054 7.1171875 247.95703125 C5.18189332 243.63578342 3.24399162 239.31572295 1.30308533 234.99699402 C0.09646862 232.31205127 -1.10941904 229.62678135 -2.3152771 226.9414978 C-2.88948287 225.66336208 -3.46403832 224.38538339 -4.03897095 223.10757446 C-4.83289162 221.3429639 -5.62545834 219.57774438 -6.41796875 217.8125 C-7.09508911 216.30623047 -7.09508911 216.30623047 -7.78588867 214.76953125 C-8.91281144 212.19888739 -9.97461401 209.61257008 -11 207 C-32.97945029 208.64433334 -54.88470817 211.01033372 -76.80297852 213.30938721 C-84.77171924 214.14508037 -92.74075402 214.97793719 -100.71005821 215.80823898 C-103.47724699 216.0971478 -106.24422184 216.38804421 -109.01118469 216.67910767 C-110.69209999 216.85467211 -112.37302302 217.03016253 -114.05395508 217.20556641 C-114.81897842 217.28658096 -115.58400177 217.36759552 -116.37220764 217.45106506 C-119.26490875 217.75142772 -122.08931869 218 -125 218 C-123.34587201 213.46874514 -121.10294229 209.38138882 -118.75 205.1875 C-118.31381348 204.40616699 -117.87762695 203.62483398 -117.42822266 202.81982422 C-113.24084956 195.35765465 -108.92300108 187.97276297 -104.59667969 180.59057617 C-100.01042201 172.75745932 -95.4927339 164.88692251 -91 157 C-85.46048161 147.27856294 -79.86624806 137.59104683 -74.21655273 127.93310547 C-68.06233258 117.40915375 -61.97630004 106.84619863 -55.89111328 96.28222656 C-52.76319852 90.85340058 -49.63141552 85.42680719 -46.5 80 C-45.24998121 77.83334417 -43.99998122 75.6666775 -42.75 73.5 C-39 67 -39 67 -35.25 60.5 C-34.3211499 58.88992065 -34.3211499 58.88992065 -33.37353516 57.24731445 C-32.12858718 55.08950197 -30.8834711 52.93178647 -29.63818359 50.77416992 C-26.43447349 45.22283408 -23.2340637 39.66963459 -20.0390625 34.11328125 C-13.46078718 22.67967041 -6.86060273 11.26700611 0 0 Z " fill="#8E5EAB" transform="translate(212,490)"/>
<path d="M0 0 C3.78485664 1.26161888 4.27119872 2.95404428 6.00531006 6.38851929 C6.38254211 7.16095978 6.75977417 7.93340027 7.1484375 8.72924805 C7.55370667 9.53905624 7.95897583 10.34886444 8.37652588 11.18321228 C9.71888154 13.87141684 11.04691019 16.56644148 12.375 19.26171875 C13.30430274 21.12965111 14.23449053 22.99714339 15.16552734 24.86421204 C17.61944398 29.79116622 20.06130213 34.7240029 22.50073242 39.65814209 C24.97771034 44.66302099 27.46584454 49.66234488 29.953125 54.66210938 C33.9745488 62.74894513 37.98905976 70.839167 41.99468994 78.93383789 C42.34787292 79.64742966 42.70105591 80.36102142 43.06494141 81.09623718 C43.39359192 81.76250814 43.72224243 82.42877911 44.06085205 83.1152401 C44.94278706 84.88518033 45.85018847 86.64236597 46.75927734 88.39851379 C48 91 48 91 48 93 C48.56094864 92.980513 49.12189728 92.961026 49.69984436 92.94094849 C57.20323691 92.79931556 64.44512174 93.67332279 71.87109375 94.6796875 C73.20125662 94.85489026 74.53150471 95.02944717 75.86183167 95.20339966 C79.34863504 95.66074197 82.83443432 96.12530272 86.32000732 96.59191895 C91.85165774 97.3314282 97.38462211 98.06103462 102.91780472 98.78897858 C104.25793842 98.96562677 105.59798391 99.14294544 106.93793869 99.32094574 C115.83455837 100.50242678 124.72966076 101.59160314 133.67588806 102.32321167 C138.78715369 102.78715369 138.78715369 102.78715369 141 105 C139.82244141 106.2684375 139.82244141 106.2684375 138.62109375 107.5625 C133.58005555 113.00200114 128.55413762 118.44352629 123.69921875 124.05078125 C119.4253204 128.95348303 115.03080529 133.75112166 110.671875 138.578125 C106.68295423 143.00121401 102.72432093 147.44615005 98.8125 151.9375 C96.72788836 154.30964429 94.61571356 156.65556065 92.5 159 C89.67455334 162.13455536 86.85495597 165.27349064 84.0625 168.4375 C83.51722656 169.05496094 82.97195313 169.67242187 82.41015625 170.30859375 C79.674988 173.55215289 79.674988 173.55215289 78.9455719 177.61747742 C79.72615633 186.05884866 80.86567871 194.40093274 82.21484375 202.76953125 C82.43317669 204.14420598 82.65115121 205.51893768 82.86878967 206.89372253 C83.32193509 209.74893615 83.77859985 212.6035559 84.23803711 215.45776367 C84.82342261 219.09555291 85.40096633 222.73453445 85.97603512 226.37396717 C86.42373713 229.20298993 86.87499669 232.03143623 87.32736397 234.85971642 C87.64471865 236.84678779 87.95958939 238.83425536 88.2743988 240.82173157 C89.26791532 246.97348191 90.38715724 252.98127833 92 259 C92.40823117 261.20243239 92.78561449 263.4109136 93.125 265.625 C93.29257812 266.68976563 93.46015625 267.75453125 93.6328125 268.8515625 C93.99228992 271.9338902 94.06516336 274.90008591 94 278 C88.43168932 276.33863517 83.34226836 273.8933553 78.125 271.375 C77.19316895 270.92769531 76.26133789 270.48039062 75.30126953 270.01953125 C64.87193969 264.99886295 54.50815102 259.87891989 44.2902832 254.43969727 C33.45374854 248.67228144 22.4457966 243.31251538 11.32177734 238.12158203 C9.41098476 237.1985346 7.55016892 236.17275356 5.70703125 235.12109375 C1.8069103 233.50589214 -1.06409901 234.20454686 -4.94590187 235.79956245 C-7.23508364 236.87497388 -9.49027452 238.0035493 -11.7434082 239.15258789 C-12.60099228 239.58189102 -13.45857635 240.01119415 -14.34214783 240.45350647 C-17.16550084 241.86911382 -19.98306107 243.29587463 -22.80078125 244.72265625 C-24.76241243 245.70847344 -26.72442877 246.69352458 -28.68681335 247.67784119 C-33.84376486 250.26677337 -38.99601022 252.86493192 -44.14715576 255.46539307 C-52.40895189 259.63396712 -60.67830096 263.78754819 -68.94673729 267.94293022 C-71.84026022 269.39857506 -74.73208597 270.85754606 -77.62361145 272.31715393 C-79.38357708 273.20374197 -81.14356043 274.09029483 -82.90356445 274.97680664 C-84.11832962 275.59159882 -84.11832962 275.59159882 -85.3576355 276.21881104 C-90.88678514 279 -90.88678514 279 -92 279 C-90.88520725 271.11014422 -89.67716445 263.23495793 -88.47094727 255.35864258 C-88.19949249 253.5833965 -87.9289787 251.80800626 -87.65942383 250.0324707 C-85.09555788 233.14729126 -85.09555788 233.14729126 -83.52954102 225.71704102 C-82.13412368 218.55724408 -81.08406875 211.32803516 -79.9375 204.125 C-79.40695419 200.7939461 -78.8740545 197.46328035 -78.33984375 194.1328125 C-78.22003647 193.37549835 -78.10022919 192.6181842 -77.97679138 191.83792114 C-77.44379227 188.51498748 -76.84159571 185.25756387 -76 182 C-75.50106786 177.55075976 -75.52325683 175.66813012 -78.16015625 171.97265625 C-79.11077293 170.98610446 -80.0792077 170.01648783 -81.0625 169.0625 C-82.08269535 168.01496927 -83.10222741 166.96679217 -84.12109375 165.91796875 C-84.61851074 165.41700684 -85.11592773 164.91604492 -85.62841797 164.39990234 C-87.37070345 162.6216423 -89.00415705 160.76406756 -90.625 158.875 C-94.68740725 154.19355926 -98.84597333 149.60009665 -103 145 C-107.77033937 139.71740942 -112.51894407 134.42065865 -117.1953125 129.0546875 C-119.23802091 126.7290065 -121.30389706 124.42542922 -123.375 122.125 C-124.12523437 121.29097656 -124.87546875 120.45695312 -125.6484375 119.59765625 C-127.27022696 117.80614464 -128.90101154 116.02274902 -130.5390625 114.24609375 C-131.35117187 113.36050781 -132.16328125 112.47492188 -133 111.5625 C-134.11375 110.35787109 -134.11375 110.35787109 -135.25 109.12890625 C-137 107 -137 107 -138 104 C-130.37628956 102.26657108 -122.73830532 101.31829576 -114.97018433 100.48703003 C-112.74918546 100.24304465 -110.53105269 99.98042979 -108.31274414 99.71313477 C-100.14425407 98.73885011 -91.99326212 97.8975166 -83.78663635 97.31204224 C-79.54372283 96.99523185 -75.30897563 96.60566908 -71.0730896 96.20666504 C-68.9997779 96.02868798 -66.92347983 95.88237269 -64.84561157 95.76940918 C-53.62033404 95.4339816 -53.62033404 95.4339816 -44.19338989 90.16326904 C-40.95753004 85.58015726 -38.86715319 80.57838757 -36.90402222 75.34695435 C-35.6822158 72.17499261 -34.15933394 69.26816073 -32.56640625 66.265625 C-31.56250245 64.26171795 -30.56119106 62.25651003 -29.5625 60.25 C-29.0166626 59.1563916 -28.4708252 58.0627832 -27.90844727 56.93603516 C-23.89256646 48.86230179 -19.98366098 40.74106724 -16.11816406 32.59448242 C-10.9103413 21.64791448 -5.4583579 10.82327539 0 0 Z " fill="#FDDE69" transform="translate(388,127)"/>
<path d="M0 0 C0.35078613 0.63164062 0.70157227 1.26328125 1.06298828 1.9140625 C8.70985139 15.66702135 16.48090039 29.33369051 24.4375 42.91015625 C28.1321331 49.21570419 31.78852681 55.54294436 35.4375 61.875 C36.06003662 62.95515381 36.68257324 64.03530762 37.32397461 65.14819336 C38.58576826 67.33796334 39.84740534 69.52782355 41.10888672 71.71777344 C44.23680148 77.14659942 47.36858448 82.57319281 50.5 88 C51.75001879 90.16665583 53.00001878 92.3333225 54.25 94.5 C55.178125 96.10875 55.178125 96.10875 56.125 97.75 C91.75 159.5 91.75 159.5 93.62719727 162.75390625 C94.86976019 164.9076172 96.11243489 167.06126367 97.35522461 169.21484375 C100.25314623 174.23684262 103.15003349 179.25942807 106.04275513 184.28442383 C107.05947198 186.05045522 108.07655658 187.81627431 109.09375 189.58203125 C110.36400873 191.78734155 111.63359018 193.99304216 112.90234375 196.19921875 C113.48242188 197.20597656 114.0625 198.21273437 114.66015625 199.25 C115.21461426 200.21292969 115.76907227 201.17585937 116.34033203 202.16796875 C118.46964934 205.80140222 120.68759761 209.37766114 122.93139648 212.94140625 C124 215 124 215 124 218 C111.20305479 216.73426141 98.40644023 215.46523458 85.61022758 214.19211006 C79.66722861 213.60092964 73.72412522 213.01084521 67.78076172 212.42333984 C62.03573663 211.85539838 56.29101411 211.28448091 50.54648209 210.71157455 C48.36436418 210.4944639 46.18214267 210.27839178 43.99981308 210.06341934 C38.15777387 209.48758973 32.3181896 208.89494337 26.48177528 208.26448822 C24.89169423 208.0950298 23.30095078 207.9316121 21.70946312 207.77591705 C19.73473785 207.58127399 17.76279907 207.35890728 15.79125977 207.13427734 C14.74688248 207.02272308 13.70250519 206.91116882 12.6264801 206.79623413 C8.27206379 205.47616516 6.64148534 202.47516515 4.55493164 198.61376953 C3.81617798 197.07245361 3.81617798 197.07245361 3.0625 195.5 C1.89697416 193.2988747 0.73026713 191.09837454 -0.4375 188.8984375 C-1.02144531 187.75729492 -1.60539063 186.61615234 -2.20703125 185.44042969 C-5.09767471 179.89373203 -8.27856074 174.52181172 -11.4375 169.125 C-12.69833537 166.94109673 -13.95744205 164.75619454 -15.21484375 162.5703125 C-18.97355381 156.04513757 -22.7364175 149.5223655 -26.5 143 C-27.75001879 140.83334417 -29.00001878 138.6666775 -30.25 136.5 C-30.86875 135.4275 -31.4875 134.355 -32.125 133.25 C-39 121.33333333 -45.875 109.41666667 -52.75 97.5 C-53.67969604 95.88871216 -53.67969604 95.88871216 -54.62817383 94.24487305 C-55.86802723 92.09554585 -57.1074535 89.94597219 -58.34643555 87.79614258 C-61.27163763 82.72165511 -64.20111723 77.64978383 -67.14590454 72.5866394 C-68.5354863 70.19684332 -69.92262172 67.80563164 -71.30957031 65.41430664 C-72.28863253 63.72859411 -73.27122606 62.04493413 -74.25390625 60.36132812 C-74.846875 59.33845703 -75.43984375 58.31558594 -76.05078125 57.26171875 C-76.57325439 56.36412842 -77.09572754 55.46653809 -77.6340332 54.54174805 C-79 52 -79 52 -80.05932617 49.23364258 C-80.7833507 46.83718477 -80.7833507 46.83718477 -83 46 C-82.12601562 45.65388672 -82.12601562 45.65388672 -81.234375 45.30078125 C-53.47738044 34.25908373 -27.38511766 20.9632256 -4.27734375 1.734375 C-2 0 -2 0 0 0 Z " fill="#A974CA" transform="translate(565,490)"/>
<path d="M0 0 C3.34702836 2.1823884 6.6134181 4.42850078 9.8203125 6.8125 C31.73607771 23.09234337 55.47071286 36.22802406 81 46 C79.62551133 49.63632623 77.99565142 52.97064121 76.09375 56.359375 C75.23342163 57.89549438 75.23342163 57.89549438 74.35571289 59.46264648 C73.74332764 60.54747314 73.13094238 61.6322998 72.5 62.75 C71.86634521 63.87672119 71.23269043 65.00344238 70.57983398 66.16430664 C66.74999436 72.95517743 62.86664399 79.70984746 58.8894043 86.4152832 C55.14695337 92.72724525 51.47596521 99.07941601 47.8125 105.4375 C46.85549194 107.09833618 46.85549194 107.09833618 45.87915039 108.79272461 C44.57110523 111.06337068 43.26324552 113.33412358 41.95556641 115.60498047 C38.80667946 121.0716998 35.65316736 126.53574887 32.5 132 C31.2499765 134.16665311 29.99997653 136.33331979 28.75 138.5 C26.25 142.83333333 23.75 147.16666667 21.25 151.5 C20.6305249 152.57386963 20.0110498 153.64773926 19.37280273 154.75415039 C18.13052194 156.90721037 16.88785012 159.06004478 15.64477539 161.21264648 C12.74163888 166.24101461 9.84221133 171.27139814 6.95724487 176.31021118 C5.94122816 178.08432545 4.92393072 179.85769919 3.90625 181.63085938 C2.63417708 183.84815314 1.36447715 186.06681075 0.09765625 188.28710938 C-1.04909838 190.28373661 -2.21263828 192.27084392 -3.39501953 194.24658203 C-5.01987502 196.94657474 -5.01987502 196.94657474 -6.27294922 199.67138672 C-7.64381288 202.28347294 -8.83303913 203.99396857 -11 206 C-13.60824585 206.73252869 -13.60824585 206.73252869 -16.81005859 207.09350586 C-18.06578171 207.24201492 -19.32150482 207.39052399 -20.61528015 207.54353333 C-22.07676078 207.69657631 -23.53834056 207.84867438 -25 208 C-26.66099502 208.18320241 -28.32190515 208.36717561 -29.98274231 208.55180359 C-35.81247448 209.19025009 -41.64624331 209.78708108 -47.48046875 210.3828125 C-49.62805679 210.60395953 -51.7756242 210.82530701 -53.923172 211.04684448 C-58.39334969 211.50739366 -62.86371179 211.96609365 -67.33422852 212.42333984 C-73.06889017 213.00995571 -78.80314906 213.60040616 -84.53728771 214.19211006 C-88.9576846 214.64797698 -93.37824108 215.10227967 -97.79885292 215.55605698 C-99.91484833 215.77337208 -102.03080395 215.99107499 -104.14671898 216.2091713 C-107.09009004 216.51223341 -110.03365879 216.8132944 -112.97729492 217.11376953 C-114.28865669 217.24931747 -114.28865669 217.24931747 -115.62651062 217.38760376 C-118.76431093 217.70626562 -121.84374419 218 -125 218 C-123.34587201 213.46874514 -121.10294229 209.38138882 -118.75 205.1875 C-118.31381348 204.40616699 -117.87762695 203.62483398 -117.42822266 202.81982422 C-113.24084956 195.35765465 -108.92300108 187.97276297 -104.59667969 180.59057617 C-100.01042201 172.75745932 -95.4927339 164.88692251 -91 157 C-85.46048161 147.27856294 -79.86624806 137.59104683 -74.21655273 127.93310547 C-68.06233258 117.40915375 -61.97630004 106.84619863 -55.89111328 96.28222656 C-52.76319852 90.85340058 -49.63141552 85.42680719 -46.5 80 C-45.24998121 77.83334417 -43.99998122 75.6666775 -42.75 73.5 C-39 67 -39 67 -35.25 60.5 C-34.3211499 58.88992065 -34.3211499 58.88992065 -33.37353516 57.24731445 C-32.12858718 55.08950197 -30.8834711 52.93178647 -29.63818359 50.77416992 C-26.43447349 45.22283408 -23.2340637 39.66963459 -20.0390625 34.11328125 C-13.46078718 22.67967041 -6.86060273 11.26700611 0 0 Z " fill="#73478D" transform="translate(212,490)"/>
<path d="M0 0 C0.91023926 0.30566895 1.82047852 0.61133789 2.75830078 0.92626953 C28.00568315 9.47773791 51.11720697 20.20172021 72 37 C72.99773437 37.7940625 73.99546875 38.588125 75.0234375 39.40625 C89.29849102 50.9956993 102.15991021 64.15056194 113 79 C113.6290625 79.845625 114.258125 80.69125 114.90625 81.5625 C118.45707639 86.46909646 121.66056963 91.58171496 124.8125 96.75 C125.19809082 97.37640381 125.58368164 98.00280762 125.98095703 98.64819336 C128.19123245 102.33410942 129.79433886 105.84078802 131 110 C127.6097977 106.92762917 125.00661457 103.6845726 122.375 99.9375 C118.46838976 94.44893542 114.12838227 89.6160852 109.515625 84.7265625 C107 82 107 82 104.88671875 79.34375 C102.63156019 76.54231079 100.15566437 74.37832378 97.421875 72.05859375 C95.7021815 70.59685427 94.00646829 69.10669298 92.328125 67.59765625 C59.55729535 38.43036018 17.29999497 21.27576509 -26 16 C-26.75812988 15.9057373 -27.51625977 15.81147461 -28.29736328 15.71435547 C-47.54134343 13.54158534 -66.98389301 14.60559879 -86 18 C-86.77504883 18.12858398 -87.55009766 18.25716797 -88.34863281 18.38964844 C-130.19305101 25.42036941 -169.14686039 46.12468142 -199.50927734 75.55615234 C-200.9496267 76.95121066 -202.40619733 78.32946078 -203.86328125 79.70703125 C-229.5615812 104.53297024 -249.1710896 139.33329809 -257.49414062 173.96484375 C-257.9740048 175.89541698 -258.52419965 177.80810892 -259.078125 179.71875 C-269.73754751 217.58356429 -267.86382551 263.99247564 -253.1875 300.75 C-252 304 -252 304 -253 307 C-278.51840692 251.76978061 -285.47098348 192.93697386 -264.71875 134.52734375 C-249.95549873 94.75535375 -224.27062615 59.1923854 -190 34 C-189.12730469 33.35546875 -188.25460937 32.7109375 -187.35546875 32.046875 C-166.55991705 17.13051804 -143.70100806 5.78127054 -119 -1 C-117.89011719 -1.33644531 -116.78023437 -1.67289062 -115.63671875 -2.01953125 C-80.09508478 -12.04024537 -35.18594168 -12.06164582 0 0 Z " fill="#744C12" transform="translate(449,69)"/>
</svg>
