<?xml version="1.0" encoding="UTF-8"?>
<svg xmlns="http://www.w3.org/2000/svg" xmlns:xlink="http://www.w3.org/1999/xlink" width="50px" height="px" viewBox="0 0 50 50" version="1.1">
<g id="surface1">
<path style=" stroke:none;fill-rule:nonzero;fill:rgb(85.882354%,61.56863%,25.490198%);fill-opacity:1;" d="M 27.1875 0.1875 C 27.246094 0.199219 27.300781 0.207031 27.359375 0.21875 C 30.265625 0.757812 32.972656 1.992188 35.25 3.875 C 35.285156 3.902344 35.320312 3.933594 35.355469 3.960938 C 36.210938 4.664062 37.007812 5.4375 37.6875 6.3125 C 37.742188 6.378906 37.796875 6.445312 37.851562 6.511719 C 38.570312 7.398438 39.15625 8.363281 39.6875 9.375 C 39.726562 9.445312 39.726562 9.445312 39.765625 9.519531 C 41.011719 11.882812 41.574219 14.597656 41.578125 17.257812 C 41.578125 17.332031 41.578125 17.332031 41.578125 17.40625 C 41.574219 21.152344 40.324219 25.019531 37.9375 27.9375 C 37.890625 27.996094 37.84375 28.054688 37.796875 28.113281 C 37.089844 28.996094 36.300781 29.898438 35.375 30.5625 C 35.410156 30.8125 35.488281 30.988281 35.617188 31.203125 C 35.652344 31.269531 35.691406 31.332031 35.730469 31.398438 C 35.769531 31.464844 35.808594 31.535156 35.851562 31.605469 C 35.894531 31.679688 35.9375 31.75 35.980469 31.824219 C 36.066406 31.972656 36.15625 32.125 36.242188 32.277344 C 36.445312 32.621094 36.644531 32.964844 36.84375 33.3125 C 36.921875 33.449219 37 33.582031 37.078125 33.71875 C 41.296875 41.03125 41.296875 41.03125 41.414062 41.234375 C 41.492188 41.367188 41.570312 41.503906 41.648438 41.636719 C 41.832031 41.957031 42.011719 42.273438 42.195312 42.589844 C 42.285156 42.742188 42.371094 42.894531 42.457031 43.042969 C 42.519531 43.148438 42.578125 43.257812 42.640625 43.363281 C 42.679688 43.429688 42.714844 43.492188 42.753906 43.558594 C 42.785156 43.613281 42.820312 43.671875 42.851562 43.730469 C 42.917969 43.84375 42.988281 43.953125 43.0625 44.0625 C 43.0625 44.125 43.0625 44.1875 43.0625 44.25 C 42.261719 44.171875 41.464844 44.089844 40.664062 44.011719 C 40.292969 43.976562 39.921875 43.9375 39.546875 43.902344 C 39.191406 43.867188 38.832031 43.832031 38.472656 43.792969 C 38.335938 43.78125 38.199219 43.765625 38.0625 43.753906 C 37.351562 43.683594 36.644531 43.609375 35.9375 43.5 C 35.925781 43.535156 35.914062 43.570312 35.90625 43.605469 C 35.792969 43.945312 35.664062 44.273438 35.515625 44.601562 C 35.492188 44.648438 35.46875 44.699219 35.445312 44.75 C 35.375 44.914062 35.300781 45.074219 35.226562 45.234375 C 35.175781 45.347656 35.125 45.460938 35.074219 45.570312 C 34.972656 45.796875 34.871094 46.023438 34.769531 46.246094 C 34.574219 46.671875 34.382812 47.101562 34.191406 47.527344 C 34.160156 47.597656 34.128906 47.671875 34.09375 47.742188 C 33.933594 48.105469 33.773438 48.46875 33.617188 48.832031 C 33.585938 48.90625 33.554688 48.976562 33.519531 49.054688 C 33.460938 49.191406 33.402344 49.328125 33.34375 49.46875 C 33.316406 49.53125 33.292969 49.589844 33.265625 49.652344 C 33.242188 49.707031 33.21875 49.761719 33.195312 49.816406 C 33.125 49.9375 33.125 49.9375 32.9375 50 C 32.90625 49.945312 32.90625 49.945312 32.875 49.890625 C 32.453125 49.140625 32.027344 48.390625 31.589844 47.644531 C 31.308594 47.160156 31.027344 46.675781 30.75 46.1875 C 30.402344 45.578125 30.054688 44.972656 29.699219 44.371094 C 29.316406 43.714844 28.9375 43.054688 28.554688 42.394531 C 28.359375 42.054688 28.164062 41.714844 27.96875 41.375 C 27.890625 41.238281 27.8125 41.105469 27.734375 40.96875 C 27.695312 40.902344 27.65625 40.835938 27.617188 40.765625 C 26.328125 38.53125 26.328125 38.53125 26.210938 38.328125 C 26.132812 38.191406 26.054688 38.058594 25.976562 37.925781 C 25.796875 37.609375 25.617188 37.296875 25.433594 36.980469 C 25.371094 36.871094 25.308594 36.761719 25.242188 36.652344 C 25.164062 36.511719 25.085938 36.375 25.007812 36.238281 C 24.675781 35.582031 24.675781 35.582031 24.25 35 C 24.214844 35.0625 24.214844 35.0625 24.179688 35.125 C 23.1875 36.84375 22.195312 38.5625 21.203125 40.28125 C 21.164062 40.347656 21.125 40.414062 21.085938 40.484375 C 21.007812 40.621094 20.929688 40.753906 20.851562 40.890625 C 20.65625 41.230469 20.460938 41.570312 20.261719 41.910156 C 19.886719 42.5625 19.507812 43.214844 19.128906 43.867188 C 18.8125 44.410156 18.5 44.953125 18.1875 45.5 C 17.839844 46.105469 17.492188 46.710938 17.140625 47.3125 C 16.945312 47.644531 16.753906 47.980469 16.5625 48.3125 C 16.527344 48.367188 16.527344 48.367188 16.496094 48.421875 C 16.394531 48.601562 16.292969 48.777344 16.191406 48.953125 C 16.085938 49.136719 15.980469 49.320312 15.875 49.5 C 15.828125 49.578125 15.828125 49.578125 15.78125 49.65625 C 15.714844 49.773438 15.636719 49.886719 15.5625 50 C 15.519531 50 15.480469 50 15.4375 50 C 14.855469 48.707031 14.273438 47.414062 13.695312 46.121094 C 13.574219 45.851562 13.453125 45.582031 13.332031 45.3125 C 13.257812 45.144531 13.179688 44.976562 13.105469 44.808594 C 13.070312 44.730469 13.035156 44.648438 12.996094 44.570312 C 12.949219 44.457031 12.898438 44.347656 12.847656 44.238281 C 12.804688 44.144531 12.804688 44.144531 12.761719 44.046875 C 12.691406 43.886719 12.625 43.726562 12.5625 43.5625 C 11.1875 43.664062 9.820312 43.8125 8.449219 43.957031 C 7.953125 44.007812 7.453125 44.0625 6.957031 44.113281 C 6.78125 44.132812 6.609375 44.148438 6.4375 44.167969 C 6.332031 44.179688 6.226562 44.1875 6.121094 44.199219 C 6.074219 44.207031 6.027344 44.210938 5.976562 44.214844 C 5.796875 44.234375 5.621094 44.25 5.4375 44.25 C 5.539062 43.964844 5.679688 43.710938 5.828125 43.449219 C 5.855469 43.398438 5.882812 43.351562 5.910156 43.300781 C 6.171875 42.835938 6.441406 42.375 6.710938 41.910156 C 7 41.421875 7.28125 40.929688 7.5625 40.4375 C 7.910156 39.828125 8.257812 39.222656 8.613281 38.621094 C 8.996094 37.964844 9.375 37.304688 9.757812 36.644531 C 9.953125 36.304688 10.148438 35.964844 10.34375 35.625 C 10.421875 35.488281 10.5 35.355469 10.578125 35.21875 C 11.046875 34.40625 11.046875 34.40625 11.164062 34.203125 C 11.242188 34.066406 11.320312 33.933594 11.398438 33.796875 C 11.578125 33.488281 11.757812 33.175781 11.9375 32.863281 C 12.566406 31.777344 12.566406 31.777344 13.1875 30.6875 C 13.140625 30.640625 13.09375 30.59375 13.042969 30.542969 C 12.953125 30.453125 12.859375 30.359375 12.765625 30.265625 C 12.578125 30.074219 12.390625 29.894531 12.1875 29.71875 C 11.777344 29.363281 11.425781 28.980469 11.085938 28.558594 C 10.988281 28.4375 10.890625 28.320312 10.789062 28.203125 C 10.328125 27.667969 9.941406 27.097656 9.5625 26.5 C 9.535156 26.457031 9.507812 26.414062 9.480469 26.367188 C 7.390625 23.03125 6.515625 18.898438 7.0625 15 C 7.070312 14.945312 7.078125 14.890625 7.085938 14.832031 C 7.578125 11.429688 9.050781 8.25 11.367188 5.710938 C 11.488281 5.574219 11.609375 5.4375 11.726562 5.300781 C 12.082031 4.894531 12.464844 4.535156 12.875 4.1875 C 12.929688 4.140625 12.980469 4.09375 13.035156 4.046875 C 13.800781 3.390625 14.628906 2.820312 15.503906 2.320312 C 15.628906 2.246094 15.75 2.175781 15.875 2.101562 C 17.539062 1.121094 19.421875 0.535156 21.3125 0.1875 C 21.367188 0.175781 21.417969 0.167969 21.476562 0.15625 C 23.289062 -0.179688 25.375 -0.160156 27.1875 0.1875 Z M 27.1875 0.1875 "/>
<path style=" stroke:none;fill-rule:nonzero;fill:rgb(63.921571%,42.745098%,11.372549%);fill-opacity:1;" d="M 28.0625 4.3125 C 28.121094 4.332031 28.175781 4.351562 28.234375 4.371094 C 29.8125 4.90625 31.257812 5.574219 32.5625 6.625 C 32.625 6.675781 32.6875 6.722656 32.75 6.773438 C 33.644531 7.5 34.449219 8.320312 35.125 9.25 C 35.164062 9.304688 35.203125 9.355469 35.242188 9.410156 C 35.789062 10.160156 36.234375 10.972656 36.625 11.8125 C 36.644531 11.859375 36.667969 11.902344 36.6875 11.949219 C 37.492188 13.691406 37.769531 15.503906 37.777344 17.410156 C 37.777344 17.492188 37.777344 17.492188 37.777344 17.578125 C 37.78125 18.339844 37.714844 19.0625 37.5625 19.8125 C 37.546875 19.890625 37.535156 19.964844 37.519531 20.046875 C 37.414062 20.570312 37.265625 21.078125 37.097656 21.585938 C 37.085938 21.625 37.070312 21.667969 37.058594 21.707031 C 36.222656 24.195312 34.59375 26.480469 32.480469 28.046875 C 32.378906 28.121094 32.277344 28.199219 32.171875 28.28125 C 31.195312 29.023438 30.078125 29.558594 28.9375 30 C 28.863281 30.03125 28.785156 30.058594 28.707031 30.089844 C 26.5625 30.90625 24.117188 30.976562 21.875 30.625 C 21.824219 30.617188 21.769531 30.609375 21.71875 30.601562 C 19.535156 30.246094 17.449219 29.214844 15.75 27.8125 C 15.695312 27.769531 15.695312 27.769531 15.640625 27.722656 C 14.898438 27.109375 14.214844 26.457031 13.625 25.6875 C 13.582031 25.628906 13.582031 25.628906 13.535156 25.574219 C 12.46875 24.210938 11.710938 22.601562 11.25 20.9375 C 11.21875 20.832031 11.21875 20.832031 11.1875 20.722656 C 10.21875 17.324219 10.816406 13.6875 12.484375 10.617188 C 13.394531 8.996094 14.691406 7.539062 16.1875 6.4375 C 16.242188 6.398438 16.296875 6.355469 16.351562 6.316406 C 17.652344 5.382812 19.082031 4.675781 20.625 4.25 C 20.695312 4.230469 20.765625 4.207031 20.835938 4.1875 C 23.054688 3.558594 25.863281 3.558594 28.0625 4.3125 Z M 28.0625 4.3125 "/>
<path style=" stroke:none;fill-rule:nonzero;fill:rgb(55.686277%,36.862746%,67.058825%);fill-opacity:1;" d="M 13.25 30.625 C 13.460938 30.761719 13.664062 30.902344 13.863281 31.050781 C 16.359375 32.90625 19.269531 34.117188 22.375 34.4375 C 22.429688 34.445312 22.484375 34.449219 22.542969 34.457031 C 23.03125 34.503906 23.519531 34.507812 24.007812 34.507812 C 24.140625 34.507812 24.269531 34.507812 24.402344 34.507812 C 25.265625 34.507812 26.113281 34.46875 26.964844 34.324219 C 27.03125 34.3125 27.101562 34.300781 27.167969 34.289062 C 27.363281 34.257812 27.554688 34.222656 27.75 34.1875 C 27.820312 34.175781 27.820312 34.175781 27.894531 34.160156 C 29.21875 33.914062 30.539062 33.394531 31.75 32.8125 C 31.832031 32.773438 31.914062 32.738281 31.992188 32.699219 C 33.09375 32.179688 34.113281 31.511719 35.046875 30.734375 C 35.1875 30.625 35.1875 30.625 35.3125 30.625 C 35.335938 30.664062 35.355469 30.703125 35.378906 30.746094 C 35.855469 31.605469 36.34375 32.457031 36.839844 33.308594 C 37.070312 33.699219 37.300781 34.097656 37.527344 34.492188 C 37.566406 34.558594 37.605469 34.628906 37.644531 34.695312 C 37.722656 34.832031 37.804688 34.96875 37.882812 35.105469 C 38.078125 35.445312 38.273438 35.785156 38.46875 36.125 C 38.546875 36.261719 38.625 36.394531 38.703125 36.53125 C 38.742188 36.597656 38.78125 36.664062 38.820312 36.734375 C 41.046875 40.59375 41.046875 40.59375 41.164062 40.796875 C 41.242188 40.933594 41.320312 41.066406 41.398438 41.199219 C 41.578125 41.515625 41.757812 41.828125 41.941406 42.144531 C 42.003906 42.253906 42.066406 42.363281 42.132812 42.472656 C 42.210938 42.613281 42.289062 42.75 42.367188 42.886719 C 42.40625 42.949219 42.441406 43.011719 42.480469 43.078125 C 42.53125 43.167969 42.53125 43.167969 42.582031 43.261719 C 42.71875 43.488281 42.855469 43.710938 42.996094 43.933594 C 43.0625 44.0625 43.0625 44.0625 43.0625 44.25 C 42.261719 44.171875 41.464844 44.089844 40.664062 44.011719 C 40.292969 43.976562 39.921875 43.9375 39.546875 43.902344 C 39.191406 43.867188 38.832031 43.832031 38.472656 43.792969 C 38.335938 43.78125 38.199219 43.765625 38.0625 43.753906 C 37.351562 43.683594 36.644531 43.609375 35.9375 43.5 C 35.925781 43.535156 35.914062 43.570312 35.90625 43.605469 C 35.792969 43.945312 35.664062 44.273438 35.515625 44.601562 C 35.492188 44.648438 35.46875 44.699219 35.445312 44.75 C 35.375 44.914062 35.300781 45.074219 35.226562 45.234375 C 35.175781 45.347656 35.125 45.460938 35.074219 45.570312 C 34.972656 45.796875 34.871094 46.023438 34.769531 46.246094 C 34.574219 46.671875 34.382812 47.101562 34.191406 47.527344 C 34.160156 47.597656 34.128906 47.671875 34.09375 47.742188 C 33.933594 48.105469 33.773438 48.46875 33.617188 48.832031 C 33.585938 48.90625 33.554688 48.976562 33.519531 49.054688 C 33.460938 49.191406 33.402344 49.328125 33.34375 49.46875 C 33.316406 49.53125 33.292969 49.589844 33.265625 49.652344 C 33.242188 49.707031 33.21875 49.761719 33.195312 49.816406 C 33.125 49.9375 33.125 49.9375 32.9375 50 C 32.90625 49.945312 32.90625 49.945312 32.875 49.890625 C 32.453125 49.140625 32.027344 48.390625 31.589844 47.644531 C 31.308594 47.160156 31.027344 46.675781 30.75 46.1875 C 30.402344 45.578125 30.054688 44.972656 29.699219 44.371094 C 29.316406 43.714844 28.9375 43.054688 28.554688 42.394531 C 28.359375 42.054688 28.164062 41.714844 27.96875 41.375 C 27.890625 41.238281 27.8125 41.105469 27.734375 40.96875 C 27.695312 40.902344 27.65625 40.835938 27.617188 40.765625 C 26.328125 38.53125 26.328125 38.53125 26.210938 38.328125 C 26.132812 38.191406 26.054688 38.058594 25.976562 37.925781 C 25.796875 37.609375 25.617188 37.296875 25.433594 36.980469 C 25.371094 36.871094 25.308594 36.761719 25.242188 36.652344 C 25.164062 36.511719 25.085938 36.375 25.007812 36.238281 C 24.675781 35.582031 24.675781 35.582031 24.25 35 C 24.226562 35.039062 24.203125 35.082031 24.179688 35.125 C 22.691406 37.703125 22.691406 37.703125 21.203125 40.28125 C 21.164062 40.347656 21.125 40.414062 21.085938 40.484375 C 21.007812 40.621094 20.929688 40.753906 20.851562 40.890625 C 20.65625 41.230469 20.460938 41.570312 20.261719 41.910156 C 19.886719 42.5625 19.507812 43.214844 19.128906 43.867188 C 18.8125 44.410156 18.5 44.953125 18.1875 45.5 C 17.839844 46.105469 17.492188 46.710938 17.140625 47.3125 C 16.945312 47.644531 16.753906 47.980469 16.5625 48.3125 C 16.527344 48.367188 16.527344 48.367188 16.496094 48.421875 C 16.394531 48.601562 16.292969 48.777344 16.191406 48.953125 C 16.085938 49.136719 15.980469 49.320312 15.875 49.5 C 15.84375 49.550781 15.8125 49.605469 15.78125 49.65625 C 15.714844 49.773438 15.636719 49.886719 15.5625 50 C 15.519531 50 15.480469 50 15.4375 50 C 14.855469 48.707031 14.273438 47.414062 13.695312 46.121094 C 13.574219 45.851562 13.453125 45.582031 13.332031 45.3125 C 13.257812 45.144531 13.179688 44.976562 13.105469 44.808594 C 13.070312 44.730469 13.035156 44.648438 12.996094 44.570312 C 12.949219 44.457031 12.898438 44.347656 12.847656 44.238281 C 12.804688 44.144531 12.804688 44.144531 12.761719 44.046875 C 12.691406 43.886719 12.625 43.726562 12.5625 43.5625 C 11.1875 43.664062 9.820312 43.8125 8.449219 43.957031 C 7.953125 44.007812 7.453125 44.0625 6.957031 44.113281 C 6.78125 44.132812 6.609375 44.148438 6.4375 44.167969 C 6.332031 44.179688 6.226562 44.1875 6.121094 44.199219 C 6.074219 44.207031 6.027344 44.210938 5.976562 44.214844 C 5.796875 44.234375 5.621094 44.25 5.4375 44.25 C 5.539062 43.964844 5.679688 43.710938 5.828125 43.449219 C 5.855469 43.398438 5.882812 43.351562 5.910156 43.300781 C 6.171875 42.835938 6.441406 42.375 6.710938 41.910156 C 7 41.421875 7.28125 40.929688 7.5625 40.4375 C 7.910156 39.828125 8.257812 39.222656 8.613281 38.621094 C 8.996094 37.964844 9.375 37.304688 9.757812 36.644531 C 9.953125 36.304688 10.148438 35.964844 10.34375 35.625 C 10.421875 35.488281 10.5 35.355469 10.578125 35.21875 C 10.8125 34.8125 10.8125 34.8125 11.046875 34.40625 C 11.105469 34.304688 11.105469 34.304688 11.164062 34.203125 C 11.242188 34.066406 11.320312 33.933594 11.398438 33.796875 C 11.597656 33.453125 11.796875 33.105469 11.996094 32.757812 C 12.410156 32.042969 12.820312 31.328125 13.25 30.625 Z M 13.25 30.625 "/>
<path style=" stroke:none;fill-rule:nonzero;fill:rgb(99.215686%,87.058824%,41.176471%);fill-opacity:1;" d="M 24.25 7.9375 C 24.488281 8.015625 24.515625 8.121094 24.625 8.335938 C 24.648438 8.386719 24.671875 8.433594 24.695312 8.484375 C 24.722656 8.535156 24.746094 8.585938 24.773438 8.636719 C 24.859375 8.804688 24.941406 8.972656 25.023438 9.140625 C 25.082031 9.257812 25.140625 9.375 25.199219 9.492188 C 25.351562 9.800781 25.503906 10.109375 25.65625 10.417969 C 25.8125 10.730469 25.964844 11.042969 26.121094 11.355469 C 26.375 11.859375 26.625 12.363281 26.875 12.871094 C 26.898438 12.914062 26.917969 12.960938 26.941406 13.007812 C 26.960938 13.046875 26.984375 13.089844 27.003906 13.132812 C 27.058594 13.242188 27.117188 13.351562 27.171875 13.460938 C 27.25 13.625 27.25 13.625 27.25 13.75 C 27.285156 13.75 27.320312 13.746094 27.355469 13.746094 C 27.824219 13.738281 28.277344 13.792969 28.742188 13.855469 C 28.824219 13.867188 28.910156 13.875 28.992188 13.886719 C 29.210938 13.917969 29.425781 13.945312 29.644531 13.972656 C 29.992188 14.019531 30.335938 14.066406 30.683594 14.113281 C 30.765625 14.121094 30.851562 14.132812 30.933594 14.144531 C 31.488281 14.21875 32.046875 14.285156 32.605469 14.332031 C 32.925781 14.363281 32.925781 14.363281 33.0625 14.5 C 32.988281 14.578125 32.988281 14.578125 32.914062 14.660156 C 32.597656 15 32.285156 15.339844 31.980469 15.691406 C 31.714844 15.996094 31.4375 16.296875 31.167969 16.597656 C 30.917969 16.875 30.671875 17.152344 30.425781 17.433594 C 30.296875 17.582031 30.164062 17.726562 30.03125 17.875 C 29.855469 18.070312 29.679688 18.265625 29.503906 18.464844 C 29.46875 18.503906 29.4375 18.542969 29.402344 18.582031 C 29.230469 18.785156 29.230469 18.785156 29.183594 19.039062 C 29.234375 19.566406 29.304688 20.085938 29.386719 20.609375 C 29.402344 20.695312 29.414062 20.78125 29.429688 20.867188 C 29.457031 21.046875 29.484375 21.226562 29.515625 21.402344 C 29.550781 21.632812 29.585938 21.859375 29.625 22.085938 C 29.652344 22.261719 29.679688 22.441406 29.707031 22.617188 C 29.726562 22.742188 29.746094 22.863281 29.765625 22.988281 C 29.828125 23.375 29.898438 23.75 30 24.125 C 30.027344 24.261719 30.050781 24.402344 30.070312 24.539062 C 30.082031 24.605469 30.089844 24.671875 30.101562 24.742188 C 30.125 24.933594 30.128906 25.117188 30.125 25.3125 C 29.777344 25.207031 29.457031 25.054688 29.132812 24.898438 C 29.074219 24.871094 29.015625 24.84375 28.957031 24.8125 C 28.304688 24.5 27.65625 24.179688 27.019531 23.839844 C 26.339844 23.480469 25.652344 23.144531 24.957031 22.820312 C 24.839844 22.761719 24.722656 22.699219 24.605469 22.632812 C 24.363281 22.53125 24.183594 22.574219 23.941406 22.675781 C 23.796875 22.742188 23.65625 22.8125 23.515625 22.882812 C 23.460938 22.910156 23.410156 22.9375 23.355469 22.964844 C 23.175781 23.054688 23 23.144531 22.824219 23.234375 C 22.703125 23.292969 22.578125 23.355469 22.457031 23.417969 C 22.132812 23.578125 21.8125 23.742188 21.492188 23.902344 C 20.972656 24.164062 20.457031 24.425781 19.941406 24.683594 C 19.761719 24.773438 19.578125 24.867188 19.398438 24.957031 C 19.289062 25.011719 19.179688 25.066406 19.070312 25.125 C 18.992188 25.160156 18.992188 25.160156 18.914062 25.203125 C 18.570312 25.375 18.570312 25.375 18.5 25.375 C 18.570312 24.882812 18.644531 24.390625 18.71875 23.898438 C 18.738281 23.785156 18.753906 23.675781 18.769531 23.566406 C 18.929688 22.507812 18.929688 22.507812 19.03125 22.042969 C 19.117188 21.597656 19.183594 21.144531 19.253906 20.695312 C 19.285156 20.488281 19.320312 20.277344 19.355469 20.070312 C 19.359375 20.023438 19.367188 19.976562 19.375 19.925781 C 19.410156 19.71875 19.449219 19.515625 19.5 19.3125 C 19.53125 19.035156 19.53125 18.917969 19.363281 18.6875 C 19.304688 18.625 19.246094 18.5625 19.183594 18.503906 C 19.121094 18.4375 19.054688 18.371094 18.992188 18.308594 C 18.960938 18.277344 18.929688 18.246094 18.898438 18.210938 C 18.789062 18.101562 18.6875 17.984375 18.585938 17.867188 C 18.332031 17.574219 18.070312 17.289062 17.8125 17 C 17.515625 16.667969 17.21875 16.339844 16.925781 16.003906 C 16.796875 15.859375 16.667969 15.714844 16.539062 15.570312 C 16.492188 15.519531 16.445312 15.464844 16.398438 15.414062 C 16.296875 15.300781 16.195312 15.1875 16.089844 15.078125 C 16.039062 15.023438 15.988281 14.96875 15.9375 14.910156 C 15.867188 14.835938 15.867188 14.835938 15.796875 14.757812 C 15.6875 14.625 15.6875 14.625 15.625 14.4375 C 16.101562 14.328125 16.578125 14.269531 17.0625 14.21875 C 17.203125 14.203125 17.34375 14.1875 17.480469 14.167969 C 17.992188 14.109375 18.5 14.054688 19.011719 14.019531 C 19.277344 14 19.542969 13.976562 19.808594 13.949219 C 19.9375 13.9375 20.066406 13.929688 20.195312 13.921875 C 20.898438 13.902344 20.898438 13.902344 21.488281 13.574219 C 21.691406 13.285156 21.820312 12.972656 21.945312 12.648438 C 22.019531 12.449219 22.113281 12.265625 22.214844 12.078125 C 22.277344 11.953125 22.339844 11.828125 22.402344 11.703125 C 22.4375 11.636719 22.46875 11.566406 22.503906 11.496094 C 22.757812 10.992188 23 10.484375 23.242188 9.976562 C 23.566406 9.289062 23.910156 8.613281 24.25 7.9375 Z M 24.25 7.9375 "/>
<path style=" stroke:none;fill-rule:nonzero;fill:rgb(66.274512%,45.490196%,79.215688%);fill-opacity:1;" d="M 35.3125 30.625 C 35.335938 30.664062 35.355469 30.703125 35.378906 30.746094 C 35.855469 31.605469 36.34375 32.457031 36.839844 33.308594 C 37.070312 33.699219 37.300781 34.097656 37.527344 34.492188 C 37.566406 34.558594 37.605469 34.628906 37.644531 34.695312 C 37.722656 34.832031 37.804688 34.96875 37.882812 35.105469 C 38.078125 35.445312 38.273438 35.785156 38.46875 36.125 C 38.546875 36.261719 38.625 36.394531 38.703125 36.53125 C 38.761719 36.632812 38.761719 36.632812 38.820312 36.734375 C 41.046875 40.59375 41.046875 40.59375 41.164062 40.796875 C 41.242188 40.933594 41.320312 41.066406 41.398438 41.199219 C 41.578125 41.515625 41.757812 41.828125 41.941406 42.144531 C 42.003906 42.253906 42.066406 42.363281 42.132812 42.472656 C 42.210938 42.613281 42.289062 42.75 42.367188 42.886719 C 42.40625 42.949219 42.441406 43.011719 42.480469 43.078125 C 42.511719 43.136719 42.546875 43.199219 42.582031 43.261719 C 42.71875 43.488281 42.855469 43.710938 42.996094 43.933594 C 43.0625 44.0625 43.0625 44.0625 43.0625 44.25 C 42.261719 44.171875 41.464844 44.089844 40.664062 44.011719 C 40.292969 43.976562 39.921875 43.9375 39.546875 43.902344 C 39.191406 43.867188 38.832031 43.832031 38.472656 43.792969 C 38.335938 43.78125 38.199219 43.765625 38.0625 43.753906 C 37.699219 43.71875 37.332031 43.679688 36.96875 43.640625 C 36.867188 43.632812 36.769531 43.621094 36.667969 43.609375 C 36.546875 43.597656 36.421875 43.585938 36.300781 43.570312 C 36.234375 43.5625 36.167969 43.558594 36.101562 43.550781 C 35.828125 43.46875 35.726562 43.28125 35.597656 43.039062 C 35.550781 42.941406 35.550781 42.941406 35.503906 42.84375 C 35.429688 42.707031 35.359375 42.570312 35.285156 42.429688 C 35.25 42.359375 35.210938 42.289062 35.175781 42.214844 C 34.992188 41.867188 34.796875 41.53125 34.597656 41.195312 C 34.519531 41.058594 34.441406 40.921875 34.363281 40.785156 C 34.125 40.378906 33.890625 39.96875 33.65625 39.5625 C 33.578125 39.425781 33.5 39.292969 33.421875 39.15625 C 33.382812 39.089844 33.34375 39.023438 33.304688 38.953125 C 32.875 38.207031 32.445312 37.464844 32.015625 36.71875 C 31.957031 36.617188 31.957031 36.617188 31.898438 36.515625 C 31.820312 36.382812 31.742188 36.246094 31.664062 36.113281 C 31.484375 35.796875 31.300781 35.476562 31.117188 35.160156 C 31.027344 35.011719 30.941406 34.863281 30.855469 34.714844 C 30.792969 34.609375 30.734375 34.503906 30.671875 34.398438 C 30.632812 34.332031 30.597656 34.269531 30.558594 34.203125 C 30.527344 34.148438 30.492188 34.089844 30.460938 34.035156 C 30.375 33.875 30.375 33.875 30.308594 33.703125 C 30.261719 33.550781 30.261719 33.550781 30.125 33.5 C 30.179688 33.476562 30.179688 33.476562 30.234375 33.457031 C 31.96875 32.765625 33.601562 31.933594 35.046875 30.734375 C 35.1875 30.625 35.1875 30.625 35.3125 30.625 Z M 35.3125 30.625 "/>
<path style=" stroke:none;fill-rule:nonzero;fill:rgb(45.09804%,27.843139%,55.29412%);fill-opacity:1;" d="M 13.25 30.625 C 13.460938 30.761719 13.664062 30.902344 13.863281 31.050781 C 15.234375 32.066406 16.71875 32.890625 18.3125 33.5 C 18.226562 33.726562 18.125 33.9375 18.007812 34.148438 C 17.953125 34.242188 17.953125 34.242188 17.898438 34.339844 C 17.859375 34.410156 17.820312 34.476562 17.78125 34.546875 C 17.742188 34.617188 17.703125 34.6875 17.660156 34.761719 C 17.421875 35.183594 17.179688 35.605469 16.929688 36.027344 C 16.695312 36.421875 16.46875 36.816406 16.238281 37.214844 C 16.179688 37.320312 16.179688 37.320312 16.117188 37.425781 C 16.035156 37.566406 15.953125 37.707031 15.871094 37.851562 C 15.675781 38.191406 15.476562 38.535156 15.28125 38.875 C 15.203125 39.011719 15.125 39.144531 15.046875 39.28125 C 14.890625 39.550781 14.734375 39.824219 14.578125 40.09375 C 14.539062 40.160156 14.5 40.226562 14.460938 40.296875 C 14.382812 40.433594 14.304688 40.566406 14.226562 40.699219 C 14.046875 41.015625 13.863281 41.328125 13.683594 41.644531 C 13.621094 41.753906 13.558594 41.867188 13.492188 41.976562 C 13.414062 42.117188 13.335938 42.253906 13.257812 42.394531 C 13.183594 42.519531 13.113281 42.640625 13.039062 42.765625 C 12.9375 42.933594 12.9375 42.933594 12.859375 43.105469 C 12.773438 43.269531 12.699219 43.375 12.5625 43.5 C 12.398438 43.546875 12.398438 43.546875 12.199219 43.566406 C 12.121094 43.578125 12.042969 43.585938 11.960938 43.597656 C 11.871094 43.605469 11.777344 43.617188 11.6875 43.625 C 11.582031 43.636719 11.480469 43.648438 11.375 43.660156 C 11.011719 43.699219 10.648438 43.738281 10.28125 43.773438 C 10.148438 43.789062 10.015625 43.800781 9.878906 43.816406 C 9.601562 43.84375 9.320312 43.871094 9.042969 43.902344 C 8.683594 43.9375 8.324219 43.976562 7.964844 44.011719 C 7.691406 44.039062 7.414062 44.070312 7.136719 44.097656 C 7.003906 44.109375 6.875 44.125 6.742188 44.136719 C 6.558594 44.15625 6.371094 44.175781 6.1875 44.195312 C 6.105469 44.203125 6.105469 44.203125 6.023438 44.210938 C 5.828125 44.230469 5.636719 44.25 5.4375 44.25 C 5.539062 43.964844 5.679688 43.710938 5.828125 43.449219 C 5.855469 43.398438 5.882812 43.351562 5.910156 43.300781 C 6.171875 42.835938 6.441406 42.375 6.710938 41.910156 C 7 41.421875 7.28125 40.929688 7.5625 40.4375 C 7.910156 39.828125 8.257812 39.222656 8.613281 38.621094 C 8.996094 37.964844 9.375 37.304688 9.757812 36.644531 C 9.953125 36.304688 10.148438 35.964844 10.34375 35.625 C 10.421875 35.488281 10.5 35.355469 10.578125 35.21875 C 10.8125 34.8125 10.8125 34.8125 11.046875 34.40625 C 11.105469 34.304688 11.105469 34.304688 11.164062 34.203125 C 11.242188 34.066406 11.320312 33.933594 11.398438 33.796875 C 11.597656 33.453125 11.796875 33.105469 11.996094 32.757812 C 12.410156 32.042969 12.820312 31.328125 13.25 30.625 Z M 13.25 30.625 "/>
<path style=" stroke:none;fill-rule:nonzero;fill:rgb(45.490196%,29.803923%,7.058824%);fill-opacity:1;" d="M 28.0625 4.3125 C 28.121094 4.332031 28.175781 4.351562 28.234375 4.371094 C 29.8125 4.90625 31.257812 5.574219 32.5625 6.625 C 32.625 6.675781 32.6875 6.722656 32.75 6.773438 C 33.644531 7.5 34.449219 8.320312 35.125 9.25 C 35.164062 9.304688 35.203125 9.355469 35.242188 9.410156 C 35.464844 9.71875 35.667969 10.035156 35.863281 10.359375 C 35.886719 10.398438 35.910156 10.4375 35.9375 10.476562 C 36.074219 10.707031 36.175781 10.925781 36.25 11.1875 C 36.039062 10.996094 35.875 10.792969 35.710938 10.558594 C 35.464844 10.214844 35.195312 9.914062 34.90625 9.609375 C 34.75 9.4375 34.75 9.4375 34.617188 9.273438 C 34.476562 9.097656 34.320312 8.960938 34.152344 8.816406 C 34.042969 8.726562 33.9375 8.632812 33.832031 8.539062 C 31.785156 6.714844 29.144531 5.640625 26.4375 5.3125 C 26.390625 5.304688 26.34375 5.300781 26.292969 5.292969 C 25.089844 5.160156 23.875 5.226562 22.6875 5.4375 C 22.640625 5.445312 22.589844 5.453125 22.539062 5.460938 C 19.925781 5.902344 17.492188 7.195312 15.59375 9.035156 C 15.503906 9.121094 15.414062 9.207031 15.320312 9.292969 C 13.714844 10.847656 12.488281 13.019531 11.96875 15.183594 C 11.9375 15.304688 11.90625 15.425781 11.871094 15.542969 C 11.203125 17.910156 11.320312 20.8125 12.238281 23.109375 C 12.3125 23.3125 12.3125 23.3125 12.25 23.5 C 10.65625 20.046875 10.21875 16.371094 11.519531 12.71875 C 12.441406 10.234375 14.046875 8.011719 16.1875 6.4375 C 16.242188 6.398438 16.296875 6.355469 16.351562 6.316406 C 17.652344 5.382812 19.082031 4.675781 20.625 4.25 C 20.695312 4.230469 20.765625 4.207031 20.835938 4.1875 C 23.054688 3.558594 25.863281 3.558594 28.0625 4.3125 Z M 28.0625 4.3125 "/>
</g>
</svg>
